G04 DipTrace 3.3.1.3*
G04 Bottom.gbr*
%MOIN*%
G04 #@! TF.FileFunction,Copper,L2,Bot*
G04 #@! TF.Part,Single*
G04 #@! TA.AperFunction,Conductor*
%ADD13C,0.025984*%
%ADD14C,0.015748*%
G04 #@! TA.AperFunction,ComponentPad*
%ADD17C,0.076772*%
%ADD18R,0.059055X0.059055*%
%ADD19C,0.15*%
%ADD20R,0.05X0.05*%
%ADD21C,0.05*%
%ADD22C,0.06*%
%ADD23C,0.059055*%
%ADD24C,0.275591*%
%ADD25C,0.251969*%
%ADD26C,0.045996*%
%ADD27R,0.046X0.046*%
%FSLAX26Y26*%
G04*
G70*
G90*
G75*
G01*
G04 Bottom*
%LPD*%
X2388066Y1192980D2*
D13*
X2404602Y1209515D1*
Y1227889D1*
X3151452Y3049428D1*
Y3155157D1*
X3152169Y3158015D1*
X3160602Y3178350D1*
X3162117Y3180877D1*
X3208043Y3226802D1*
X3210570Y3228318D1*
X4613066Y3867980D1*
X5838066Y3142980D2*
X5826058Y3154987D1*
Y3173361D1*
X5813066Y3867980D1*
X9163066Y2142980D2*
X8123172Y2143169D1*
X8065188Y1365417D1*
X7088499Y1133491D1*
X7029519Y1118495D1*
X7010527Y1213464D1*
X6913066Y1567980D1*
X6713066Y1467980D2*
X5813066Y667980D1*
X6913066Y1567980D2*
X6713066Y1467980D1*
X2088066Y1192980D2*
X2071535Y1176448D1*
Y1158070D1*
X1813070Y667980D1*
X1413070Y3867980D2*
D14*
X2168641Y3154003D1*
X2187090Y3135554D1*
X2188665Y3119247D1*
X2193279Y3114633D1*
X2204413D1*
X2226066Y3092980D1*
X1813070Y3867980D2*
X2366413Y3125767D1*
Y3114633D1*
X2388066Y3092980D1*
X2213066Y3867980D2*
X2466413Y3125767D1*
Y3114633D1*
X2488066Y3092980D1*
X5209917Y3867980D2*
D13*
Y4098771D1*
X5609936Y4098775D1*
X6009917D1*
Y3867980D1*
X5609917D2*
X5609936Y4098775D1*
X5209917Y4098771D2*
X4810133Y4101794D1*
X2809917D1*
Y3867980D1*
X1209920D2*
Y4101546D1*
X809920D1*
Y3867980D1*
X1609920D2*
Y4101546D1*
X1209920D1*
X2009920Y3867980D2*
Y4101546D1*
X1609920D1*
X2409917Y3867980D2*
Y4101546D1*
X2009920D1*
X2809917Y4101794D2*
X2409917Y4101546D1*
X809920Y667980D2*
Y472846D1*
X1214881Y472483D1*
X1614566Y472121D1*
X2014330Y468491D1*
X6009917D1*
Y667980D1*
X6206767D2*
Y468491D1*
X6009917D1*
X6713066Y1667980D2*
X6913066D1*
X10309920Y667980D2*
Y468322D1*
X6913771Y468491D1*
X6206767D1*
X1609920Y667980D2*
X1614566Y472121D1*
X1209920Y667980D2*
X1214881Y472483D1*
X2014330Y468491D2*
X2009920Y667980D1*
X6009917Y3867980D2*
X5899680Y3102814D1*
X5763924Y2845161D1*
X5672700Y2840487D1*
X5654326D1*
X5644318Y2830480D1*
X9663066Y2142980D2*
X10160275Y1683259D1*
X10189291Y1521011D1*
X10296259Y662330D1*
X10309920Y667980D1*
X809920Y3867980D2*
X835983Y3169294D1*
X808936Y3156676D1*
X738857Y3092980D1*
X4809917Y3867980D2*
X4810133Y4101794D1*
X5763924Y2845161D2*
X5786161Y2804271D1*
X5818109Y2772322D1*
X5821609Y2770869D1*
X5867027D1*
X6421909Y2813944D1*
X6440283D1*
X6456818Y2830480D1*
X938857Y3092980D2*
X868779Y3156676D1*
X862873Y3159121D1*
X835983Y3169294D1*
X6913066Y1267980D2*
X6913771Y468491D1*
X6913066Y1667980D2*
X6976763Y1738070D1*
X6979208Y1743972D1*
X7097318Y2226767D1*
X7110818Y2351787D1*
X7237074Y2334121D1*
X7613066Y2267980D1*
X4388066Y1392980D2*
X4404602Y1409515D1*
X4422976D1*
X4430586Y1417125D1*
X4454208Y1448287D1*
X4654613Y1841574D1*
X4688535Y1875495D1*
X5169318Y2211728D1*
X2009920Y667980D2*
X2271531Y1158070D1*
Y1176444D1*
X2288066Y1192980D1*
X6456818Y2830480D2*
X6473354Y2813944D1*
X6491728D1*
X6580826Y2796621D1*
X6586728Y2794176D1*
X7110818Y2351787D1*
X10309920Y667980D2*
D3*
X5844318Y2830480D2*
D14*
X6088066Y3142980D1*
X6409917Y3867980D1*
X1013070D2*
X2068661Y3154003D1*
X2087086Y3135554D1*
X2088661Y3119247D1*
X2093275Y3114633D1*
X2104413D1*
X2126066Y3092980D1*
X6556818Y2730480D2*
X5766007Y2675987D1*
X5722629D1*
X5363066Y2692980D1*
X4963066D2*
X4420854Y2871326D1*
X4409720D1*
X4388066Y2892980D1*
X6656818Y2830480D2*
X6588066Y3142980D1*
X6809917Y3867980D1*
X9463066Y1167980D2*
X9309917Y667980D1*
X4963066Y2842980D2*
X4420854Y2971326D1*
X4409720D1*
X4388066Y2992980D1*
X9338066Y1167980D2*
X9113066Y667980D1*
X2588066Y3092980D2*
X2609720Y3114633D1*
Y3125767D1*
X3013066Y3867980D1*
X2688066Y3092980D2*
X2709720Y3114633D1*
Y3125767D1*
X3209917Y3867980D1*
X2788066Y3092980D2*
X2809720Y3114633D1*
Y3125767D1*
X3413066Y3867980D1*
X2888066Y3092980D2*
X2909720Y3114633D1*
Y3125767D1*
X3609917Y3867980D1*
X5609917Y667980D2*
X5437818Y737861D1*
X4342830Y1049314D1*
X4318291Y1059487D1*
X4310535Y1064137D1*
X4214334Y1155578D1*
X4209720Y1160192D1*
Y1171326D1*
X4188066Y1192980D1*
X5413066Y667980D2*
X5234669Y737861D1*
X4330436Y1011834D1*
X4300539Y1024228D1*
X4286129Y1032865D1*
X4145491Y1131956D1*
X4127043Y1150405D1*
X4125468Y1166712D1*
X4120854Y1171326D1*
X4109720D1*
X4088066Y1192980D1*
X7613066Y1467980D2*
X7245854Y1546326D1*
X7234720D1*
X7213066Y1567980D1*
X7613066Y1667980D2*
X7213066Y1767980D1*
X7513066D2*
X7213066Y1867980D1*
X7513066Y1967980D2*
X7213066D1*
X7613066Y2067980D2*
X7213066D1*
X6118712Y2011397D2*
X6013889Y1636905D1*
X6006255Y1618491D1*
X5853306Y1295259D1*
X5851570Y1291062D1*
X5719169Y636035D1*
X5718724Y634267D1*
X5710613Y614712D1*
X5709676Y613149D1*
X5664747Y568220D1*
X5663184Y567283D1*
X5643629Y559172D1*
X5641861Y558728D1*
X2581121D1*
X2385165Y598098D1*
X2213066Y667980D1*
X7113066Y1267980D2*
X7152043Y1610554D1*
X7170491Y1629003D1*
X7213066Y1667980D1*
X4718712Y1811397D2*
X4778472Y1713676D1*
X4780208Y1709480D1*
Y1538314D1*
X4778472Y1534117D1*
X4745991Y1501637D1*
X4447578Y1299645D1*
X4441625Y1297180D1*
X4356747D1*
X4336983Y1292928D1*
X4233672Y1292980D1*
X4226176Y1296086D1*
X4191172Y1331090D1*
X4187672Y1339515D1*
Y1747452D1*
X4190838Y1755094D1*
X4227043Y1835554D1*
X4250665Y1866712D1*
X4255279Y1871326D1*
X4266413D1*
X4288066Y1892980D1*
Y2692980D2*
X4266413Y2671326D1*
X4255279D1*
X4250665Y2666712D1*
X4227043Y2635554D1*
X4148302Y1754574D1*
Y1332393D1*
X4148794Y1330436D1*
X4156960Y1310747D1*
X4157995Y1309019D1*
X4158464Y1308377D1*
X4203464Y1263377D1*
X4205094Y1262401D1*
X4224704Y1254271D1*
X4226546Y1253806D1*
X4230558D1*
X4248893Y1235472D1*
X4289834Y1140956D1*
X4290495Y1139857D1*
X4334944Y1095409D1*
X4336043Y1094747D1*
X4355220Y1086794D1*
X4356464Y1086483D1*
X4419669D1*
X4420913Y1086794D1*
X4440090Y1094747D1*
X4441188Y1095409D1*
X5091432Y1621157D1*
X5095629Y1622893D1*
X5141794Y1624901D1*
X5145991Y1626637D1*
X5718712Y2011397D1*
Y2211397D2*
X5569318Y2211728D1*
X5718712Y2011397D2*
Y2211397D1*
X9713066Y667980D2*
Y1167980D1*
X5744318Y2730480D2*
X5363066Y2842980D1*
X4718712Y1561397D2*
X4429688Y1334251D1*
X4352165D1*
X4325082Y1332125D1*
X4245602D1*
X4227239Y1350487D1*
X4227043Y1351413D1*
Y1735554D1*
X4250665Y1766712D1*
X4255279Y1771326D1*
X4266413D1*
X4288066Y1792980D1*
X6118712Y2211397D2*
X6057216Y2034480D1*
X5974562Y1644897D1*
X5972826Y1640700D1*
X5819877Y1317468D1*
X5812243Y1299054D1*
X5812200Y1298885D1*
X5679798Y643228D1*
X5676783Y635952D1*
X5641944Y601113D1*
X5634669Y598098D1*
X2588314D1*
X2409917Y667980D1*
X9588066Y1167980D2*
X9506767Y667980D1*
X9909917D2*
X9838066Y1167980D1*
X10113070Y667980D2*
X9963066Y1167980D1*
X5209917Y667980D2*
X5037818Y737861D1*
X4317239Y974680D1*
X4283590Y988629D1*
X4281948Y989464D1*
X4263420Y1000558D1*
X4045491Y1131956D1*
X4027043Y1150405D1*
X4025468Y1166712D1*
X4020854Y1171326D1*
X4009720D1*
X3988066Y1192980D1*
X5013066Y667980D2*
X4831519Y737861D1*
X4303586Y937724D1*
X4267102Y952846D1*
X4262873Y954995D1*
X3945491Y1131956D1*
X3927043Y1150405D1*
X3925468Y1166712D1*
X3920854Y1171326D1*
X3909720D1*
X3888066Y1192980D1*
X4609917Y667980D2*
X3745491Y1131956D1*
X3727043Y1150405D1*
X3725468Y1166712D1*
X3720854Y1171326D1*
X3709720D1*
X3688066Y1192980D1*
X4806767Y667980D2*
X4250613Y917058D1*
X4243798Y920527D1*
X3845491Y1131956D1*
X3827043Y1150405D1*
X3825468Y1166712D1*
X3820854Y1171326D1*
X3809720D1*
X3788066Y1192980D1*
X4413066Y667980D2*
X3645491Y1131956D1*
X3627043Y1150405D1*
X3625468Y1166712D1*
X3620854Y1171326D1*
X3609720D1*
X3588066Y1192980D1*
X4206767Y667980D2*
X3545491Y1131956D1*
X3527043Y1150405D1*
X3525468Y1166712D1*
X3520854Y1171326D1*
X3509720D1*
X3488066Y1192980D1*
X4009917Y667980D2*
X3320854Y1171326D1*
X3309720D1*
X3288066Y1192980D1*
X3813066Y667980D2*
X3245491Y1131956D1*
X3227043Y1150405D1*
X3225468Y1166712D1*
X3220854Y1171326D1*
X3209720D1*
X3188066Y1192980D1*
X3606767Y667980D2*
X3127043Y1150405D1*
X3125468Y1166712D1*
X3120854Y1171326D1*
X3109720D1*
X3088066Y1192980D1*
X3409917Y667980D2*
X3009720Y1160192D1*
Y1171326D1*
X2988066Y1192980D1*
X3213066Y667980D2*
X2909720Y1160192D1*
Y1171326D1*
X2888066Y1192980D1*
X3006767Y667980D2*
X2809720Y1160192D1*
Y1171326D1*
X2788066Y1192980D1*
X2809917Y667980D2*
X2709720Y1160192D1*
Y1171326D1*
X2688066Y1192980D1*
X2613066Y667980D2*
Y1167980D1*
X2588066Y1192980D1*
X3513066Y2967980D2*
X3253365Y3031956D1*
X3246633Y3034712D1*
X3229798Y3051546D1*
Y3134413D1*
X3246633Y3151247D1*
X3253365Y3154003D1*
X4096731Y3278216D1*
X4179401D1*
X4449661Y3232743D1*
X4451617Y3232251D1*
X4471306Y3224086D1*
X5030302Y2971428D1*
X5037106Y2967350D1*
X5087436Y2917019D1*
X5269968Y2643346D1*
X5313432Y2599881D1*
X5313578Y2599791D1*
X5331991Y2592157D1*
X5332161Y2592113D1*
X6943885Y2368373D1*
X6962377Y2360712D1*
X7005798Y2317291D1*
X7013460Y2298798D1*
Y2237161D1*
X7005798Y2218669D1*
X6972424Y2140968D1*
X6913066Y2067980D1*
X3613066Y2967980D2*
X3540078Y2908621D1*
X3536054Y2906956D1*
X3490078D1*
X3241468Y2992586D1*
X3233826Y2995751D1*
X3195511Y3033987D1*
X3193184Y3039602D1*
Y3146357D1*
X3195511Y3151972D1*
X3233826Y3190208D1*
X3241468Y3193373D1*
X4092885Y3317586D1*
X4183247D1*
X4186291Y3317102D1*
X4454527Y3272113D1*
X4464007Y3269731D1*
X4489054Y3259350D1*
X5048054Y3006692D1*
X5061511Y2998621D1*
X5118708Y2941424D1*
X5303306Y2665700D1*
X5335787Y2633220D1*
X5339983Y2631483D1*
X6948783Y2407743D1*
X6956381Y2405834D1*
X6980090Y2396007D1*
X6986814Y2391976D1*
X7037062Y2341728D1*
X7041094Y2335003D1*
X7050920Y2311294D1*
X7052830Y2303696D1*
Y2232263D1*
X7050920Y2224665D1*
X7041094Y2200956D1*
X7005798Y2118669D1*
X6972424Y2040968D1*
X6913066Y1967980D1*
Y2167980D2*
X6972424Y2240968D1*
X6974090Y2244991D1*
Y2290968D1*
X6972424Y2294991D1*
X6940078Y2327338D1*
X6936054Y2329003D1*
X5327294Y2552743D1*
X5319602Y2554672D1*
X5295830Y2564531D1*
X5289027Y2568609D1*
X5238696Y2618940D1*
X5056165Y2892613D1*
X5012700Y2936078D1*
X5012554Y2936169D1*
X4450180Y3190208D1*
X4442539Y3193373D1*
X4174535Y3238846D1*
X4101598D1*
X3833594Y3193373D1*
X3825952Y3190208D1*
X3745491Y3154003D1*
X3714334Y3130381D1*
X3709720Y3125767D1*
Y3114633D1*
X3688066Y3092980D1*
X6913066Y2267980D2*
X5322428Y2513373D1*
X5307208Y2517192D1*
X5278078Y2529267D1*
X5264621Y2537338D1*
X5207424Y2594535D1*
X5022826Y2870259D1*
X4990346Y2902739D1*
X4430641Y3154003D1*
X4169669Y3199476D1*
X4106464D1*
X3845491Y3154003D1*
X3827043Y3135554D1*
X3825468Y3119247D1*
X3820854Y3114633D1*
X3809720D1*
X3788066Y3092980D1*
D17*
X2613066Y3867980D3*
X2809917D3*
X3013066D3*
X3209917D3*
X3413066D3*
X3609917D3*
X6213066D3*
X6409917D3*
X613070Y667980D3*
X809920D3*
X6613066Y3867980D3*
X6809917D3*
X4613066D3*
X4809917D3*
D18*
X4388066Y1392980D3*
Y1492980D3*
Y1592980D3*
Y1692980D3*
Y1792980D3*
Y1892980D3*
Y1992980D3*
Y2092980D3*
Y2192980D3*
Y2292980D3*
Y2392980D3*
Y2492980D3*
Y2592980D3*
Y2692980D3*
Y2792980D3*
Y2892980D3*
Y2992980D3*
X4288066Y3092980D3*
Y1392980D3*
Y1492980D3*
Y1592980D3*
Y1692980D3*
Y1792980D3*
Y1892980D3*
Y1992980D3*
Y2092980D3*
Y2192980D3*
Y2292980D3*
Y2392980D3*
Y2492980D3*
Y2592980D3*
Y2692980D3*
Y2792980D3*
Y2892980D3*
Y2992980D3*
X4388066Y3092980D3*
X2188066Y1192980D3*
X1988066D3*
X1888066D3*
X1788066D3*
X1688066D3*
X3088066D3*
X2988066D3*
X2888066D3*
X2788066D3*
X2688066D3*
X2588066D3*
X2226066Y3092980D3*
X2126066D3*
X2026066D3*
X1926066D3*
X1826066D3*
X1726066D3*
X1626066D3*
X1525066D3*
X1426066D3*
X1326066D3*
X3088066D3*
X2988066D3*
X2888066D3*
X2788066D3*
X2688066D3*
X2588066D3*
X2488066D3*
X2388066D3*
X3288066D3*
X3388066D3*
X3488066D3*
X3588066D3*
X3688066D3*
X3788066D3*
X3888066D3*
X3988066D3*
X3188066Y1192980D3*
X3288066D3*
X3488066D3*
X3588066D3*
X3688066D3*
X3788066D3*
X3888066D3*
X3988066D3*
X4088066D3*
X4188066D3*
X2088066D3*
X2388066D3*
X2288066D3*
D19*
X1138066D3*
X1188066Y3092980D3*
X3188066Y1392980D3*
Y2492980D3*
X4388066Y1192980D3*
X4138066Y3092980D3*
D17*
X1013070Y3867980D3*
X1209920D3*
D20*
X5838066Y3142980D3*
D21*
X6088066D3*
D17*
X9113066Y667980D3*
X9309917D3*
X9506767D3*
X5013066Y3867980D3*
X5209917D3*
X5413066D3*
X5609917D3*
X5813066D3*
X6009917D3*
X1013070Y667980D3*
X1209920D3*
X1413070D3*
X1609920D3*
D22*
X5569318Y2211728D3*
X5169318D3*
D17*
X1413070Y3867980D3*
X1609920D3*
D22*
X5363066Y2842980D3*
X4963066D3*
D20*
X6338066Y3142980D3*
D21*
X6588066D3*
D17*
X7013066Y667980D3*
X7209917D3*
X5813066D3*
X6009917D3*
X6206767D3*
X6413066D3*
X6609917D3*
X6806767D3*
X7413066D3*
X7609917D3*
X7813066D3*
X8009917D3*
X8213066D3*
X8409917D3*
X2613066D3*
X2809917D3*
X3006767D3*
D18*
X7213066Y1567980D3*
D23*
Y1667980D3*
Y1767980D3*
Y1867980D3*
Y1967980D3*
Y2067980D3*
Y2167980D3*
Y2267980D3*
X6913066D3*
Y2167980D3*
Y2067980D3*
Y1967980D3*
Y1867980D3*
Y1767980D3*
Y1667980D3*
Y1567980D3*
D22*
X9463066Y1167980D3*
Y1567980D3*
X9338066Y1167980D3*
Y1567980D3*
X9588066Y1167980D3*
Y1567980D3*
X9713066Y1167980D3*
Y1567980D3*
X9838066Y1167980D3*
Y1567980D3*
X9963066Y1167980D3*
Y1567980D3*
X4963066Y2692980D3*
X5363066D3*
X4718712Y1811397D3*
X5118712D3*
X4718712Y1686397D3*
X5118712D3*
X4718712Y1561397D3*
X5118712D3*
D24*
X1413070Y2667980D3*
Y1667980D3*
D18*
X6456818Y2830480D3*
D23*
X6556818Y2730480D3*
X6656818Y2830480D3*
X7613066Y1467980D3*
Y1667980D3*
X7513066Y1967980D3*
Y1767980D3*
X7613066Y2067980D3*
Y2267980D3*
X6713066Y1467980D3*
Y1667980D3*
X6913066Y1267980D3*
X7113066D3*
X3513066Y2967980D3*
X3613066D3*
D22*
X5913066Y1267980D3*
Y1667980D3*
X6113066Y1267980D3*
Y1667980D3*
D23*
X9663066Y2142980D3*
X9163066D3*
D25*
X11413070Y2892980D3*
Y3892980D3*
X7413066D3*
Y2892980D3*
D23*
X9563066Y2142980D3*
X9463066D3*
X9363066D3*
X9263066D3*
D24*
X8413066Y2667980D3*
Y1667980D3*
D17*
X613070Y3867980D3*
X809920D3*
X1813070D3*
X2009920D3*
X2213066D3*
X2409917D3*
X3813066D3*
X4009917D3*
X4213066D3*
X4409917D3*
X9713066Y667980D3*
X9909917D3*
X10113070D3*
X10309920D3*
X3213066D3*
X3409917D3*
X3606767D3*
X3813066D3*
X4009917D3*
X4206767D3*
X4413066D3*
X4609917D3*
X4806767D3*
X5013066D3*
X5209917D3*
X5413066D3*
X5609917D3*
D26*
X5844318Y2830480D3*
D27*
X5644318D3*
D26*
X5744318Y2730480D3*
D18*
X1038857Y3092980D3*
D23*
X938857D3*
X838857D3*
X738857D3*
D17*
X1813070Y667980D3*
X2009920D3*
X2213066D3*
X2409917D3*
D22*
X5718712Y2211397D3*
X6118712D3*
X5718712Y2011397D3*
X6118712D3*
M02*
