G04 DipTrace 3.3.1.3*
G04 Top.gbr*
%MOIN*%
G04 #@! TF.FileFunction,Copper,L1,Top*
G04 #@! TF.Part,Single*
G04 #@! TA.AperFunction,Conductor*
%ADD13C,0.025984*%
%ADD14C,0.015748*%
G04 #@! TA.AperFunction,ComponentPad*
%ADD17C,0.076772*%
%ADD18R,0.059055X0.059055*%
%ADD19C,0.15*%
%ADD20R,0.05X0.05*%
%ADD21C,0.05*%
%ADD22C,0.06*%
%ADD23C,0.059055*%
%ADD24C,0.275591*%
%ADD25C,0.251969*%
%ADD26C,0.045996*%
%ADD27R,0.046X0.046*%
%FSLAX26Y26*%
G04*
G70*
G90*
G75*
G01*
G04 Top*
%LPD*%
X4613066Y3867980D2*
D13*
Y4101149D1*
X5013066D1*
Y3867980D1*
X6613066D2*
Y4101239D1*
X6213066D1*
Y3867980D1*
X5813066D2*
Y4101239D1*
X6213066D1*
X5413066Y3867980D2*
Y4101239D1*
X5813066D1*
X5013066Y4101149D2*
X5413066Y4101239D1*
X6338066Y3142980D2*
X6326058Y3130972D1*
X6307684D1*
X6111172Y3081365D1*
X6064960D1*
X5857684Y3104987D1*
X5850074Y3112598D1*
Y3130972D1*
X5838066Y3142980D1*
X1013070Y667980D2*
Y472357D1*
X1413070D1*
Y667980D1*
Y472357D2*
X1813070D1*
Y667980D1*
X5813066D2*
Y472357D1*
X1813070D1*
X1013070D2*
X613070D1*
Y667980D1*
X2613066Y3867980D2*
X2321924Y3137672D1*
X2104606Y1227889D1*
Y1209519D1*
X2088066Y1192980D1*
X6913066Y1667980D2*
X6849369Y1597889D1*
X6846924Y1591987D1*
Y1543972D1*
X6913066Y1267980D1*
X6713066Y1667980D2*
X5694613Y1944783D1*
X5688535Y1947298D1*
X5169318Y2211728D1*
X9963066Y1567980D2*
D14*
X9865346Y1627739D1*
X9861149Y1629476D1*
X7668775Y2443314D1*
X7653649Y2447113D1*
X7267976Y2524720D1*
X7260889Y2525854D1*
X4939983Y2631483D1*
X4420854Y2771326D1*
X4409720D1*
X4388066Y2792980D1*
X5118712Y1811397D2*
X6310413Y830283D1*
X6369070Y771625D1*
X6377987Y756747D1*
X6390535Y726476D1*
X6413066Y667980D1*
X5118712Y1686397D2*
X6280330Y791743D1*
X6330531Y741543D1*
X6334527Y734869D1*
X6344342Y711204D1*
X6346235Y703657D1*
Y643838D1*
X6348787Y637680D1*
X6382767Y603700D1*
X6388924Y601149D1*
X6437208D1*
X6609917Y667980D1*
X3813066Y3867980D2*
X3309720Y3125767D1*
Y3114633D1*
X3288066Y3092980D1*
X4009917Y3867980D2*
X3409720Y3125767D1*
Y3114633D1*
X3388066Y3092980D1*
X4213066Y3867980D2*
X3527043Y3135554D1*
X3525468Y3119247D1*
X3520854Y3114633D1*
X3509720D1*
X3488066Y3092980D1*
X4409917Y3867980D2*
X3645491Y3154003D1*
X3627043Y3135554D1*
X3625468Y3119247D1*
X3620854Y3114633D1*
X3609720D1*
X3588066Y3092980D1*
X5118712Y1561397D2*
X6257814Y762893D1*
X6301680Y719027D1*
X6301999Y718495D1*
X6309767Y699771D1*
X6309917Y699169D1*
Y636791D1*
X6310066Y636188D1*
X6317834Y617464D1*
X6318153Y616932D1*
X6362019Y573066D1*
X6362550Y572747D1*
X6381275Y564980D1*
X6381877Y564830D1*
X6444255D1*
X6634669Y598098D1*
X6806767Y667980D1*
X5913066Y1667980D2*
X5149787Y1912220D1*
X5149617Y1912263D1*
X4420854Y2071326D1*
X4409720D1*
X4388066Y2092980D1*
X7013066Y667980D2*
X6831519Y598098D1*
X6641861Y558728D1*
X6448743Y528511D1*
X6377389D1*
X6369842Y530405D1*
X6346176Y540220D1*
X6339503Y544216D1*
X6289302Y594417D1*
X6285306Y601090D1*
X6275491Y624755D1*
X6273598Y632302D1*
Y692121D1*
X6271046Y698279D1*
X6237066Y732259D1*
X6230909Y734810D1*
X4431857Y1332271D1*
X4423968Y1334251D1*
X4352165D1*
X4325082Y1332125D1*
X4245322D1*
X4227043Y1350405D1*
Y1535554D1*
X4245491Y1554003D1*
X4261798Y1555578D1*
X4266413Y1560192D1*
Y1571326D1*
X4288066Y1592980D1*
X4718712Y1686397D2*
X4420854Y1871326D1*
X4409720D1*
X4388066Y1892980D1*
X7209917Y667980D2*
X7067897Y767739D1*
X7066334Y768676D1*
X6085787Y1208220D1*
X5940346Y1327739D1*
X5145991Y1871157D1*
X5141794Y1872893D1*
X5095629D1*
X5091432Y1871157D1*
X4745991Y1626637D1*
X4741794Y1624901D1*
X4420854Y1614633D1*
X4409720D1*
X4388066Y1592980D1*
X613070Y3867980D2*
X1868621Y3154003D1*
X1887086Y3135554D1*
X1888661Y3119247D1*
X1893275Y3114633D1*
X1904413D1*
X1926066Y3092980D1*
X9838066Y1567980D2*
X9740346Y1627739D1*
X9736149Y1629476D1*
X7656381Y2405834D1*
X7648783Y2407743D1*
X7260062Y2486117D1*
X7257763Y2486483D1*
X4932161Y2592113D1*
X4420854Y2671326D1*
X4409720D1*
X4388066Y2692980D1*
X9463066Y1567980D2*
X9365346Y1627739D1*
X9361149Y1629476D1*
X7590078Y2206956D1*
X7586054Y2208621D1*
X7262377Y2360712D1*
X7243885Y2368373D1*
X4412672D1*
X4388066Y2392980D1*
X9588066Y1567980D2*
X9556165Y1617613D1*
X9512700Y1661078D1*
X9512554Y1661169D1*
X9494141Y1668802D1*
X7643885Y2368373D1*
X7253649Y2447113D1*
X4420854Y2571326D1*
X4409720D1*
X4388066Y2592980D1*
X9713066Y1567980D2*
Y1477424D1*
X9528306D1*
Y1540700D1*
X9526570Y1544897D1*
X9524562Y1591062D1*
X9522826Y1595259D1*
X9490346Y1627739D1*
X9486149Y1629476D1*
X7636054Y2329003D1*
X7248783Y2407743D1*
X4420854Y2471326D1*
X4409720D1*
X4388066Y2492980D1*
X9338066Y1567980D2*
X7582247Y2167586D1*
X7563755Y2175247D1*
X7240078Y2327338D1*
X7236054Y2329003D1*
X4412956D1*
X4409720Y2325767D1*
Y2314633D1*
X4388066Y2292980D1*
X6913066Y1767980D2*
X6972424Y1694991D1*
X7746200Y635952D1*
X7781039Y601113D1*
X7788314Y598098D1*
X7837818D1*
X8009917Y667980D1*
X6913066Y1867980D2*
X6972424Y1794991D1*
X7152043Y1525405D1*
X7813066Y667980D1*
X7213066Y2267980D2*
X7272424Y2194991D1*
X7453708Y1940968D1*
X7672424Y1694991D1*
X8409917Y667980D1*
X7213066Y2167980D2*
X7272424Y2094991D1*
X7453708Y1740968D1*
X7672424Y1494991D1*
X8213066Y667980D1*
X5913066Y1267980D2*
X6063578Y1174791D1*
X7045094Y734846D1*
X7177889Y601113D1*
X7185165Y598098D1*
X7234669D1*
X7413066Y667980D1*
X6113066Y1267980D2*
X7437818Y737861D1*
X7609917Y667980D1*
X6113066Y1667980D2*
X5936149Y1729476D1*
X4420854Y2171326D1*
X4409720D1*
X4388066Y2192980D1*
X9563066Y2142980D2*
X9490078Y2083621D1*
X9412377Y2050247D1*
X9330090Y2014952D1*
X9306381Y2005125D1*
X9298783Y2003216D1*
X9127350D1*
X9119751Y2005125D1*
X6679806Y2891503D1*
X5832948Y3021109D1*
X5815751Y3028231D1*
X4547239Y3742334D1*
X4540968Y3746094D1*
X4491180Y3795881D1*
X4487420Y3802153D1*
X4477739Y3825499D1*
X4475960Y3832594D1*
Y3891968D1*
X4473531Y3897834D1*
X4439771Y3931594D1*
X4433905Y3934023D1*
X3788314Y3937861D1*
X3781039Y3934846D1*
X3746200Y3900007D1*
X3710613Y3814712D1*
X3709676Y3813149D1*
X3227239Y3135472D1*
Y3050487D1*
X3245574Y3032153D1*
X3486054Y2908621D1*
X3490078Y2906956D1*
X4255279Y2614633D1*
X4266413D1*
X4288066Y2592980D1*
X9463066Y2142980D2*
X9390078Y2083621D1*
X9312377Y2050247D1*
X9293885Y2042586D1*
X9132247D1*
X6687637Y2930873D1*
X5840779Y3060480D1*
X5838050Y3061609D1*
X4563259Y3774157D1*
X4562991Y3774318D1*
X4519405Y3817905D1*
X4519243Y3818172D1*
X4511566Y3836684D1*
X4511491Y3836983D1*
Y3898976D1*
X4511417Y3899275D1*
X4503739Y3917787D1*
X4503578Y3918054D1*
X4459991Y3961641D1*
X4459724Y3961802D1*
X4441212Y3969480D1*
X4440913Y3969554D1*
X4245011Y3977231D1*
X3781121D1*
X3779354Y3976787D1*
X3759798Y3968676D1*
X3758235Y3967739D1*
X3713306Y3922810D1*
X3712369Y3921247D1*
X3676783Y3835952D1*
X3191172Y3154869D1*
X3188066Y3147373D1*
Y3038586D1*
X3191172Y3031090D1*
X3226176Y2996086D1*
X3463755Y2875247D1*
X4255279Y2514633D1*
X4266413D1*
X4288066Y2492980D1*
X9363066Y2142980D2*
X9290078Y2083621D1*
X9286054Y2081956D1*
X9140078D1*
X7364172Y2738259D1*
X7338054Y2749086D1*
X6563621Y3087460D1*
X6376113Y3199476D1*
X4589078Y3801936D1*
X4583212Y3804365D1*
X4549452Y3838125D1*
X4547023Y3843991D1*
Y3903365D1*
X4545243Y3910460D1*
X4535562Y3933806D1*
X4531802Y3940078D1*
X4482015Y3989865D1*
X4475743Y3993625D1*
X4452397Y4003306D1*
X4445302Y4005086D1*
X4249877Y4016602D1*
X3776255D1*
X3766960Y4014267D1*
X3742046Y4003940D1*
X3577889Y3934846D1*
X3543050Y3900007D1*
X3157487Y3175952D1*
X3149357Y3156342D1*
X3148893Y3154499D1*
Y3031460D1*
X3149357Y3029617D1*
X3157487Y3010007D1*
X3158464Y3008377D1*
X3203464Y2963377D1*
X3205094Y2962401D1*
X4255279Y2414633D1*
X4266413D1*
X4288066Y2392980D1*
X9263066Y2142980D2*
Y2203649D1*
X9721661D1*
X9750417Y2179987D1*
X10079527Y1566354D1*
X10079487Y1458684D1*
X9435787Y1227739D1*
X9403306Y1195259D1*
X9401570Y1191062D1*
X9399562Y1144897D1*
X9397826Y1140700D1*
X9365346Y1108220D1*
X8441944Y601113D1*
X8434669Y598098D1*
X7845011Y558728D1*
X6454743Y479987D1*
X6371389D1*
X6354570Y484212D1*
X6324298Y496759D1*
X6309420Y505676D1*
X6174739Y601113D1*
X6041944Y734846D1*
X6034669Y737861D1*
X4420188Y1296980D1*
X4419385Y1297180D1*
X4356747D1*
X4336983Y1292928D1*
X4233594Y1292586D1*
X4225952Y1295751D1*
X4190838Y1330865D1*
X4187672Y1338507D1*
Y1547452D1*
X4227043Y2235554D1*
X4245491Y2254003D1*
X4261798Y2255578D1*
X4266413Y2260192D1*
Y2271326D1*
X4288066Y2292980D1*
D17*
X2613066Y3867980D3*
X2809917D3*
X3013066D3*
X3209917D3*
X3413066D3*
X3609917D3*
X6213066D3*
X6409917D3*
X613070Y667980D3*
X809920D3*
X6613066Y3867980D3*
X6809917D3*
X4613066D3*
X4809917D3*
D18*
X4388066Y1392980D3*
Y1492980D3*
Y1592980D3*
Y1692980D3*
Y1792980D3*
Y1892980D3*
Y1992980D3*
Y2092980D3*
Y2192980D3*
Y2292980D3*
Y2392980D3*
Y2492980D3*
Y2592980D3*
Y2692980D3*
Y2792980D3*
Y2892980D3*
Y2992980D3*
X4288066Y3092980D3*
Y1392980D3*
Y1492980D3*
Y1592980D3*
Y1692980D3*
Y1792980D3*
Y1892980D3*
Y1992980D3*
Y2092980D3*
Y2192980D3*
Y2292980D3*
Y2392980D3*
Y2492980D3*
Y2592980D3*
Y2692980D3*
Y2792980D3*
Y2892980D3*
Y2992980D3*
X4388066Y3092980D3*
X2188066Y1192980D3*
X1988066D3*
X1888066D3*
X1788066D3*
X1688066D3*
X3088066D3*
X2988066D3*
X2888066D3*
X2788066D3*
X2688066D3*
X2588066D3*
X2226066Y3092980D3*
X2126066D3*
X2026066D3*
X1926066D3*
X1826066D3*
X1726066D3*
X1626066D3*
X1525066D3*
X1426066D3*
X1326066D3*
X3088066D3*
X2988066D3*
X2888066D3*
X2788066D3*
X2688066D3*
X2588066D3*
X2488066D3*
X2388066D3*
X3288066D3*
X3388066D3*
X3488066D3*
X3588066D3*
X3688066D3*
X3788066D3*
X3888066D3*
X3988066D3*
X3188066Y1192980D3*
X3288066D3*
X3488066D3*
X3588066D3*
X3688066D3*
X3788066D3*
X3888066D3*
X3988066D3*
X4088066D3*
X4188066D3*
X2088066D3*
X2388066D3*
X2288066D3*
D19*
X1138066D3*
X1188066Y3092980D3*
X3188066Y1392980D3*
Y2492980D3*
X4388066Y1192980D3*
X4138066Y3092980D3*
D17*
X1013070Y3867980D3*
X1209920D3*
D20*
X5838066Y3142980D3*
D21*
X6088066D3*
D17*
X9113066Y667980D3*
X9309917D3*
X9506767D3*
X5013066Y3867980D3*
X5209917D3*
X5413066D3*
X5609917D3*
X5813066D3*
X6009917D3*
X1013070Y667980D3*
X1209920D3*
X1413070D3*
X1609920D3*
D22*
X5569318Y2211728D3*
X5169318D3*
D17*
X1413070Y3867980D3*
X1609920D3*
D22*
X5363066Y2842980D3*
X4963066D3*
D20*
X6338066Y3142980D3*
D21*
X6588066D3*
D17*
X7013066Y667980D3*
X7209917D3*
X5813066D3*
X6009917D3*
X6206767D3*
X6413066D3*
X6609917D3*
X6806767D3*
X7413066D3*
X7609917D3*
X7813066D3*
X8009917D3*
X8213066D3*
X8409917D3*
X2613066D3*
X2809917D3*
X3006767D3*
D18*
X7213066Y1567980D3*
D23*
Y1667980D3*
Y1767980D3*
Y1867980D3*
Y1967980D3*
Y2067980D3*
Y2167980D3*
Y2267980D3*
X6913066D3*
Y2167980D3*
Y2067980D3*
Y1967980D3*
Y1867980D3*
Y1767980D3*
Y1667980D3*
Y1567980D3*
D22*
X9463066Y1167980D3*
Y1567980D3*
X9338066Y1167980D3*
Y1567980D3*
X9588066Y1167980D3*
Y1567980D3*
X9713066Y1167980D3*
Y1567980D3*
X9838066Y1167980D3*
Y1567980D3*
X9963066Y1167980D3*
Y1567980D3*
X4963066Y2692980D3*
X5363066D3*
X4718712Y1811397D3*
X5118712D3*
X4718712Y1686397D3*
X5118712D3*
X4718712Y1561397D3*
X5118712D3*
D24*
X1413070Y2667980D3*
Y1667980D3*
D18*
X6456818Y2830480D3*
D23*
X6556818Y2730480D3*
X6656818Y2830480D3*
X7613066Y1467980D3*
Y1667980D3*
X7513066Y1967980D3*
Y1767980D3*
X7613066Y2067980D3*
Y2267980D3*
X6713066Y1467980D3*
Y1667980D3*
X6913066Y1267980D3*
X7113066D3*
X3513066Y2967980D3*
X3613066D3*
D22*
X5913066Y1267980D3*
Y1667980D3*
X6113066Y1267980D3*
Y1667980D3*
D23*
X9663066Y2142980D3*
X9163066D3*
D25*
X11413070Y2892980D3*
Y3892980D3*
X7413066D3*
Y2892980D3*
D23*
X9563066Y2142980D3*
X9463066D3*
X9363066D3*
X9263066D3*
D24*
X8413066Y2667980D3*
Y1667980D3*
D17*
X613070Y3867980D3*
X809920D3*
X1813070D3*
X2009920D3*
X2213066D3*
X2409917D3*
X3813066D3*
X4009917D3*
X4213066D3*
X4409917D3*
X9713066Y667980D3*
X9909917D3*
X10113070D3*
X10309920D3*
X3213066D3*
X3409917D3*
X3606767D3*
X3813066D3*
X4009917D3*
X4206767D3*
X4413066D3*
X4609917D3*
X4806767D3*
X5013066D3*
X5209917D3*
X5413066D3*
X5609917D3*
D26*
X5844318Y2830480D3*
D27*
X5644318D3*
D26*
X5744318Y2730480D3*
D18*
X1038857Y3092980D3*
D23*
X938857D3*
X838857D3*
X738857D3*
D17*
X1813070Y667980D3*
X2009920D3*
X2213066D3*
X2409917D3*
D22*
X5718712Y2211397D3*
X6118712D3*
X5718712Y2011397D3*
X6118712D3*
M02*
