G04 DipTrace 3.3.1.3*
G04 BottomAssy.gbr*
%MOIN*%
G04 #@! TF.FileFunction,Drawing,Bot*
G04 #@! TF.Part,Single*
G04 #@! TA.AperFunction,ComponentPad*
%ADD17C,0.059055*%
%ADD21C,0.076772*%
%ADD22R,0.059055X0.059055*%
%ADD23R,0.05X0.05*%
%ADD24C,0.05*%
%ADD25C,0.06*%
%ADD26C,0.06*%
%ADD27C,0.059055*%
%ADD28C,0.045997*%
%ADD29R,0.045997X0.045997*%
%FSLAX26Y26*%
G04*
G70*
G90*
G75*
G01*
G04 BotAssy*
%LPD*%
D21*
X2613058Y3867979D3*
X2809908D3*
X3013058D3*
X3209908D3*
X3413058D3*
X3609908D3*
X6213058D3*
X6409908D3*
X613058Y667979D3*
X809908D3*
X6613058Y3867979D3*
X6809908D3*
X4613058D3*
X4809908D3*
D22*
X4388058Y1392979D3*
Y1492979D3*
Y1592979D3*
Y1692979D3*
Y1792979D3*
Y1892979D3*
Y1992979D3*
Y2092979D3*
Y2192979D3*
Y2292979D3*
Y2392979D3*
Y2492979D3*
Y2592979D3*
Y2692979D3*
Y2792979D3*
Y2892979D3*
Y2992979D3*
X4288058Y3092979D3*
Y1392979D3*
Y1492979D3*
Y1592979D3*
Y1692979D3*
Y1792979D3*
Y1892979D3*
Y1992979D3*
Y2092979D3*
Y2192979D3*
Y2292979D3*
Y2392979D3*
Y2492979D3*
Y2592979D3*
Y2692979D3*
Y2792979D3*
Y2892979D3*
Y2992979D3*
X4388058Y3092979D3*
X2188058Y1192979D3*
X1988058D3*
X1888058D3*
X1788058D3*
X1688058D3*
X3088058D3*
X2988058D3*
X2888058D3*
X2788058D3*
X2688058D3*
X2588058D3*
X2226058Y3092979D3*
X2126058D3*
X2026058D3*
X1926058D3*
X1826058D3*
X1726058D3*
X1626058D3*
X1525058D3*
X1426058D3*
X1326058D3*
X3088058D3*
X2988058D3*
X2888058D3*
X2788058D3*
X2688058D3*
X2588058D3*
X2488058D3*
X2388058D3*
X3288058D3*
X3388058D3*
X3488058D3*
X3588058D3*
X3688058D3*
X3788058D3*
X3888058D3*
X3988058D3*
X3188058Y1192979D3*
X3288058D3*
X3488058D3*
X3588058D3*
X3688058D3*
X3788058D3*
X3888058D3*
X3988058D3*
X4088058D3*
X4188058D3*
X2088058D3*
X2388058D3*
X2288058D3*
D21*
X1013058Y3867979D3*
X1209908D3*
D23*
X5838058Y3142979D3*
D24*
X6088058D3*
D21*
X9113058Y667979D3*
X9309908D3*
X9506759D3*
X5013058Y3867979D3*
X5209908D3*
X5413058D3*
X5609908D3*
X5813058D3*
X6009908D3*
X1013058Y667979D3*
X1209908D3*
X1413058D3*
X1609908D3*
X1813058D3*
X2009908D3*
X2206759D3*
X1413058Y3867979D3*
X1609908D3*
D25*
X5363058Y2842979D3*
D26*
X4963058D3*
D23*
X6338058Y3142979D3*
D24*
X6588058D3*
D21*
X6813058Y667979D3*
X7009908D3*
X5613058D3*
X5809908D3*
X6006759D3*
X6213058D3*
X6409908D3*
X6606759D3*
X7213058D3*
X7409908D3*
X7613058D3*
X7809908D3*
X8013058D3*
X8209908D3*
X2413058D3*
X2609908D3*
X2806759D3*
D22*
X7213058Y1567979D3*
D27*
Y1667979D3*
Y1767979D3*
Y1867979D3*
Y1967979D3*
Y2067979D3*
Y2167979D3*
Y2267979D3*
X6913058D3*
Y2167979D3*
Y2067979D3*
Y1967979D3*
Y1867979D3*
Y1767979D3*
Y1667979D3*
Y1567979D3*
D25*
X9463058Y1167979D3*
D26*
Y1567979D3*
D25*
X9338058Y1167979D3*
D26*
Y1567979D3*
D25*
X9588058Y1167979D3*
D26*
Y1567979D3*
D25*
X9713058Y1167979D3*
D26*
Y1567979D3*
D25*
X9838058Y1167979D3*
D26*
Y1567979D3*
D25*
X9963058Y1167979D3*
D26*
Y1567979D3*
D25*
X4963058Y2692979D3*
D26*
X5363058D3*
D25*
X4718701Y1811399D3*
D26*
X5118701D3*
D25*
X4718701Y1686399D3*
D26*
X5118701D3*
D25*
X4718701Y1561399D3*
D26*
X5118701D3*
D22*
X6456807Y2830479D3*
D27*
X6556807Y2730479D3*
D17*
X6656807Y2830479D3*
X7613058Y1467979D3*
Y1667979D3*
X7513058Y1967979D3*
Y1767979D3*
X7613058Y2067979D3*
Y2267979D3*
X6713058Y1467979D3*
Y1667979D3*
X6913058Y1267979D3*
X7113058D3*
X3513058Y2967979D3*
X3613058D3*
D25*
X5913058Y1267979D3*
D26*
Y1667979D3*
D25*
X6113058Y1267979D3*
D26*
Y1667979D3*
D17*
X9663058Y2142979D3*
X9163058D3*
X9563058D3*
X9463058D3*
X9363058D3*
X9263058D3*
D21*
X613058Y3867979D3*
X809908D3*
X1813058D3*
X2009908D3*
X2213058D3*
X2409908D3*
X3813058D3*
X4009908D3*
X4213058D3*
X4409908D3*
X9713058Y667979D3*
X9909908D3*
X10113058D3*
X10309908D3*
X3013058D3*
X3209908D3*
X3406759D3*
X3613058D3*
X3809908D3*
X4006759D3*
X4213058D3*
X4409908D3*
X4606759D3*
X4813058D3*
X5009908D3*
X5213058D3*
X5409908D3*
D28*
X5844307Y2830479D3*
D29*
X5644307D3*
D28*
X5744307Y2730479D3*
D22*
X1038845Y3092979D3*
D27*
X938845D3*
X838845D3*
X738845D3*
M02*
