G04 DipTrace 3.3.1.3*
G04 BottomMask.gbr*
%MOIN*%
G04 #@! TF.FileFunction,Soldermask,Bot*
G04 #@! TF.Part,Single*
%ADD30C,0.125*%
%ADD31C,0.216535*%
%ADD32C,0.125984*%
%ADD40R,0.053871X0.053871*%
%ADD42C,0.053871*%
%ADD44C,0.066929*%
%ADD45C,0.066929*%
%ADD47C,0.067874*%
%ADD49C,0.067874*%
%ADD51C,0.057874*%
%ADD53R,0.057874X0.057874*%
%ADD55R,0.066929X0.066929*%
%ADD57C,0.084646*%
%FSLAX26Y26*%
G04*
G70*
G90*
G75*
G01*
G04 BotMask*
%LPD*%
D57*
X2613058Y3867979D3*
X2809908D3*
X3013058D3*
X3209908D3*
X3413058D3*
X3609908D3*
X6213058D3*
X6409908D3*
X613058Y667979D3*
X809908D3*
X6613058Y3867979D3*
X6809908D3*
X4613058D3*
X4809908D3*
D55*
X4388058Y1392979D3*
Y1492979D3*
Y1592979D3*
Y1692979D3*
Y1792979D3*
Y1892979D3*
Y1992979D3*
Y2092979D3*
Y2192979D3*
Y2292979D3*
Y2392979D3*
Y2492979D3*
Y2592979D3*
Y2692979D3*
Y2792979D3*
Y2892979D3*
Y2992979D3*
X4288058Y3092979D3*
Y1392979D3*
Y1492979D3*
Y1592979D3*
Y1692979D3*
Y1792979D3*
Y1892979D3*
Y1992979D3*
Y2092979D3*
Y2192979D3*
Y2292979D3*
Y2392979D3*
Y2492979D3*
Y2592979D3*
Y2692979D3*
Y2792979D3*
Y2892979D3*
Y2992979D3*
X4388058Y3092979D3*
X2188058Y1192979D3*
X1988058D3*
X1888058D3*
X1788058D3*
X1688058D3*
X3088058D3*
X2988058D3*
X2888058D3*
X2788058D3*
X2688058D3*
X2588058D3*
X2226058Y3092979D3*
X2126058D3*
X2026058D3*
X1926058D3*
X1826058D3*
X1726058D3*
X1626058D3*
X1525058D3*
X1426058D3*
X1326058D3*
X3088058D3*
X2988058D3*
X2888058D3*
X2788058D3*
X2688058D3*
X2588058D3*
X2488058D3*
X2388058D3*
X3288058D3*
X3388058D3*
X3488058D3*
X3588058D3*
X3688058D3*
X3788058D3*
X3888058D3*
X3988058D3*
X3188058Y1192979D3*
X3288058D3*
X3488058D3*
X3588058D3*
X3688058D3*
X3788058D3*
X3888058D3*
X3988058D3*
X4088058D3*
X4188058D3*
X2088058D3*
X2388058D3*
X2288058D3*
D30*
X1138058D3*
X1188058Y3092979D3*
X3188058Y1392979D3*
Y2492979D3*
X4388058Y1192979D3*
X4138058Y3092979D3*
D57*
X1013058Y3867979D3*
X1209908D3*
D53*
X5838058Y3142979D3*
D51*
X6088058D3*
D57*
X9113058Y667979D3*
X9309908D3*
X9506759D3*
X5013058Y3867979D3*
X5209908D3*
X5413058D3*
X5609908D3*
X5813058D3*
X6009908D3*
X1013058Y667979D3*
X1209908D3*
X1413058D3*
X1609908D3*
D49*
X5569307Y2211730D3*
D47*
X5169307D3*
D57*
X1413058Y3867979D3*
X1609908D3*
D49*
X5363058Y2842979D3*
D47*
X4963058D3*
D53*
X6338058Y3142979D3*
D51*
X6588058D3*
D57*
X7013058Y667979D3*
X7209908D3*
X5813058D3*
X6009908D3*
X6206759D3*
X6413058D3*
X6609908D3*
X6806759D3*
X7413058D3*
X7609908D3*
X7813058D3*
X8009908D3*
X8213058D3*
X8409908D3*
X2613058D3*
X2809908D3*
X3006759D3*
D55*
X7213058Y1567979D3*
D45*
Y1667979D3*
Y1767979D3*
Y1867979D3*
Y1967979D3*
Y2067979D3*
Y2167979D3*
Y2267979D3*
X6913058D3*
Y2167979D3*
Y2067979D3*
Y1967979D3*
Y1867979D3*
Y1767979D3*
Y1667979D3*
Y1567979D3*
D49*
X9463058Y1167979D3*
D47*
Y1567979D3*
D49*
X9338058Y1167979D3*
D47*
Y1567979D3*
D49*
X9588058Y1167979D3*
D47*
Y1567979D3*
D49*
X9713058Y1167979D3*
D47*
Y1567979D3*
D49*
X9838058Y1167979D3*
D47*
Y1567979D3*
D49*
X9963058Y1167979D3*
D47*
Y1567979D3*
D49*
X4963058Y2692979D3*
D47*
X5363058D3*
D49*
X4718701Y1811399D3*
D47*
X5118701D3*
D49*
X4718701Y1686399D3*
D47*
X5118701D3*
D49*
X4718701Y1561399D3*
D47*
X5118701D3*
D31*
X1413058Y2667979D3*
Y1667979D3*
D55*
X6456807Y2830479D3*
D45*
X6556807Y2730479D3*
D44*
X6656807Y2830479D3*
X7613058Y1467979D3*
Y1667979D3*
X7513058Y1967979D3*
Y1767979D3*
X7613058Y2067979D3*
Y2267979D3*
X6713058Y1467979D3*
Y1667979D3*
X6913058Y1267979D3*
X7113058D3*
X3513058Y2967979D3*
X3613058D3*
D49*
X5913058Y1267979D3*
D47*
Y1667979D3*
D49*
X6113058Y1267979D3*
D47*
Y1667979D3*
D44*
X9663058Y2142979D3*
X9163058D3*
D32*
X11413058Y2892979D3*
Y3892979D3*
X7413058D3*
Y2892979D3*
D44*
X9563058Y2142979D3*
X9463058D3*
X9363058D3*
X9263058D3*
D31*
X8413058Y2667979D3*
Y1667979D3*
D57*
X613058Y3867979D3*
X809908D3*
X1813058D3*
X2009908D3*
X2213058D3*
X2409908D3*
X3813058D3*
X4009908D3*
X4213058D3*
X4409908D3*
X9713058Y667979D3*
X9909908D3*
X10113058D3*
X10309908D3*
X3213058D3*
X3409908D3*
X3606759D3*
X3813058D3*
X4009908D3*
X4206759D3*
X4413058D3*
X4609908D3*
X4806759D3*
X5013058D3*
X5209908D3*
X5413058D3*
X5609908D3*
D42*
X5844307Y2830479D3*
D40*
X5644307D3*
D42*
X5744307Y2730479D3*
D55*
X1038845Y3092979D3*
D45*
X938845D3*
X838845D3*
X738845D3*
D57*
X1813058Y667979D3*
X2009908D3*
X2213058D3*
X2409908D3*
D49*
X5718701Y2211399D3*
D47*
X6118701D3*
D49*
X5718701Y2011399D3*
D47*
X6118701D3*
M02*
