G04 DipTrace 3.3.1.3*
G04 Bottom.gbr*
%MOIN*%
G04 #@! TF.FileFunction,Copper,L2,Bot*
G04 #@! TF.Part,Single*
%AMOUTLINE0*
4,1,4,
0.0,-0.035433,
-0.035433,0.0,
0.0,0.035433,
0.035433,0.0,
0.0,-0.035433,
0*%
G04 #@! TA.AperFunction,Conductor*
%ADD15C,0.025984*%
%ADD16C,0.012992*%
G04 #@! TA.AperFunction,ComponentPad*
%ADD18C,0.059055*%
%ADD21C,0.076772*%
%ADD22R,0.059055X0.059055*%
%ADD23R,0.05X0.05*%
%ADD24C,0.05*%
%ADD25C,0.06*%
%ADD26C,0.06*%
%ADD27C,0.059055*%
%ADD28C,0.055118*%
G04 #@! TA.AperFunction,ViaPad*
%ADD29C,0.04*%
G04 #@! TA.AperFunction,ComponentPad*
%ADD64OUTLINE0*%
%FSLAX26Y26*%
G04*
G70*
G90*
G75*
G01*
G04 Bottom*
%LPD*%
X5413058Y3867979D2*
D15*
X5338058Y3792979D1*
Y3242979D1*
X5013058Y3867979D2*
X4909710Y3971327D1*
X4716405D1*
X4613058Y3867979D1*
X6213058D2*
X6070734Y4010303D1*
X5955381D1*
X5813058Y3867979D1*
X5338058Y2917979D2*
X4996328Y2576250D1*
Y1332942D1*
X4957351Y1293965D1*
X3979300D1*
X3959812Y1274477D1*
X2469555D1*
X2388058Y1192979D1*
X5338058Y3242979D2*
Y2917979D1*
X2281572Y3303355D2*
Y2437192D1*
X2088058Y2243677D1*
Y1192979D1*
X1013058Y667979D2*
X1116405Y771327D1*
X1309710D1*
X1413058Y667979D1*
X2088058Y1192979D2*
X1813058Y917979D1*
Y667979D1*
X2226058Y3092979D2*
D16*
X1737517Y3581520D1*
X1699517D1*
X1413058Y3867979D1*
X2388058Y3092979D2*
Y3292979D1*
X1813058Y3867979D1*
X2488058Y3092979D2*
Y3592979D1*
X2213058Y3867979D1*
X7613058Y2067979D2*
D15*
X9388058D1*
X9463058Y2142979D1*
X4388058Y1392979D2*
X4581386Y1586308D1*
Y3379002D1*
X4620364Y3417979D1*
X4713058D1*
X2288058Y1192979D2*
Y946129D1*
X2009908Y667979D1*
X5609908Y3867979D2*
X5713257Y3764630D1*
X5900065D1*
Y3829000D1*
X5939045Y3867979D1*
X6009908D1*
X6913058Y1467979D2*
X6968572Y1412464D1*
Y1123494D1*
X6913058Y1067979D1*
X1209908Y667979D2*
X1106559Y564630D1*
X913257D1*
X809908Y667979D1*
X5809908D2*
Y1301054D1*
X5725029Y1385933D1*
X9463058Y2142979D2*
X9519044Y2086992D1*
Y1346640D1*
X9558021Y1307663D1*
X10270930D1*
X10309908Y1268685D1*
Y667979D1*
X5900065Y3764630D2*
X5913058Y3751637D1*
Y3367979D1*
X5209908Y3867979D2*
X5274280Y3932351D1*
X5545536D1*
X5609908Y3867979D1*
X4809908D2*
X4913257Y3764630D1*
X5106559D1*
X5209908Y3867979D1*
X4713058Y3417979D2*
Y3771129D1*
X4809908Y3867979D1*
X2009908Y667979D2*
X1906559Y564630D1*
X1713257D1*
X1609908Y667979D1*
X1013058Y3867979D2*
D16*
X1638344Y3242693D1*
X1976344D1*
X2126058Y3092979D1*
X4388058Y2792979D2*
X4450580Y2792981D1*
X5118701Y1811399D2*
X6187072D1*
X6213058Y1785413D1*
Y667979D1*
X5118701Y1686399D2*
X5067785Y1635483D1*
Y584118D1*
X5093769Y558134D1*
X6383922D1*
X6409908Y584120D1*
Y667979D1*
X6013058Y3367979D2*
Y2943964D1*
X5987073Y2917979D1*
X5588058D1*
X9463058Y1167979D2*
Y936127D1*
X9309908Y782978D1*
Y667979D1*
X9338058Y1167979D2*
X9113058Y942979D1*
Y667979D1*
X2588058Y3092979D2*
Y3442979D1*
X3013058Y3867979D1*
X2688058Y3092979D2*
Y3346129D1*
X3209908Y3867979D1*
X2788058Y3092979D2*
Y3242979D1*
X3413058Y3867979D1*
X2888058Y3092979D2*
Y3146129D1*
X3609908Y3867979D1*
X3813058D2*
Y3617979D1*
X3288058Y3092979D1*
X4009908Y3867979D2*
Y3714829D1*
X3388058Y3092979D1*
X5118701Y1561399D2*
Y636087D1*
X5144685Y610103D1*
X6255182D1*
X6396918Y751839D1*
X6522899D1*
X6606759Y667979D1*
X2206759D2*
X2337076Y798297D1*
Y2666993D1*
X2363063Y2692979D1*
X4288058D1*
X7213058Y1467979D2*
X7113058Y1367979D1*
Y1067979D1*
X9713058Y667979D2*
Y1167979D1*
X4763058Y3367979D2*
X5062072D1*
X5088058Y3341993D1*
Y3042979D1*
X4388058Y2692979D2*
X4450580Y2692981D1*
X9588058Y1167979D2*
Y749278D1*
X9506759Y667979D1*
X9909908D2*
Y1096129D1*
X9838058Y1167979D1*
X8242273Y2547213D2*
X8304777Y2484709D1*
X9562073D1*
X9588058Y2458724D1*
Y1567979D1*
X10113058Y667979D2*
Y1017979D1*
X9963058Y1167979D1*
X5009908Y667979D2*
X4742171Y935716D1*
X4245321D1*
X3988058Y1192979D1*
X4409908Y667979D2*
X4326047Y584118D1*
X3714045D1*
X3688058Y610105D1*
Y1192979D1*
X4006759Y667979D2*
X3937076Y737661D1*
Y1241996D1*
X3537074D1*
X3488058Y1192979D1*
X3613058Y667979D2*
Y767979D1*
X3188058Y1192979D1*
X3406759Y667979D2*
Y874278D1*
X3088058Y1192979D1*
X3209908Y667979D2*
X2988058Y889829D1*
Y1192979D1*
X3013058Y667979D2*
X2888058Y792979D1*
Y1192979D1*
X2806759Y667979D2*
Y1174278D1*
X2788058Y1192979D1*
X2609908Y667979D2*
X2688058Y746129D1*
Y1192979D1*
X2413058Y667979D2*
X2588058Y842979D1*
Y1192979D1*
X7809908Y667979D2*
Y1491011D1*
X7783923Y1516996D1*
X6964041D1*
X6913058Y1567979D1*
Y1667979D2*
X6838056Y1592978D1*
Y993497D1*
X6864041Y967512D1*
X7313525D1*
X7613058Y667979D1*
X7213058Y2067979D2*
X7264041Y2016996D1*
X8183923D1*
X8209908Y1991011D1*
Y667979D1*
X7213058Y1967979D2*
X7987072D1*
X8013058Y1941993D1*
Y667979D1*
X3727548Y2841996D2*
X3639041D1*
X3513058Y2967979D1*
X6988060Y2641996D2*
Y1942982D1*
X6913058Y1867979D1*
Y1767979D2*
X6846778D1*
X6777371Y1837386D1*
X5520548D1*
X5494564Y1863370D1*
Y2841996D1*
X5726847Y2741996D2*
X6239041D1*
X6913058Y2067979D1*
X7199958Y2541996D2*
X7496776Y2245178D1*
X9260859D1*
X9363058Y2142979D1*
D29*
X2281572Y3303355D3*
X5725029Y1385933D3*
X4450580Y2792981D3*
Y2692981D3*
X8242273Y2547213D3*
X3727548Y2841996D3*
X6988060Y2641996D3*
X5494564Y2841996D3*
X5726847Y2741996D3*
X7199958Y2541996D3*
D21*
X2613058Y3867979D3*
X2809908D3*
X3013058D3*
X3209908D3*
X3413058D3*
X3609908D3*
X6213058D3*
X6409908D3*
X613058Y667979D3*
X809908D3*
X6613058Y3867979D3*
X6809908D3*
X4613058D3*
X4809908D3*
D22*
X4388058Y1392979D3*
Y1492979D3*
Y1592979D3*
Y1692979D3*
Y1792979D3*
Y1892979D3*
Y1992979D3*
Y2092979D3*
Y2192979D3*
Y2292979D3*
Y2392979D3*
Y2492979D3*
Y2592979D3*
Y2692979D3*
Y2792979D3*
Y2892979D3*
Y2992979D3*
X4288058Y3092979D3*
Y1392979D3*
Y1492979D3*
Y1592979D3*
Y1692979D3*
Y1792979D3*
Y1892979D3*
Y1992979D3*
Y2092979D3*
Y2192979D3*
Y2292979D3*
Y2392979D3*
Y2492979D3*
Y2592979D3*
Y2692979D3*
Y2792979D3*
Y2892979D3*
Y2992979D3*
X4388058Y3092979D3*
X2188058Y1192979D3*
X1988058D3*
X1888058D3*
X1788058D3*
X1688058D3*
X3088058D3*
X2988058D3*
X2888058D3*
X2788058D3*
X2688058D3*
X2588058D3*
X2226058Y3092979D3*
X2126058D3*
X2026058D3*
X1926058D3*
X1826058D3*
X1726058D3*
X1626058D3*
X1525058D3*
X1426058D3*
X1326058D3*
X3088058D3*
X2988058D3*
X2888058D3*
X2788058D3*
X2688058D3*
X2588058D3*
X2488058D3*
X2388058D3*
X3288058D3*
X3388058D3*
X3488058D3*
X3588058D3*
X3688058D3*
X3788058D3*
X3888058D3*
X3988058D3*
X3188058Y1192979D3*
X3288058D3*
X3488058D3*
X3588058D3*
X3688058D3*
X3788058D3*
X3888058D3*
X3988058D3*
X4088058D3*
X4188058D3*
X2088058D3*
X2388058D3*
X2288058D3*
D21*
X1013058Y3867979D3*
X1209908D3*
D23*
X5338058Y3242979D3*
D24*
X5588058D3*
D21*
X9113058Y667979D3*
X9309908D3*
X9506759D3*
X5013058Y3867979D3*
X5209908D3*
X5413058D3*
X5609908D3*
X5813058D3*
X6009908D3*
X1013058Y667979D3*
X1209908D3*
X1413058D3*
X1609908D3*
X1813058D3*
X2009908D3*
X2206759D3*
X1413058Y3867979D3*
X1609908D3*
D25*
X5088058Y3042979D3*
D26*
X4688058D3*
D23*
X5338058Y2917979D3*
D24*
X5588058D3*
D21*
X6813058Y667979D3*
X7009908D3*
X5613058D3*
X5809908D3*
X6006759D3*
X6213058D3*
X6409908D3*
X6606759D3*
X7213058D3*
X7409908D3*
X7613058D3*
X7809908D3*
X8013058D3*
X8209908D3*
X2413058D3*
X2609908D3*
X2806759D3*
D22*
X7213058Y1367979D3*
D27*
Y1467979D3*
Y1567979D3*
Y1667979D3*
Y1767979D3*
Y1867979D3*
Y1967979D3*
Y2067979D3*
X6913058D3*
Y1967979D3*
Y1867979D3*
Y1767979D3*
Y1667979D3*
Y1567979D3*
Y1467979D3*
Y1367979D3*
D25*
X9463058Y1167979D3*
D26*
Y1567979D3*
D25*
X9338058Y1167979D3*
D26*
Y1567979D3*
D25*
X9588058Y1167979D3*
D26*
Y1567979D3*
D25*
X9713058Y1167979D3*
D26*
Y1567979D3*
D25*
X9838058Y1167979D3*
D26*
Y1567979D3*
D25*
X9963058Y1167979D3*
D26*
Y1567979D3*
D25*
X4688058Y2892979D3*
D26*
X5088058D3*
D25*
X4718701Y1811399D3*
D26*
X5118701D3*
D25*
X4718701Y1686399D3*
D26*
X5118701D3*
D25*
X4718701Y1561399D3*
D26*
X5118701D3*
D28*
X6013058Y3367979D3*
X5963058Y3317979D3*
D64*
X5913058Y3367979D3*
D28*
X4813058Y3417979D3*
X4763058Y3367979D3*
D64*
X4713058Y3417979D3*
D18*
X7613058Y1267979D3*
Y1467979D3*
X7513058Y1767979D3*
Y1567979D3*
X7613058Y1867979D3*
Y2067979D3*
X6713058Y1267979D3*
Y1467979D3*
X6913058Y1067979D3*
X7113058D3*
X3513058Y2967979D3*
X3613058D3*
D25*
X5913058Y1067979D3*
D26*
Y1467979D3*
D25*
X6013058Y1067979D3*
D26*
Y1467979D3*
D18*
X9463058Y2142979D3*
X8963058D3*
X9363058D3*
X9263058D3*
X9163058D3*
X9063058D3*
D21*
X613058Y3867979D3*
X809908D3*
X1813058D3*
X2009908D3*
X2213058D3*
X2409908D3*
X3813058D3*
X4009908D3*
X4213058D3*
X4409908D3*
X9713058Y667979D3*
X9909908D3*
X10113058D3*
X10309908D3*
X3013058D3*
X3209908D3*
X3406759D3*
X3613058D3*
X3809908D3*
X4006759D3*
X4213058D3*
X4409908D3*
X4606759D3*
X4813058D3*
X5009908D3*
X5213058D3*
X5409908D3*
M02*
