G04 DipTrace 3.3.1.3*
G04 Through.gbr*
%MOIN*%
G04 #@! TF.FileFunction,Plated,1,2,PTH,Drill*
G04 #@! TF.Part,Single*
G04 Drill Symbols*
G04 D=0.019121 - Cross*
G04 D=0.027992 - X*
G04 D=0.028005 - Y*
G04 D=0.035433 - T*
G04 D=0.038005 - V*
G04 D=0.051181 - Clock*
G04 D=0.125 - Box_Cross*
G04 D=0.125984 - Box_X*
G04 D=0.216535 - Box_Y*
%ADD10C,0.007874*%
%FSLAX26Y26*%
G04*
G70*
G90*
G75*
G01*
X2613058Y3891601D2*
D10*
Y3867979D1*
X2636680D1*
X2809908Y3891601D2*
Y3867979D1*
X2833530D1*
X3013058Y3891601D2*
Y3867979D1*
X3036680D1*
X3209908Y3891601D2*
Y3867979D1*
X3233530D1*
X3413058Y3891601D2*
Y3867979D1*
X3436680D1*
X3609908Y3891601D2*
Y3867979D1*
X3633530D1*
X6213058Y3891601D2*
Y3867979D1*
X6236680D1*
X6409908Y3891601D2*
Y3867979D1*
X6433530D1*
X613058Y691601D2*
Y667979D1*
X636680D1*
X809908Y691601D2*
Y667979D1*
X833530D1*
X6613058Y3891601D2*
Y3867979D1*
X6636680D1*
X6809908Y3891601D2*
Y3867979D1*
X6833530D1*
X4613058Y3891601D2*
Y3867979D1*
X4636680D1*
X4809908Y3891601D2*
Y3867979D1*
X4833530D1*
X4364436Y1392979D2*
X4411680D1*
X4388058D2*
Y1369357D1*
X4364436Y1492979D2*
X4411680D1*
X4388058D2*
Y1469357D1*
X4364436Y1592979D2*
X4411680D1*
X4388058D2*
Y1569357D1*
X4364436Y1692979D2*
X4411680D1*
X4388058D2*
Y1669357D1*
X4364436Y1792979D2*
X4411680D1*
X4388058D2*
Y1769357D1*
X4364436Y1892979D2*
X4411680D1*
X4388058D2*
Y1869357D1*
X4364436Y1992979D2*
X4411680D1*
X4388058D2*
Y1969357D1*
X4364436Y2092979D2*
X4411680D1*
X4388058D2*
Y2069357D1*
X4364436Y2192979D2*
X4411680D1*
X4388058D2*
Y2169357D1*
X4364436Y2292979D2*
X4411680D1*
X4388058D2*
Y2269357D1*
X4364436Y2392979D2*
X4411680D1*
X4388058D2*
Y2369357D1*
X4364436Y2492979D2*
X4411680D1*
X4388058D2*
Y2469357D1*
X4364436Y2592979D2*
X4411680D1*
X4388058D2*
Y2569357D1*
X4364436Y2692979D2*
X4411680D1*
X4388058D2*
Y2669357D1*
X4364436Y2792979D2*
X4411680D1*
X4388058D2*
Y2769357D1*
X4364436Y2892979D2*
X4411680D1*
X4388058D2*
Y2869357D1*
X4364436Y2992979D2*
X4411680D1*
X4388058D2*
Y2969357D1*
X4264436Y3092979D2*
X4311680D1*
X4288058D2*
Y3069357D1*
X4264436Y1392979D2*
X4311680D1*
X4288058D2*
Y1369357D1*
X4264436Y1492979D2*
X4311680D1*
X4288058D2*
Y1469357D1*
X4264436Y1592979D2*
X4311680D1*
X4288058D2*
Y1569357D1*
X4264436Y1692979D2*
X4311680D1*
X4288058D2*
Y1669357D1*
X4264436Y1792979D2*
X4311680D1*
X4288058D2*
Y1769357D1*
X4264436Y1892979D2*
X4311680D1*
X4288058D2*
Y1869357D1*
X4264436Y1992979D2*
X4311680D1*
X4288058D2*
Y1969357D1*
X4264436Y2092979D2*
X4311680D1*
X4288058D2*
Y2069357D1*
X4264436Y2192979D2*
X4311680D1*
X4288058D2*
Y2169357D1*
X4264436Y2292979D2*
X4311680D1*
X4288058D2*
Y2269357D1*
X4264436Y2392979D2*
X4311680D1*
X4288058D2*
Y2369357D1*
X4264436Y2492979D2*
X4311680D1*
X4288058D2*
Y2469357D1*
X4264436Y2592979D2*
X4311680D1*
X4288058D2*
Y2569357D1*
X4264436Y2692979D2*
X4311680D1*
X4288058D2*
Y2669357D1*
X4264436Y2792979D2*
X4311680D1*
X4288058D2*
Y2769357D1*
X4264436Y2892979D2*
X4311680D1*
X4288058D2*
Y2869357D1*
X4264436Y2992979D2*
X4311680D1*
X4288058D2*
Y2969357D1*
X4364436Y3092979D2*
X4411680D1*
X4388058D2*
Y3069357D1*
X2164436Y1192979D2*
X2211680D1*
X2188058D2*
Y1169357D1*
X1964436Y1192979D2*
X2011680D1*
X1988058D2*
Y1169357D1*
X1864436Y1192979D2*
X1911680D1*
X1888058D2*
Y1169357D1*
X1764436Y1192979D2*
X1811680D1*
X1788058D2*
Y1169357D1*
X1664436Y1192979D2*
X1711680D1*
X1688058D2*
Y1169357D1*
X3064436Y1192979D2*
X3111680D1*
X3088058D2*
Y1169357D1*
X2964436Y1192979D2*
X3011680D1*
X2988058D2*
Y1169357D1*
X2864436Y1192979D2*
X2911680D1*
X2888058D2*
Y1169357D1*
X2764436Y1192979D2*
X2811680D1*
X2788058D2*
Y1169357D1*
X2664436Y1192979D2*
X2711680D1*
X2688058D2*
Y1169357D1*
X2564436Y1192979D2*
X2611680D1*
X2588058D2*
Y1169357D1*
X2202436Y3092979D2*
X2249680D1*
X2226058D2*
Y3069357D1*
X2102436Y3092979D2*
X2149680D1*
X2126058D2*
Y3069357D1*
X2002436Y3092979D2*
X2049680D1*
X2026058D2*
Y3069357D1*
X1902436Y3092979D2*
X1949680D1*
X1926058D2*
Y3069357D1*
X1802436Y3092979D2*
X1849680D1*
X1826058D2*
Y3069357D1*
X1702436Y3092979D2*
X1749680D1*
X1726058D2*
Y3069357D1*
X1602436Y3092979D2*
X1649680D1*
X1626058D2*
Y3069357D1*
X1501436Y3092979D2*
X1548680D1*
X1525058D2*
Y3069357D1*
X1402436Y3092979D2*
X1449680D1*
X1426058D2*
Y3069357D1*
X1302436Y3092979D2*
X1349680D1*
X1326058D2*
Y3069357D1*
X3064436Y3092979D2*
X3111680D1*
X3088058D2*
Y3069357D1*
X2964436Y3092979D2*
X3011680D1*
X2988058D2*
Y3069357D1*
X2864436Y3092979D2*
X2911680D1*
X2888058D2*
Y3069357D1*
X2764436Y3092979D2*
X2811680D1*
X2788058D2*
Y3069357D1*
X2664436Y3092979D2*
X2711680D1*
X2688058D2*
Y3069357D1*
X2564436Y3092979D2*
X2611680D1*
X2588058D2*
Y3069357D1*
X2464436Y3092979D2*
X2511680D1*
X2488058D2*
Y3069357D1*
X2364436Y3092979D2*
X2411680D1*
X2388058D2*
Y3069357D1*
X3264436Y3092979D2*
X3311680D1*
X3288058D2*
Y3069357D1*
X3364436Y3092979D2*
X3411680D1*
X3388058D2*
Y3069357D1*
X3464436Y3092979D2*
X3511680D1*
X3488058D2*
Y3069357D1*
X3564436Y3092979D2*
X3611680D1*
X3588058D2*
Y3069357D1*
X3664436Y3092979D2*
X3711680D1*
X3688058D2*
Y3069357D1*
X3764436Y3092979D2*
X3811680D1*
X3788058D2*
Y3069357D1*
X3864436Y3092979D2*
X3911680D1*
X3888058D2*
Y3069357D1*
X3964436Y3092979D2*
X4011680D1*
X3988058D2*
Y3069357D1*
X3164436Y1192979D2*
X3211680D1*
X3188058D2*
Y1169357D1*
X3264436Y1192979D2*
X3311680D1*
X3288058D2*
Y1169357D1*
X3464436Y1192979D2*
X3511680D1*
X3488058D2*
Y1169357D1*
X3564436Y1192979D2*
X3611680D1*
X3588058D2*
Y1169357D1*
X3664436Y1192979D2*
X3711680D1*
X3688058D2*
Y1169357D1*
X3764436Y1192979D2*
X3811680D1*
X3788058D2*
Y1169357D1*
X3864436Y1192979D2*
X3911680D1*
X3888058D2*
Y1169357D1*
X3964436Y1192979D2*
X4011680D1*
X3988058D2*
Y1169357D1*
X4064436Y1192979D2*
X4111680D1*
X4088058D2*
Y1169357D1*
X4164436Y1192979D2*
X4211680D1*
X4188058D2*
Y1169357D1*
X2064436Y1192979D2*
X2111680D1*
X2088058D2*
Y1169357D1*
X2364436Y1192979D2*
X2411680D1*
X2388058D2*
Y1169357D1*
X2264436Y1192979D2*
X2311680D1*
X2288058D2*
Y1169357D1*
X1013058Y3891601D2*
Y3867979D1*
X1036680D1*
X1209908Y3891601D2*
Y3867979D1*
X1233530D1*
X5814436Y3166601D2*
X5861680Y3119357D1*
Y3166601D2*
X5814436Y3119357D1*
X6064436Y3166601D2*
X6111680Y3119357D1*
Y3166601D2*
X6064436Y3119357D1*
X9113058Y691601D2*
Y667979D1*
X9136680D1*
X9309908Y691601D2*
Y667979D1*
X9333530D1*
X9506759Y691601D2*
Y667979D1*
X9530381D1*
X5013058Y3891601D2*
Y3867979D1*
X5036680D1*
X5209908Y3891601D2*
Y3867979D1*
X5233530D1*
X5413058Y3891601D2*
Y3867979D1*
X5436680D1*
X5609908Y3891601D2*
Y3867979D1*
X5633530D1*
X5813058Y3891601D2*
Y3867979D1*
X5836680D1*
X6009908Y3891601D2*
Y3867979D1*
X6033530D1*
X1013058Y691601D2*
Y667979D1*
X1036680D1*
X1209908Y691601D2*
Y667979D1*
X1233530D1*
X1413058Y691601D2*
Y667979D1*
X1436680D1*
X1609908Y691601D2*
Y667979D1*
X1633530D1*
X1813058Y691601D2*
Y667979D1*
X1836680D1*
X2009908Y691601D2*
Y667979D1*
X2033530D1*
X2206759Y691601D2*
Y667979D1*
X2230381D1*
X1413058Y3891601D2*
Y3867979D1*
X1436680D1*
X1609908Y3891601D2*
Y3867979D1*
X1633530D1*
X5339436Y2866601D2*
X5363058Y2842979D1*
X5386680Y2866601D1*
X4939436D2*
X4963058Y2842979D1*
X4986680Y2866601D1*
X6314436Y3166601D2*
X6361680Y3119357D1*
Y3166601D2*
X6314436Y3119357D1*
X6564436Y3166601D2*
X6611680Y3119357D1*
Y3166601D2*
X6564436Y3119357D1*
X6813058Y691601D2*
Y667979D1*
X6836680D1*
X7009908Y691601D2*
Y667979D1*
X7033530D1*
X5613058Y691601D2*
Y667979D1*
X5636680D1*
X5809908Y691601D2*
Y667979D1*
X5833530D1*
X6006759Y691601D2*
Y667979D1*
X6030381D1*
X6213058Y691601D2*
Y667979D1*
X6236680D1*
X6409908Y691601D2*
Y667979D1*
X6433530D1*
X6606759Y691601D2*
Y667979D1*
X6630381D1*
X7213058Y691601D2*
Y667979D1*
X7236680D1*
X7409908Y691601D2*
Y667979D1*
X7433530D1*
X7613058Y691601D2*
Y667979D1*
X7636680D1*
X7809908Y691601D2*
Y667979D1*
X7833530D1*
X8013058Y691601D2*
Y667979D1*
X8036680D1*
X8209908Y691601D2*
Y667979D1*
X8233530D1*
X2413058Y691601D2*
Y667979D1*
X2436680D1*
X2609908Y691601D2*
Y667979D1*
X2633530D1*
X2806759Y691601D2*
Y667979D1*
X2830381D1*
X7189436Y1567979D2*
X7236680D1*
X7213058D2*
Y1544357D1*
X7189436Y1667979D2*
X7236680D1*
X7213058D2*
Y1644357D1*
X7189436Y1767979D2*
X7236680D1*
X7213058D2*
Y1744357D1*
X7189436Y1867979D2*
X7236680D1*
X7213058D2*
Y1844357D1*
X7189436Y1967979D2*
X7236680D1*
X7213058D2*
Y1944357D1*
X7189436Y2067979D2*
X7236680D1*
X7213058D2*
Y2044357D1*
X7189436Y2167979D2*
X7236680D1*
X7213058D2*
Y2144357D1*
X7189436Y2267979D2*
X7236680D1*
X7213058D2*
Y2244357D1*
X6889436Y2267979D2*
X6936680D1*
X6913058D2*
Y2244357D1*
X6889436Y2167979D2*
X6936680D1*
X6913058D2*
Y2144357D1*
X6889436Y2067979D2*
X6936680D1*
X6913058D2*
Y2044357D1*
X6889436Y1967979D2*
X6936680D1*
X6913058D2*
Y1944357D1*
X6889436Y1867979D2*
X6936680D1*
X6913058D2*
Y1844357D1*
X6889436Y1767979D2*
X6936680D1*
X6913058D2*
Y1744357D1*
X6889436Y1667979D2*
X6936680D1*
X6913058D2*
Y1644357D1*
X6889436Y1567979D2*
X6936680D1*
X6913058D2*
Y1544357D1*
X9439436Y1191601D2*
X9463058Y1167979D1*
X9486680Y1191601D1*
X9439436Y1591601D2*
X9463058Y1567979D1*
X9486680Y1591601D1*
X9314436Y1191601D2*
X9338058Y1167979D1*
X9361680Y1191601D1*
X9314436Y1591601D2*
X9338058Y1567979D1*
X9361680Y1591601D1*
X9564436Y1191601D2*
X9588058Y1167979D1*
X9611680Y1191601D1*
X9564436Y1591601D2*
X9588058Y1567979D1*
X9611680Y1591601D1*
X9689436Y1191601D2*
X9713058Y1167979D1*
X9736680Y1191601D1*
X9689436Y1591601D2*
X9713058Y1567979D1*
X9736680Y1591601D1*
X9814436Y1191601D2*
X9838058Y1167979D1*
X9861680Y1191601D1*
X9814436Y1591601D2*
X9838058Y1567979D1*
X9861680Y1591601D1*
X9939436Y1191601D2*
X9963058Y1167979D1*
X9986680Y1191601D1*
X9939436Y1591601D2*
X9963058Y1567979D1*
X9986680Y1591601D1*
X4939436Y2716601D2*
X4963058Y2692979D1*
X4986680Y2716601D1*
X5339436D2*
X5363058Y2692979D1*
X5386680Y2716601D1*
X4695079Y1835021D2*
X4718701Y1811399D1*
X4742323Y1835021D1*
X5095079D2*
X5118701Y1811399D1*
X5142323Y1835021D1*
X4695079Y1710021D2*
X4718701Y1686399D1*
X4742323Y1710021D1*
X5095079D2*
X5118701Y1686399D1*
X5142323Y1710021D1*
X4695079Y1585021D2*
X4718701Y1561399D1*
X4742323Y1585021D1*
X5095079D2*
X5118701Y1561399D1*
X5142323Y1585021D1*
X6433185Y2830479D2*
X6480429D1*
X6456807D2*
Y2806857D1*
X6533185Y2730479D2*
X6580429D1*
X6556807D2*
Y2706857D1*
X6633185Y2830479D2*
X6680429D1*
X6656807D2*
Y2806857D1*
X7589436Y1467979D2*
X7636680D1*
X7613058D2*
Y1444357D1*
X7589436Y1667979D2*
X7636680D1*
X7613058D2*
Y1644357D1*
X7489436Y1967979D2*
X7536680D1*
X7513058D2*
Y1944357D1*
X7489436Y1767979D2*
X7536680D1*
X7513058D2*
Y1744357D1*
X7589436Y2067979D2*
X7636680D1*
X7613058D2*
Y2044357D1*
X7589436Y2267979D2*
X7636680D1*
X7613058D2*
Y2244357D1*
X6689436Y1467979D2*
X6736680D1*
X6713058D2*
Y1444357D1*
X6689436Y1667979D2*
X6736680D1*
X6713058D2*
Y1644357D1*
X6889436Y1267979D2*
X6936680D1*
X6913058D2*
Y1244357D1*
X7089436Y1267979D2*
X7136680D1*
X7113058D2*
Y1244357D1*
X3489436Y2967979D2*
X3536680D1*
X3513058D2*
Y2944357D1*
X3589436Y2967979D2*
X3636680D1*
X3613058D2*
Y2944357D1*
X5889436Y1291601D2*
X5913058Y1267979D1*
X5936680Y1291601D1*
X5889436Y1691601D2*
X5913058Y1667979D1*
X5936680Y1691601D1*
X6089436Y1291601D2*
X6113058Y1267979D1*
X6136680Y1291601D1*
X6089436Y1691601D2*
X6113058Y1667979D1*
X6136680Y1691601D1*
X9639436Y2142979D2*
X9686680D1*
X9663058D2*
Y2119357D1*
X9139436Y2142979D2*
X9186680D1*
X9163058D2*
Y2119357D1*
X9539436Y2142979D2*
X9586680D1*
X9563058D2*
Y2119357D1*
X9439436Y2142979D2*
X9486680D1*
X9463058D2*
Y2119357D1*
X9339436Y2142979D2*
X9386680D1*
X9363058D2*
Y2119357D1*
X9239436Y2142979D2*
X9286680D1*
X9263058D2*
Y2119357D1*
X613058Y3891601D2*
Y3867979D1*
X636680D1*
X809908Y3891601D2*
Y3867979D1*
X833530D1*
X1813058Y3891601D2*
Y3867979D1*
X1836680D1*
X2009908Y3891601D2*
Y3867979D1*
X2033530D1*
X2213058Y3891601D2*
Y3867979D1*
X2236680D1*
X2409908Y3891601D2*
Y3867979D1*
X2433530D1*
X3813058Y3891601D2*
Y3867979D1*
X3836680D1*
X4009908Y3891601D2*
Y3867979D1*
X4033530D1*
X4213058Y3891601D2*
Y3867979D1*
X4236680D1*
X4409908Y3891601D2*
Y3867979D1*
X4433530D1*
X9713058Y691601D2*
Y667979D1*
X9736680D1*
X9909908Y691601D2*
Y667979D1*
X9933530D1*
X10113058Y691601D2*
Y667979D1*
X10136680D1*
X10309908Y691601D2*
Y667979D1*
X10333530D1*
X3013058Y691601D2*
Y667979D1*
X3036680D1*
X3209908Y691601D2*
Y667979D1*
X3233530D1*
X3406759Y691601D2*
Y667979D1*
X3430381D1*
X3613058Y691601D2*
Y667979D1*
X3636680D1*
X3809908Y691601D2*
Y667979D1*
X3833530D1*
X4006759Y691601D2*
Y667979D1*
X4030381D1*
X4213058Y691601D2*
Y667979D1*
X4236680D1*
X4409908Y691601D2*
Y667979D1*
X4433530D1*
X4606759Y691601D2*
Y667979D1*
X4630381D1*
X4813058Y691601D2*
Y667979D1*
X4836680D1*
X5009908Y691601D2*
Y667979D1*
X5033530D1*
X5213058Y691601D2*
Y667979D1*
X5236680D1*
X5409908Y691601D2*
Y667979D1*
X5433530D1*
X5820685Y2854101D2*
X5844307Y2830479D1*
X5867929Y2854101D1*
X5844307Y2830479D2*
Y2806857D1*
X5620685Y2854101D2*
X5644307Y2830479D1*
X5667929Y2854101D1*
X5644307Y2830479D2*
Y2806857D1*
X5720685Y2754101D2*
X5744307Y2730479D1*
X5767929Y2754101D1*
X5744307Y2730479D2*
Y2706857D1*
X6791131Y2556091D2*
Y2508846D1*
X6767509Y2532469D2*
X6814753D1*
X8242273Y2556091D2*
Y2508846D1*
X8218651Y2532469D2*
X8265895D1*
X6059749Y1347587D2*
Y1300343D1*
X6036127Y1323965D2*
X6083371D1*
X4476564Y2816602D2*
Y2769358D1*
X4452942Y2792980D2*
X4500186D1*
X4490068Y1462587D2*
Y1415343D1*
X4466446Y1438965D2*
X4513690D1*
X9526052Y1442587D2*
Y1395343D1*
X9502430Y1418965D2*
X9549675D1*
X4450580Y1965618D2*
Y1918374D1*
X4426958Y1941996D2*
X4474202D1*
X9275068Y1534319D2*
Y1487075D1*
X9251446Y1510697D2*
X9298690D1*
X4529556Y2205106D2*
Y2157862D1*
X4505934Y2181484D2*
X4553178D1*
X6837115Y2091602D2*
Y2044358D1*
X6813493Y2067980D2*
X6860738D1*
X6844123Y3276563D2*
Y3229319D1*
X6820501Y3252941D2*
X6867745D1*
X3688056Y3243520D2*
Y3196276D1*
X3664434Y3219898D2*
X3711678D1*
X6913056Y3211091D2*
Y3163846D1*
X6889434Y3187469D2*
X6936678D1*
X3788056Y3211087D2*
Y3163843D1*
X3764434Y3187465D2*
X3811678D1*
X4450580Y2023024D2*
Y1975780D1*
X4426958Y1999402D2*
X4474202D1*
X5824080Y1741091D2*
Y1693846D1*
X5800458Y1717469D2*
X5847702D1*
X8137336Y2602075D2*
Y2554831D1*
X8113714Y2578453D2*
X8160958D1*
X1015223Y3092979D2*
X1062467D1*
X1038845D2*
Y3069357D1*
X915223Y3092979D2*
X962467D1*
X938845D2*
Y3069357D1*
X815223Y3092979D2*
X862467D1*
X838845D2*
Y3069357D1*
X715223Y3092979D2*
X762467D1*
X738845D2*
Y3069357D1*
X4450580Y1363571D2*
Y1316327D1*
X4426958Y1339949D2*
X4474202D1*
X6762584Y749477D2*
Y702233D1*
X6738962Y725855D2*
X6786206D1*
X5067785Y1515579D2*
Y1468335D1*
X5044163Y1491957D2*
X5091407D1*
X1138058Y1216601D2*
Y1169357D1*
X1114436Y1192979D2*
X1161680D1*
X1114436Y1216601D2*
X1161680D1*
Y1169357D1*
X1114436D1*
Y1216601D1*
X1188058Y3116601D2*
Y3069357D1*
X1164436Y3092979D2*
X1211680D1*
X1164436Y3116601D2*
X1211680D1*
Y3069357D1*
X1164436D1*
Y3116601D1*
X3188058Y1416601D2*
Y1369357D1*
X3164436Y1392979D2*
X3211680D1*
X3164436Y1416601D2*
X3211680D1*
Y1369357D1*
X3164436D1*
Y1416601D1*
X3188058Y2516601D2*
Y2469357D1*
X3164436Y2492979D2*
X3211680D1*
X3164436Y2516601D2*
X3211680D1*
Y2469357D1*
X3164436D1*
Y2516601D1*
X4388058Y1216601D2*
Y1169357D1*
X4364436Y1192979D2*
X4411680D1*
X4364436Y1216601D2*
X4411680D1*
Y1169357D1*
X4364436D1*
Y1216601D1*
X4138058Y3116601D2*
Y3069357D1*
X4114436Y3092979D2*
X4161680D1*
X4114436Y3116601D2*
X4161680D1*
Y3069357D1*
X4114436D1*
Y3116601D1*
X1389436Y2691601D2*
X1413058Y2667979D1*
X1436680Y2691601D1*
X1413058Y2667979D2*
Y2644357D1*
X1389436Y2691601D2*
X1436680D1*
Y2644357D1*
X1389436D1*
Y2691601D1*
Y1691601D2*
X1413058Y1667979D1*
X1436680Y1691601D1*
X1413058Y1667979D2*
Y1644357D1*
X1389436Y1691601D2*
X1436680D1*
Y1644357D1*
X1389436D1*
Y1691601D1*
X11389436Y2916601D2*
X11436680Y2869357D1*
Y2916601D2*
X11389436Y2869357D1*
Y2916601D2*
X11436680D1*
Y2869357D1*
X11389436D1*
Y2916601D1*
Y3916601D2*
X11436680Y3869357D1*
Y3916601D2*
X11389436Y3869357D1*
Y3916601D2*
X11436680D1*
Y3869357D1*
X11389436D1*
Y3916601D1*
X7389436D2*
X7436680Y3869357D1*
Y3916601D2*
X7389436Y3869357D1*
Y3916601D2*
X7436680D1*
Y3869357D1*
X7389436D1*
Y3916601D1*
Y2916601D2*
X7436680Y2869357D1*
Y2916601D2*
X7389436Y2869357D1*
Y2916601D2*
X7436680D1*
Y2869357D1*
X7389436D1*
Y2916601D1*
X8389436Y2691601D2*
X8413058Y2667979D1*
X8436680Y2691601D1*
X8413058Y2667979D2*
Y2644357D1*
X8389436Y2691601D2*
X8436680D1*
Y2644357D1*
X8389436D1*
Y2691601D1*
Y1691601D2*
X8413058Y1667979D1*
X8436680Y1691601D1*
X8413058Y1667979D2*
Y1644357D1*
X8389436Y1691601D2*
X8436680D1*
Y1644357D1*
X8389436D1*
Y1691601D1*
M02*
