G04 DipTrace 3.3.1.3*
G04 Through.gbr*
%MOIN*%
G04 #@! TF.FileFunction,Plated,1,2,PTH,Drill*
G04 #@! TF.Part,Single*
G04 Drill Symbols*
G04 D=0.019121 - Cross*
G04 D=0.027992 - X*
G04 D=0.031496 - Y*
G04 D=0.035433 - T*
G04 D=0.038005 - V*
G04 D=0.051181 - Clock*
G04 D=0.125 - Box_Cross*
G04 D=0.125984 - Box_X*
G04 D=0.216535 - Box_Y*
%ADD10C,0.007874*%
%FSLAX26Y26*%
G04*
G70*
G90*
G75*
G01*
X2613058Y3891601D2*
D10*
Y3867979D1*
X2636680D1*
X2809908Y3891601D2*
Y3867979D1*
X2833530D1*
X3013058Y3891601D2*
Y3867979D1*
X3036680D1*
X3209908Y3891601D2*
Y3867979D1*
X3233530D1*
X3413058Y3891601D2*
Y3867979D1*
X3436680D1*
X3609908Y3891601D2*
Y3867979D1*
X3633530D1*
X6213058Y3891601D2*
Y3867979D1*
X6236680D1*
X6409908Y3891601D2*
Y3867979D1*
X6433530D1*
X613058Y691601D2*
Y667979D1*
X636680D1*
X809908Y691601D2*
Y667979D1*
X833530D1*
X6613058Y3891601D2*
Y3867979D1*
X6636680D1*
X6809908Y3891601D2*
Y3867979D1*
X6833530D1*
X4613058Y3891601D2*
Y3867979D1*
X4636680D1*
X4809908Y3891601D2*
Y3867979D1*
X4833530D1*
X4364436Y1392979D2*
X4411680D1*
X4388058D2*
Y1369357D1*
X4364436Y1492979D2*
X4411680D1*
X4388058D2*
Y1469357D1*
X4364436Y1592979D2*
X4411680D1*
X4388058D2*
Y1569357D1*
X4364436Y1692979D2*
X4411680D1*
X4388058D2*
Y1669357D1*
X4364436Y1792979D2*
X4411680D1*
X4388058D2*
Y1769357D1*
X4364436Y1892979D2*
X4411680D1*
X4388058D2*
Y1869357D1*
X4364436Y1992979D2*
X4411680D1*
X4388058D2*
Y1969357D1*
X4364436Y2092979D2*
X4411680D1*
X4388058D2*
Y2069357D1*
X4364436Y2192979D2*
X4411680D1*
X4388058D2*
Y2169357D1*
X4364436Y2292979D2*
X4411680D1*
X4388058D2*
Y2269357D1*
X4364436Y2392979D2*
X4411680D1*
X4388058D2*
Y2369357D1*
X4364436Y2492979D2*
X4411680D1*
X4388058D2*
Y2469357D1*
X4364436Y2592979D2*
X4411680D1*
X4388058D2*
Y2569357D1*
X4364436Y2692979D2*
X4411680D1*
X4388058D2*
Y2669357D1*
X4364436Y2792979D2*
X4411680D1*
X4388058D2*
Y2769357D1*
X4364436Y2892979D2*
X4411680D1*
X4388058D2*
Y2869357D1*
X4364436Y2992979D2*
X4411680D1*
X4388058D2*
Y2969357D1*
X4264436Y3092979D2*
X4311680D1*
X4288058D2*
Y3069357D1*
X4264436Y1392979D2*
X4311680D1*
X4288058D2*
Y1369357D1*
X4264436Y1492979D2*
X4311680D1*
X4288058D2*
Y1469357D1*
X4264436Y1592979D2*
X4311680D1*
X4288058D2*
Y1569357D1*
X4264436Y1692979D2*
X4311680D1*
X4288058D2*
Y1669357D1*
X4264436Y1792979D2*
X4311680D1*
X4288058D2*
Y1769357D1*
X4264436Y1892979D2*
X4311680D1*
X4288058D2*
Y1869357D1*
X4264436Y1992979D2*
X4311680D1*
X4288058D2*
Y1969357D1*
X4264436Y2092979D2*
X4311680D1*
X4288058D2*
Y2069357D1*
X4264436Y2192979D2*
X4311680D1*
X4288058D2*
Y2169357D1*
X4264436Y2292979D2*
X4311680D1*
X4288058D2*
Y2269357D1*
X4264436Y2392979D2*
X4311680D1*
X4288058D2*
Y2369357D1*
X4264436Y2492979D2*
X4311680D1*
X4288058D2*
Y2469357D1*
X4264436Y2592979D2*
X4311680D1*
X4288058D2*
Y2569357D1*
X4264436Y2692979D2*
X4311680D1*
X4288058D2*
Y2669357D1*
X4264436Y2792979D2*
X4311680D1*
X4288058D2*
Y2769357D1*
X4264436Y2892979D2*
X4311680D1*
X4288058D2*
Y2869357D1*
X4264436Y2992979D2*
X4311680D1*
X4288058D2*
Y2969357D1*
X4364436Y3092979D2*
X4411680D1*
X4388058D2*
Y3069357D1*
X2164436Y1192979D2*
X2211680D1*
X2188058D2*
Y1169357D1*
X1964436Y1192979D2*
X2011680D1*
X1988058D2*
Y1169357D1*
X1864436Y1192979D2*
X1911680D1*
X1888058D2*
Y1169357D1*
X1764436Y1192979D2*
X1811680D1*
X1788058D2*
Y1169357D1*
X1664436Y1192979D2*
X1711680D1*
X1688058D2*
Y1169357D1*
X3064436Y1192979D2*
X3111680D1*
X3088058D2*
Y1169357D1*
X2964436Y1192979D2*
X3011680D1*
X2988058D2*
Y1169357D1*
X2864436Y1192979D2*
X2911680D1*
X2888058D2*
Y1169357D1*
X2764436Y1192979D2*
X2811680D1*
X2788058D2*
Y1169357D1*
X2664436Y1192979D2*
X2711680D1*
X2688058D2*
Y1169357D1*
X2564436Y1192979D2*
X2611680D1*
X2588058D2*
Y1169357D1*
X2202436Y3092979D2*
X2249680D1*
X2226058D2*
Y3069357D1*
X2102436Y3092979D2*
X2149680D1*
X2126058D2*
Y3069357D1*
X2002436Y3092979D2*
X2049680D1*
X2026058D2*
Y3069357D1*
X1902436Y3092979D2*
X1949680D1*
X1926058D2*
Y3069357D1*
X1802436Y3092979D2*
X1849680D1*
X1826058D2*
Y3069357D1*
X1702436Y3092979D2*
X1749680D1*
X1726058D2*
Y3069357D1*
X1602436Y3092979D2*
X1649680D1*
X1626058D2*
Y3069357D1*
X1501436Y3092979D2*
X1548680D1*
X1525058D2*
Y3069357D1*
X1402436Y3092979D2*
X1449680D1*
X1426058D2*
Y3069357D1*
X1302436Y3092979D2*
X1349680D1*
X1326058D2*
Y3069357D1*
X3064436Y3092979D2*
X3111680D1*
X3088058D2*
Y3069357D1*
X2964436Y3092979D2*
X3011680D1*
X2988058D2*
Y3069357D1*
X2864436Y3092979D2*
X2911680D1*
X2888058D2*
Y3069357D1*
X2764436Y3092979D2*
X2811680D1*
X2788058D2*
Y3069357D1*
X2664436Y3092979D2*
X2711680D1*
X2688058D2*
Y3069357D1*
X2564436Y3092979D2*
X2611680D1*
X2588058D2*
Y3069357D1*
X2464436Y3092979D2*
X2511680D1*
X2488058D2*
Y3069357D1*
X2364436Y3092979D2*
X2411680D1*
X2388058D2*
Y3069357D1*
X3264436Y3092979D2*
X3311680D1*
X3288058D2*
Y3069357D1*
X3364436Y3092979D2*
X3411680D1*
X3388058D2*
Y3069357D1*
X3464436Y3092979D2*
X3511680D1*
X3488058D2*
Y3069357D1*
X3564436Y3092979D2*
X3611680D1*
X3588058D2*
Y3069357D1*
X3664436Y3092979D2*
X3711680D1*
X3688058D2*
Y3069357D1*
X3764436Y3092979D2*
X3811680D1*
X3788058D2*
Y3069357D1*
X3864436Y3092979D2*
X3911680D1*
X3888058D2*
Y3069357D1*
X3964436Y3092979D2*
X4011680D1*
X3988058D2*
Y3069357D1*
X3164436Y1192979D2*
X3211680D1*
X3188058D2*
Y1169357D1*
X3264436Y1192979D2*
X3311680D1*
X3288058D2*
Y1169357D1*
X3464436Y1192979D2*
X3511680D1*
X3488058D2*
Y1169357D1*
X3564436Y1192979D2*
X3611680D1*
X3588058D2*
Y1169357D1*
X3664436Y1192979D2*
X3711680D1*
X3688058D2*
Y1169357D1*
X3764436Y1192979D2*
X3811680D1*
X3788058D2*
Y1169357D1*
X3864436Y1192979D2*
X3911680D1*
X3888058D2*
Y1169357D1*
X3964436Y1192979D2*
X4011680D1*
X3988058D2*
Y1169357D1*
X4064436Y1192979D2*
X4111680D1*
X4088058D2*
Y1169357D1*
X4164436Y1192979D2*
X4211680D1*
X4188058D2*
Y1169357D1*
X2064436Y1192979D2*
X2111680D1*
X2088058D2*
Y1169357D1*
X2364436Y1192979D2*
X2411680D1*
X2388058D2*
Y1169357D1*
X2264436Y1192979D2*
X2311680D1*
X2288058D2*
Y1169357D1*
X1013058Y3891601D2*
Y3867979D1*
X1036680D1*
X1209908Y3891601D2*
Y3867979D1*
X1233530D1*
X5314436Y3266601D2*
X5361680Y3219357D1*
Y3266601D2*
X5314436Y3219357D1*
X5564436Y3266601D2*
X5611680Y3219357D1*
Y3266601D2*
X5564436Y3219357D1*
X9113058Y691601D2*
Y667979D1*
X9136680D1*
X9309908Y691601D2*
Y667979D1*
X9333530D1*
X9506759Y691601D2*
Y667979D1*
X9530381D1*
X5013058Y3891601D2*
Y3867979D1*
X5036680D1*
X5209908Y3891601D2*
Y3867979D1*
X5233530D1*
X5413058Y3891601D2*
Y3867979D1*
X5436680D1*
X5609908Y3891601D2*
Y3867979D1*
X5633530D1*
X5813058Y3891601D2*
Y3867979D1*
X5836680D1*
X6009908Y3891601D2*
Y3867979D1*
X6033530D1*
X1013058Y691601D2*
Y667979D1*
X1036680D1*
X1209908Y691601D2*
Y667979D1*
X1233530D1*
X1413058Y691601D2*
Y667979D1*
X1436680D1*
X1609908Y691601D2*
Y667979D1*
X1633530D1*
X1813058Y691601D2*
Y667979D1*
X1836680D1*
X2009908Y691601D2*
Y667979D1*
X2033530D1*
X2206759Y691601D2*
Y667979D1*
X2230381D1*
X1413058Y3891601D2*
Y3867979D1*
X1436680D1*
X1609908Y3891601D2*
Y3867979D1*
X1633530D1*
X5064436Y3066601D2*
X5088058Y3042979D1*
X5111680Y3066601D1*
X4664436D2*
X4688058Y3042979D1*
X4711680Y3066601D1*
X5314436Y2941601D2*
X5361680Y2894357D1*
Y2941601D2*
X5314436Y2894357D1*
X5564436Y2941601D2*
X5611680Y2894357D1*
Y2941601D2*
X5564436Y2894357D1*
X6813058Y691601D2*
Y667979D1*
X6836680D1*
X7009908Y691601D2*
Y667979D1*
X7033530D1*
X5613058Y691601D2*
Y667979D1*
X5636680D1*
X5809908Y691601D2*
Y667979D1*
X5833530D1*
X6006759Y691601D2*
Y667979D1*
X6030381D1*
X6213058Y691601D2*
Y667979D1*
X6236680D1*
X6409908Y691601D2*
Y667979D1*
X6433530D1*
X6606759Y691601D2*
Y667979D1*
X6630381D1*
X7213058Y691601D2*
Y667979D1*
X7236680D1*
X7409908Y691601D2*
Y667979D1*
X7433530D1*
X7613058Y691601D2*
Y667979D1*
X7636680D1*
X7809908Y691601D2*
Y667979D1*
X7833530D1*
X8013058Y691601D2*
Y667979D1*
X8036680D1*
X8209908Y691601D2*
Y667979D1*
X8233530D1*
X2413058Y691601D2*
Y667979D1*
X2436680D1*
X2609908Y691601D2*
Y667979D1*
X2633530D1*
X2806759Y691601D2*
Y667979D1*
X2830381D1*
X7189436Y1367979D2*
X7236680D1*
X7213058D2*
Y1344357D1*
X7189436Y1467979D2*
X7236680D1*
X7213058D2*
Y1444357D1*
X7189436Y1567979D2*
X7236680D1*
X7213058D2*
Y1544357D1*
X7189436Y1667979D2*
X7236680D1*
X7213058D2*
Y1644357D1*
X7189436Y1767979D2*
X7236680D1*
X7213058D2*
Y1744357D1*
X7189436Y1867979D2*
X7236680D1*
X7213058D2*
Y1844357D1*
X7189436Y1967979D2*
X7236680D1*
X7213058D2*
Y1944357D1*
X7189436Y2067979D2*
X7236680D1*
X7213058D2*
Y2044357D1*
X6889436Y2067979D2*
X6936680D1*
X6913058D2*
Y2044357D1*
X6889436Y1967979D2*
X6936680D1*
X6913058D2*
Y1944357D1*
X6889436Y1867979D2*
X6936680D1*
X6913058D2*
Y1844357D1*
X6889436Y1767979D2*
X6936680D1*
X6913058D2*
Y1744357D1*
X6889436Y1667979D2*
X6936680D1*
X6913058D2*
Y1644357D1*
X6889436Y1567979D2*
X6936680D1*
X6913058D2*
Y1544357D1*
X6889436Y1467979D2*
X6936680D1*
X6913058D2*
Y1444357D1*
X6889436Y1367979D2*
X6936680D1*
X6913058D2*
Y1344357D1*
X9439436Y1191601D2*
X9463058Y1167979D1*
X9486680Y1191601D1*
X9439436Y1591601D2*
X9463058Y1567979D1*
X9486680Y1591601D1*
X9314436Y1191601D2*
X9338058Y1167979D1*
X9361680Y1191601D1*
X9314436Y1591601D2*
X9338058Y1567979D1*
X9361680Y1591601D1*
X9564436Y1191601D2*
X9588058Y1167979D1*
X9611680Y1191601D1*
X9564436Y1591601D2*
X9588058Y1567979D1*
X9611680Y1591601D1*
X9689436Y1191601D2*
X9713058Y1167979D1*
X9736680Y1191601D1*
X9689436Y1591601D2*
X9713058Y1567979D1*
X9736680Y1591601D1*
X9814436Y1191601D2*
X9838058Y1167979D1*
X9861680Y1191601D1*
X9814436Y1591601D2*
X9838058Y1567979D1*
X9861680Y1591601D1*
X9939436Y1191601D2*
X9963058Y1167979D1*
X9986680Y1191601D1*
X9939436Y1591601D2*
X9963058Y1567979D1*
X9986680Y1591601D1*
X4664436Y2916601D2*
X4688058Y2892979D1*
X4711680Y2916601D1*
X5064436D2*
X5088058Y2892979D1*
X5111680Y2916601D1*
X4695079Y1835021D2*
X4718701Y1811399D1*
X4742323Y1835021D1*
X5095079D2*
X5118701Y1811399D1*
X5142323Y1835021D1*
X4695079Y1710021D2*
X4718701Y1686399D1*
X4742323Y1710021D1*
X5095079D2*
X5118701Y1686399D1*
X5142323Y1710021D1*
X4695079Y1585021D2*
X4718701Y1561399D1*
X4742323Y1585021D1*
X5095079D2*
X5118701Y1561399D1*
X5142323Y1585021D1*
X5989436Y3391601D2*
X6013058Y3367979D1*
X6036680Y3391601D1*
X6013058Y3367979D2*
Y3344357D1*
X5939436Y3341601D2*
X5963058Y3317979D1*
X5986680Y3341601D1*
X5963058Y3317979D2*
Y3294357D1*
X5889436Y3391601D2*
X5913058Y3367979D1*
X5936680Y3391601D1*
X5913058Y3367979D2*
Y3344357D1*
X4789436Y3441601D2*
X4813058Y3417979D1*
X4836680Y3441601D1*
X4813058Y3417979D2*
Y3394357D1*
X4739436Y3391601D2*
X4763058Y3367979D1*
X4786680Y3391601D1*
X4763058Y3367979D2*
Y3344357D1*
X4689436Y3441601D2*
X4713058Y3417979D1*
X4736680Y3441601D1*
X4713058Y3417979D2*
Y3394357D1*
X7589436Y1267979D2*
X7636680D1*
X7613058D2*
Y1244357D1*
X7589436Y1467979D2*
X7636680D1*
X7613058D2*
Y1444357D1*
X7489436Y1767979D2*
X7536680D1*
X7513058D2*
Y1744357D1*
X7489436Y1567979D2*
X7536680D1*
X7513058D2*
Y1544357D1*
X7589436Y1867979D2*
X7636680D1*
X7613058D2*
Y1844357D1*
X7589436Y2067979D2*
X7636680D1*
X7613058D2*
Y2044357D1*
X6689436Y1267979D2*
X6736680D1*
X6713058D2*
Y1244357D1*
X6689436Y1467979D2*
X6736680D1*
X6713058D2*
Y1444357D1*
X6889436Y1067979D2*
X6936680D1*
X6913058D2*
Y1044357D1*
X7089436Y1067979D2*
X7136680D1*
X7113058D2*
Y1044357D1*
X3489436Y2967979D2*
X3536680D1*
X3513058D2*
Y2944357D1*
X3589436Y2967979D2*
X3636680D1*
X3613058D2*
Y2944357D1*
X5889436Y1091601D2*
X5913058Y1067979D1*
X5936680Y1091601D1*
X5889436Y1491601D2*
X5913058Y1467979D1*
X5936680Y1491601D1*
X5989436Y1091601D2*
X6013058Y1067979D1*
X6036680Y1091601D1*
X5989436Y1491601D2*
X6013058Y1467979D1*
X6036680Y1491601D1*
X9439436Y2142979D2*
X9486680D1*
X9463058D2*
Y2119357D1*
X8939436Y2142979D2*
X8986680D1*
X8963058D2*
Y2119357D1*
X9339436Y2142979D2*
X9386680D1*
X9363058D2*
Y2119357D1*
X9239436Y2142979D2*
X9286680D1*
X9263058D2*
Y2119357D1*
X9139436Y2142979D2*
X9186680D1*
X9163058D2*
Y2119357D1*
X9039436Y2142979D2*
X9086680D1*
X9063058D2*
Y2119357D1*
X613058Y3891601D2*
Y3867979D1*
X636680D1*
X809908Y3891601D2*
Y3867979D1*
X833530D1*
X1813058Y3891601D2*
Y3867979D1*
X1836680D1*
X2009908Y3891601D2*
Y3867979D1*
X2033530D1*
X2213058Y3891601D2*
Y3867979D1*
X2236680D1*
X2409908Y3891601D2*
Y3867979D1*
X2433530D1*
X3813058Y3891601D2*
Y3867979D1*
X3836680D1*
X4009908Y3891601D2*
Y3867979D1*
X4033530D1*
X4213058Y3891601D2*
Y3867979D1*
X4236680D1*
X4409908Y3891601D2*
Y3867979D1*
X4433530D1*
X9713058Y691601D2*
Y667979D1*
X9736680D1*
X9909908Y691601D2*
Y667979D1*
X9933530D1*
X10113058Y691601D2*
Y667979D1*
X10136680D1*
X10309908Y691601D2*
Y667979D1*
X10333530D1*
X3013058Y691601D2*
Y667979D1*
X3036680D1*
X3209908Y691601D2*
Y667979D1*
X3233530D1*
X3406759Y691601D2*
Y667979D1*
X3430381D1*
X3613058Y691601D2*
Y667979D1*
X3636680D1*
X3809908Y691601D2*
Y667979D1*
X3833530D1*
X4006759Y691601D2*
Y667979D1*
X4030381D1*
X4213058Y691601D2*
Y667979D1*
X4236680D1*
X4409908Y691601D2*
Y667979D1*
X4433530D1*
X4606759Y691601D2*
Y667979D1*
X4630381D1*
X4813058Y691601D2*
Y667979D1*
X4836680D1*
X5009908Y691601D2*
Y667979D1*
X5033530D1*
X5213058Y691601D2*
Y667979D1*
X5236680D1*
X5409908Y691601D2*
Y667979D1*
X5433530D1*
X2281572Y3326976D2*
Y3279732D1*
X2257950Y3303354D2*
X2305194D1*
X5725029Y1409555D2*
Y1362311D1*
X5701407Y1385933D2*
X5748651D1*
X4450580Y2816602D2*
Y2769358D1*
X4426958Y2792980D2*
X4474202D1*
X4450580Y2716602D2*
Y2669358D1*
X4426958Y2692980D2*
X4474202D1*
X8242273Y2570835D2*
Y2523591D1*
X8218651Y2547213D2*
X8265895D1*
X3727549Y2865618D2*
Y2818374D1*
X3703927Y2841996D2*
X3751171D1*
X6988060Y2665618D2*
Y2618374D1*
X6964438Y2641996D2*
X7011682D1*
X5494564Y2865618D2*
Y2818374D1*
X5470942Y2841996D2*
X5518186D1*
X5726848Y2765618D2*
Y2718374D1*
X5703226Y2741996D2*
X5750470D1*
X7199958Y2565618D2*
Y2518374D1*
X7176336Y2541996D2*
X7223580D1*
X1138058Y1216601D2*
Y1169357D1*
X1114436Y1192979D2*
X1161680D1*
X1114436Y1216601D2*
X1161680D1*
Y1169357D1*
X1114436D1*
Y1216601D1*
X1188058Y3116601D2*
Y3069357D1*
X1164436Y3092979D2*
X1211680D1*
X1164436Y3116601D2*
X1211680D1*
Y3069357D1*
X1164436D1*
Y3116601D1*
X3188058Y1416601D2*
Y1369357D1*
X3164436Y1392979D2*
X3211680D1*
X3164436Y1416601D2*
X3211680D1*
Y1369357D1*
X3164436D1*
Y1416601D1*
X3188058Y2516601D2*
Y2469357D1*
X3164436Y2492979D2*
X3211680D1*
X3164436Y2516601D2*
X3211680D1*
Y2469357D1*
X3164436D1*
Y2516601D1*
X4388058Y1216601D2*
Y1169357D1*
X4364436Y1192979D2*
X4411680D1*
X4364436Y1216601D2*
X4411680D1*
Y1169357D1*
X4364436D1*
Y1216601D1*
X4138058Y3116601D2*
Y3069357D1*
X4114436Y3092979D2*
X4161680D1*
X4114436Y3116601D2*
X4161680D1*
Y3069357D1*
X4114436D1*
Y3116601D1*
X1389436Y2691601D2*
X1413058Y2667979D1*
X1436680Y2691601D1*
X1413058Y2667979D2*
Y2644357D1*
X1389436Y2691601D2*
X1436680D1*
Y2644357D1*
X1389436D1*
Y2691601D1*
Y1691601D2*
X1413058Y1667979D1*
X1436680Y1691601D1*
X1413058Y1667979D2*
Y1644357D1*
X1389436Y1691601D2*
X1436680D1*
Y1644357D1*
X1389436D1*
Y1691601D1*
X11189436Y2916601D2*
X11236680Y2869357D1*
Y2916601D2*
X11189436Y2869357D1*
Y2916601D2*
X11236680D1*
Y2869357D1*
X11189436D1*
Y2916601D1*
Y3916601D2*
X11236680Y3869357D1*
Y3916601D2*
X11189436Y3869357D1*
Y3916601D2*
X11236680D1*
Y3869357D1*
X11189436D1*
Y3916601D1*
X7189436D2*
X7236680Y3869357D1*
Y3916601D2*
X7189436Y3869357D1*
Y3916601D2*
X7236680D1*
Y3869357D1*
X7189436D1*
Y3916601D1*
Y2916601D2*
X7236680Y2869357D1*
Y2916601D2*
X7189436Y2869357D1*
Y2916601D2*
X7236680D1*
Y2869357D1*
X7189436D1*
Y2916601D1*
X8389436Y2691601D2*
X8413058Y2667979D1*
X8436680Y2691601D1*
X8413058Y2667979D2*
Y2644357D1*
X8389436Y2691601D2*
X8436680D1*
Y2644357D1*
X8389436D1*
Y2691601D1*
Y1691601D2*
X8413058Y1667979D1*
X8436680Y1691601D1*
X8413058Y1667979D2*
Y1644357D1*
X8389436Y1691601D2*
X8436680D1*
Y1644357D1*
X8389436D1*
Y1691601D1*
M02*
