G04 DipTrace 3.3.1.3*
G04 Top.gbr*
%MOIN*%
G04 #@! TF.FileFunction,Copper,L1,Top*
G04 #@! TF.Part,Single*
%AMOUTLINE0*
4,1,4,
0.0,-0.035433,
-0.035433,0.0,
0.0,0.035433,
0.035433,0.0,
0.0,-0.035433,
0*%
G04 #@! TA.AperFunction,Conductor*
%ADD15C,0.025984*%
%ADD16C,0.012992*%
G04 #@! TA.AperFunction,ComponentPad*
%ADD18C,0.059055*%
%ADD21C,0.076772*%
%ADD22R,0.059055X0.059055*%
%ADD23R,0.05X0.05*%
%ADD24C,0.05*%
%ADD25C,0.06*%
%ADD26C,0.06*%
%ADD27C,0.059055*%
%ADD28C,0.055118*%
G04 #@! TA.AperFunction,ViaPad*
%ADD29C,0.04*%
G04 #@! TA.AperFunction,ComponentPad*
%ADD64OUTLINE0*%
%FSLAX26Y26*%
G04*
G70*
G90*
G75*
G01*
G04 Top*
%LPD*%
X5013058Y3867979D2*
D15*
X5077429Y3932351D1*
X5348686D1*
X5413058Y3867979D1*
X6213058D2*
X6316405Y3971327D1*
X6509710D1*
X6613058Y3867979D1*
X5413058D2*
X5477429Y3932351D1*
X5748686D1*
X5813058Y3867979D1*
X1413058Y667979D2*
X1477430Y603607D1*
X1748685D1*
X1813058Y667979D1*
X2281572Y3303355D2*
X2613058Y3634840D1*
Y3867979D1*
X1013058Y667979D2*
X948686Y732351D1*
X677429D1*
X613058Y667979D1*
X6913058Y1367979D2*
X7060858Y1515780D1*
Y2104001D1*
X7099837Y2142979D1*
X8963058D1*
X6713058Y1267979D2*
X6813058D1*
X6913058Y1367979D1*
X5613058Y667979D2*
Y1229000D1*
X5652037Y1267979D1*
X6713058D1*
X1813058Y667979D2*
X1877430Y603607D1*
X5548685D1*
X5613058Y667979D1*
X7613058Y2067979D2*
X7707548Y1973488D1*
Y1162468D1*
X7668572Y1123492D1*
X6968570D1*
X6913058Y1067979D1*
Y1467979D2*
X6713058D1*
X809908Y3867979D2*
X913257Y3764630D1*
X1106559D1*
X1209908Y3867979D1*
Y667979D2*
X1274280Y732351D1*
X1545536D1*
X1609908Y667979D1*
X5809908D2*
X6006759D1*
X4388058Y1392979D2*
X4289043Y1293965D1*
X3311781D1*
X3266308Y1248492D1*
X2343570D1*
X2288058Y1192979D1*
X5725029Y1385933D2*
X4395104D1*
X4388058Y1392979D1*
X6713058Y1467979D2*
Y1385933D1*
X5725029D1*
X2809908Y3867979D2*
X2874280Y3932351D1*
X4745536D1*
X4809908Y3867979D1*
X2409908D2*
X2474280Y3932351D1*
X2745536D1*
X2809908Y3867979D1*
X2009908D2*
X2074280Y3803607D1*
X2345536D1*
X2409908Y3867979D1*
X1609908D2*
X1674280Y3932351D1*
X1945536D1*
X2009908Y3867979D1*
X1209908D2*
X1274280Y3932351D1*
X1545536D1*
X1609908Y3867979D1*
X5588058Y3242979D2*
D16*
Y3394357D1*
X5564438Y3417977D1*
X5663464Y3517003D1*
X6058932D1*
X6409908Y3867979D1*
X5564438Y3417977D2*
X5320879D1*
X5320876Y3417979D1*
X4813058D1*
X4450580Y2792981D2*
X5781563D1*
X5827040Y2747504D1*
X7699079D1*
X7828808Y2877233D1*
X9937072D1*
X9963058Y2851247D1*
Y1567979D1*
X5088058Y2892979D2*
X5157547Y2962469D1*
X5607547D1*
X5963058Y3317979D1*
X4688058Y2892979D2*
X4388058D1*
X6013058Y3367979D2*
X6309908D1*
X6809908Y3867979D1*
X4688058Y3042979D2*
X4638058Y2992979D1*
X4388058D1*
X5409908Y667979D2*
X5005383Y1072504D1*
X4308533D1*
X4188058Y1192979D1*
X5213058Y667979D2*
X4913924Y967113D1*
X4313924D1*
X4088058Y1192979D1*
X7613058Y1267979D2*
X7313058D1*
X7213058Y1367979D1*
X4213058Y3867979D2*
X3893690Y3548612D1*
X3514044D1*
X3488058Y3522625D1*
Y3092979D1*
X4409908Y3867979D2*
X3999176Y3457247D1*
X3614045D1*
X3588058Y3431259D1*
Y3092979D1*
X7613058Y1467979D2*
X7564041Y1516996D1*
X7264041D1*
X7213058Y1567979D1*
X7513058D2*
X7413058Y1667979D1*
X7213058D1*
X7513058Y1767979D2*
X7213058D1*
X7613058Y1867979D2*
X7213058D1*
X5913058Y1467979D2*
X5288058Y2092979D1*
X4388058D1*
X4718701Y1686399D2*
X4794174Y1761872D1*
Y1866993D1*
X4768188Y1892979D1*
X4388058D1*
X4718701Y1811399D2*
X4494177D1*
X4463580Y1841996D1*
X4339041D1*
X4288058Y1892979D1*
X613058Y3867979D2*
X779371Y3701666D1*
X1317371D1*
X1926058Y3092979D1*
X4718701Y1561399D2*
X4617673D1*
X4437076Y1741996D1*
X4339041D1*
X4288058Y1792979D1*
X4450580Y2692981D2*
X8124163D1*
X8256446Y2825264D1*
X9812073D1*
X9838058Y2799279D1*
Y1567979D1*
X4388058Y2392979D2*
X9186092D1*
X9212076Y2366995D1*
Y2043548D1*
X9463058Y1792566D1*
Y1567979D1*
X8242273Y2547213D2*
X8196507Y2592979D1*
X4388058D1*
Y2492979D2*
X9687072D1*
X9713058Y2466993D1*
Y1567979D1*
X4388058Y2292979D2*
X9086092D1*
X9112076Y2266995D1*
Y1793960D1*
X9338058Y1567979D1*
X4813058Y667979D2*
X4610804Y870233D1*
X4210804D1*
X3888058Y1192979D1*
X4606759Y667979D2*
X4430490Y844248D1*
X4136789D1*
X3788058Y1192979D1*
X4213058Y667979D2*
X4062773Y818264D1*
X3962773D1*
X3588058Y1192979D1*
X3809908Y667979D2*
Y766295D1*
X3783923Y792280D1*
X3688757D1*
X3288058Y1192979D1*
X6988060Y2641996D2*
X3753533D1*
X3727548Y2667981D1*
Y2841996D1*
X5494564D2*
X4063061D1*
X4037076Y2867981D1*
Y3141996D1*
X3637076D1*
Y3041015D1*
X3613058Y3016996D1*
Y2967979D1*
X3688058Y3092979D2*
Y2167979D1*
X3714041Y2141996D1*
X5936564D1*
X5962548Y2116012D1*
Y1444399D1*
X5988533Y1418414D1*
X6363492D1*
X6913058Y1967979D1*
X5726847Y2741996D2*
X3814042D1*
X3788058Y2767980D1*
Y3092979D1*
X5913058Y1067979D2*
X6224157Y756880D1*
X7124157D1*
X7213058Y667979D1*
X6013058Y1067979D2*
X6200615Y880422D1*
X7197465D1*
X7409908Y667979D1*
X4388058Y2192979D2*
X5987072D1*
X6013058Y2166993D1*
Y1467979D1*
X7199958Y2541996D2*
X4339041D1*
X4288058Y2592979D1*
Y2492979D2*
X4339041Y2441996D1*
X9237072D1*
X9263058Y2416010D1*
Y2142979D1*
X4288058Y2392979D2*
X4339041Y2341996D1*
X9137072D1*
X9163058Y2316010D1*
Y2142979D1*
X4288058Y2292979D2*
X4339041Y2241996D1*
X8964041D1*
X9063058Y2142979D1*
D29*
X2281572Y3303355D3*
X5725029Y1385933D3*
X4450580Y2792981D3*
Y2692981D3*
X8242273Y2547213D3*
X3727548Y2841996D3*
X6988060Y2641996D3*
X5494564Y2841996D3*
X5726847Y2741996D3*
X7199958Y2541996D3*
D21*
X2613058Y3867979D3*
X2809908D3*
X3013058D3*
X3209908D3*
X3413058D3*
X3609908D3*
X6213058D3*
X6409908D3*
X613058Y667979D3*
X809908D3*
X6613058Y3867979D3*
X6809908D3*
X4613058D3*
X4809908D3*
D22*
X4388058Y1392979D3*
Y1492979D3*
Y1592979D3*
Y1692979D3*
Y1792979D3*
Y1892979D3*
Y1992979D3*
Y2092979D3*
Y2192979D3*
Y2292979D3*
Y2392979D3*
Y2492979D3*
Y2592979D3*
Y2692979D3*
Y2792979D3*
Y2892979D3*
Y2992979D3*
X4288058Y3092979D3*
Y1392979D3*
Y1492979D3*
Y1592979D3*
Y1692979D3*
Y1792979D3*
Y1892979D3*
Y1992979D3*
Y2092979D3*
Y2192979D3*
Y2292979D3*
Y2392979D3*
Y2492979D3*
Y2592979D3*
Y2692979D3*
Y2792979D3*
Y2892979D3*
Y2992979D3*
X4388058Y3092979D3*
X2188058Y1192979D3*
X1988058D3*
X1888058D3*
X1788058D3*
X1688058D3*
X3088058D3*
X2988058D3*
X2888058D3*
X2788058D3*
X2688058D3*
X2588058D3*
X2226058Y3092979D3*
X2126058D3*
X2026058D3*
X1926058D3*
X1826058D3*
X1726058D3*
X1626058D3*
X1525058D3*
X1426058D3*
X1326058D3*
X3088058D3*
X2988058D3*
X2888058D3*
X2788058D3*
X2688058D3*
X2588058D3*
X2488058D3*
X2388058D3*
X3288058D3*
X3388058D3*
X3488058D3*
X3588058D3*
X3688058D3*
X3788058D3*
X3888058D3*
X3988058D3*
X3188058Y1192979D3*
X3288058D3*
X3488058D3*
X3588058D3*
X3688058D3*
X3788058D3*
X3888058D3*
X3988058D3*
X4088058D3*
X4188058D3*
X2088058D3*
X2388058D3*
X2288058D3*
D21*
X1013058Y3867979D3*
X1209908D3*
D23*
X5338058Y3242979D3*
D24*
X5588058D3*
D21*
X9113058Y667979D3*
X9309908D3*
X9506759D3*
X5013058Y3867979D3*
X5209908D3*
X5413058D3*
X5609908D3*
X5813058D3*
X6009908D3*
X1013058Y667979D3*
X1209908D3*
X1413058D3*
X1609908D3*
X1813058D3*
X2009908D3*
X2206759D3*
X1413058Y3867979D3*
X1609908D3*
D25*
X5088058Y3042979D3*
D26*
X4688058D3*
D23*
X5338058Y2917979D3*
D24*
X5588058D3*
D21*
X6813058Y667979D3*
X7009908D3*
X5613058D3*
X5809908D3*
X6006759D3*
X6213058D3*
X6409908D3*
X6606759D3*
X7213058D3*
X7409908D3*
X7613058D3*
X7809908D3*
X8013058D3*
X8209908D3*
X2413058D3*
X2609908D3*
X2806759D3*
D22*
X7213058Y1367979D3*
D27*
Y1467979D3*
Y1567979D3*
Y1667979D3*
Y1767979D3*
Y1867979D3*
Y1967979D3*
Y2067979D3*
X6913058D3*
Y1967979D3*
Y1867979D3*
Y1767979D3*
Y1667979D3*
Y1567979D3*
Y1467979D3*
Y1367979D3*
D25*
X9463058Y1167979D3*
D26*
Y1567979D3*
D25*
X9338058Y1167979D3*
D26*
Y1567979D3*
D25*
X9588058Y1167979D3*
D26*
Y1567979D3*
D25*
X9713058Y1167979D3*
D26*
Y1567979D3*
D25*
X9838058Y1167979D3*
D26*
Y1567979D3*
D25*
X9963058Y1167979D3*
D26*
Y1567979D3*
D25*
X4688058Y2892979D3*
D26*
X5088058D3*
D25*
X4718701Y1811399D3*
D26*
X5118701D3*
D25*
X4718701Y1686399D3*
D26*
X5118701D3*
D25*
X4718701Y1561399D3*
D26*
X5118701D3*
D28*
X6013058Y3367979D3*
X5963058Y3317979D3*
D64*
X5913058Y3367979D3*
D28*
X4813058Y3417979D3*
X4763058Y3367979D3*
D64*
X4713058Y3417979D3*
D18*
X7613058Y1267979D3*
Y1467979D3*
X7513058Y1767979D3*
Y1567979D3*
X7613058Y1867979D3*
Y2067979D3*
X6713058Y1267979D3*
Y1467979D3*
X6913058Y1067979D3*
X7113058D3*
X3513058Y2967979D3*
X3613058D3*
D25*
X5913058Y1067979D3*
D26*
Y1467979D3*
D25*
X6013058Y1067979D3*
D26*
Y1467979D3*
D18*
X9463058Y2142979D3*
X8963058D3*
X9363058D3*
X9263058D3*
X9163058D3*
X9063058D3*
D21*
X613058Y3867979D3*
X809908D3*
X1813058D3*
X2009908D3*
X2213058D3*
X2409908D3*
X3813058D3*
X4009908D3*
X4213058D3*
X4409908D3*
X9713058Y667979D3*
X9909908D3*
X10113058D3*
X10309908D3*
X3013058D3*
X3209908D3*
X3406759D3*
X3613058D3*
X3809908D3*
X4006759D3*
X4213058D3*
X4409908D3*
X4606759D3*
X4813058D3*
X5009908D3*
X5213058D3*
X5409908D3*
M02*
