G04 DipTrace 3.3.1.3*
G04 Top.gbr*
%MOIN*%
G04 #@! TF.FileFunction,Copper,L1,Top*
G04 #@! TF.Part,Single*
%ADD12C,0.003*%
G04 #@! TA.AperFunction,ComponentPad*
%ADD15C,0.059055*%
%ADD19C,0.076772*%
%ADD20R,0.059055X0.059055*%
%ADD21R,0.05X0.05*%
%ADD22C,0.05*%
%ADD23C,0.06*%
%ADD24C,0.06*%
%ADD25C,0.059055*%
%ADD26C,0.045997*%
%ADD27R,0.045997X0.045997*%
%FSLAX26Y26*%
G04*
G70*
G90*
G75*
G01*
G04 Top*
%LPD*%
D19*
X2613058Y3867979D3*
X2809908D3*
X3013058D3*
X3209908D3*
X3413058D3*
X3609908D3*
X6213058D3*
X6409908D3*
X613058Y667979D3*
X809908D3*
X6613058Y3867979D3*
X6809908D3*
X4613058D3*
X4809908D3*
D20*
X4388058Y1392979D3*
Y1492979D3*
Y1592979D3*
Y1692979D3*
Y1792979D3*
Y1892979D3*
Y1992979D3*
Y2092979D3*
Y2192979D3*
Y2292979D3*
Y2392979D3*
Y2492979D3*
Y2592979D3*
Y2692979D3*
Y2792979D3*
Y2892979D3*
Y2992979D3*
X4288058Y3092979D3*
Y1392979D3*
Y1492979D3*
Y1592979D3*
Y1692979D3*
Y1792979D3*
Y1892979D3*
Y1992979D3*
Y2092979D3*
Y2192979D3*
Y2292979D3*
Y2392979D3*
Y2492979D3*
Y2592979D3*
Y2692979D3*
Y2792979D3*
Y2892979D3*
Y2992979D3*
X4388058Y3092979D3*
X2188058Y1192979D3*
X1988058D3*
X1888058D3*
X1788058D3*
X1688058D3*
X3088058D3*
X2988058D3*
X2888058D3*
X2788058D3*
X2688058D3*
X2588058D3*
X2226058Y3092979D3*
X2126058D3*
X2026058D3*
X1926058D3*
X1826058D3*
X1726058D3*
X1626058D3*
X1525058D3*
X1426058D3*
X1326058D3*
X3088058D3*
X2988058D3*
X2888058D3*
X2788058D3*
X2688058D3*
X2588058D3*
X2488058D3*
X2388058D3*
X3288058D3*
X3388058D3*
X3488058D3*
X3588058D3*
X3688058D3*
X3788058D3*
X3888058D3*
X3988058D3*
X3188058Y1192979D3*
X3288058D3*
X3488058D3*
X3588058D3*
X3688058D3*
X3788058D3*
X3888058D3*
X3988058D3*
X4088058D3*
X4188058D3*
X2088058D3*
X2388058D3*
X2288058D3*
D19*
X1013058Y3867979D3*
X1209908D3*
D21*
X5838058Y3142979D3*
D22*
X6088058D3*
D19*
X9113058Y667979D3*
X9309908D3*
X9506759D3*
X5013058Y3867979D3*
X5209908D3*
X5413058D3*
X5609908D3*
X5813058D3*
X6009908D3*
X1013058Y667979D3*
X1209908D3*
X1413058D3*
X1609908D3*
D23*
X5569307Y2211730D3*
D24*
X5169307D3*
D19*
X1413058Y3867979D3*
X1609908D3*
D23*
X5363058Y2842979D3*
D24*
X4963058D3*
D21*
X6338058Y3142979D3*
D22*
X6588058D3*
D19*
X7013058Y667979D3*
X7209908D3*
X5813058D3*
X6009908D3*
X6206759D3*
X6413058D3*
X6609908D3*
X6806759D3*
X7413058D3*
X7609908D3*
X7813058D3*
X8009908D3*
X8213058D3*
X8409908D3*
X2613058D3*
X2809908D3*
X3006759D3*
D20*
X7213058Y1567979D3*
D25*
Y1667979D3*
Y1767979D3*
Y1867979D3*
Y1967979D3*
Y2067979D3*
Y2167979D3*
Y2267979D3*
X6913058D3*
Y2167979D3*
Y2067979D3*
Y1967979D3*
Y1867979D3*
Y1767979D3*
Y1667979D3*
Y1567979D3*
D23*
X9463058Y1167979D3*
D24*
Y1567979D3*
D23*
X9338058Y1167979D3*
D24*
Y1567979D3*
D23*
X9588058Y1167979D3*
D24*
Y1567979D3*
D23*
X9713058Y1167979D3*
D24*
Y1567979D3*
D23*
X9838058Y1167979D3*
D24*
Y1567979D3*
D23*
X9963058Y1167979D3*
D24*
Y1567979D3*
D23*
X4963058Y2692979D3*
D24*
X5363058D3*
D23*
X4718701Y1811399D3*
D24*
X5118701D3*
D23*
X4718701Y1686399D3*
D24*
X5118701D3*
D23*
X4718701Y1561399D3*
D24*
X5118701D3*
D20*
X6456807Y2830479D3*
D25*
X6556807Y2730479D3*
D15*
X6656807Y2830479D3*
X7613058Y1467979D3*
Y1667979D3*
X7513058Y1967979D3*
Y1767979D3*
X7613058Y2067979D3*
Y2267979D3*
X6713058Y1467979D3*
Y1667979D3*
X6913058Y1267979D3*
X7113058D3*
X3513058Y2967979D3*
X3613058D3*
D23*
X5913058Y1267979D3*
D24*
Y1667979D3*
D23*
X6113058Y1267979D3*
D24*
Y1667979D3*
D15*
X9663058Y2142979D3*
X9163058D3*
X9563058D3*
X9463058D3*
X9363058D3*
X9263058D3*
D19*
X613058Y3867979D3*
X809908D3*
X1813058D3*
X2009908D3*
X2213058D3*
X2409908D3*
X3813058D3*
X4009908D3*
X4213058D3*
X4409908D3*
X9713058Y667979D3*
X9909908D3*
X10113058D3*
X10309908D3*
X3213058D3*
X3409908D3*
X3606759D3*
X3813058D3*
X4009908D3*
X4206759D3*
X4413058D3*
X4609908D3*
X4806759D3*
X5013058D3*
X5209908D3*
X5413058D3*
X5609908D3*
D26*
X5844307Y2830479D3*
D27*
X5644307D3*
D26*
X5744307Y2730479D3*
D20*
X1038845Y3092979D3*
D25*
X938845D3*
X838845D3*
X738845D3*
D19*
X1813058Y667979D3*
X2009908D3*
X2213058D3*
X2409908D3*
D23*
X5718701Y2211399D3*
D24*
X6118701D3*
D23*
X5718701Y2011399D3*
D24*
X6118701D3*
X9241808Y3396229D2*
D12*
X9319808D1*
X9355808D2*
X9358808D1*
X9370808D2*
X9433808D1*
X9241808Y3393229D2*
X9319808D1*
X9355808D2*
X9358808D1*
X9370808D2*
X9428183D1*
X9205808Y3390229D2*
X9208808D1*
X9223808D2*
X9238808D1*
X9295808D2*
X9298808D1*
X9418808D2*
X9421808D1*
X9436808D2*
X9451808D1*
X9463808D2*
X9469808D1*
X9214808Y3387229D2*
X9217808D1*
X9286808D2*
X9289808D1*
X9229808Y3381229D2*
D3*
Y3378229D2*
D3*
X9160808Y3375229D2*
D3*
X9202808Y3372229D2*
D3*
X9238808Y3369229D2*
D3*
X9577808D2*
X9580808D1*
X9124808Y3366229D2*
X9130808D1*
X9391808D2*
X9394808D1*
X9124808Y3363229D2*
X9130808D1*
X9391808D2*
X9394808D1*
X9064808Y3360229D2*
X9067808D1*
X9115808D2*
D3*
X9175808D2*
X9181808D1*
X9106808Y3357229D2*
D3*
X9163808D2*
X9166808D1*
X9451808D2*
D3*
X9196808Y3330229D2*
X9199808D1*
X8959808Y3324229D2*
X8962808D1*
X8959808Y3321229D2*
X8962808D1*
X8950808Y3318229D2*
X8953808D1*
X9736808Y3309229D2*
X9739808D1*
X9736808Y3306229D2*
X9739808D1*
X9337808Y3303229D2*
X9340808D1*
X9436808Y3282229D2*
X9439808D1*
X9787808Y3279229D2*
D3*
Y3276229D2*
D3*
X9331808Y3252229D2*
X9334808D1*
X9331808Y3249229D2*
X9334808D1*
X8929808Y3231229D2*
D3*
X8974808Y3228229D2*
X9013808D1*
X8923808Y3225229D2*
X8926808D1*
X8958270D2*
X9030059D1*
X9397808D2*
D3*
X9613808D2*
X9838808D1*
X8945701Y3222229D2*
X9042513D1*
X9274808D2*
X9430808D1*
X9612423D2*
X9836038D1*
X8936094Y3219229D2*
X9051651D1*
X9274808D2*
X9430808D1*
X9611561D2*
X9833987D1*
X8927331Y3216229D2*
X9059691D1*
X9274808D2*
X9441876D1*
X9611125D2*
X9833361D1*
X8919563Y3213229D2*
X9067012D1*
X9274808D2*
X9451347D1*
X9610932D2*
X9833036D1*
X8913463Y3210229D2*
X9073000D1*
X9274808D2*
X9459242D1*
X9610854D2*
X9832894D1*
X8908805Y3207229D2*
X9077753D1*
X9274808D2*
X9465473D1*
X9610824D2*
X9832839D1*
X8904566Y3204229D2*
X9082397D1*
X9274808D2*
X9470524D1*
X9610813D2*
X9832819D1*
X8899753Y3201229D2*
X9087573D1*
X9274808D2*
X9475100D1*
X9610810D2*
X9832811D1*
X8894646Y3198229D2*
X9092794D1*
X9274808D2*
X9479383D1*
X9610808D2*
X9832809D1*
X8890159Y3195229D2*
X9097375D1*
X9274808D2*
X9483179D1*
X9610808D2*
X9832808D1*
X8886541Y3192229D2*
X9100985D1*
X9274808D2*
X9486397D1*
X9610808D2*
X9832808D1*
X8883462Y3189229D2*
X9103745D1*
X9274808D2*
X9489284D1*
X9610808D2*
X9832808D1*
X8880800Y3186229D2*
X9106179D1*
X9274808D2*
X9491842D1*
X9610808D2*
X9832808D1*
X8878509Y3183229D2*
X9108653D1*
X9274808D2*
X9493879D1*
X9610808D2*
X9832808D1*
X8876194Y3180229D2*
X9111216D1*
X9274808D2*
X9495335D1*
X9610808D2*
X9832808D1*
X8873530Y3177229D2*
X9113942D1*
X9274808D2*
X9496363D1*
X9610808D2*
X9832831D1*
X8870663Y3174229D2*
X9116883D1*
X9274808D2*
X9497525D1*
X9610808D2*
X9833042D1*
X8867910Y3171229D2*
X9119609D1*
X9274808D2*
X9499135D1*
X9610819D2*
X9833534D1*
X8865312Y3168229D2*
X9121791D1*
X9274808D2*
X9500742D1*
X9610934D2*
X9835229D1*
X8863110Y3165229D2*
X9123498D1*
X9274808D2*
X9367808D1*
X9392956D2*
X9501838D1*
X9611397D2*
X9837067D1*
X8861439Y3162229D2*
X9125109D1*
X9274808D2*
X9367808D1*
X9396424D2*
X9502632D1*
X9612423D2*
X9838808D1*
X8860068Y3159229D2*
X9126955D1*
X9274808D2*
X9367808D1*
X9400665D2*
X9503497D1*
X9613808D2*
X9616808D1*
X9631808D2*
X9637808D1*
X9666629D2*
X9832808D1*
X8858985Y3156229D2*
X8984752D1*
X9000262D2*
X9128682D1*
X9274808D2*
X9367808D1*
X9404521D2*
X9505898D1*
X9670685D2*
X9769808D1*
X8858133Y3153229D2*
X8975280D1*
X9011395D2*
X9129905D1*
X9274808D2*
X9367808D1*
X9407624D2*
X9508808D1*
X9672284D2*
X9769808D1*
X8857045Y3150229D2*
X8968061D1*
X9019354D2*
X9130870D1*
X9274808D2*
X9367808D1*
X9408753D2*
X9506038D1*
X9673156D2*
X9769831D1*
X8855464Y3147229D2*
X8962693D1*
X9024955D2*
X9131876D1*
X9274808D2*
X9367808D1*
X9409349D2*
X9503987D1*
X9673551D2*
X9770060D1*
X8853868Y3144229D2*
X8958546D1*
X9029434D2*
X9132965D1*
X9274808D2*
X9367808D1*
X9409517D2*
X9503361D1*
X9673713D2*
X9770605D1*
X8852787Y3141229D2*
X8955247D1*
X9033039D2*
X9134294D1*
X9274808D2*
X9367808D1*
X9409221D2*
X9503012D1*
X9673774D2*
X9772943D1*
X8852117Y3138229D2*
X8952435D1*
X9035659D2*
X9136024D1*
X9274808D2*
X9367808D1*
X9408315D2*
X9502660D1*
X9673796D2*
X9775808D1*
X8851478Y3135229D2*
X8950153D1*
X9037748D2*
X9137695D1*
X9274808D2*
X9367808D1*
X9406626D2*
X9501828D1*
X9673804D2*
X9773038D1*
X8850653Y3132229D2*
X8948454D1*
X9039811D2*
X9138796D1*
X9274808D2*
X9367808D1*
X9404011D2*
X9500265D1*
X9673807D2*
X9770987D1*
X8849843Y3129229D2*
X8947073D1*
X9041617D2*
X9139373D1*
X9274808D2*
X9367808D1*
X9400808D2*
X9498337D1*
X9673807D2*
X9770361D1*
X8849305Y3126229D2*
X8946010D1*
X9042768D2*
X9139636D1*
X9274808D2*
X9496547D1*
X9673808D2*
X9770036D1*
X8849022Y3123229D2*
X8945367D1*
X9043364D2*
X9139743D1*
X9274808D2*
X9494998D1*
X9673808D2*
X9769894D1*
X8848893Y3120229D2*
X8945044D1*
X9043632D2*
X9139785D1*
X9274808D2*
X9493326D1*
X9673808D2*
X9769862D1*
X8848840Y3117229D2*
X8944900D1*
X9043742D2*
X9139800D1*
X9274808D2*
X9490912D1*
X9673808D2*
X9770053D1*
X8848819Y3114229D2*
X8944842D1*
X9043784D2*
X9139805D1*
X9274808D2*
X9487711D1*
X9673808D2*
X9770536D1*
X8848812Y3111229D2*
X8944820D1*
X9043800D2*
X9139807D1*
X9274808D2*
X9484262D1*
X9673808D2*
X9772230D1*
X8848809Y3108229D2*
X8944824D1*
X9043805D2*
X9139807D1*
X9274808D2*
X9481014D1*
X9673808D2*
X9774067D1*
X8848808Y3105229D2*
X8944926D1*
X9043783D2*
X9139808D1*
X9274808D2*
X9477802D1*
X9673808D2*
X9775808D1*
X8848808Y3102229D2*
X8945308D1*
X9043573D2*
X9139808D1*
X9274808D2*
X9474105D1*
X9673808D2*
X9773038D1*
X8848820Y3099229D2*
X8946049D1*
X9043081D2*
X9139784D1*
X9274808D2*
X9469806D1*
X9673808D2*
X9770987D1*
X9790808D2*
X9793808D1*
X8848925Y3096229D2*
X8947041D1*
X9041428D2*
X9139573D1*
X9274808D2*
X9465185D1*
X9673808D2*
X9770361D1*
X8849307Y3093229D2*
X8948458D1*
X9039710D2*
X9139081D1*
X9274808D2*
X9460664D1*
X9673808D2*
X9770036D1*
X8850026Y3090229D2*
X8950778D1*
X9038046D2*
X9137440D1*
X9274808D2*
X9456275D1*
X9673808D2*
X9769894D1*
X8850795Y3087229D2*
X8954032D1*
X9035897D2*
X9135850D1*
X9274808D2*
X9451808D1*
X9673808D2*
X9769839D1*
X8851342Y3084229D2*
X8957743D1*
X9033018D2*
X9134779D1*
X9274808D2*
X9455064D1*
X9673808D2*
X9769819D1*
X8851831Y3081229D2*
X8961334D1*
X9029781D2*
X9134114D1*
X9274808D2*
X9457742D1*
X9673808D2*
X9769811D1*
X8852723Y3078229D2*
X8964688D1*
X9026150D2*
X9133477D1*
X9274808D2*
X9460168D1*
X9673808D2*
X9769809D1*
X8854224Y3075229D2*
X8968421D1*
X9021303D2*
X9132629D1*
X9274808D2*
X9462622D1*
X9673808D2*
X9769808D1*
X8855888Y3072229D2*
X8972913D1*
X9014929D2*
X9131609D1*
X9274808D2*
X9464978D1*
X9673808D2*
X9769808D1*
X8857324Y3069229D2*
X9130306D1*
X9274808D2*
X9361808D1*
X9374735D2*
X9466953D1*
X9673808D2*
X9769808D1*
X8858625Y3066229D2*
X9128574D1*
X9274808D2*
X9361808D1*
X9376234D2*
X9468564D1*
X9673808D2*
X9769808D1*
X8859872Y3063229D2*
X9126778D1*
X9274808D2*
X9361808D1*
X9377893D2*
X9470146D1*
X9673808D2*
X9769808D1*
X8861371Y3060229D2*
X9125085D1*
X9274808D2*
X9361808D1*
X9379350D2*
X9472105D1*
X9673808D2*
X9769808D1*
X8863509Y3057229D2*
X9123025D1*
X9274808D2*
X9361808D1*
X9380837D2*
X9474408D1*
X9673808D2*
X9769808D1*
X8865932Y3054229D2*
X9120545D1*
X9274808D2*
X9361808D1*
X9382626D2*
X9477006D1*
X9673808D2*
X9769831D1*
X8868028Y3051229D2*
X9118247D1*
X9274819D2*
X9361808D1*
X9384691D2*
X9479806D1*
X9673808D2*
X9770042D1*
X8870023Y3048229D2*
X9116276D1*
X9274925D2*
X9361808D1*
X9386560D2*
X9482260D1*
X9673784D2*
X9770534D1*
X8872594Y3045229D2*
X9113988D1*
X9275307D2*
X9361808D1*
X9387854D2*
X9484287D1*
X9673573D2*
X9772176D1*
X8875862Y3042229D2*
X9111087D1*
X9276026D2*
X9361808D1*
X9388874D2*
X9486495D1*
X9673081D2*
X9773742D1*
X8879338Y3039229D2*
X9108145D1*
X9276795D2*
X9361808D1*
X9390080D2*
X9489035D1*
X9671386D2*
X9774920D1*
X8882596Y3036229D2*
X9105663D1*
X9277318D2*
X9361808D1*
X9391739D2*
X9491333D1*
X9669548D2*
X9774779D1*
X8885800Y3033229D2*
X9103069D1*
X9277596D2*
X9361808D1*
X9393848D2*
X9493113D1*
X9667808D2*
X9773302D1*
X8889393Y3030229D2*
X9099452D1*
X9277724D2*
X9361808D1*
X9396062D2*
X9494744D1*
X9670577D2*
X9771795D1*
X8893298Y3027229D2*
X9095047D1*
X9277776D2*
X9361808D1*
X9397983D2*
X9496591D1*
X9672629D2*
X9770771D1*
X8897111Y3024229D2*
X9090873D1*
X9277796D2*
X9361808D1*
X9399574D2*
X9498702D1*
X9673255D2*
X9770224D1*
X8900631Y3021229D2*
X9087092D1*
X9277804D2*
X9361808D1*
X9401149D2*
X9500790D1*
X9673580D2*
X9769974D1*
X8904394Y3018229D2*
X9082869D1*
X9277806D2*
X9361808D1*
X9403106D2*
X9502852D1*
X9673721D2*
X9769870D1*
X8909215Y3015229D2*
X9077570D1*
X9277807D2*
X9361808D1*
X9405408D2*
X9505286D1*
X9673777D2*
X9769830D1*
X8915022Y3012229D2*
X9071256D1*
X9277808D2*
X9361808D1*
X9408123D2*
X9507820D1*
X9673797D2*
X9769815D1*
X8921094Y3009229D2*
X9064289D1*
X9277808D2*
X9361808D1*
X9412055D2*
X9509761D1*
X9673804D2*
X9769810D1*
X8927304Y3006229D2*
X9057177D1*
X9277808D2*
X9361808D1*
X9419034D2*
X9510962D1*
X9673807D2*
X9769809D1*
X8934905Y3003229D2*
X9049682D1*
X9277808D2*
X9361808D1*
X9430833D2*
X9511808D1*
X9673807D2*
X9769808D1*
X8945074Y3000229D2*
X9041090D1*
X9277808D2*
X9361808D1*
X9445808D2*
X9448808D1*
X9673808D2*
D3*
X9733808D2*
X9739808D1*
X9751808D2*
X9757808D1*
X9769808D2*
D3*
X8956808Y2997229D2*
X9031808D1*
X9145808Y2970229D2*
X9148808D1*
X8986808Y2895229D2*
X8989808D1*
X9052808D2*
D3*
X9622808D2*
X9625808D1*
X9688808D2*
D3*
X9520808Y2871229D2*
D3*
X9238808Y2862229D2*
D3*
X9240214Y2859229D2*
X9238808D1*
X9241808Y2856229D2*
X9244808D1*
X9250808Y2853229D2*
X9253808D1*
X9241808Y3396229D2*
Y3393229D1*
X9319808Y3396229D2*
Y3393229D1*
X9298808Y3390229D1*
X9355808Y3396229D2*
Y3393229D1*
X9358808Y3396229D2*
Y3393229D1*
X9370808Y3396229D2*
Y3393229D1*
X9433808Y3396229D2*
X9428183Y3393229D1*
X9421808Y3390229D1*
X9205808D2*
X9208808D2*
X9223808D2*
X9238808D2*
X9292808Y3393229D2*
X9295808Y3390229D1*
X9415808Y3393229D2*
X9418808Y3390229D1*
X9436808D2*
X9451808D2*
X9463808D2*
X9469808D2*
X9214808Y3387229D2*
X9217808D2*
X9286808D2*
X9289808D2*
X9229808Y3381229D2*
Y3378229D1*
X9160808Y3375229D2*
X9202808Y3372229D2*
X9238808Y3369229D2*
X9577808D2*
X9580808D2*
X9124808Y3366229D2*
Y3363229D1*
X9130808Y3366229D2*
Y3363229D1*
X9391808Y3366229D2*
Y3363229D1*
X9394808Y3366229D2*
Y3363229D1*
X9064808Y3360229D2*
X9067808D2*
X9115808D2*
X9175808D2*
X9181808D2*
X9106808Y3357229D2*
X9163808D2*
X9166808D2*
X9451808D2*
X9196808Y3330229D2*
X9199808D2*
X8959808Y3324229D2*
Y3321229D1*
X8962808Y3324229D2*
Y3321229D1*
X8950808Y3318229D2*
X8953808D2*
X9736808Y3309229D2*
Y3306229D1*
X9739808Y3309229D2*
Y3306229D1*
X9337808Y3303229D2*
X9340808D2*
X9436808Y3282229D2*
X9439808D2*
X9787808Y3279229D2*
Y3276229D1*
X9331808Y3252229D2*
Y3249229D1*
X9334808Y3252229D2*
Y3249229D1*
X8929808Y3231229D2*
X8974808Y3228229D2*
X8958270Y3225229D1*
X8945701Y3222229D1*
X8936094Y3219229D1*
X8927331Y3216229D1*
X8919563Y3213229D1*
X8913463Y3210229D1*
X8908805Y3207229D1*
X8904566Y3204229D1*
X8899753Y3201229D1*
X8894646Y3198229D1*
X8890159Y3195229D1*
X8886541Y3192229D1*
X8883462Y3189229D1*
X8880800Y3186229D1*
X8878509Y3183229D1*
X8876194Y3180229D1*
X8873530Y3177229D1*
X8870663Y3174229D1*
X8867910Y3171229D1*
X8865312Y3168229D1*
X8863110Y3165229D1*
X8861439Y3162229D1*
X8860068Y3159229D1*
X8858985Y3156229D1*
X8858133Y3153229D1*
X8857045Y3150229D1*
X8855464Y3147229D1*
X8853868Y3144229D1*
X8852787Y3141229D1*
X8852117Y3138229D1*
X8851478Y3135229D1*
X8850653Y3132229D1*
X8849843Y3129229D1*
X8849305Y3126229D1*
X8849022Y3123229D1*
X8848893Y3120229D1*
X8848840Y3117229D1*
X8848819Y3114229D1*
X8848812Y3111229D1*
X8848809Y3108229D1*
X8848808Y3105229D1*
Y3102229D1*
X8848820Y3099229D1*
X8848925Y3096229D1*
X8849307Y3093229D1*
X8850026Y3090229D1*
X8850795Y3087229D1*
X8851342Y3084229D1*
X8851831Y3081229D1*
X8852723Y3078229D1*
X8854224Y3075229D1*
X8855888Y3072229D1*
X8857324Y3069229D1*
X8858625Y3066229D1*
X8859872Y3063229D1*
X8861371Y3060229D1*
X8863509Y3057229D1*
X8865932Y3054229D1*
X8868028Y3051229D1*
X8870023Y3048229D1*
X8872594Y3045229D1*
X8875862Y3042229D1*
X8879338Y3039229D1*
X8882596Y3036229D1*
X8885800Y3033229D1*
X8889393Y3030229D1*
X8893298Y3027229D1*
X8897111Y3024229D1*
X8900631Y3021229D1*
X8904394Y3018229D1*
X8909215Y3015229D1*
X8915022Y3012229D1*
X8921094Y3009229D1*
X8927304Y3006229D1*
X8934905Y3003229D1*
X8945074Y3000229D1*
X8956808Y2997229D1*
X9013808Y3228229D2*
X9030059Y3225229D1*
X9042513Y3222229D1*
X9051651Y3219229D1*
X9059691Y3216229D1*
X9067012Y3213229D1*
X9073000Y3210229D1*
X9077753Y3207229D1*
X9082397Y3204229D1*
X9087573Y3201229D1*
X9092794Y3198229D1*
X9097375Y3195229D1*
X9100985Y3192229D1*
X9103745Y3189229D1*
X9106179Y3186229D1*
X9108653Y3183229D1*
X9111216Y3180229D1*
X9113942Y3177229D1*
X9116883Y3174229D1*
X9119609Y3171229D1*
X9121791Y3168229D1*
X9123498Y3165229D1*
X9125109Y3162229D1*
X9126955Y3159229D1*
X9128682Y3156229D1*
X9129905Y3153229D1*
X9130870Y3150229D1*
X9131876Y3147229D1*
X9132965Y3144229D1*
X9134294Y3141229D1*
X9136024Y3138229D1*
X9137695Y3135229D1*
X9138796Y3132229D1*
X9139373Y3129229D1*
X9139636Y3126229D1*
X9139743Y3123229D1*
X9139785Y3120229D1*
X9139800Y3117229D1*
X9139805Y3114229D1*
X9139807Y3111229D1*
Y3108229D1*
X9139808Y3105229D1*
Y3102229D1*
X9139784Y3099229D1*
X9139573Y3096229D1*
X9139081Y3093229D1*
X9137440Y3090229D1*
X9135850Y3087229D1*
X9134779Y3084229D1*
X9134114Y3081229D1*
X9133477Y3078229D1*
X9132629Y3075229D1*
X9131609Y3072229D1*
X9130306Y3069229D1*
X9128574Y3066229D1*
X9126778Y3063229D1*
X9125085Y3060229D1*
X9123025Y3057229D1*
X9120545Y3054229D1*
X9118247Y3051229D1*
X9116276Y3048229D1*
X9113988Y3045229D1*
X9111087Y3042229D1*
X9108145Y3039229D1*
X9105663Y3036229D1*
X9103069Y3033229D1*
X9099452Y3030229D1*
X9095047Y3027229D1*
X9090873Y3024229D1*
X9087092Y3021229D1*
X9082869Y3018229D1*
X9077570Y3015229D1*
X9071256Y3012229D1*
X9064289Y3009229D1*
X9057177Y3006229D1*
X9049682Y3003229D1*
X9041090Y3000229D1*
X9031808Y2997229D1*
X8923808Y3225229D2*
X8926808D2*
X9397808D2*
Y3222229D1*
X9613808Y3225229D2*
X9612423Y3222229D1*
X9611561Y3219229D1*
X9611125Y3216229D1*
X9610932Y3213229D1*
X9610854Y3210229D1*
X9610824Y3207229D1*
X9610813Y3204229D1*
X9610810Y3201229D1*
X9610808Y3198229D1*
Y3195229D1*
Y3192229D1*
Y3189229D1*
Y3186229D1*
Y3183229D1*
Y3180229D1*
Y3177229D1*
Y3174229D1*
X9610819Y3171229D1*
X9610934Y3168229D1*
X9611397Y3165229D1*
X9612423Y3162229D1*
X9613808Y3159229D1*
X9838808Y3225229D2*
X9836038Y3222229D1*
X9833987Y3219229D1*
X9833361Y3216229D1*
X9833036Y3213229D1*
X9832894Y3210229D1*
X9832839Y3207229D1*
X9832819Y3204229D1*
X9832811Y3201229D1*
X9832809Y3198229D1*
X9832808Y3195229D1*
Y3192229D1*
Y3189229D1*
Y3186229D1*
Y3183229D1*
Y3180229D1*
X9832831Y3177229D1*
X9833042Y3174229D1*
X9833534Y3171229D1*
X9835229Y3168229D1*
X9837067Y3165229D1*
X9838808Y3162229D1*
X9832808Y3159229D1*
X9274808Y3222229D2*
Y3219229D1*
Y3216229D1*
Y3213229D1*
Y3210229D1*
Y3207229D1*
Y3204229D1*
Y3201229D1*
Y3198229D1*
Y3195229D1*
Y3192229D1*
Y3189229D1*
Y3186229D1*
Y3183229D1*
Y3180229D1*
Y3177229D1*
Y3174229D1*
Y3171229D1*
Y3168229D1*
Y3165229D1*
Y3162229D1*
Y3159229D1*
Y3156229D1*
Y3153229D1*
Y3150229D1*
Y3147229D1*
Y3144229D1*
Y3141229D1*
Y3138229D1*
Y3135229D1*
Y3132229D1*
Y3129229D1*
Y3126229D1*
Y3123229D1*
Y3120229D1*
Y3117229D1*
Y3114229D1*
Y3111229D1*
Y3108229D1*
Y3105229D1*
Y3102229D1*
Y3099229D1*
Y3096229D1*
Y3093229D1*
Y3090229D1*
Y3087229D1*
Y3084229D1*
Y3081229D1*
Y3078229D1*
Y3075229D1*
Y3072229D1*
Y3069229D1*
Y3066229D1*
Y3063229D1*
Y3060229D1*
Y3057229D1*
Y3054229D1*
X9274819Y3051229D1*
X9274925Y3048229D1*
X9275307Y3045229D1*
X9276026Y3042229D1*
X9276795Y3039229D1*
X9277318Y3036229D1*
X9277596Y3033229D1*
X9277724Y3030229D1*
X9277776Y3027229D1*
X9277796Y3024229D1*
X9277804Y3021229D1*
X9277806Y3018229D1*
X9277807Y3015229D1*
X9277808Y3012229D1*
Y3009229D1*
Y3006229D1*
Y3003229D1*
Y3000229D1*
X9430808Y3222229D2*
Y3219229D1*
X9441876Y3216229D1*
X9451347Y3213229D1*
X9459242Y3210229D1*
X9465473Y3207229D1*
X9470524Y3204229D1*
X9475100Y3201229D1*
X9479383Y3198229D1*
X9483179Y3195229D1*
X9486397Y3192229D1*
X9489284Y3189229D1*
X9491842Y3186229D1*
X9493879Y3183229D1*
X9495335Y3180229D1*
X9496363Y3177229D1*
X9497525Y3174229D1*
X9499135Y3171229D1*
X9500742Y3168229D1*
X9501838Y3165229D1*
X9502632Y3162229D1*
X9503497Y3159229D1*
X9505898Y3156229D1*
X9508808Y3153229D1*
X9506038Y3150229D1*
X9503987Y3147229D1*
X9503361Y3144229D1*
X9503012Y3141229D1*
X9502660Y3138229D1*
X9501828Y3135229D1*
X9500265Y3132229D1*
X9498337Y3129229D1*
X9496547Y3126229D1*
X9494998Y3123229D1*
X9493326Y3120229D1*
X9490912Y3117229D1*
X9487711Y3114229D1*
X9484262Y3111229D1*
X9481014Y3108229D1*
X9477802Y3105229D1*
X9474105Y3102229D1*
X9469806Y3099229D1*
X9465185Y3096229D1*
X9460664Y3093229D1*
X9456275Y3090229D1*
X9451808Y3087229D1*
X9455064Y3084229D1*
X9457742Y3081229D1*
X9460168Y3078229D1*
X9462622Y3075229D1*
X9464978Y3072229D1*
X9466953Y3069229D1*
X9468564Y3066229D1*
X9470146Y3063229D1*
X9472105Y3060229D1*
X9474408Y3057229D1*
X9477006Y3054229D1*
X9479806Y3051229D1*
X9482260Y3048229D1*
X9484287Y3045229D1*
X9486495Y3042229D1*
X9489035Y3039229D1*
X9491333Y3036229D1*
X9493113Y3033229D1*
X9494744Y3030229D1*
X9496591Y3027229D1*
X9498702Y3024229D1*
X9500790Y3021229D1*
X9502852Y3018229D1*
X9505286Y3015229D1*
X9507820Y3012229D1*
X9509761Y3009229D1*
X9510962Y3006229D1*
X9511808Y3003229D1*
X9367808Y3168229D2*
Y3165229D1*
Y3162229D1*
Y3159229D1*
Y3156229D1*
Y3153229D1*
Y3150229D1*
Y3147229D1*
Y3144229D1*
Y3141229D1*
Y3138229D1*
Y3135229D1*
Y3132229D1*
Y3129229D1*
X9391808Y3168229D2*
X9392956Y3165229D1*
X9396424Y3162229D1*
X9400665Y3159229D1*
X9404521Y3156229D1*
X9407624Y3153229D1*
X9408753Y3150229D1*
X9409349Y3147229D1*
X9409517Y3144229D1*
X9409221Y3141229D1*
X9408315Y3138229D1*
X9406626Y3135229D1*
X9404011Y3132229D1*
X9400808Y3129229D1*
X9619808Y3162229D2*
X9616808Y3159229D1*
X9628808Y3162229D2*
X9631808Y3159229D1*
X9640808Y3162229D2*
X9637808Y3159229D1*
X9661808Y3162229D2*
X9666629Y3159229D1*
X9670685Y3156229D1*
X9672284Y3153229D1*
X9673156Y3150229D1*
X9673551Y3147229D1*
X9673713Y3144229D1*
X9673774Y3141229D1*
X9673796Y3138229D1*
X9673804Y3135229D1*
X9673807Y3132229D1*
Y3129229D1*
X9673808Y3126229D1*
Y3123229D1*
Y3120229D1*
Y3117229D1*
Y3114229D1*
Y3111229D1*
Y3108229D1*
Y3105229D1*
Y3102229D1*
Y3099229D1*
Y3096229D1*
Y3093229D1*
Y3090229D1*
Y3087229D1*
Y3084229D1*
Y3081229D1*
Y3078229D1*
Y3075229D1*
Y3072229D1*
Y3069229D1*
Y3066229D1*
Y3063229D1*
Y3060229D1*
Y3057229D1*
Y3054229D1*
Y3051229D1*
X9673784Y3048229D1*
X9673573Y3045229D1*
X9673081Y3042229D1*
X9671386Y3039229D1*
X9669548Y3036229D1*
X9667808Y3033229D1*
X9670577Y3030229D1*
X9672629Y3027229D1*
X9673255Y3024229D1*
X9673580Y3021229D1*
X9673721Y3018229D1*
X9673777Y3015229D1*
X9673797Y3012229D1*
X9673804Y3009229D1*
X9673807Y3006229D1*
Y3003229D1*
X9673808Y3000229D1*
X8995808Y3159229D2*
X8984752Y3156229D1*
X8975280Y3153229D1*
X8968061Y3150229D1*
X8962693Y3147229D1*
X8958546Y3144229D1*
X8955247Y3141229D1*
X8952435Y3138229D1*
X8950153Y3135229D1*
X8948454Y3132229D1*
X8947073Y3129229D1*
X8946010Y3126229D1*
X8945367Y3123229D1*
X8945044Y3120229D1*
X8944900Y3117229D1*
X8944842Y3114229D1*
X8944820Y3111229D1*
X8944824Y3108229D1*
X8944926Y3105229D1*
X8945308Y3102229D1*
X8946049Y3099229D1*
X8947041Y3096229D1*
X8948458Y3093229D1*
X8950778Y3090229D1*
X8954032Y3087229D1*
X8957743Y3084229D1*
X8961334Y3081229D1*
X8964688Y3078229D1*
X8968421Y3075229D1*
X8972913Y3072229D1*
X8977808Y3069229D1*
X8986808Y3159229D2*
X9000262Y3156229D1*
X9011395Y3153229D1*
X9019354Y3150229D1*
X9024955Y3147229D1*
X9029434Y3144229D1*
X9033039Y3141229D1*
X9035659Y3138229D1*
X9037748Y3135229D1*
X9039811Y3132229D1*
X9041617Y3129229D1*
X9042768Y3126229D1*
X9043364Y3123229D1*
X9043632Y3120229D1*
X9043742Y3117229D1*
X9043784Y3114229D1*
X9043800Y3111229D1*
X9043805Y3108229D1*
X9043783Y3105229D1*
X9043573Y3102229D1*
X9043081Y3099229D1*
X9041428Y3096229D1*
X9039710Y3093229D1*
X9038046Y3090229D1*
X9035897Y3087229D1*
X9033018Y3084229D1*
X9029781Y3081229D1*
X9026150Y3078229D1*
X9021303Y3075229D1*
X9014929Y3072229D1*
X9007808Y3069229D1*
X9769808Y3159229D2*
Y3156229D1*
Y3153229D1*
X9769831Y3150229D1*
X9770060Y3147229D1*
X9770605Y3144229D1*
X9772943Y3141229D1*
X9775808Y3138229D1*
X9773038Y3135229D1*
X9770987Y3132229D1*
X9770361Y3129229D1*
X9770036Y3126229D1*
X9769894Y3123229D1*
X9769862Y3120229D1*
X9770053Y3117229D1*
X9770536Y3114229D1*
X9772230Y3111229D1*
X9774067Y3108229D1*
X9775808Y3105229D1*
X9773038Y3102229D1*
X9770987Y3099229D1*
X9770361Y3096229D1*
X9770036Y3093229D1*
X9769894Y3090229D1*
X9769839Y3087229D1*
X9769819Y3084229D1*
X9769811Y3081229D1*
X9769809Y3078229D1*
X9769808Y3075229D1*
Y3072229D1*
Y3069229D1*
Y3066229D1*
Y3063229D1*
Y3060229D1*
Y3057229D1*
X9769831Y3054229D1*
X9770042Y3051229D1*
X9770534Y3048229D1*
X9772176Y3045229D1*
X9773742Y3042229D1*
X9774920Y3039229D1*
X9774779Y3036229D1*
X9773302Y3033229D1*
X9771795Y3030229D1*
X9770771Y3027229D1*
X9770224Y3024229D1*
X9769974Y3021229D1*
X9769870Y3018229D1*
X9769830Y3015229D1*
X9769815Y3012229D1*
X9769810Y3009229D1*
X9769809Y3006229D1*
X9769808Y3003229D1*
Y3000229D1*
X9790808Y3099229D2*
X9793808D2*
X9361808Y3072229D2*
Y3069229D1*
Y3066229D1*
Y3063229D1*
Y3060229D1*
Y3057229D1*
Y3054229D1*
Y3051229D1*
Y3048229D1*
Y3045229D1*
Y3042229D1*
Y3039229D1*
Y3036229D1*
Y3033229D1*
Y3030229D1*
Y3027229D1*
Y3024229D1*
Y3021229D1*
Y3018229D1*
Y3015229D1*
Y3012229D1*
Y3009229D1*
Y3006229D1*
Y3003229D1*
Y3000229D1*
X9373808Y3072229D2*
X9374735Y3069229D1*
X9376234Y3066229D1*
X9377893Y3063229D1*
X9379350Y3060229D1*
X9380837Y3057229D1*
X9382626Y3054229D1*
X9384691Y3051229D1*
X9386560Y3048229D1*
X9387854Y3045229D1*
X9388874Y3042229D1*
X9390080Y3039229D1*
X9391739Y3036229D1*
X9393848Y3033229D1*
X9396062Y3030229D1*
X9397983Y3027229D1*
X9399574Y3024229D1*
X9401149Y3021229D1*
X9403106Y3018229D1*
X9405408Y3015229D1*
X9408123Y3012229D1*
X9412055Y3009229D1*
X9419034Y3006229D1*
X9430833Y3003229D1*
X9445808Y3000229D1*
X9451808Y3003229D2*
X9448808Y3000229D1*
X9730808Y3003229D2*
X9733808Y3000229D1*
X9742808Y3003229D2*
X9739808Y3000229D1*
X9748808Y3003229D2*
X9751808Y3000229D1*
X9760808Y3003229D2*
X9757808Y3000229D1*
X9145808Y2970229D2*
X9148808D2*
X8986808Y2895229D2*
X8989808D2*
X9052808D2*
X9622808D2*
X9625808D2*
X9688808D2*
X9520808Y2871229D2*
X9238808Y2862229D2*
X9240214Y2859229D1*
X9241808Y2856229D1*
X9244808D2*
X9250808Y2853229D2*
X9253808D2*
M02*
