G04 DipTrace 3.3.1.3*
G04 Top.gbr*
%MOIN*%
G04 #@! TF.FileFunction,Copper,L1,Top*
G04 #@! TF.Part,Single*
G04 #@! TA.AperFunction,Conductor*
%ADD14C,0.025984*%
%ADD15C,0.012992*%
G04 #@! TA.AperFunction,ComponentPad*
%ADD17C,0.059055*%
%ADD21C,0.076772*%
%ADD22R,0.059055X0.059055*%
%ADD23R,0.05X0.05*%
%ADD24C,0.05*%
%ADD25C,0.06*%
%ADD26C,0.06*%
%ADD27C,0.059055*%
%ADD28C,0.045997*%
%ADD29R,0.045997X0.045997*%
G04 #@! TA.AperFunction,ViaPad*
%ADD32C,0.04*%
%FSLAX26Y26*%
G04*
G70*
G90*
G75*
G01*
G04 Top*
%LPD*%
X4613058Y3867979D2*
D14*
X4677430Y3803606D1*
X4948685D1*
X5013058Y3867979D1*
X5838058Y3142979D2*
X5906560Y3074476D1*
X6269555D1*
X6338058Y3142979D1*
X6213058Y3867979D2*
X6316406Y3971327D1*
X6509710D1*
X6613058Y3867979D1*
X5413058D2*
X5477429Y3932350D1*
X5748686D1*
X5813058Y3867979D1*
X5013058D2*
X5077430Y3803606D1*
X5348685D1*
X5413058Y3867979D1*
X1413058Y667979D2*
X1477430Y603606D1*
X1748685D1*
X1813058Y667979D1*
X6713058Y1467979D2*
X6813058Y1567979D1*
X6913058D1*
X8242273Y2532469D2*
X6791131D1*
X1013058Y667979D2*
X909710Y771327D1*
X716406D1*
X613058Y667979D1*
X1813058D2*
X1877430Y603606D1*
X5548685D1*
X5613058Y667979D1*
X2226058Y3092979D2*
D15*
X1573895Y3745142D1*
X1535895D1*
X1413058Y3867979D1*
X6913058Y1267979D2*
D14*
X6857072Y1323965D1*
X6059749D1*
X2809908Y3867979D2*
X2874280Y3932350D1*
X4745537D1*
X4809908Y3867979D1*
X809908D2*
X874280Y3932350D1*
X1145537D1*
X1209908Y3867979D1*
Y667979D2*
X1274280Y732350D1*
X1545537D1*
X1609908Y667979D1*
X6456807Y2830479D2*
X6362318Y2924969D1*
X5738797D1*
X5644307Y2830479D1*
X5609908Y3867979D2*
X5713257Y3764630D1*
X5906559D1*
X6009908Y3867979D1*
X6913058Y1667979D2*
X6713058D1*
X6006759Y667979D2*
X5809908D1*
X4388058Y1392979D2*
X4289043Y1293965D1*
X3311781D1*
X3266308Y1248492D1*
X2343571D1*
X2288058Y1192979D1*
X6059749Y1323965D2*
X5990735Y1392979D1*
X4388058D1*
X4809908Y3867979D2*
X4874280Y3932350D1*
X5145537D1*
X5209908Y3867979D1*
X2009908D2*
X2074281Y3803606D1*
X2345535D1*
X2409908Y3867979D1*
X1609908D2*
X1674281Y3803606D1*
X1945535D1*
X2009908Y3867979D1*
X1209908D2*
X1274280Y3932350D1*
X1545537D1*
X1609908Y3867979D1*
Y667979D2*
X1674280Y732350D1*
X1945537D1*
X2009908Y667979D1*
X738845Y3092979D2*
X794358Y3148492D1*
X883332D1*
X938845Y3092979D1*
X2126058D2*
D15*
X1531466Y3687571D1*
X1193466D1*
X1013058Y3867979D1*
X4476564Y2792980D2*
X4638537Y2631008D1*
X7609348D1*
X7829588Y2851248D1*
X9937072D1*
X9963058Y2825262D1*
Y1567979D1*
X5363058Y2692979D2*
X5412549D1*
X5448535Y2656992D1*
X6483320D1*
X6556807Y2730479D1*
X4388058Y2892979D2*
X4763058D1*
X4963058Y2692979D1*
X4388058Y2992979D2*
X4813058D1*
X4963058Y2842979D1*
X3609908Y3867979D2*
X2888058Y3146129D1*
Y3092979D1*
X4188058Y1192979D2*
X4331180Y1049857D1*
X5028030D1*
X5409908Y667979D1*
X5213058D2*
X4904678Y976358D1*
X4304678D1*
X4088058Y1192979D1*
X7613058Y1467979D2*
X7513058Y1567979D1*
X7213058D1*
Y1767979D2*
X7264041Y1716996D1*
X7564041D1*
X7613058Y1667979D1*
X7213058Y1867979D2*
X7413058D1*
X7513058Y1767979D1*
X7213058Y1967979D2*
X7513058D1*
X7213058Y2067979D2*
X7613058D1*
X4388058Y2092979D2*
X5887072D1*
X5913058Y2066993D1*
Y1667979D1*
X4388058Y1892979D2*
X4768190D1*
X4794175Y1866995D1*
Y1761873D1*
X4718701Y1686399D1*
X4288058Y1892979D2*
X4339041Y1841996D1*
X4550458D1*
X4581055Y1811399D1*
X4718701D1*
X5363058Y2842979D2*
X5475558Y2730479D1*
X5744307D1*
X1926058Y3092979D2*
X1710291Y3308745D1*
X1172291D1*
X613058Y3867979D1*
X4288058Y1792979D2*
X4339041Y1741996D1*
X4481055D1*
X4507042Y1716009D1*
Y1587386D1*
X4533029Y1561399D1*
X4718701D1*
X9838058Y1567979D2*
Y2799280D1*
X9812073Y2825264D1*
X8008269D1*
X7787442Y2604437D1*
X4476600D1*
X4388058Y2692979D1*
X9463058Y1567979D2*
X9412076Y1618961D1*
Y2366992D1*
X9386089Y2392979D1*
X4388058D1*
X4490068Y1438965D2*
X6375419D1*
X6395419Y1418965D1*
X9526052D1*
X9713058Y1567979D2*
Y2466991D1*
X9687070Y2492979D1*
X4388058D1*
X4450580Y1941996D2*
X5221797D1*
X5546797Y1616996D1*
X7984182D1*
X8090482Y1510697D1*
X9275068D1*
X3888058Y1192979D2*
X4182735Y898302D1*
X4582735D1*
X4813058Y667979D1*
X3588058Y1192979D2*
X4055182Y725854D1*
X4155182D1*
X4213058Y667979D1*
X6837115Y2067980D2*
X6723613Y2181484D1*
X4529556D1*
X3613058Y2967979D2*
Y2167979D1*
X3639041Y2141996D1*
X6057710D1*
X6231727Y1967979D1*
X6913058D1*
X3688056Y3219898D2*
X3721100Y3252941D1*
X6844123D1*
X6913056Y3187469D2*
X3788056Y3187465D1*
X7213058Y667979D2*
X6868936Y1012101D1*
X6168936D1*
X5913058Y1267979D1*
X7409908Y667979D2*
X6887332Y1190555D1*
X6190482D1*
X6113058Y1267979D1*
X5824080Y1717469D2*
X5542147Y1999402D1*
X4450580D1*
X8137336Y2578453D2*
X5073757D1*
X5037301Y2541996D1*
X4339041D1*
X4288058Y2592979D1*
X9463058Y2142979D2*
Y2416012D1*
X9437073Y2441996D1*
X4339041D1*
X4288058Y2492979D1*
X9363058Y2142979D2*
X9164041Y2341996D1*
X4339041D1*
X4288058Y2392979D1*
X9263058Y2142979D2*
X9189041Y2216996D1*
X6875600D1*
X6850600Y2241996D1*
X4339041D1*
X4288058Y2292979D1*
X6762584Y725855D2*
X6144630D1*
X5530536Y1339949D1*
X4450580D1*
X5067785Y1491957D2*
X4489080D1*
X4388058Y1592979D1*
D32*
X6791131Y2532469D3*
X8242273D3*
X6059749Y1323965D3*
X4476564Y2792980D3*
X4490068Y1438965D3*
X9526052Y1418965D3*
X4450580Y1941996D3*
X9275068Y1510697D3*
X4529556Y2181484D3*
X6837115Y2067980D3*
X6844123Y3252941D3*
X3688056Y3219898D3*
X6913056Y3187469D3*
X3788056Y3187465D3*
X4450580Y1999402D3*
X5824080Y1717469D3*
X8137336Y2578453D3*
X4450580Y1339949D3*
X6762584Y725855D3*
X5067785Y1491957D3*
D21*
X2613058Y3867979D3*
X2809908D3*
X3013058D3*
X3209908D3*
X3413058D3*
X3609908D3*
X6213058D3*
X6409908D3*
X613058Y667979D3*
X809908D3*
X6613058Y3867979D3*
X6809908D3*
X4613058D3*
X4809908D3*
D22*
X4388058Y1392979D3*
Y1492979D3*
Y1592979D3*
Y1692979D3*
Y1792979D3*
Y1892979D3*
Y1992979D3*
Y2092979D3*
Y2192979D3*
Y2292979D3*
Y2392979D3*
Y2492979D3*
Y2592979D3*
Y2692979D3*
Y2792979D3*
Y2892979D3*
Y2992979D3*
X4288058Y3092979D3*
Y1392979D3*
Y1492979D3*
Y1592979D3*
Y1692979D3*
Y1792979D3*
Y1892979D3*
Y1992979D3*
Y2092979D3*
Y2192979D3*
Y2292979D3*
Y2392979D3*
Y2492979D3*
Y2592979D3*
Y2692979D3*
Y2792979D3*
Y2892979D3*
Y2992979D3*
X4388058Y3092979D3*
X2188058Y1192979D3*
X1988058D3*
X1888058D3*
X1788058D3*
X1688058D3*
X3088058D3*
X2988058D3*
X2888058D3*
X2788058D3*
X2688058D3*
X2588058D3*
X2226058Y3092979D3*
X2126058D3*
X2026058D3*
X1926058D3*
X1826058D3*
X1726058D3*
X1626058D3*
X1525058D3*
X1426058D3*
X1326058D3*
X3088058D3*
X2988058D3*
X2888058D3*
X2788058D3*
X2688058D3*
X2588058D3*
X2488058D3*
X2388058D3*
X3288058D3*
X3388058D3*
X3488058D3*
X3588058D3*
X3688058D3*
X3788058D3*
X3888058D3*
X3988058D3*
X3188058Y1192979D3*
X3288058D3*
X3488058D3*
X3588058D3*
X3688058D3*
X3788058D3*
X3888058D3*
X3988058D3*
X4088058D3*
X4188058D3*
X2088058D3*
X2388058D3*
X2288058D3*
D21*
X1013058Y3867979D3*
X1209908D3*
D23*
X5838058Y3142979D3*
D24*
X6088058D3*
D21*
X9113058Y667979D3*
X9309908D3*
X9506759D3*
X5013058Y3867979D3*
X5209908D3*
X5413058D3*
X5609908D3*
X5813058D3*
X6009908D3*
X1013058Y667979D3*
X1209908D3*
X1413058D3*
X1609908D3*
X1813058D3*
X2009908D3*
X2206759D3*
X1413058Y3867979D3*
X1609908D3*
D25*
X5363058Y2842979D3*
D26*
X4963058D3*
D23*
X6338058Y3142979D3*
D24*
X6588058D3*
D21*
X6813058Y667979D3*
X7009908D3*
X5613058D3*
X5809908D3*
X6006759D3*
X6213058D3*
X6409908D3*
X6606759D3*
X7213058D3*
X7409908D3*
X7613058D3*
X7809908D3*
X8013058D3*
X8209908D3*
X2413058D3*
X2609908D3*
X2806759D3*
D22*
X7213058Y1567979D3*
D27*
Y1667979D3*
Y1767979D3*
Y1867979D3*
Y1967979D3*
Y2067979D3*
Y2167979D3*
Y2267979D3*
X6913058D3*
Y2167979D3*
Y2067979D3*
Y1967979D3*
Y1867979D3*
Y1767979D3*
Y1667979D3*
Y1567979D3*
D25*
X9463058Y1167979D3*
D26*
Y1567979D3*
D25*
X9338058Y1167979D3*
D26*
Y1567979D3*
D25*
X9588058Y1167979D3*
D26*
Y1567979D3*
D25*
X9713058Y1167979D3*
D26*
Y1567979D3*
D25*
X9838058Y1167979D3*
D26*
Y1567979D3*
D25*
X9963058Y1167979D3*
D26*
Y1567979D3*
D25*
X4963058Y2692979D3*
D26*
X5363058D3*
D25*
X4718701Y1811399D3*
D26*
X5118701D3*
D25*
X4718701Y1686399D3*
D26*
X5118701D3*
D25*
X4718701Y1561399D3*
D26*
X5118701D3*
D22*
X6456807Y2830479D3*
D27*
X6556807Y2730479D3*
D17*
X6656807Y2830479D3*
X7613058Y1467979D3*
Y1667979D3*
X7513058Y1967979D3*
Y1767979D3*
X7613058Y2067979D3*
Y2267979D3*
X6713058Y1467979D3*
Y1667979D3*
X6913058Y1267979D3*
X7113058D3*
X3513058Y2967979D3*
X3613058D3*
D25*
X5913058Y1267979D3*
D26*
Y1667979D3*
D25*
X6113058Y1267979D3*
D26*
Y1667979D3*
D17*
X9663058Y2142979D3*
X9163058D3*
X9563058D3*
X9463058D3*
X9363058D3*
X9263058D3*
D21*
X613058Y3867979D3*
X809908D3*
X1813058D3*
X2009908D3*
X2213058D3*
X2409908D3*
X3813058D3*
X4009908D3*
X4213058D3*
X4409908D3*
X9713058Y667979D3*
X9909908D3*
X10113058D3*
X10309908D3*
X3013058D3*
X3209908D3*
X3406759D3*
X3613058D3*
X3809908D3*
X4006759D3*
X4213058D3*
X4409908D3*
X4606759D3*
X4813058D3*
X5009908D3*
X5213058D3*
X5409908D3*
D28*
X5844307Y2830479D3*
D29*
X5644307D3*
D28*
X5744307Y2730479D3*
D22*
X1038845Y3092979D3*
D27*
X938845D3*
X838845D3*
X738845D3*
M02*
