G04 DipTrace 3.3.1.3*
G04 TopAssy.gbr*
%MOIN*%
G04 #@! TF.FileFunction,Drawing,Top*
G04 #@! TF.Part,Single*
%AMOUTLINE0*
4,1,4,
0.0,-0.035433,
-0.035433,0.0,
0.0,0.035433,
0.035433,0.0,
0.0,-0.035433,
0*%
%ADD10C,0.009843*%
%ADD17C,0.023622*%
%ADD18C,0.059055*%
%ADD19C,0.07874*%
G04 #@! TA.AperFunction,ComponentPad*
%ADD21C,0.076772*%
%ADD22R,0.059055X0.059055*%
%ADD23R,0.05X0.05*%
%ADD24C,0.05*%
%ADD25C,0.06*%
%ADD26C,0.06*%
%ADD27C,0.059055*%
%ADD28C,0.055118*%
%ADD60C,0.00772*%
%ADD62C,0.004*%
%ADD63C,0.009264*%
G04 #@! TA.AperFunction,ComponentPad*
%ADD64OUTLINE0*%
%FSLAX26Y26*%
G04*
G70*
G90*
G75*
G01*
G04 TopAssy*
%LPD*%
D21*
X2613058Y3867979D3*
X2809908D3*
X3013058D3*
X3209908D3*
X3413058D3*
X3609908D3*
X6213058D3*
X6409908D3*
X613058Y667979D3*
X809908D3*
X6613058Y3867979D3*
X6809908D3*
X4613058D3*
X4809908D3*
X2437983Y1242919D2*
D10*
X1938183D1*
X2537858D2*
X4237858D1*
X963233Y2842909D2*
X338058D1*
Y2392879D1*
X963233D1*
X4237858Y3142999D2*
Y1342879D1*
X2938208Y3142999D2*
Y2943079D1*
Y3043039D2*
X1687858D1*
X4038108D2*
X2938208D1*
X963233Y2392879D2*
Y2842909D1*
X513158Y1217929D2*
Y1567999D1*
Y1217929D2*
X1038033D1*
X513158Y1567999D2*
X1038033D1*
Y1217929D1*
D22*
X4388058Y1392979D3*
Y1492979D3*
Y1592979D3*
Y1692979D3*
Y1792979D3*
Y1892979D3*
Y1992979D3*
Y2092979D3*
Y2192979D3*
Y2292979D3*
Y2392979D3*
Y2492979D3*
Y2592979D3*
Y2692979D3*
Y2792979D3*
Y2892979D3*
Y2992979D3*
X4288058Y3092979D3*
Y1392979D3*
Y1492979D3*
Y1592979D3*
Y1692979D3*
Y1792979D3*
Y1892979D3*
Y1992979D3*
Y2092979D3*
Y2192979D3*
Y2292979D3*
Y2392979D3*
Y2492979D3*
Y2592979D3*
Y2692979D3*
Y2792979D3*
Y2892979D3*
Y2992979D3*
X4388058Y3092979D3*
X2188058Y1192979D3*
X1988058D3*
X1888058D3*
X1788058D3*
X1688058D3*
X3088058D3*
X2988058D3*
X2888058D3*
X2788058D3*
X2688058D3*
X2588058D3*
X2226058Y3092979D3*
X2126058D3*
X2026058D3*
X1926058D3*
X1826058D3*
X1726058D3*
X1626058D3*
X1525058D3*
X1426058D3*
X1326058D3*
X3088058D3*
X2988058D3*
X2888058D3*
X2788058D3*
X2688058D3*
X2588058D3*
X2488058D3*
X2388058D3*
X3288058D3*
X3388058D3*
X3488058D3*
X3588058D3*
X3688058D3*
X3788058D3*
X3888058D3*
X3988058D3*
X3188058Y1192979D3*
X3288058D3*
X3488058D3*
X3588058D3*
X3688058D3*
X3788058D3*
X3888058D3*
X3988058D3*
X4088058D3*
X4188058D3*
X2088058D3*
X2388058D3*
X2288058D3*
D21*
X1013058Y3867979D3*
X1209908D3*
D23*
X5338058Y3242979D3*
D24*
X5588058D3*
D21*
X9113058Y667979D3*
X9309908D3*
X9506759D3*
X5013058Y3867979D3*
X5209908D3*
X5413058D3*
X5609908D3*
X5813058D3*
X6009908D3*
X1013058Y667979D3*
X1209908D3*
X1413058D3*
X1609908D3*
X1813058D3*
X2009908D3*
X2206759D3*
X1413058Y3867979D3*
X1609908D3*
D25*
X5088058Y3042979D3*
D26*
X4688058D3*
D23*
X5338058Y2917979D3*
D24*
X5588058D3*
D21*
X6813058Y667979D3*
X7009908D3*
X5613058D3*
X5809908D3*
X6006759D3*
X6213058D3*
X6409908D3*
X6606759D3*
X7213058D3*
X7409908D3*
X7613058D3*
X7809908D3*
X8013058D3*
X8209908D3*
X2413058D3*
X2609908D3*
X2806759D3*
D22*
X7213058Y1367979D3*
D27*
Y1467979D3*
Y1567979D3*
Y1667979D3*
Y1767979D3*
Y1867979D3*
Y1967979D3*
Y2067979D3*
X6913058D3*
Y1967979D3*
Y1867979D3*
Y1767979D3*
Y1667979D3*
Y1567979D3*
Y1467979D3*
Y1367979D3*
D25*
X9463058Y1167979D3*
D26*
Y1567979D3*
D25*
X9338058Y1167979D3*
D26*
Y1567979D3*
D25*
X9588058Y1167979D3*
D26*
Y1567979D3*
D25*
X9713058Y1167979D3*
D26*
Y1567979D3*
D25*
X9838058Y1167979D3*
D26*
Y1567979D3*
D25*
X9963058Y1167979D3*
D26*
Y1567979D3*
D25*
X4688058Y2892979D3*
D26*
X5088058D3*
D25*
X4718701Y1811399D3*
D26*
X5118701D3*
D25*
X4718701Y1686399D3*
D26*
X5118701D3*
D25*
X4718701Y1561399D3*
D26*
X5118701D3*
D28*
X6013058Y3367979D3*
X5963058Y3317979D3*
D64*
X5913058Y3367979D3*
D28*
X4813058Y3417979D3*
X4763058Y3367979D3*
D64*
X4713058Y3417979D3*
D18*
X7613058Y1267979D3*
Y1467979D3*
X7513058Y1767979D3*
Y1567979D3*
X7613058Y1867979D3*
Y2067979D3*
X6713058Y1267979D3*
Y1467979D3*
X6913058Y1067979D3*
X7113058D3*
X3513058Y2967979D3*
X3613058D3*
D25*
X5913058Y1067979D3*
D26*
Y1467979D3*
D25*
X6013058Y1067979D3*
D26*
Y1467979D3*
D18*
X9463058Y2142979D3*
X8963058D3*
X9363058D3*
X9263058D3*
X9163058D3*
X9063058D3*
D21*
X613058Y3867979D3*
X809908D3*
X1813058D3*
X2009908D3*
X2213058D3*
X2409908D3*
X3813058D3*
X4009908D3*
X4213058D3*
X4409908D3*
X9713058Y667979D3*
X9909908D3*
X10113058D3*
X10309908D3*
X3013058D3*
X3209908D3*
X3406759D3*
X3613058D3*
X3809908D3*
X4006759D3*
X4213058D3*
X4409908D3*
X4606759D3*
X4813058D3*
X5009908D3*
X5213058D3*
X5409908D3*
X10675530Y1555394D2*
D17*
X10676261Y1611199D1*
X10678450Y1666732D1*
X10682086Y1721723D1*
X10687152Y1775904D1*
X10693622Y1829010D1*
X10701467Y1880783D1*
X10710646Y1930971D1*
X10721116Y1979329D1*
X10732825Y2025622D1*
X10745717Y2069624D1*
X10759728Y2111120D1*
X10774791Y2149910D1*
X10790832Y2185802D1*
X10807772Y2218624D1*
X10825530Y2248214D1*
X10844019Y2274429D1*
X10863148Y2297141D1*
X10882825Y2316239D1*
X10902954Y2331630D1*
X10923436Y2343240D1*
X10944172Y2351011D1*
X10965060Y2354906D1*
X10986000D1*
X11006889Y2351011D1*
X11027625Y2343240D1*
X11048107Y2331630D1*
X11068235Y2316239D1*
X11087912Y2297141D1*
X11107042Y2274429D1*
X11125530Y2248214D1*
X11143288Y2218624D1*
X11160229Y2185802D1*
X11176269Y2149910D1*
X11191332Y2111120D1*
X11205344Y2069624D1*
X11218235Y2025622D1*
X11229945Y1979329D1*
X11240414Y1930971D1*
X11249594Y1880783D1*
X11257438Y1829010D1*
X11263909Y1775904D1*
X11268974Y1721723D1*
X11272611Y1666732D1*
X11274799Y1611199D1*
X11275530Y1555394D1*
X11274799Y1499589D1*
X11272611Y1444055D1*
X11268974Y1389064D1*
X11263909Y1334884D1*
X11257438Y1281778D1*
X11249594Y1230004D1*
X11240414Y1179816D1*
X11229945Y1131458D1*
X11218235Y1085165D1*
X11205344Y1041164D1*
X11191332Y999667D1*
X11176269Y960878D1*
X11160229Y924985D1*
X11143288Y892164D1*
X11125530Y862573D1*
X11107042Y836358D1*
X11087912Y813647D1*
X11068235Y794548D1*
X11048107Y779157D1*
X11027625Y767547D1*
X11006889Y759776D1*
X10986000Y755881D1*
X10965060D1*
X10944172Y759776D1*
X10923436Y767547D1*
X10902954Y779157D1*
X10882825Y794548D1*
X10863148Y813647D1*
X10844019Y836358D1*
X10825530Y862573D1*
X10807772Y892164D1*
X10790832Y924985D1*
X10774791Y960878D1*
X10759728Y999667D1*
X10745717Y1041164D1*
X10732825Y1085165D1*
X10721116Y1131458D1*
X10710646Y1179816D1*
X10701467Y1230004D1*
X10693622Y1281778D1*
X10687152Y1334884D1*
X10682086Y1389064D1*
X10678450Y1444055D1*
X10676261Y1499589D1*
X10675530Y1555394D1*
X11225530Y1930394D2*
G03X10725530Y1905394I-250625J0D01*
G01*
X11275530Y1555394D2*
G03X10675530Y1555394I-300000J-297500D01*
G01*
X11250530Y1680394D2*
G03X11050530Y1780394I-218750J-187500D01*
G01*
X10850530D2*
G03X10675530Y1630394I287500J-512500D01*
G01*
X11275530Y1555394D2*
X11200530D1*
X11100530D1*
X10825530D2*
X10750530D1*
X10725530D1*
Y1505394D2*
G03X10825530Y1430394I162500J112500D01*
G01*
X11075530Y1305394D2*
G02X10725530Y1405394I-118421J248026D01*
G01*
X10825530Y1205394D2*
G02X10700530Y1355394I462500J512500D01*
G01*
X10825530Y1080394D2*
G02X10700530Y1280394I487500J443750D01*
G01*
X11200530Y1105394D2*
G02X11100530Y980394I-362500J187500D01*
G01*
X11050530Y905394D2*
G02X10825530Y955394I-87500J137500D01*
G01*
G02X10725530Y1155394I425000J337500D01*
G01*
X10800530Y1980394D2*
G03X10700530Y1730394I825000J-475000D01*
G01*
X11225530Y1905394D2*
G03X11075530Y2005394I-175000J-100000D01*
G01*
X11175530Y1530394D2*
X11200530Y1480394D1*
X11225530Y1505394D1*
X11250530Y1405394D2*
X11225530Y1480394D1*
X11250530Y1405394D2*
X11225530Y1380394D1*
X11200530D2*
X11250530Y1330394D1*
X10950530Y905394D2*
Y930394D1*
X10925530Y980394D2*
Y930394D1*
X11100530Y1830394D2*
X11125530Y1780394D1*
X11175530D2*
Y1805394D1*
X11200530Y1855394D2*
X11225530D1*
X11200530Y1905394D2*
Y1805394D1*
X10825530Y1880394D2*
X10750530Y1805394D1*
Y1755394D2*
Y1780394D1*
X10850530Y1830394D2*
X10775530Y1805394D1*
X10850530Y1730394D2*
X10925530Y1705394D1*
X10950530D2*
Y1730394D1*
X11150530Y1530394D2*
Y1505394D1*
X11125530Y1455394D2*
Y1405394D1*
X10881781Y1957540D2*
D18*
X10882009Y1966479D1*
X10882694Y1975373D1*
X10883831Y1984182D1*
X10885415Y1992860D1*
X10887439Y2001366D1*
X10889892Y2009659D1*
X10892762Y2017697D1*
X10896037Y2025443D1*
X10899698Y2032858D1*
X10903730Y2039906D1*
X10908112Y2046552D1*
X10912822Y2052765D1*
X10917839Y2058515D1*
X10923136Y2063772D1*
X10928690Y2068511D1*
X10934472Y2072710D1*
X10940454Y2076348D1*
X10946607Y2079407D1*
X10952902Y2081872D1*
X10959307Y2083732D1*
X10965792Y2084977D1*
X10972324Y2085600D1*
X10978873D1*
X10985405Y2084977D1*
X10991890Y2083732D1*
X10998295Y2081872D1*
X11004590Y2079407D1*
X11010743Y2076348D1*
X11016725Y2072710D1*
X11022507Y2068511D1*
X11028061Y2063772D1*
X11033358Y2058515D1*
X11038375Y2052765D1*
X11043085Y2046552D1*
X11047467Y2039906D1*
X11051498Y2032858D1*
X11055160Y2025443D1*
X11058434Y2017697D1*
X11061305Y2009659D1*
X11063758Y2001366D1*
X11065782Y1992860D1*
X11067366Y1984182D1*
X11068503Y1975373D1*
X11069187Y1966479D1*
X11069416Y1957540D1*
X11069187Y1948602D1*
X11068503Y1939707D1*
X11067366Y1930899D1*
X11065782Y1922220D1*
X11063758Y1913714D1*
X11061305Y1905421D1*
X11058434Y1897383D1*
X11055160Y1889637D1*
X11051498Y1882222D1*
X11047467Y1875174D1*
X11043085Y1868528D1*
X11038375Y1862315D1*
X11033358Y1856566D1*
X11028061Y1851308D1*
X11022507Y1846569D1*
X11016725Y1842370D1*
X11010743Y1838732D1*
X11004590Y1835673D1*
X10998295Y1833208D1*
X10991890Y1831348D1*
X10985405Y1830104D1*
X10978873Y1829480D1*
X10972324D1*
X10965792Y1830104D1*
X10959307Y1831348D1*
X10952902Y1833208D1*
X10946607Y1835673D1*
X10940454Y1838732D1*
X10934472Y1842370D1*
X10928690Y1846569D1*
X10923136Y1851308D1*
X10917839Y1856566D1*
X10912822Y1862315D1*
X10908112Y1868528D1*
X10903730Y1875174D1*
X10899698Y1882222D1*
X10896037Y1889637D1*
X10892762Y1897383D1*
X10889892Y1905421D1*
X10887439Y1913714D1*
X10885415Y1922220D1*
X10883831Y1930899D1*
X10882694Y1939707D1*
X10882009Y1948602D1*
X10881781Y1957540D1*
G36*
X10869280Y1617895D2*
X11094280D1*
Y1523119D1*
X10869280D1*
Y1617895D1*
G37*
G36*
X10875530Y1155394D2*
X11100530D1*
Y1030394D1*
X10875530D1*
Y1155394D1*
G37*
G36*
X11025530Y1230394D2*
X11075530D1*
Y980394D1*
X11025530D1*
Y1230394D1*
G37*
G36*
D2*
X11100530D1*
Y955394D1*
X11025530D1*
Y1230394D1*
G37*
G36*
X10850530Y1155394D2*
X10875530D1*
Y1030394D1*
X10850530D1*
Y1155394D1*
G37*
X11113030Y1292894D2*
D17*
Y1280394D1*
X11106780Y1267894D2*
X11100530Y1255394D1*
Y1249143D2*
X11119280Y1217894D1*
X11144280Y1042894D2*
X11106780Y1111644D1*
X11044413Y1566874D2*
D19*
X11056915Y1560623D1*
Y1473114D1*
X11031912Y1423109D1*
X11000659Y1404357D1*
X10975656Y1429360D1*
X10963155Y1479365D1*
Y1523119D1*
Y1541871D1*
X10950654D1*
G36*
X10925651Y1491866D2*
X10869395Y1454362D1*
Y1348101D1*
X10956904Y1416858D1*
X10950654D1*
X10925651Y1491866D1*
G37*
X7699591Y1405341D2*
D60*
X7704400Y1410149D1*
X7706776Y1414958D1*
Y1422088D1*
X7704400Y1426896D1*
X7699591Y1431649D1*
X7692406Y1434081D1*
X7687653D1*
X7680468Y1431649D1*
X7675715Y1426896D1*
X7673283Y1422088D1*
Y1414958D1*
X7675715Y1410149D1*
X7680468Y1405341D1*
X7713906Y1389902D2*
X7716338Y1385093D1*
X7723468Y1377908D1*
X7673283D1*
X7719903Y1340969D2*
X7676848D1*
X7698348Y1362469D2*
Y1319414D1*
X7604092Y1709841D2*
X7608901Y1714649D1*
X7611278Y1719458D1*
Y1726588D1*
X7608901Y1731396D1*
X7604093Y1736149D1*
X7596908Y1738581D1*
X7592154D1*
X7584969Y1736149D1*
X7580216Y1731396D1*
X7577784Y1726588D1*
Y1719458D1*
X7580216Y1714649D1*
X7584969Y1709841D1*
X7616031Y1691970D2*
X7618407D1*
X7623216Y1689593D1*
X7625592Y1687217D1*
X7627969Y1682408D1*
Y1672847D1*
X7625592Y1668093D1*
X7623216Y1665717D1*
X7618407Y1663285D1*
X7613654D1*
X7608846Y1665717D1*
X7601716Y1670470D1*
X7577784Y1694402D1*
Y1660908D1*
X7624404Y1623969D2*
X7581349D1*
X7602849Y1645469D2*
Y1602414D1*
X7699029Y2023529D2*
X7703838Y2028337D1*
X7706215Y2033145D1*
Y2040275D1*
X7703838Y2045084D1*
X7699030Y2049837D1*
X7691845Y2052269D1*
X7687091D1*
X7679906Y2049837D1*
X7675153Y2045084D1*
X7672721Y2040275D1*
Y2033145D1*
X7675153Y2028337D1*
X7679906Y2023529D1*
X7672721Y1984158D2*
X7722906D1*
X7689468Y2008089D1*
Y1972219D1*
X7719341Y1935280D2*
X7676286D1*
X7697786Y1956780D2*
Y1913725D1*
X7023047Y1030948D2*
X7018239Y1035757D1*
X7013431Y1038133D1*
X7006301D1*
X7001492Y1035757D1*
X6996739Y1030948D1*
X6994307Y1023763D1*
Y1019010D1*
X6996739Y1011825D1*
X7001492Y1007072D1*
X7006301Y1004640D1*
X7013431D1*
X7018239Y1007072D1*
X7023047Y1011825D1*
X7043295Y1054825D2*
X7069548D1*
X7055233Y1035701D1*
X7062418D1*
X7067172Y1033325D1*
X7069548Y1030948D1*
X7071980Y1023763D1*
Y1019010D1*
X7069548Y1011825D1*
X7064795Y1007016D1*
X7057610Y1004640D1*
X7050425D1*
X7043295Y1007016D1*
X7040919Y1009448D1*
X7038487Y1014202D1*
X7108919Y1051260D2*
Y1008205D1*
X7087419Y1029705D2*
X7130474D1*
X6816591Y1441092D2*
X6821400Y1445900D1*
X6823776Y1450708D1*
Y1457838D1*
X6821400Y1462647D1*
X6816591Y1467400D1*
X6809406Y1469832D1*
X6804653D1*
X6797468Y1467400D1*
X6792715Y1462647D1*
X6790283Y1457838D1*
Y1450708D1*
X6792715Y1445900D1*
X6797468Y1441092D1*
X6840468Y1396967D2*
Y1420844D1*
X6818968Y1423220D1*
X6821344Y1420844D1*
X6823776Y1413659D1*
Y1406529D1*
X6821344Y1399344D1*
X6816591Y1394536D1*
X6809406Y1392159D1*
X6804653D1*
X6797468Y1394536D1*
X6792659Y1399344D1*
X6790283Y1406529D1*
Y1413659D1*
X6792659Y1420844D1*
X6795091Y1423220D1*
X6799844Y1425652D1*
X6836903Y1355220D2*
X6793848D1*
X6815348Y1376720D2*
Y1333665D1*
X2593390Y3791527D2*
D62*
X2597237Y3793472D1*
X2602985Y3799176D1*
Y3759028D1*
X2993390Y3791527D2*
X2997237Y3793472D1*
X3002985Y3799176D1*
Y3759028D1*
X3393390Y3791527D2*
X3397237Y3793472D1*
X3402985Y3799176D1*
Y3759028D1*
X6193390Y3791527D2*
X6197237Y3793472D1*
X6202985Y3799176D1*
Y3759028D1*
X593390Y591527D2*
X597237Y593472D1*
X602985Y599176D1*
Y559028D1*
X6593390Y3791527D2*
X6597237Y3793472D1*
X6602985Y3799176D1*
Y3759028D1*
X4593390Y3791527D2*
X4597237Y3793472D1*
X4602985Y3799176D1*
Y3759028D1*
X1992540Y1290959D2*
D63*
X2018406D1*
X2026961Y1293811D1*
X2029880Y1296729D1*
X2032732Y1302433D1*
Y1311055D1*
X2029880Y1316758D1*
X2026961Y1319677D1*
X2018406Y1322529D1*
X1992540D1*
Y1262241D1*
X2068503Y1322529D2*
X2062733Y1319677D1*
X2057029Y1313907D1*
X2054111Y1308203D1*
X2051259Y1299581D1*
Y1285188D1*
X2054111Y1276633D1*
X2057029Y1270863D1*
X2062733Y1265159D1*
X2068503Y1262241D1*
X2079977D1*
X2085680Y1265159D1*
X2091451Y1270863D1*
X2094303Y1276633D1*
X2097154Y1285188D1*
Y1299581D1*
X2094303Y1308203D1*
X2091451Y1313907D1*
X2085680Y1319677D1*
X2079977Y1322529D1*
X2068503D1*
X2115682D2*
X2130074Y1262241D1*
X2144400Y1322529D1*
X2158725Y1262241D1*
X2173118Y1322529D1*
X2228919D2*
X2191645D1*
Y1262241D1*
X2228919D1*
X2191645Y1293811D2*
X2214593D1*
X2247446D2*
X2273245D1*
X2281867Y1296729D1*
X2284786Y1299581D1*
X2287638Y1305284D1*
Y1311055D1*
X2284786Y1316758D1*
X2281867Y1319677D1*
X2273245Y1322529D1*
X2247446D1*
Y1262241D1*
X2267542Y1293811D2*
X2287638Y1262241D1*
X3488602D2*
X3465587Y1322529D1*
X3442640Y1262241D1*
X3451262Y1282337D2*
X3479980D1*
X3547321Y1322529D2*
Y1262241D1*
X3507129Y1322529D1*
Y1262241D1*
X3611810D2*
X3588796Y1322529D1*
X3565848Y1262241D1*
X3574470Y1282337D2*
X3603188D1*
X3630337Y1322529D2*
Y1262241D1*
X3664759D1*
X3700530Y1322529D2*
X3694760Y1319677D1*
X3689056Y1313907D1*
X3686138Y1308203D1*
X3683286Y1299581D1*
Y1285188D1*
X3686138Y1276633D1*
X3689056Y1270863D1*
X3694760Y1265159D1*
X3700530Y1262241D1*
X3712004D1*
X3717708Y1265159D1*
X3723478Y1270863D1*
X3726330Y1276633D1*
X3729182Y1285188D1*
Y1299581D1*
X3726330Y1308203D1*
X3723478Y1313907D1*
X3717708Y1319677D1*
X3712004Y1322529D1*
X3700530D1*
X3790753Y1308203D2*
X3787901Y1313907D1*
X3782131Y1319677D1*
X3776427Y1322529D1*
X3764953D1*
X3759183Y1319677D1*
X3753479Y1313907D1*
X3750561Y1308203D1*
X3747709Y1299581D1*
Y1285188D1*
X3750561Y1276633D1*
X3753479Y1270863D1*
X3759183Y1265159D1*
X3764953Y1262241D1*
X3776427D1*
X3782131Y1265159D1*
X3787901Y1270863D1*
X3790753Y1276633D1*
Y1285188D1*
X3776427D1*
X3867601Y1322529D2*
Y1262241D1*
X3926320Y1322529D2*
Y1262241D1*
X3886128Y1322529D1*
Y1262241D1*
X4158333Y1681411D2*
X4218621D1*
Y1701507D1*
X4215703Y1710129D1*
X4209999Y1715899D1*
X4204229Y1718751D1*
X4195673Y1721603D1*
X4181281D1*
X4172659Y1718751D1*
X4166955Y1715899D1*
X4161185Y1710129D1*
X4158333Y1701507D1*
Y1681411D1*
Y1740130D2*
X4218621D1*
X4172659Y1801701D2*
X4166955Y1798849D1*
X4161185Y1793079D1*
X4158333Y1787375D1*
Y1775901D1*
X4161185Y1770131D1*
X4166955Y1764427D1*
X4172659Y1761509D1*
X4181281Y1758657D1*
X4195673D1*
X4204229Y1761509D1*
X4209999Y1764427D1*
X4215703Y1770131D1*
X4218621Y1775901D1*
Y1787375D1*
X4215703Y1793079D1*
X4209999Y1798849D1*
X4204229Y1801701D1*
X4195673D1*
Y1787375D1*
X4158333Y1820228D2*
X4218621D1*
X4158333Y1858851D2*
X4218621D1*
X4158333Y1838755D2*
Y1878947D1*
X4218621Y1943436D2*
X4158333Y1920422D1*
X4218621Y1897474D1*
X4198525Y1906096D2*
Y1934814D1*
X4158333Y1961963D2*
X4218621D1*
Y1996385D1*
X1942815Y2991119D2*
X1968681D1*
X1977236Y2993971D1*
X1980155Y2996889D1*
X1983007Y3002593D1*
Y3011215D1*
X1980155Y3016918D1*
X1977236Y3019837D1*
X1968681Y3022689D1*
X1942815D1*
Y2962401D1*
X2001534Y3022689D2*
X2015926Y2962401D1*
X2030252Y3022689D1*
X2044578Y2962401D1*
X2058970Y3022689D1*
X2123393Y2962401D2*
Y3022689D1*
X2100445Y2962401D1*
X2077497Y3022689D1*
Y2962401D1*
X3185633Y3008363D2*
X3182782Y3014067D1*
X3177011Y3019837D1*
X3171308Y3022689D1*
X3159834D1*
X3154063Y3019837D1*
X3148360Y3014067D1*
X3145441Y3008363D1*
X3142590Y2999741D1*
Y2985348D1*
X3145441Y2976793D1*
X3148360Y2971023D1*
X3154063Y2965319D1*
X3159834Y2962401D1*
X3171308D1*
X3177011Y2965319D1*
X3182782Y2971023D1*
X3185633Y2976793D1*
X3221405Y3022689D2*
X3215634Y3019837D1*
X3209931Y3014067D1*
X3207012Y3008363D1*
X3204161Y2999741D1*
Y2985348D1*
X3207012Y2976793D1*
X3209931Y2971023D1*
X3215634Y2965319D1*
X3221405Y2962401D1*
X3232879D1*
X3238582Y2965319D1*
X3244353Y2971023D1*
X3247204Y2976793D1*
X3250056Y2985348D1*
Y2999741D1*
X3247204Y3008363D1*
X3244353Y3014067D1*
X3238582Y3019837D1*
X3232879Y3022689D1*
X3221405D1*
X3314479Y2962401D2*
Y3022689D1*
X3291531Y2962401D1*
X3268583Y3022689D1*
Y2962401D1*
X3378902D2*
Y3022689D1*
X3355954Y2962401D1*
X3333006Y3022689D1*
Y2962401D1*
X3397429Y3022689D2*
Y2979645D1*
X3400281Y2971023D1*
X3406051Y2965319D1*
X3414673Y2962401D1*
X3420377D1*
X3428999Y2965319D1*
X3434769Y2971023D1*
X3437621Y2979645D1*
Y3022689D1*
X3496340D2*
Y2962401D1*
X3456148Y3022689D1*
Y2962401D1*
X3514867Y3022689D2*
Y2962401D1*
X3576438Y3008363D2*
X3573587Y3014067D1*
X3567816Y3019837D1*
X3562113Y3022689D1*
X3550639D1*
X3544869Y3019837D1*
X3539165Y3014067D1*
X3536246Y3008363D1*
X3533395Y2999741D1*
Y2985348D1*
X3536246Y2976793D1*
X3539165Y2971023D1*
X3544869Y2965319D1*
X3550639Y2962401D1*
X3562113D1*
X3567816Y2965319D1*
X3573587Y2971023D1*
X3576438Y2976793D1*
X3640928Y2962401D2*
X3617913Y3022689D1*
X3594966Y2962401D1*
X3603588Y2982497D2*
X3632306D1*
X3679551Y3022689D2*
Y2962401D1*
X3659455Y3022689D2*
X3699647D1*
X3718174D2*
Y2962401D1*
X3753945Y3022689D2*
X3748175Y3019837D1*
X3742471Y3014067D1*
X3739553Y3008363D1*
X3736701Y2999741D1*
Y2985348D1*
X3739553Y2976793D1*
X3742471Y2971023D1*
X3748175Y2965319D1*
X3753945Y2962401D1*
X3765419D1*
X3771123Y2965319D1*
X3776893Y2971023D1*
X3779745Y2976793D1*
X3782597Y2985348D1*
Y2999741D1*
X3779745Y3008363D1*
X3776893Y3014067D1*
X3771123Y3019837D1*
X3765419Y3022689D1*
X3753945D1*
X3841316D2*
Y2962401D1*
X3801124Y3022689D1*
Y2962401D1*
X993390Y3791527D2*
D62*
X997237Y3793472D1*
X1002985Y3799176D1*
Y3759028D1*
X9093365Y758860D2*
X9097212Y760805D1*
X9102960Y766509D1*
Y726361D1*
X4993390Y3791527D2*
X4997237Y3793472D1*
X5002985Y3799176D1*
Y3759028D1*
X5393390Y3791527D2*
X5397237Y3793472D1*
X5402985Y3799176D1*
Y3759028D1*
X5793390Y3791527D2*
X5797237Y3793472D1*
X5802985Y3799176D1*
Y3759028D1*
X993390Y591527D2*
X997237Y593472D1*
X1002985Y599176D1*
Y559028D1*
X1393390Y591527D2*
X1397237Y593472D1*
X1402985Y599176D1*
Y559028D1*
X1793365Y758860D2*
X1797212Y760805D1*
X1802960Y766509D1*
Y726361D1*
X1393390Y3791527D2*
X1397237Y3793472D1*
X1402985Y3799176D1*
Y3759028D1*
X6793390Y591527D2*
X6797237Y593472D1*
X6802985Y599176D1*
Y559028D1*
X5593365Y758860D2*
X5597212Y760805D1*
X5602960Y766509D1*
Y726361D1*
X6193365Y758860D2*
X6197212Y760805D1*
X6202960Y766509D1*
Y726361D1*
X7193390Y591527D2*
X7197237Y593472D1*
X7202985Y599176D1*
Y559028D1*
X7593390Y591527D2*
X7597237Y593472D1*
X7602985Y599176D1*
Y559028D1*
X7993390Y591527D2*
X7997237Y593472D1*
X8002985Y599176D1*
Y559028D1*
X2393365Y758860D2*
X2397212Y760805D1*
X2402960Y766509D1*
Y726361D1*
X593390Y3791527D2*
X597237Y3793472D1*
X602985Y3799176D1*
Y3759028D1*
X1793390Y3791527D2*
X1797237Y3793472D1*
X1802985Y3799176D1*
Y3759028D1*
X2193390Y3791527D2*
X2197237Y3793472D1*
X2202985Y3799176D1*
Y3759028D1*
X3793390Y3791527D2*
X3797237Y3793472D1*
X3802985Y3799176D1*
Y3759028D1*
X4193390Y3791527D2*
X4197237Y3793472D1*
X4202985Y3799176D1*
Y3759028D1*
X9693390Y591527D2*
X9697237Y593472D1*
X9702985Y599176D1*
Y559028D1*
X10093390Y591527D2*
X10097237Y593472D1*
X10102985Y599176D1*
Y559028D1*
X2993365Y758860D2*
X2997212Y760805D1*
X3002960Y766509D1*
Y726361D1*
X3593365Y758860D2*
X3597212Y760805D1*
X3602960Y766509D1*
Y726361D1*
X4193365Y758860D2*
X4197212Y760805D1*
X4202960Y766509D1*
Y726361D1*
X4793390Y591527D2*
X4797237Y593472D1*
X4802985Y599176D1*
Y559028D1*
X5193390Y591527D2*
X5197237Y593472D1*
X5202985Y599176D1*
Y559028D1*
M02*
