G04 DipTrace 3.3.1.3*
G04 TopAssy.gbr*
%MOIN*%
G04 #@! TF.FileFunction,Drawing,Top*
G04 #@! TF.Part,Single*
%ADD10C,0.009843*%
%ADD16C,0.023622*%
%ADD17C,0.059055*%
%ADD18C,0.07874*%
%ADD19C,0.001312*%
%ADD30C,0.001969*%
G04 #@! TA.AperFunction,ComponentPad*
%ADD21C,0.076772*%
%ADD22R,0.059055X0.059055*%
%ADD23R,0.05X0.05*%
%ADD24C,0.05*%
%ADD25C,0.06*%
%ADD26C,0.06*%
%ADD27C,0.059055*%
%ADD28C,0.045997*%
%ADD29R,0.045997X0.045997*%
%ADD65C,0.00772*%
%ADD66C,0.009264*%
%ADD67C,0.004*%
%FSLAX26Y26*%
G04*
G70*
G90*
G75*
G01*
G04 TopAssy*
%LPD*%
D21*
X2613058Y3867979D3*
X2809908D3*
X3013058D3*
X3209908D3*
X3413058D3*
X3609908D3*
X6213058D3*
X6409908D3*
X613058Y667979D3*
X809908D3*
X6613058Y3867979D3*
X6809908D3*
X4613058D3*
X4809908D3*
X2437983Y1242919D2*
D10*
X1938183D1*
X2537858D2*
X4237858D1*
X963233Y2842909D2*
X338058D1*
Y2392879D1*
X963233D1*
X4237858Y3142999D2*
Y1342879D1*
X2938208Y3142999D2*
Y2943079D1*
Y3043039D2*
X1687858D1*
X4038108D2*
X2938208D1*
X963233Y2392879D2*
Y2842909D1*
X513158Y1217929D2*
Y1567999D1*
Y1217929D2*
X1038033D1*
X513158Y1567999D2*
X1038033D1*
Y1217929D1*
D22*
X4388058Y1392979D3*
Y1492979D3*
Y1592979D3*
Y1692979D3*
Y1792979D3*
Y1892979D3*
Y1992979D3*
Y2092979D3*
Y2192979D3*
Y2292979D3*
Y2392979D3*
Y2492979D3*
Y2592979D3*
Y2692979D3*
Y2792979D3*
Y2892979D3*
Y2992979D3*
X4288058Y3092979D3*
Y1392979D3*
Y1492979D3*
Y1592979D3*
Y1692979D3*
Y1792979D3*
Y1892979D3*
Y1992979D3*
Y2092979D3*
Y2192979D3*
Y2292979D3*
Y2392979D3*
Y2492979D3*
Y2592979D3*
Y2692979D3*
Y2792979D3*
Y2892979D3*
Y2992979D3*
X4388058Y3092979D3*
X2188058Y1192979D3*
X1988058D3*
X1888058D3*
X1788058D3*
X1688058D3*
X3088058D3*
X2988058D3*
X2888058D3*
X2788058D3*
X2688058D3*
X2588058D3*
X2226058Y3092979D3*
X2126058D3*
X2026058D3*
X1926058D3*
X1826058D3*
X1726058D3*
X1626058D3*
X1525058D3*
X1426058D3*
X1326058D3*
X3088058D3*
X2988058D3*
X2888058D3*
X2788058D3*
X2688058D3*
X2588058D3*
X2488058D3*
X2388058D3*
X3288058D3*
X3388058D3*
X3488058D3*
X3588058D3*
X3688058D3*
X3788058D3*
X3888058D3*
X3988058D3*
X3188058Y1192979D3*
X3288058D3*
X3488058D3*
X3588058D3*
X3688058D3*
X3788058D3*
X3888058D3*
X3988058D3*
X4088058D3*
X4188058D3*
X2088058D3*
X2388058D3*
X2288058D3*
D21*
X1013058Y3867979D3*
X1209908D3*
D23*
X5838058Y3142979D3*
D24*
X6088058D3*
D21*
X9113058Y667979D3*
X9309908D3*
X9506759D3*
X5013058Y3867979D3*
X5209908D3*
X5413058D3*
X5609908D3*
X5813058D3*
X6009908D3*
X1013058Y667979D3*
X1209908D3*
X1413058D3*
X1609908D3*
X1813058D3*
X2009908D3*
X2206759D3*
X1413058Y3867979D3*
X1609908D3*
D25*
X5363058Y2842979D3*
D26*
X4963058D3*
D23*
X6338058Y3142979D3*
D24*
X6588058D3*
D21*
X6813058Y667979D3*
X7009908D3*
X5613058D3*
X5809908D3*
X6006759D3*
X6213058D3*
X6409908D3*
X6606759D3*
X7213058D3*
X7409908D3*
X7613058D3*
X7809908D3*
X8013058D3*
X8209908D3*
X2413058D3*
X2609908D3*
X2806759D3*
D22*
X7213058Y1567979D3*
D27*
Y1667979D3*
Y1767979D3*
Y1867979D3*
Y1967979D3*
Y2067979D3*
Y2167979D3*
Y2267979D3*
X6913058D3*
Y2167979D3*
Y2067979D3*
Y1967979D3*
Y1867979D3*
Y1767979D3*
Y1667979D3*
Y1567979D3*
D25*
X9463058Y1167979D3*
D26*
Y1567979D3*
D25*
X9338058Y1167979D3*
D26*
Y1567979D3*
D25*
X9588058Y1167979D3*
D26*
Y1567979D3*
D25*
X9713058Y1167979D3*
D26*
Y1567979D3*
D25*
X9838058Y1167979D3*
D26*
Y1567979D3*
D25*
X9963058Y1167979D3*
D26*
Y1567979D3*
D25*
X4963058Y2692979D3*
D26*
X5363058D3*
D25*
X4718701Y1811399D3*
D26*
X5118701D3*
D25*
X4718701Y1686399D3*
D26*
X5118701D3*
D25*
X4718701Y1561399D3*
D26*
X5118701D3*
D22*
X6456807Y2830479D3*
D27*
X6556807Y2730479D3*
D17*
X6656807Y2830479D3*
X7613058Y1467979D3*
Y1667979D3*
X7513058Y1967979D3*
Y1767979D3*
X7613058Y2067979D3*
Y2267979D3*
X6713058Y1467979D3*
Y1667979D3*
X6913058Y1267979D3*
X7113058D3*
X3513058Y2967979D3*
X3613058D3*
D25*
X5913058Y1267979D3*
D26*
Y1667979D3*
D25*
X6113058Y1267979D3*
D26*
Y1667979D3*
D17*
X9663058Y2142979D3*
X9163058D3*
X9563058D3*
X9463058D3*
X9363058D3*
X9263058D3*
D21*
X613058Y3867979D3*
X809908D3*
X1813058D3*
X2009908D3*
X2213058D3*
X2409908D3*
X3813058D3*
X4009908D3*
X4213058D3*
X4409908D3*
X9713058Y667979D3*
X9909908D3*
X10113058D3*
X10309908D3*
X3013058D3*
X3209908D3*
X3406759D3*
X3613058D3*
X3809908D3*
X4006759D3*
X4213058D3*
X4409908D3*
X4606759D3*
X4813058D3*
X5009908D3*
X5213058D3*
X5409908D3*
D28*
X5844307Y2830479D3*
D29*
X5644307D3*
D28*
X5744307Y2730479D3*
X1107743Y3161877D2*
D30*
X668766D1*
X1107743Y3024081D2*
X668766D1*
X1107743Y3161877D2*
Y3024081D1*
X668766Y3161877D2*
Y3024081D1*
D22*
X1038845Y3092979D3*
D27*
X938845D3*
X838845D3*
X738845D3*
X10675558Y1455394D2*
D16*
X10676288Y1511199D1*
X10678477Y1566732D1*
X10682113Y1621723D1*
X10687179Y1675904D1*
X10693649Y1729010D1*
X10701493Y1780783D1*
X10710672Y1830971D1*
X10721141Y1879329D1*
X10732850Y1925622D1*
X10745741Y1969624D1*
X10759752Y2011120D1*
X10774814Y2049910D1*
X10790854Y2085802D1*
X10807794Y2118624D1*
X10825551Y2148214D1*
X10844039Y2174429D1*
X10863167Y2197141D1*
X10882843Y2216239D1*
X10902971Y2231630D1*
X10923452Y2243240D1*
X10944187Y2251011D1*
X10965075Y2254906D1*
X10986013D1*
X11006901Y2251011D1*
X11027636Y2243240D1*
X11048117Y2231630D1*
X11068245Y2216239D1*
X11087921Y2197141D1*
X11107049Y2174429D1*
X11125537Y2148214D1*
X11143294Y2118624D1*
X11160234Y2085802D1*
X11176274Y2049910D1*
X11191336Y2011120D1*
X11205347Y1969624D1*
X11218238Y1925622D1*
X11229947Y1879329D1*
X11240416Y1830971D1*
X11249595Y1780783D1*
X11257439Y1729010D1*
X11263909Y1675904D1*
X11268975Y1621723D1*
X11272611Y1566732D1*
X11274799Y1511199D1*
X11275530Y1455394D1*
X11274799Y1399589D1*
X11272611Y1344055D1*
X11268975Y1289064D1*
X11263909Y1234884D1*
X11257439Y1181778D1*
X11249595Y1130004D1*
X11240416Y1079816D1*
X11229947Y1031458D1*
X11218238Y985165D1*
X11205347Y941164D1*
X11191336Y899667D1*
X11176274Y860878D1*
X11160234Y824985D1*
X11143294Y792164D1*
X11125537Y762573D1*
X11107049Y736358D1*
X11087921Y713647D1*
X11068245Y694548D1*
X11048117Y679157D1*
X11027636Y667547D1*
X11006901Y659776D1*
X10986013Y655881D1*
X10965075D1*
X10944187Y659776D1*
X10923452Y667547D1*
X10902971Y679157D1*
X10882843Y694548D1*
X10863167Y713647D1*
X10844039Y736358D1*
X10825551Y762573D1*
X10807794Y792164D1*
X10790854Y824985D1*
X10774814Y860878D1*
X10759752Y899667D1*
X10745741Y941164D1*
X10732850Y985165D1*
X10721141Y1031458D1*
X10710672Y1079816D1*
X10701493Y1130004D1*
X10693649Y1181778D1*
X10687179Y1234884D1*
X10682113Y1289064D1*
X10678477Y1344055D1*
X10676288Y1399589D1*
X10675558Y1455394D1*
X10775558Y2042979D2*
G02X11175558Y2042979I200000J-86755D01*
G01*
X10675558Y1455479D2*
X10944307D1*
X10744307Y1955479D2*
G02X11206807Y1949230I229469J-134955D01*
G01*
X10713058Y1849230D2*
G02X11231807Y1855479I261582J-180065D01*
G01*
X10869308Y1792440D2*
D17*
X10869567Y1799454D1*
X10870342Y1806433D1*
X10871630Y1813343D1*
X10873424Y1820153D1*
X10875716Y1826827D1*
X10878494Y1833333D1*
X10881745Y1839640D1*
X10885453Y1845718D1*
X10889600Y1851535D1*
X10894166Y1857065D1*
X10899128Y1862280D1*
X10904463Y1867155D1*
X10910144Y1871666D1*
X10916144Y1875791D1*
X10922433Y1879509D1*
X10928981Y1882804D1*
X10935756Y1885658D1*
X10942725Y1888058D1*
X10949854Y1889993D1*
X10957108Y1891452D1*
X10964452Y1892428D1*
X10971850Y1892918D1*
X10979266D1*
X10986664Y1892428D1*
X10994008Y1891452D1*
X11001262Y1889993D1*
X11008391Y1888058D1*
X11015359Y1885658D1*
X11022134Y1882804D1*
X11028682Y1879509D1*
X11034972Y1875791D1*
X11040971Y1871666D1*
X11046652Y1867155D1*
X11051987Y1862280D1*
X11056949Y1857065D1*
X11061515Y1851535D1*
X11065662Y1845718D1*
X11069370Y1839640D1*
X11072621Y1833333D1*
X11075399Y1826827D1*
X11077691Y1820153D1*
X11079485Y1813343D1*
X11080773Y1806433D1*
X11081548Y1799454D1*
X11081807Y1792440D1*
X11081548Y1785427D1*
X11080773Y1778448D1*
X11079485Y1771537D1*
X11077691Y1764728D1*
X11075399Y1758054D1*
X11072621Y1751548D1*
X11069370Y1745240D1*
X11065662Y1739163D1*
X11061515Y1733345D1*
X11056949Y1727815D1*
X11051987Y1722600D1*
X11046652Y1717725D1*
X11040971Y1713215D1*
X11034972Y1709090D1*
X11028682Y1705371D1*
X11022134Y1702077D1*
X11015359Y1699222D1*
X11008391Y1696822D1*
X11001262Y1694888D1*
X10994008Y1693429D1*
X10986664Y1692452D1*
X10979266Y1691963D1*
X10971850D1*
X10964452Y1692452D1*
X10957108Y1693429D1*
X10949854Y1694888D1*
X10942725Y1696822D1*
X10935756Y1699222D1*
X10928981Y1702077D1*
X10922433Y1705371D1*
X10916144Y1709090D1*
X10910144Y1713215D1*
X10904463Y1717725D1*
X10899128Y1722600D1*
X10894166Y1727815D1*
X10889600Y1733345D1*
X10885453Y1739163D1*
X10881745Y1745240D1*
X10878494Y1751548D1*
X10875716Y1758054D1*
X10873424Y1764728D1*
X10871630Y1771537D1*
X10870342Y1778448D1*
X10869567Y1785427D1*
X10869308Y1792440D1*
G36*
X10863029Y1574144D2*
X11088029D1*
Y1479370D1*
X10863029D1*
Y1574144D1*
G37*
G36*
X10863030Y1136730D2*
X11088030D1*
Y1036643D1*
X10863030D1*
Y1136730D1*
G37*
G36*
X11013030Y1224144D2*
X11088030D1*
Y949144D1*
X11013030D1*
Y1224144D1*
G37*
X11050558Y1461730D2*
D18*
X11050664Y1516874D1*
X11050558Y1405479D1*
X11025661Y1379360D1*
X10994408Y1360608D1*
X10938058Y1430479D1*
X10944307Y1449230D1*
Y1486730D1*
X10956904Y1498122D1*
X10944403D1*
G36*
X10919402Y1448117D2*
X10863146Y1410613D1*
Y1304352D1*
X10950655Y1373109D1*
X10944403D1*
X10919402Y1448117D1*
G37*
X10975558Y2255479D2*
D19*
Y661730D1*
X10694307Y1736730D2*
D16*
G02X11250558Y1742979I280426J-201650D01*
G01*
X10688058Y1517979D2*
G02X11263058Y1517979I287500J-335843D01*
G01*
X3613058Y3467979D2*
X2613058D1*
X11175558Y867979D2*
G02X10775558Y867979I-200000J86757D01*
G01*
X11206808Y955480D2*
G02X10744308Y961728I-229469J134953D01*
G01*
X11238058Y1061730D2*
G02X10719308Y1055479I-261582J180063D01*
G01*
X11256808Y1174228D2*
G02X10700558Y1167979I-280605J217576D01*
G01*
X11263058Y1392979D2*
G02X10688058Y1392979I-287500J335843D01*
G01*
X11263058Y1267980D2*
G02X10688058Y1267980I-287500J335837D01*
G01*
X11031807Y1455479D2*
X11275556D1*
X10688058Y1642979D2*
G02X10900558Y1742979I274868J-308314D01*
G01*
X11063058Y1736730D2*
G02X11263058Y1642979I-50500J-367940D01*
G01*
X4413058Y3467979D2*
X3813058D1*
X6213058D2*
X6813058D1*
X6013058D2*
X5013058D1*
X4813058D2*
X4613058D1*
X2413058D2*
X1813058D1*
X613058D2*
X1213058D1*
X1413058D2*
X1613058D1*
X550558Y1030479D2*
X1575558D1*
X1813058D2*
X2213058D1*
X2413058D2*
X5413058D1*
X5613058D2*
X7013058D1*
X7213058D2*
X7413058D1*
X7613058D2*
X8213058D1*
X9113058D2*
X10313058D1*
X7699591Y1605341D2*
D65*
X7704400Y1610149D1*
X7706776Y1614958D1*
Y1622088D1*
X7704400Y1626896D1*
X7699591Y1631649D1*
X7692406Y1634081D1*
X7687653D1*
X7680468Y1631649D1*
X7675715Y1626896D1*
X7673283Y1622088D1*
Y1614958D1*
X7675715Y1610149D1*
X7680468Y1605341D1*
X7713906Y1589902D2*
X7716338Y1585093D1*
X7723468Y1577908D1*
X7673283D1*
X7719903Y1540969D2*
X7676848D1*
X7698348Y1562469D2*
Y1519414D1*
X7604092Y1909841D2*
X7608901Y1914649D1*
X7611278Y1919458D1*
Y1926588D1*
X7608901Y1931396D1*
X7604093Y1936149D1*
X7596908Y1938581D1*
X7592154D1*
X7584969Y1936149D1*
X7580216Y1931396D1*
X7577784Y1926588D1*
Y1919458D1*
X7580216Y1914649D1*
X7584969Y1909841D1*
X7616031Y1891970D2*
X7618407D1*
X7623216Y1889593D1*
X7625592Y1887217D1*
X7627969Y1882408D1*
Y1872847D1*
X7625592Y1868093D1*
X7623216Y1865717D1*
X7618407Y1863285D1*
X7613654D1*
X7608846Y1865717D1*
X7601716Y1870470D1*
X7577784Y1894402D1*
Y1860908D1*
X7624404Y1823969D2*
X7581349D1*
X7602849Y1845469D2*
Y1802414D1*
X7699029Y2223529D2*
X7703838Y2228337D1*
X7706215Y2233145D1*
Y2240275D1*
X7703838Y2245084D1*
X7699030Y2249837D1*
X7691845Y2252269D1*
X7687091D1*
X7679906Y2249837D1*
X7675153Y2245084D1*
X7672721Y2240275D1*
Y2233145D1*
X7675153Y2228337D1*
X7679906Y2223529D1*
X7672721Y2184158D2*
X7722906D1*
X7689468Y2208089D1*
Y2172219D1*
X7719341Y2135280D2*
X7676286D1*
X7697786Y2156780D2*
Y2113725D1*
X7023047Y1230948D2*
X7018239Y1235757D1*
X7013431Y1238133D1*
X7006301D1*
X7001492Y1235757D1*
X6996739Y1230948D1*
X6994307Y1223763D1*
Y1219010D1*
X6996739Y1211825D1*
X7001492Y1207072D1*
X7006301Y1204640D1*
X7013431D1*
X7018239Y1207072D1*
X7023047Y1211825D1*
X7043295Y1254825D2*
X7069548D1*
X7055233Y1235701D1*
X7062418D1*
X7067172Y1233325D1*
X7069548Y1230948D1*
X7071980Y1223763D1*
Y1219010D1*
X7069548Y1211825D1*
X7064795Y1207016D1*
X7057610Y1204640D1*
X7050425D1*
X7043295Y1207016D1*
X7040919Y1209448D1*
X7038487Y1214202D1*
X7108919Y1251260D2*
Y1208205D1*
X7087419Y1229705D2*
X7130474D1*
X6816591Y1641092D2*
X6821400Y1645900D1*
X6823776Y1650708D1*
Y1657838D1*
X6821400Y1662647D1*
X6816591Y1667400D1*
X6809406Y1669832D1*
X6804653D1*
X6797468Y1667400D1*
X6792715Y1662647D1*
X6790283Y1657838D1*
Y1650708D1*
X6792715Y1645900D1*
X6797468Y1641092D1*
X6840468Y1596967D2*
Y1620844D1*
X6818968Y1623220D1*
X6821344Y1620844D1*
X6823776Y1613659D1*
Y1606529D1*
X6821344Y1599344D1*
X6816591Y1594536D1*
X6809406Y1592159D1*
X6804653D1*
X6797468Y1594536D1*
X6792659Y1599344D1*
X6790283Y1606529D1*
Y1613659D1*
X6792659Y1620844D1*
X6795091Y1623220D1*
X6799844Y1625652D1*
X6836903Y1555220D2*
X6793848D1*
X6815348Y1576720D2*
Y1533665D1*
X1081892Y1005281D2*
D66*
X1053240D1*
X1050389Y979482D1*
X1053240Y982333D1*
X1061863Y985252D1*
X1070418D1*
X1079040Y982333D1*
X1084810Y976630D1*
X1087662Y968008D1*
Y962304D1*
X1084810Y953682D1*
X1079040Y947912D1*
X1070418Y945060D1*
X1061863D1*
X1053240Y947912D1*
X1050389Y950830D1*
X1047470Y956534D1*
X1106189Y1005348D2*
X1129137Y945060D1*
X1152085Y1005348D1*
X611948Y930119D2*
D65*
Y887064D1*
X590448Y908564D2*
X633503D1*
X796698Y908592D2*
X824333D1*
X1011948Y930119D2*
Y887064D1*
X990448Y908564D2*
X1033503D1*
X1196698Y908592D2*
X1224333D1*
X1811948Y930119D2*
Y887064D1*
X1790448Y908564D2*
X1833503D1*
X1996698Y908592D2*
X2024333D1*
X1411948Y930119D2*
Y887064D1*
X1390448Y908564D2*
X1433503D1*
X1596698Y908592D2*
X1624333D1*
X2163058Y919384D2*
Y869144D1*
Y912199D2*
X2167866Y916952D1*
X2172620Y919384D1*
X2179805D1*
X2184613Y916952D1*
X2189366Y912199D1*
X2191798Y905014D1*
Y900205D1*
X2189366Y893076D1*
X2184613Y888267D1*
X2179805Y885891D1*
X2172620D1*
X2167866Y888267D1*
X2163058Y893076D1*
X2207237Y936131D2*
X2209614Y933754D1*
X2212046Y936131D1*
X2209614Y938562D1*
X2207237Y936131D1*
X2209614Y919384D2*
Y885891D1*
X2227485Y919384D2*
Y885891D1*
Y909822D2*
X2234670Y917007D1*
X2239479Y919384D1*
X2246608D1*
X2251417Y917007D1*
X2253793Y909822D1*
Y885891D1*
X2411068Y927434D2*
X2403883Y925057D1*
X2399075Y917872D1*
X2396698Y905934D1*
Y898749D1*
X2399075Y886810D1*
X2403883Y879625D1*
X2411068Y877249D1*
X2415822D1*
X2423007Y879625D1*
X2427760Y886810D1*
X2430192Y898749D1*
Y905934D1*
X2427760Y917872D1*
X2423007Y925057D1*
X2415822Y927434D1*
X2411068D1*
X2427760Y917872D2*
X2399075Y886810D1*
X2602949Y917872D2*
X2607757Y920304D1*
X2614943Y927434D1*
Y877249D1*
X2796740Y917886D2*
Y920263D1*
X2799117Y925071D1*
X2801494Y927448D1*
X2806302Y929825D1*
X2815864D1*
X2820617Y927448D1*
X2822994Y925071D1*
X2825425Y920263D1*
Y915510D1*
X2822994Y910701D1*
X2818240Y903572D1*
X2794309Y879640D1*
X2827802D1*
X3001507Y927434D2*
X3027760D1*
X3013445Y908310D1*
X3020630D1*
X3025383Y905934D1*
X3027760Y903557D1*
X3030192Y896372D1*
Y891619D1*
X3027760Y884434D1*
X3023007Y879625D1*
X3015822Y877249D1*
X3008637D1*
X3001507Y879625D1*
X2999130Y882057D1*
X2996698Y886810D1*
X3226881Y877249D2*
Y927434D1*
X3202949Y893995D1*
X3238819D1*
X3422994Y929825D2*
X3399117D1*
X3396740Y908325D1*
X3399117Y910701D1*
X3406302Y913133D1*
X3413432D1*
X3420617Y910701D1*
X3425425Y905948D1*
X3427802Y898763D1*
Y894010D1*
X3425425Y886825D1*
X3420617Y882016D1*
X3413432Y879640D1*
X3406302D1*
X3399117Y882016D1*
X3396740Y884448D1*
X3394309Y889202D1*
X3625383Y920304D2*
X3623007Y925057D1*
X3615822Y927434D1*
X3611068D1*
X3603883Y925057D1*
X3599075Y917872D1*
X3596698Y905934D1*
Y893995D1*
X3599075Y884434D1*
X3603883Y879625D1*
X3611068Y877249D1*
X3613445D1*
X3620575Y879625D1*
X3625383Y884434D1*
X3627760Y891619D1*
Y893995D1*
X3625383Y901181D1*
X3620575Y905934D1*
X3613445Y908310D1*
X3611068D1*
X3603883Y905934D1*
X3599075Y901181D1*
X3596698Y893995D1*
X3812511Y877249D2*
X3836442Y927434D1*
X3802949D1*
X4006247Y929825D2*
X3999117Y927448D1*
X3996685Y922695D1*
Y917886D1*
X3999117Y913133D1*
X4003870Y910701D1*
X4013432Y908325D1*
X4020617Y905948D1*
X4025370Y901140D1*
X4027747Y896387D1*
Y889202D1*
X4025370Y884448D1*
X4022994Y882016D1*
X4015808Y879640D1*
X4006247D1*
X3999117Y882016D1*
X3996685Y884448D1*
X3994309Y889202D1*
Y896387D1*
X3996685Y901140D1*
X4001494Y905948D1*
X4008623Y908325D1*
X4018185Y910701D1*
X4022994Y913133D1*
X4025370Y917886D1*
Y922695D1*
X4022994Y927448D1*
X4015808Y929825D1*
X4006247D1*
X4227815Y910742D2*
X4225383Y903557D1*
X4220630Y898749D1*
X4213445Y896372D1*
X4211068D1*
X4203883Y898749D1*
X4199130Y903557D1*
X4196698Y910742D1*
Y913119D1*
X4199130Y920304D1*
X4203883Y925057D1*
X4211068Y927434D1*
X4213445D1*
X4220630Y925057D1*
X4225383Y920304D1*
X4227815Y910742D1*
Y898749D1*
X4225383Y886810D1*
X4220630Y879625D1*
X4213445Y877249D1*
X4208692D1*
X4201507Y879625D1*
X4199130Y884434D1*
X4377949Y917872D2*
X4382757Y920304D1*
X4389943Y927434D1*
Y877249D1*
X4419752Y927434D2*
X4412567Y925057D1*
X4407758Y917872D1*
X4405382Y905934D1*
Y898749D1*
X4407758Y886810D1*
X4412567Y879625D1*
X4419752Y877249D1*
X4424505D1*
X4431690Y879625D1*
X4436443Y886810D1*
X4438875Y898749D1*
Y905934D1*
X4436443Y917872D1*
X4431690Y925057D1*
X4424505Y927434D1*
X4419752D1*
X4436443Y917872D2*
X4407758Y886810D1*
X4594309Y920263D2*
X4599117Y922695D1*
X4606302Y929825D1*
Y879640D1*
X4621741Y920263D2*
X4626550Y922695D1*
X4633735Y929825D1*
Y879640D1*
X4784198Y917872D2*
X4789007Y920304D1*
X4796192Y927434D1*
Y877249D1*
X4814063Y915495D2*
Y917872D1*
X4816440Y922680D1*
X4818816Y925057D1*
X4823625Y927434D1*
X4833186D1*
X4837939Y925057D1*
X4840316Y922680D1*
X4842748Y917872D1*
Y913119D1*
X4840316Y908310D1*
X4835563Y901181D1*
X4811631Y877249D1*
X4845124D1*
X4977949Y917872D2*
X4982757Y920304D1*
X4989943Y927434D1*
Y877249D1*
X5010190Y927434D2*
X5036443D1*
X5022128Y908310D1*
X5029313D1*
X5034067Y905934D1*
X5036443Y903557D1*
X5038875Y896372D1*
Y891619D1*
X5036443Y884434D1*
X5031690Y879625D1*
X5024505Y877249D1*
X5017320D1*
X5010190Y879625D1*
X5007814Y882057D1*
X5005382Y886810D1*
X5181809Y907763D2*
X5186617Y910195D1*
X5193802Y917325D1*
Y867140D1*
X5233173D2*
Y917325D1*
X5209241Y883887D1*
X5245111D1*
X5381809Y907763D2*
X5386617Y910195D1*
X5393802Y917325D1*
Y867140D1*
X5437926Y917325D2*
X5414050D1*
X5411673Y895825D1*
X5414050Y898201D1*
X5421235Y900633D1*
X5428365D1*
X5435550Y898201D1*
X5440358Y893448D1*
X5442735Y886263D1*
Y881510D1*
X5440358Y874325D1*
X5435550Y869516D1*
X5428365Y867140D1*
X5421235D1*
X5414050Y869516D1*
X5411673Y871948D1*
X5409241Y876702D1*
X4146520Y941972D2*
D66*
X4123506Y1002260D1*
X4100558Y941972D1*
X4109180Y962068D2*
X4137898D1*
X1913058Y1007164D2*
X1924532Y966972D1*
X1936006Y1007164D1*
X1947480Y966972D1*
X1958954Y1007164D1*
X2011903D2*
Y966972D1*
Y998542D2*
X2006199Y1004312D1*
X2000429Y1007164D1*
X1991873D1*
X1986103Y1004312D1*
X1980399Y998542D1*
X1977481Y989920D1*
Y984216D1*
X1980399Y975594D1*
X1986103Y969890D1*
X1991873Y966972D1*
X2000429D1*
X2006199Y969890D1*
X2011903Y975594D1*
X2030430Y1007164D2*
Y966972D1*
Y989920D2*
X2033348Y998542D1*
X2039052Y1004312D1*
X2044822Y1007164D1*
X2053444D1*
X2071971D2*
Y966972D1*
Y995690D2*
X2080594Y1004312D1*
X2086364Y1007164D1*
X2094919D1*
X2100690Y1004312D1*
X2103541Y995690D1*
Y966972D1*
X6102384Y994664D2*
X6096680Y991812D1*
X6090910Y986042D1*
X6088058Y977420D1*
Y971716D1*
X6090910Y963094D1*
X6096680Y957390D1*
X6102384Y954472D1*
X6111006D1*
X6116776Y957390D1*
X6122480Y963094D1*
X6125398Y971716D1*
Y977420D1*
X6122480Y986042D1*
X6116776Y991812D1*
X6111006Y994664D1*
X6102384D1*
X6143925D2*
Y965946D1*
X6146777Y957390D1*
X6152548Y954472D1*
X6161170D1*
X6166873Y957390D1*
X6175495Y965946D1*
Y994664D2*
Y954472D1*
X6202645Y1014760D2*
Y965946D1*
X6205496Y957390D1*
X6211267Y954472D1*
X6216970D1*
X6194023Y994664D2*
X6214119D1*
X6267067Y986042D2*
X6264216Y991812D1*
X6255594Y994664D1*
X6246971D1*
X6238349Y991812D1*
X6235498Y986042D1*
X6238349Y980338D1*
X6244120Y977420D1*
X6258445Y974568D1*
X6264216Y971716D1*
X6267067Y965946D1*
Y963094D1*
X6264216Y957390D1*
X6255594Y954472D1*
X6246971D1*
X6238349Y957390D1*
X6235498Y963094D1*
X6285595Y1014760D2*
X6288446Y1011908D1*
X6291365Y1014760D1*
X6288446Y1017678D1*
X6285595Y1014760D1*
X6288446Y994664D2*
Y954472D1*
X6344314Y1014760D2*
Y954472D1*
Y986042D2*
X6338610Y991812D1*
X6332840Y994664D1*
X6324218D1*
X6318514Y991812D1*
X6312744Y986042D1*
X6309892Y977420D1*
Y971716D1*
X6312744Y963094D1*
X6318514Y957390D1*
X6324218Y954472D1*
X6332840D1*
X6338610Y957390D1*
X6344314Y963094D1*
X6362841Y977420D2*
X6397263D1*
Y983190D1*
X6394411Y988960D1*
X6391559Y991812D1*
X6385789Y994664D1*
X6377167D1*
X6371463Y991812D1*
X6365693Y986042D1*
X6362841Y977420D1*
Y971716D1*
X6365693Y963094D1*
X6371463Y957390D1*
X6377167Y954472D1*
X6385789D1*
X6391559Y957390D1*
X6397263Y963094D1*
X6474111Y1014760D2*
Y954472D1*
Y986042D2*
X6479881Y991812D1*
X6485585Y994664D1*
X6494207D1*
X6499911Y991812D1*
X6505681Y986042D1*
X6508533Y977420D1*
Y971716D1*
X6505681Y963094D1*
X6499911Y957390D1*
X6494207Y954472D1*
X6485585D1*
X6479881Y957390D1*
X6474111Y963094D1*
X6541386Y994664D2*
X6535682Y991812D1*
X6529912Y986042D1*
X6527060Y977420D1*
Y971716D1*
X6529912Y963094D1*
X6535682Y957390D1*
X6541386Y954472D1*
X6550008D1*
X6555778Y957390D1*
X6561482Y963094D1*
X6564400Y971716D1*
Y977420D1*
X6561482Y986042D1*
X6555778Y991812D1*
X6550008Y994664D1*
X6541386D1*
X6582927D2*
X6614497Y954472D1*
Y994664D2*
X6582927Y954472D1*
X7200558Y994664D2*
Y954472D1*
Y977420D2*
X7203477Y986042D1*
X7209180Y991812D1*
X7214950Y994664D1*
X7223573D1*
X7242100Y977420D2*
X7276521D1*
Y983190D1*
X7273670Y988960D1*
X7270818Y991812D1*
X7265048Y994664D1*
X7256425D1*
X7250722Y991812D1*
X7244952Y986042D1*
X7242100Y977420D1*
Y971716D1*
X7244952Y963094D1*
X7250722Y957390D1*
X7256425Y954472D1*
X7265048D1*
X7270818Y957390D1*
X7276521Y963094D1*
X7326619Y986042D2*
X7323767Y991812D1*
X7315145Y994664D1*
X7306523D1*
X7297900Y991812D1*
X7295049Y986042D1*
X7297900Y980338D1*
X7303671Y977420D1*
X7317996Y974568D1*
X7323767Y971716D1*
X7326619Y965946D1*
Y963094D1*
X7323767Y957390D1*
X7315145Y954472D1*
X7306523D1*
X7297900Y957390D1*
X7295049Y963094D1*
X7345146Y1014760D2*
X7347998Y1011908D1*
X7350916Y1014760D1*
X7347998Y1017678D1*
X7345146Y1014760D1*
X7347998Y994664D2*
Y954472D1*
X7401013Y986042D2*
X7398161Y991812D1*
X7389539Y994664D1*
X7380917D1*
X7372295Y991812D1*
X7369443Y986042D1*
X7372295Y980338D1*
X7378065Y977420D1*
X7392391Y974568D1*
X7398161Y971716D1*
X7401013Y965946D1*
Y963094D1*
X7398161Y957390D1*
X7389539Y954472D1*
X7380917D1*
X7372295Y957390D1*
X7369443Y963094D1*
X7428162Y1014760D2*
Y965946D1*
X7431014Y957390D1*
X7436784Y954472D1*
X7442488D1*
X7419540Y994664D2*
X7439636D1*
X7858154Y1002260D2*
Y941972D1*
X7838058Y1002260D2*
X7878250D1*
X7916873D2*
Y941972D1*
X7896777Y1002260D2*
X7936969D1*
X7955496D2*
Y941972D1*
X7989918D1*
X5581633Y921184D2*
D65*
X5557756D1*
X5555380Y899684D1*
X5557756Y902061D1*
X5564941Y904493D1*
X5572071D1*
X5579256Y902061D1*
X5584064Y897308D1*
X5586441Y890123D1*
Y885370D1*
X5584064Y878185D1*
X5579256Y873376D1*
X5572071Y870999D1*
X5564941D1*
X5557756Y873376D1*
X5555380Y875808D1*
X5552948Y880561D1*
X5601880Y921239D2*
X5621004Y870999D1*
X5640127Y921239D1*
X5677066Y917619D2*
Y874564D1*
X5655566Y896064D2*
X5698621D1*
X5787883Y921184D2*
X5764007D1*
X5761630Y899684D1*
X5764007Y902061D1*
X5771192Y904493D1*
X5778322D1*
X5785507Y902061D1*
X5790315Y897308D1*
X5792692Y890123D1*
Y885370D1*
X5790315Y878185D1*
X5785507Y873376D1*
X5778322Y870999D1*
X5771192D1*
X5764007Y873376D1*
X5761630Y875808D1*
X5759198Y880561D1*
X5808131Y921239D2*
X5827254Y870999D1*
X5846377Y921239D1*
X5861817Y896092D2*
X5889452D1*
X5954243Y923575D2*
X5930366D1*
X5927990Y902075D1*
X5930366Y904452D1*
X5937551Y906884D1*
X5944681D1*
X5951866Y904452D1*
X5956675Y899699D1*
X5959051Y892514D1*
Y887761D1*
X5956675Y880576D1*
X5951866Y875767D1*
X5944681Y873391D1*
X5937551D1*
X5930366Y875767D1*
X5927990Y878199D1*
X5925558Y882952D1*
X5974491Y923631D2*
X5993614Y873391D1*
X6012737Y923631D1*
X6028176Y898483D2*
X6055811D1*
X6190448Y897308D2*
X6211948D1*
X6219133Y899740D1*
X6221564Y902116D1*
X6223941Y906869D1*
Y911678D1*
X6221564Y916431D1*
X6219133Y918863D1*
X6211948Y921239D1*
X6190448D1*
Y870999D1*
X6207194Y897308D2*
X6223941Y870999D1*
X6432568Y909301D2*
X6430192Y914054D1*
X6425383Y918863D1*
X6420630Y921239D1*
X6411068D1*
X6406260Y918863D1*
X6401507Y914054D1*
X6399075Y909301D1*
X6396698Y902116D1*
Y890123D1*
X6399075Y882993D1*
X6401507Y878185D1*
X6406260Y873431D1*
X6411068Y870999D1*
X6420630D1*
X6425383Y873431D1*
X6430192Y878185D1*
X6432568Y882993D1*
Y890123D1*
X6420630D1*
X6588058Y917380D2*
Y867140D1*
X6609613D1*
X6616798Y869572D1*
X6619175Y871948D1*
X6621551Y876702D1*
Y883887D1*
X6619175Y888695D1*
X6616798Y891072D1*
X6609613Y893448D1*
X6616798Y895880D1*
X6619175Y898257D1*
X6621551Y903010D1*
Y907818D1*
X6619175Y912571D1*
X6616798Y915003D1*
X6609613Y917380D1*
X6588058D1*
Y893448D2*
X6609613D1*
X6750558Y917380D2*
Y867140D1*
Y893448D2*
X6755366Y898257D1*
X6760120Y900633D1*
X6767305D1*
X6772058Y898257D1*
X6776866Y893448D1*
X6779243Y886263D1*
Y881510D1*
X6776866Y874325D1*
X6772058Y869572D1*
X6767305Y867140D1*
X6760120D1*
X6755366Y869572D1*
X6750558Y874325D1*
X6794682Y900633D2*
Y876702D1*
X6797059Y869572D1*
X6801867Y867140D1*
X6809052D1*
X6813805Y869572D1*
X6820990Y876702D1*
Y900633D2*
Y867140D1*
X6843615Y917380D2*
Y876702D1*
X6845991Y869572D1*
X6850800Y867140D1*
X6855553D1*
X6836430Y900633D2*
X6853176D1*
X7175558Y894384D2*
Y844144D1*
Y887199D2*
X7180366Y891952D1*
X7185120Y894384D1*
X7192305D1*
X7197113Y891952D1*
X7201866Y887199D1*
X7204298Y880014D1*
Y875205D1*
X7201866Y868076D1*
X7197113Y863267D1*
X7192305Y860891D1*
X7185120D1*
X7180366Y863267D1*
X7175558Y868076D1*
X7219737Y911131D2*
X7222114Y908754D1*
X7224546Y911131D1*
X7222114Y913562D1*
X7219737Y911131D1*
X7222114Y894384D2*
Y860891D1*
X7239985Y894384D2*
Y860891D1*
Y884822D2*
X7247170Y892007D1*
X7251979Y894384D1*
X7259108D1*
X7263917Y892007D1*
X7266293Y884822D1*
Y860891D1*
X6926866Y899699D2*
X6924490Y904507D1*
X6917305Y906884D1*
X6910120D1*
X6902935Y904507D1*
X6900558Y899699D1*
X6902935Y894946D1*
X6907743Y892514D1*
X6919681Y890137D1*
X6924490Y887761D1*
X6926866Y882952D1*
Y880576D1*
X6924490Y875822D1*
X6917305Y873391D1*
X6910120D1*
X6902935Y875822D1*
X6900558Y880576D1*
X6954244Y906884D2*
X6949491Y904507D1*
X6944682Y899699D1*
X6942306Y892514D1*
Y887761D1*
X6944682Y880576D1*
X6949491Y875822D1*
X6954244Y873391D1*
X6961429D1*
X6966237Y875822D1*
X6970990Y880576D1*
X6973422Y887761D1*
Y892514D1*
X6970990Y899699D1*
X6966237Y904507D1*
X6961429Y906884D1*
X6954244D1*
X6988862D2*
Y882952D1*
X6991238Y875822D1*
X6996047Y873391D1*
X7003232D1*
X7007985Y875822D1*
X7015170Y882952D1*
Y906884D2*
Y873391D1*
X7030609Y906884D2*
Y873391D1*
Y897322D2*
X7037794Y904507D1*
X7042603Y906884D1*
X7049732D1*
X7054541Y904507D1*
X7056917Y897322D1*
Y873391D1*
X7101041Y923631D2*
Y873391D1*
Y899699D2*
X7096288Y904507D1*
X7091480Y906884D1*
X7084295D1*
X7079542Y904507D1*
X7074733Y899699D1*
X7072357Y892514D1*
Y887761D1*
X7074733Y880576D1*
X7079542Y875822D1*
X7084295Y873391D1*
X7091480D1*
X7096288Y875822D1*
X7101041Y880576D1*
X7363058Y894384D2*
Y844144D1*
Y887199D2*
X7367866Y891952D1*
X7372620Y894384D1*
X7379805D1*
X7384613Y891952D1*
X7389366Y887199D1*
X7391798Y880014D1*
Y875205D1*
X7389366Y868076D1*
X7384613Y863267D1*
X7379805Y860891D1*
X7372620D1*
X7367866Y863267D1*
X7363058Y868076D1*
X7407237Y911131D2*
X7409614Y908754D1*
X7412046Y911131D1*
X7409614Y913562D1*
X7407237Y911131D1*
X7409614Y894384D2*
Y860891D1*
X7427485Y894384D2*
Y860891D1*
Y884822D2*
X7434670Y892007D1*
X7439479Y894384D1*
X7446608D1*
X7451417Y892007D1*
X7453793Y884822D1*
Y860891D1*
X7561055Y917380D2*
Y867140D1*
X7544309Y917380D2*
X7577802D1*
X7593241D2*
X7626735Y867140D1*
Y917380D2*
X7593241Y867140D1*
X7642174Y907763D2*
X7646982Y910195D1*
X7654167Y917325D1*
Y867140D1*
X7731807Y893448D2*
X7753307D1*
X7760492Y895880D1*
X7762924Y898257D1*
X7765301Y903010D1*
Y907818D1*
X7762924Y912571D1*
X7760492Y915003D1*
X7753307Y917380D1*
X7731807D1*
Y867140D1*
X7748554Y893448D2*
X7765301Y867140D1*
X7780740Y917380D2*
X7814233Y867140D1*
Y917380D2*
X7780740Y867140D1*
X7829672Y907763D2*
X7834481Y910195D1*
X7841666Y917325D1*
Y867140D1*
X7973555Y917380D2*
Y867140D1*
X7956809Y917380D2*
X7990302D1*
X8005741D2*
X8039235Y867140D1*
Y917380D2*
X8005741Y867140D1*
X8057106Y905386D2*
Y907763D1*
X8059482Y912571D1*
X8061859Y914948D1*
X8066667Y917325D1*
X8076229D1*
X8080982Y914948D1*
X8083359Y912571D1*
X8085791Y907763D1*
Y903010D1*
X8083359Y898201D1*
X8078606Y891072D1*
X8054674Y867140D1*
X8088167D1*
X8144307Y893448D2*
X8165807D1*
X8172992Y895880D1*
X8175424Y898257D1*
X8177801Y903010D1*
Y907818D1*
X8175424Y912571D1*
X8172992Y915003D1*
X8165807Y917380D1*
X8144307D1*
Y867140D1*
X8161054Y893448D2*
X8177801Y867140D1*
X8193240Y917380D2*
X8226733Y867140D1*
Y917380D2*
X8193240Y867140D1*
X8244604Y905386D2*
Y907763D1*
X8246981Y912571D1*
X8249358Y914948D1*
X8254166Y917325D1*
X8263728D1*
X8268481Y914948D1*
X8270857Y912571D1*
X8273289Y907763D1*
Y903010D1*
X8270857Y898201D1*
X8266104Y891072D1*
X8242172Y867140D1*
X8275666D1*
X9595400Y985270D2*
D66*
X9592548Y991040D1*
X9583926Y993892D1*
X9575304D1*
X9566682Y991040D1*
X9563830Y985270D1*
X9566682Y979566D1*
X9572452Y976648D1*
X9586778Y973796D1*
X9592548Y970944D1*
X9595400Y965174D1*
Y962322D1*
X9592548Y956618D1*
X9583926Y953700D1*
X9575304D1*
X9566682Y956618D1*
X9563830Y962322D1*
X9613927Y976648D2*
X9648349D1*
Y982418D1*
X9645497Y988188D1*
X9642645Y991040D1*
X9636875Y993892D1*
X9628253D1*
X9622549Y991040D1*
X9616779Y985270D1*
X9613927Y976648D1*
Y970944D1*
X9616779Y962322D1*
X9622549Y956618D1*
X9628253Y953700D1*
X9636875D1*
X9642645Y956618D1*
X9648349Y962322D1*
X9701364Y985270D2*
X9695594Y991040D1*
X9689824Y993892D1*
X9681268D1*
X9675498Y991040D1*
X9669794Y985270D1*
X9666876Y976648D1*
Y970944D1*
X9669794Y962322D1*
X9675498Y956618D1*
X9681268Y953700D1*
X9689824D1*
X9695594Y956618D1*
X9701364Y962322D1*
X9719891Y993892D2*
Y965174D1*
X9722743Y956618D1*
X9728513Y953700D1*
X9737135D1*
X9742839Y956618D1*
X9751461Y965174D1*
Y993892D2*
Y953700D1*
X9769988Y993892D2*
Y953700D1*
Y976648D2*
X9772907Y985270D1*
X9778610Y991040D1*
X9784380Y993892D1*
X9793003D1*
X9811530Y1013988D2*
X9814382Y1011136D1*
X9817300Y1013988D1*
X9814382Y1016906D1*
X9811530Y1013988D1*
X9814382Y993892D2*
Y953700D1*
X9844449Y1013988D2*
Y965174D1*
X9847301Y956618D1*
X9853071Y953700D1*
X9858775D1*
X9835827Y993892D2*
X9855923D1*
X9880220D2*
X9897398Y953700D1*
X9891694Y942226D1*
X9885924Y936456D1*
X9880220Y933604D1*
X9877302D1*
X9914642Y993892D2*
X9897398Y953700D1*
X9090448Y911623D2*
D65*
X9095256Y914054D1*
X9102441Y921184D1*
Y870999D1*
X9299130Y909246D2*
Y911623D1*
X9301507Y916431D1*
X9303883Y918808D1*
X9308692Y921184D1*
X9318254D1*
X9323007Y918808D1*
X9325383Y916431D1*
X9327815Y911623D1*
Y906869D1*
X9325383Y902061D1*
X9320630Y894931D1*
X9296698Y870999D1*
X9330192D1*
X9492868Y923574D2*
X9519121D1*
X9504806Y904451D1*
X9511991D1*
X9516744Y902074D1*
X9519121Y899698D1*
X9521553Y892512D1*
Y887759D1*
X9519121Y880574D1*
X9514368Y875766D1*
X9507183Y873389D1*
X9499998D1*
X9492868Y875766D1*
X9490491Y878198D1*
X9488059Y882951D1*
X9724490Y867140D2*
Y917325D1*
X9700558Y883887D1*
X9736428D1*
X9922992Y917325D2*
X9899116D1*
X9896739Y895825D1*
X9899116Y898201D1*
X9906301Y900633D1*
X9913431D1*
X9920616Y898201D1*
X9925424Y893448D1*
X9927801Y886263D1*
Y881510D1*
X9925424Y874325D1*
X9920616Y869516D1*
X9913431Y867140D1*
X9906301D1*
X9899116Y869516D1*
X9896739Y871948D1*
X9894307Y876702D1*
X10122992Y910195D2*
X10120616Y914948D1*
X10113431Y917325D1*
X10108677D1*
X10101492Y914948D1*
X10096684Y907763D1*
X10094307Y895825D1*
Y883887D1*
X10096684Y874325D1*
X10101492Y869516D1*
X10108677Y867140D1*
X10111054D1*
X10118184Y869516D1*
X10122992Y874325D1*
X10125369Y881510D1*
Y883887D1*
X10122992Y891072D1*
X10118184Y895825D1*
X10111054Y898201D1*
X10108677D1*
X10101492Y895825D1*
X10096684Y891072D1*
X10094307Y883887D1*
X10273928Y905442D2*
X10271551Y910195D1*
X10266743Y915003D1*
X10261990Y917380D1*
X10252428D1*
X10247620Y915003D1*
X10242866Y910195D1*
X10240435Y905442D1*
X10238058Y898257D1*
Y886263D1*
X10240435Y879133D1*
X10242866Y874325D1*
X10247620Y869572D1*
X10252428Y867140D1*
X10261990D1*
X10266743Y869572D1*
X10271551Y874325D1*
X10273928Y879133D1*
Y886263D1*
X10261990D1*
X10322860Y917380D2*
Y867140D1*
X10289367Y917380D1*
Y867140D1*
X10338300Y917380D2*
Y867140D1*
X10355046D1*
X10362231Y869572D1*
X10367040Y874325D1*
X10369416Y879133D1*
X10371793Y886263D1*
Y898257D1*
X10369416Y905442D1*
X10367040Y910195D1*
X10362231Y915003D1*
X10355046Y917380D1*
X10338300D1*
X756808Y3377260D2*
D66*
Y3316972D1*
Y3348542D2*
X762578Y3354312D1*
X768282Y3357164D1*
X776904D1*
X782607Y3354312D1*
X788378Y3348542D1*
X791229Y3339920D1*
Y3334216D1*
X788378Y3325594D1*
X782607Y3319890D1*
X776904Y3316972D1*
X768282D1*
X762578Y3319890D1*
X756808Y3325594D1*
X809757Y3357164D2*
Y3328446D1*
X812608Y3319890D1*
X818379Y3316972D1*
X827001D1*
X832704Y3319890D1*
X841327Y3328446D1*
Y3357164D2*
Y3316972D1*
X868476Y3377260D2*
Y3328446D1*
X871328Y3319890D1*
X877098Y3316972D1*
X882802D1*
X859854Y3357164D2*
X879950D1*
X909951Y3377260D2*
Y3328446D1*
X912803Y3319890D1*
X918573Y3316972D1*
X924277D1*
X901329Y3357164D2*
X921425D1*
X957130D2*
X951426Y3354312D1*
X945656Y3348542D1*
X942804Y3339920D1*
Y3334216D1*
X945656Y3325594D1*
X951426Y3319890D1*
X957130Y3316972D1*
X965752D1*
X971522Y3319890D1*
X977226Y3325594D1*
X980144Y3334216D1*
Y3339920D1*
X977226Y3348542D1*
X971522Y3354312D1*
X965752Y3357164D1*
X957130D1*
X998671D2*
Y3316972D1*
Y3345690D2*
X1007293Y3354312D1*
X1013063Y3357164D1*
X1021619D1*
X1027389Y3354312D1*
X1030241Y3345690D1*
Y3316972D1*
X1080338Y3348542D2*
X1077486Y3354312D1*
X1068864Y3357164D1*
X1060242D1*
X1051620Y3354312D1*
X1048768Y3348542D1*
X1051620Y3342838D1*
X1057390Y3339920D1*
X1071716Y3337068D1*
X1077486Y3334216D1*
X1080338Y3328446D1*
Y3325594D1*
X1077486Y3319890D1*
X1068864Y3316972D1*
X1060242D1*
X1051620Y3319890D1*
X1048768Y3325594D1*
X1978729Y3354312D2*
Y3308350D1*
X1975878Y3299794D1*
X1973026Y3296876D1*
X1967256Y3294024D1*
X1958633D1*
X1952930Y3296876D1*
X1978729Y3345690D2*
X1973026Y3351394D1*
X1967256Y3354312D1*
X1958633D1*
X1952930Y3351394D1*
X1947160Y3345690D1*
X1944308Y3337068D1*
Y3331298D1*
X1947160Y3322742D1*
X1952930Y3316972D1*
X1958633Y3314120D1*
X1967256D1*
X1973026Y3316972D1*
X1978729Y3322742D1*
X1997257Y3339920D2*
X2031678D1*
Y3345690D1*
X2028827Y3351460D1*
X2025975Y3354312D1*
X2020204Y3357164D1*
X2011582D1*
X2005879Y3354312D1*
X2000108Y3348542D1*
X1997257Y3339920D1*
Y3334216D1*
X2000108Y3325594D1*
X2005879Y3319890D1*
X2011582Y3316972D1*
X2020204D1*
X2025975Y3319890D1*
X2031678Y3325594D1*
X2050206Y3357164D2*
Y3316972D1*
Y3339920D2*
X2053124Y3348542D1*
X2058828Y3354312D1*
X2064598Y3357164D1*
X2073220D1*
X2091747Y3377260D2*
Y3316972D1*
X2120465Y3357164D2*
X2091747Y3328446D1*
X2103221Y3339920D2*
X2123317Y3316972D1*
X2156170Y3357164D2*
X2150466Y3354312D1*
X2144696Y3348542D1*
X2141844Y3339920D1*
Y3334216D1*
X2144696Y3325594D1*
X2150466Y3319890D1*
X2156170Y3316972D1*
X2164792D1*
X2170562Y3319890D1*
X2176266Y3325594D1*
X2179184Y3334216D1*
Y3339920D1*
X2176266Y3348542D1*
X2170562Y3354312D1*
X2164792Y3357164D1*
X2156170D1*
X2197711D2*
Y3316972D1*
Y3345690D2*
X2206333Y3354312D1*
X2212103Y3357164D1*
X2220659D1*
X2226429Y3354312D1*
X2229281Y3345690D1*
Y3316972D1*
X2279378Y3348542D2*
X2276526Y3354312D1*
X2267904Y3357164D1*
X2259282D1*
X2250660Y3354312D1*
X2247808Y3348542D1*
X2250660Y3342838D1*
X2256430Y3339920D1*
X2270756Y3337068D1*
X2276526Y3334216D1*
X2279378Y3328446D1*
Y3325594D1*
X2276526Y3319890D1*
X2267904Y3316972D1*
X2259282D1*
X2250660Y3319890D1*
X2247808Y3325594D1*
X1419628Y3348542D2*
X1416776Y3354312D1*
X1408154Y3357164D1*
X1399532D1*
X1390910Y3354312D1*
X1388058Y3348542D1*
X1390910Y3342838D1*
X1396680Y3339920D1*
X1411006Y3337068D1*
X1416776Y3334216D1*
X1419628Y3328446D1*
Y3325594D1*
X1416776Y3319890D1*
X1408154Y3316972D1*
X1399532D1*
X1390910Y3319890D1*
X1388058Y3325594D1*
X1452481Y3357164D2*
X1446777Y3354312D1*
X1441007Y3348542D1*
X1438155Y3339920D1*
Y3334216D1*
X1441007Y3325594D1*
X1446777Y3319890D1*
X1452481Y3316972D1*
X1461103D1*
X1466873Y3319890D1*
X1472577Y3325594D1*
X1475495Y3334216D1*
Y3339920D1*
X1472577Y3348542D1*
X1466873Y3354312D1*
X1461103Y3357164D1*
X1452481D1*
X1494023D2*
Y3328446D1*
X1496874Y3319890D1*
X1502645Y3316972D1*
X1511267D1*
X1516970Y3319890D1*
X1525592Y3328446D1*
Y3357164D2*
Y3316972D1*
X1544120Y3357164D2*
Y3316972D1*
Y3345690D2*
X1552742Y3354312D1*
X1558512Y3357164D1*
X1567067D1*
X1572838Y3354312D1*
X1575690Y3345690D1*
Y3316972D1*
X1628639Y3377260D2*
Y3316972D1*
Y3348542D2*
X1622935Y3354312D1*
X1617165Y3357164D1*
X1608542D1*
X1602839Y3354312D1*
X1597069Y3348542D1*
X1594217Y3339920D1*
Y3334216D1*
X1597069Y3325594D1*
X1602839Y3319890D1*
X1608542Y3316972D1*
X1617165D1*
X1622935Y3319890D1*
X1628639Y3325594D1*
X2969628Y3348542D2*
X2966776Y3354312D1*
X2958154Y3357164D1*
X2949532D1*
X2940910Y3354312D1*
X2938058Y3348542D1*
X2940910Y3342838D1*
X2946680Y3339920D1*
X2961006Y3337068D1*
X2966776Y3334216D1*
X2969628Y3328446D1*
Y3325594D1*
X2966776Y3319890D1*
X2958154Y3316972D1*
X2949532D1*
X2940910Y3319890D1*
X2938058Y3325594D1*
X2988155Y3339920D2*
X3022577D1*
Y3345690D1*
X3019725Y3351460D1*
X3016873Y3354312D1*
X3011103Y3357164D1*
X3002481D1*
X2996777Y3354312D1*
X2991007Y3348542D1*
X2988155Y3339920D1*
Y3334216D1*
X2991007Y3325594D1*
X2996777Y3319890D1*
X3002481Y3316972D1*
X3011103D1*
X3016873Y3319890D1*
X3022577Y3325594D1*
X3041104Y3357164D2*
Y3316972D1*
Y3345690D2*
X3049726Y3354312D1*
X3055496Y3357164D1*
X3064052D1*
X3069822Y3354312D1*
X3072674Y3345690D1*
Y3316972D1*
X3122771Y3348542D2*
X3119919Y3354312D1*
X3111297Y3357164D1*
X3102675D1*
X3094053Y3354312D1*
X3091201Y3348542D1*
X3094053Y3342838D1*
X3099823Y3339920D1*
X3114149Y3337068D1*
X3119919Y3334216D1*
X3122771Y3328446D1*
Y3325594D1*
X3119919Y3319890D1*
X3111297Y3316972D1*
X3102675D1*
X3094053Y3319890D1*
X3091201Y3325594D1*
X3155624Y3357164D2*
X3149920Y3354312D1*
X3144150Y3348542D1*
X3141298Y3339920D1*
Y3334216D1*
X3144150Y3325594D1*
X3149920Y3319890D1*
X3155624Y3316972D1*
X3164246D1*
X3170016Y3319890D1*
X3175720Y3325594D1*
X3178639Y3334216D1*
Y3339920D1*
X3175720Y3348542D1*
X3170016Y3354312D1*
X3164246Y3357164D1*
X3155624D1*
X3197166D2*
Y3316972D1*
Y3339920D2*
X3200084Y3348542D1*
X3205788Y3354312D1*
X3211558Y3357164D1*
X3220180D1*
X3270277Y3348542D2*
X3267425Y3354312D1*
X3258803Y3357164D1*
X3250181D1*
X3241559Y3354312D1*
X3238707Y3348542D1*
X3241559Y3342838D1*
X3247329Y3339920D1*
X3261655Y3337068D1*
X3267425Y3334216D1*
X3270277Y3328446D1*
Y3325594D1*
X3267425Y3319890D1*
X3258803Y3316972D1*
X3250181D1*
X3241559Y3319890D1*
X3238707Y3325594D1*
X4001904Y3377260D2*
Y3316972D1*
X3981808Y3377260D2*
X4022000D1*
X4040527D2*
X4080719Y3316972D1*
Y3377260D2*
X4040527Y3316972D1*
X4099246D2*
X4139438Y3377193D1*
X4157965Y3348542D2*
X4183765D1*
X4192387Y3351460D1*
X4195305Y3354312D1*
X4198157Y3360016D1*
Y3365786D1*
X4195305Y3371490D1*
X4192387Y3374408D1*
X4183765Y3377260D1*
X4157965D1*
Y3316972D1*
X4178061Y3348542D2*
X4198157Y3316972D1*
X4216684Y3377260D2*
X4256876Y3316972D1*
Y3377260D2*
X4216684Y3316972D1*
X4619308Y3377260D2*
X4622160Y3374408D1*
X4625078Y3377260D1*
X4622160Y3380178D1*
X4619308Y3377260D1*
X4622160Y3357164D2*
Y3316972D1*
X4643605Y3357164D2*
Y3316972D1*
Y3345690D2*
X4652227Y3354312D1*
X4657997Y3357164D1*
X4666553D1*
X4672323Y3354312D1*
X4675175Y3345690D1*
Y3316972D1*
X4693702Y3357164D2*
Y3296876D1*
Y3348542D2*
X4699472Y3354246D1*
X4705176Y3357164D1*
X4713798D1*
X4719568Y3354246D1*
X4725272Y3348542D1*
X4728190Y3339920D1*
Y3334150D1*
X4725272Y3325594D1*
X4719568Y3319824D1*
X4713798Y3316972D1*
X4705176D1*
X4699472Y3319824D1*
X4693702Y3325594D1*
X4746717Y3357164D2*
Y3328446D1*
X4749569Y3319890D1*
X4755339Y3316972D1*
X4763961D1*
X4769665Y3319890D1*
X4778287Y3328446D1*
Y3357164D2*
Y3316972D1*
X4805436Y3377260D2*
Y3328446D1*
X4808288Y3319890D1*
X4814058Y3316972D1*
X4819762D1*
X4796814Y3357164D2*
X4816910D1*
X5250558Y3365720D2*
X5256328Y3368638D1*
X5264950Y3377193D1*
Y3316972D1*
X5286396Y3362868D2*
Y3365720D1*
X5289248Y3371490D1*
X5292100Y3374342D1*
X5297870Y3377193D1*
X5309344D1*
X5315048Y3374342D1*
X5317899Y3371490D1*
X5320818Y3365720D1*
Y3360016D1*
X5317899Y3354246D1*
X5312196Y3345690D1*
X5283478Y3316972D1*
X5323670D1*
X5342197Y3377260D2*
X5365145Y3316972D1*
X5388092Y3377260D1*
X5479267Y3357164D2*
X5473563Y3354312D1*
X5467793Y3348542D1*
X5464941Y3339920D1*
Y3334216D1*
X5467793Y3325594D1*
X5473563Y3319890D1*
X5479267Y3316972D1*
X5487889D1*
X5493659Y3319890D1*
X5499363Y3325594D1*
X5502281Y3334216D1*
Y3339920D1*
X5499363Y3348542D1*
X5493659Y3354312D1*
X5487889Y3357164D1*
X5479267D1*
X5520808D2*
Y3328446D1*
X5523660Y3319890D1*
X5529430Y3316972D1*
X5538052D1*
X5543756Y3319890D1*
X5552378Y3328446D1*
Y3357164D2*
Y3316972D1*
X5579527Y3377260D2*
Y3328446D1*
X5582379Y3319890D1*
X5588149Y3316972D1*
X5593853D1*
X5570905Y3357164D2*
X5591001D1*
X5612380D2*
Y3296876D1*
Y3348542D2*
X5618150Y3354246D1*
X5623854Y3357164D1*
X5632476D1*
X5638246Y3354246D1*
X5643950Y3348542D1*
X5646868Y3339920D1*
Y3334150D1*
X5643950Y3325594D1*
X5638246Y3319824D1*
X5632476Y3316972D1*
X5623854D1*
X5618150Y3319824D1*
X5612380Y3325594D1*
X5665395Y3357164D2*
Y3328446D1*
X5668247Y3319890D1*
X5674017Y3316972D1*
X5682639D1*
X5688343Y3319890D1*
X5696965Y3328446D1*
Y3357164D2*
Y3316972D1*
X5724114Y3377260D2*
Y3328446D1*
X5726966Y3319890D1*
X5732736Y3316972D1*
X5738440D1*
X5715492Y3357164D2*
X5735588D1*
X5788537Y3348542D2*
X5785685Y3354312D1*
X5777063Y3357164D1*
X5768441D1*
X5759819Y3354312D1*
X5756967Y3348542D1*
X5759819Y3342838D1*
X5765589Y3339920D1*
X5779915Y3337068D1*
X5785685Y3334216D1*
X5788537Y3328446D1*
Y3325594D1*
X5785685Y3319890D1*
X5777063Y3316972D1*
X5768441D1*
X5759819Y3319890D1*
X5756967Y3325594D1*
X556807Y3675633D2*
D65*
Y3625393D1*
Y3668448D2*
X561616Y3673201D1*
X566369Y3675633D1*
X573554D1*
X578362Y3673201D1*
X583116Y3668448D1*
X585547Y3661263D1*
Y3656455D1*
X583116Y3649325D1*
X578362Y3644516D1*
X573554Y3642140D1*
X566369D1*
X561616Y3644516D1*
X556807Y3649325D1*
X600987Y3692380D2*
X603363Y3690003D1*
X605795Y3692380D1*
X603363Y3694812D1*
X600987Y3692380D1*
X603363Y3675633D2*
Y3642140D1*
X621234Y3675633D2*
Y3642140D1*
Y3666072D2*
X628419Y3673257D1*
X633228Y3675633D1*
X640358D1*
X645166Y3673257D1*
X647543Y3666072D1*
Y3642140D1*
X6309180Y3377260D2*
D66*
Y3328446D1*
X6312032Y3319890D1*
X6317802Y3316972D1*
X6323506D1*
X6300558Y3357164D2*
X6320654D1*
X6342033D2*
Y3316972D1*
Y3339920D2*
X6344952Y3348542D1*
X6350655Y3354312D1*
X6356425Y3357164D1*
X6365048D1*
X6417996D2*
Y3316972D1*
Y3348542D2*
X6412293Y3354312D1*
X6406523Y3357164D1*
X6397967D1*
X6392197Y3354312D1*
X6386493Y3348542D1*
X6383575Y3339920D1*
Y3334216D1*
X6386493Y3325594D1*
X6392197Y3319890D1*
X6397967Y3316972D1*
X6406523D1*
X6412293Y3319890D1*
X6417996Y3325594D1*
X6436524Y3357164D2*
Y3316972D1*
Y3345690D2*
X6445146Y3354312D1*
X6450916Y3357164D1*
X6459471D1*
X6465242Y3354312D1*
X6468094Y3345690D1*
Y3316972D1*
X6518191Y3348542D2*
X6515339Y3354312D1*
X6506717Y3357164D1*
X6498095D1*
X6489473Y3354312D1*
X6486621Y3348542D1*
X6489473Y3342838D1*
X6495243Y3339920D1*
X6509569Y3337068D1*
X6515339Y3334216D1*
X6518191Y3328446D1*
Y3325594D1*
X6515339Y3319890D1*
X6506717Y3316972D1*
X6498095D1*
X6489473Y3319890D1*
X6486621Y3325594D1*
X6536718Y3377260D2*
X6539570Y3374408D1*
X6542488Y3377260D1*
X6539570Y3380178D1*
X6536718Y3377260D1*
X6539570Y3357164D2*
Y3316972D1*
X6592585Y3348542D2*
X6589733Y3354312D1*
X6581111Y3357164D1*
X6572489D1*
X6563867Y3354312D1*
X6561015Y3348542D1*
X6563867Y3342838D1*
X6569637Y3339920D1*
X6583963Y3337068D1*
X6589733Y3334216D1*
X6592585Y3328446D1*
Y3325594D1*
X6589733Y3319890D1*
X6581111Y3316972D1*
X6572489D1*
X6563867Y3319890D1*
X6561015Y3325594D1*
X6619734Y3377260D2*
Y3328446D1*
X6622586Y3319890D1*
X6628356Y3316972D1*
X6634060D1*
X6611112Y3357164D2*
X6631208D1*
X6666913D2*
X6661209Y3354312D1*
X6655439Y3348542D1*
X6652587Y3339920D1*
Y3334216D1*
X6655439Y3325594D1*
X6661209Y3319890D1*
X6666913Y3316972D1*
X6675535D1*
X6681305Y3319890D1*
X6687009Y3325594D1*
X6689927Y3334216D1*
Y3339920D1*
X6687009Y3348542D1*
X6681305Y3354312D1*
X6675535Y3357164D1*
X6666913D1*
X6708454D2*
Y3316972D1*
Y3339920D2*
X6711372Y3348542D1*
X6717076Y3354312D1*
X6722846Y3357164D1*
X6731468D1*
X6781565Y3348542D2*
X6778714Y3354312D1*
X6770092Y3357164D1*
X6761469D1*
X6752847Y3354312D1*
X6749996Y3348542D1*
X6752847Y3342838D1*
X6758618Y3339920D1*
X6772943Y3337068D1*
X6778714Y3334216D1*
X6781565Y3328446D1*
Y3325594D1*
X6778714Y3319890D1*
X6770092Y3316972D1*
X6761469D1*
X6752847Y3319890D1*
X6749996Y3325594D1*
X779243Y3673257D2*
D65*
Y3634955D1*
X776866Y3627825D1*
X774490Y3625393D1*
X769681Y3623017D1*
X762496D1*
X757743Y3625393D1*
X779243Y3666072D2*
X774490Y3670825D1*
X769681Y3673257D1*
X762496D1*
X757743Y3670825D1*
X752935Y3666072D1*
X750558Y3658887D1*
Y3654078D1*
X752935Y3646948D1*
X757743Y3642140D1*
X762496Y3639763D1*
X769681D1*
X774490Y3642140D1*
X779243Y3646948D1*
X794682Y3675633D2*
Y3642140D1*
Y3666072D2*
X801867Y3673257D1*
X806676Y3675633D1*
X813805D1*
X818614Y3673257D1*
X820990Y3666072D1*
Y3642140D1*
X865115Y3692380D2*
Y3642140D1*
Y3668448D2*
X860361Y3673257D1*
X855553Y3675633D1*
X848368D1*
X843615Y3673257D1*
X838806Y3668448D1*
X836430Y3661263D1*
Y3656510D1*
X838806Y3649325D1*
X843615Y3644572D1*
X848368Y3642140D1*
X855553D1*
X860361Y3644572D1*
X865115Y3649325D1*
X956807Y3675633D2*
Y3625393D1*
Y3668448D2*
X961616Y3673201D1*
X966369Y3675633D1*
X973554D1*
X978362Y3673201D1*
X983116Y3668448D1*
X985547Y3661263D1*
Y3656455D1*
X983116Y3649325D1*
X978362Y3644516D1*
X973554Y3642140D1*
X966369D1*
X961616Y3644516D1*
X956807Y3649325D1*
X1000987Y3692380D2*
X1003363Y3690003D1*
X1005795Y3692380D1*
X1003363Y3694812D1*
X1000987Y3692380D1*
X1003363Y3675633D2*
Y3642140D1*
X1021234Y3675633D2*
Y3642140D1*
Y3666072D2*
X1028419Y3673257D1*
X1033228Y3675633D1*
X1040358D1*
X1045166Y3673257D1*
X1047543Y3666072D1*
Y3642140D1*
X1179243Y3673257D2*
Y3634955D1*
X1176866Y3627825D1*
X1174490Y3625393D1*
X1169681Y3623017D1*
X1162496D1*
X1157743Y3625393D1*
X1179243Y3666072D2*
X1174490Y3670825D1*
X1169681Y3673257D1*
X1162496D1*
X1157743Y3670825D1*
X1152935Y3666072D1*
X1150558Y3658887D1*
Y3654078D1*
X1152935Y3646948D1*
X1157743Y3642140D1*
X1162496Y3639763D1*
X1169681D1*
X1174490Y3642140D1*
X1179243Y3646948D1*
X1194682Y3675633D2*
Y3642140D1*
Y3666072D2*
X1201867Y3673257D1*
X1206676Y3675633D1*
X1213805D1*
X1218614Y3673257D1*
X1220990Y3666072D1*
Y3642140D1*
X1265115Y3692380D2*
Y3642140D1*
Y3668448D2*
X1260361Y3673257D1*
X1255553Y3675633D1*
X1248368D1*
X1243615Y3673257D1*
X1238806Y3668448D1*
X1236430Y3661263D1*
Y3656510D1*
X1238806Y3649325D1*
X1243615Y3644572D1*
X1248368Y3642140D1*
X1255553D1*
X1260361Y3644572D1*
X1265115Y3649325D1*
X1356807Y3675633D2*
Y3625393D1*
Y3668448D2*
X1361616Y3673201D1*
X1366369Y3675633D1*
X1373554D1*
X1378362Y3673201D1*
X1383116Y3668448D1*
X1385547Y3661263D1*
Y3656455D1*
X1383116Y3649325D1*
X1378362Y3644516D1*
X1373554Y3642140D1*
X1366369D1*
X1361616Y3644516D1*
X1356807Y3649325D1*
X1400987Y3692380D2*
X1403363Y3690003D1*
X1405795Y3692380D1*
X1403363Y3694812D1*
X1400987Y3692380D1*
X1403363Y3675633D2*
Y3642140D1*
X1421234Y3675633D2*
Y3642140D1*
Y3666072D2*
X1428419Y3673257D1*
X1433228Y3675633D1*
X1440358D1*
X1445166Y3673257D1*
X1447543Y3666072D1*
Y3642140D1*
X1579243Y3673257D2*
Y3634955D1*
X1576866Y3627825D1*
X1574490Y3625393D1*
X1569681Y3623017D1*
X1562496D1*
X1557743Y3625393D1*
X1579243Y3666072D2*
X1574490Y3670825D1*
X1569681Y3673257D1*
X1562496D1*
X1557743Y3670825D1*
X1552935Y3666072D1*
X1550558Y3658887D1*
Y3654078D1*
X1552935Y3646948D1*
X1557743Y3642140D1*
X1562496Y3639763D1*
X1569681D1*
X1574490Y3642140D1*
X1579243Y3646948D1*
X1594682Y3675633D2*
Y3642140D1*
Y3666072D2*
X1601867Y3673257D1*
X1606676Y3675633D1*
X1613805D1*
X1618614Y3673257D1*
X1620990Y3666072D1*
Y3642140D1*
X1665115Y3692380D2*
Y3642140D1*
Y3668448D2*
X1660361Y3673257D1*
X1655553Y3675633D1*
X1648368D1*
X1643615Y3673257D1*
X1638806Y3668448D1*
X1636430Y3661263D1*
Y3656510D1*
X1638806Y3649325D1*
X1643615Y3644572D1*
X1648368Y3642140D1*
X1655553D1*
X1660361Y3644572D1*
X1665115Y3649325D1*
X1756807Y3675633D2*
Y3625393D1*
Y3668448D2*
X1761616Y3673201D1*
X1766369Y3675633D1*
X1773554D1*
X1778362Y3673201D1*
X1783116Y3668448D1*
X1785547Y3661263D1*
Y3656455D1*
X1783116Y3649325D1*
X1778362Y3644516D1*
X1773554Y3642140D1*
X1766369D1*
X1761616Y3644516D1*
X1756807Y3649325D1*
X1800987Y3692380D2*
X1803363Y3690003D1*
X1805795Y3692380D1*
X1803363Y3694812D1*
X1800987Y3692380D1*
X1803363Y3675633D2*
Y3642140D1*
X1821234Y3675633D2*
Y3642140D1*
Y3666072D2*
X1828419Y3673257D1*
X1833228Y3675633D1*
X1840358D1*
X1845166Y3673257D1*
X1847543Y3666072D1*
Y3642140D1*
X1979243Y3673257D2*
Y3634955D1*
X1976866Y3627825D1*
X1974490Y3625393D1*
X1969681Y3623017D1*
X1962496D1*
X1957743Y3625393D1*
X1979243Y3666072D2*
X1974490Y3670825D1*
X1969681Y3673257D1*
X1962496D1*
X1957743Y3670825D1*
X1952935Y3666072D1*
X1950558Y3658887D1*
Y3654078D1*
X1952935Y3646948D1*
X1957743Y3642140D1*
X1962496Y3639763D1*
X1969681D1*
X1974490Y3642140D1*
X1979243Y3646948D1*
X1994682Y3675633D2*
Y3642140D1*
Y3666072D2*
X2001867Y3673257D1*
X2006676Y3675633D1*
X2013805D1*
X2018614Y3673257D1*
X2020990Y3666072D1*
Y3642140D1*
X2065115Y3692380D2*
Y3642140D1*
Y3668448D2*
X2060361Y3673257D1*
X2055553Y3675633D1*
X2048368D1*
X2043615Y3673257D1*
X2038806Y3668448D1*
X2036430Y3661263D1*
Y3656510D1*
X2038806Y3649325D1*
X2043615Y3644572D1*
X2048368Y3642140D1*
X2055553D1*
X2060361Y3644572D1*
X2065115Y3649325D1*
X2156807Y3675633D2*
Y3625393D1*
Y3668448D2*
X2161616Y3673201D1*
X2166369Y3675633D1*
X2173554D1*
X2178362Y3673201D1*
X2183116Y3668448D1*
X2185547Y3661263D1*
Y3656455D1*
X2183116Y3649325D1*
X2178362Y3644516D1*
X2173554Y3642140D1*
X2166369D1*
X2161616Y3644516D1*
X2156807Y3649325D1*
X2200987Y3692380D2*
X2203363Y3690003D1*
X2205795Y3692380D1*
X2203363Y3694812D1*
X2200987Y3692380D1*
X2203363Y3675633D2*
Y3642140D1*
X2221234Y3675633D2*
Y3642140D1*
Y3666072D2*
X2228419Y3673257D1*
X2233228Y3675633D1*
X2240358D1*
X2245166Y3673257D1*
X2247543Y3666072D1*
Y3642140D1*
X2379243Y3673257D2*
Y3634955D1*
X2376866Y3627825D1*
X2374490Y3625393D1*
X2369681Y3623017D1*
X2362496D1*
X2357743Y3625393D1*
X2379243Y3666072D2*
X2374490Y3670825D1*
X2369681Y3673257D1*
X2362496D1*
X2357743Y3670825D1*
X2352935Y3666072D1*
X2350558Y3658887D1*
Y3654078D1*
X2352935Y3646948D1*
X2357743Y3642140D1*
X2362496Y3639763D1*
X2369681D1*
X2374490Y3642140D1*
X2379243Y3646948D1*
X2394682Y3675633D2*
Y3642140D1*
Y3666072D2*
X2401867Y3673257D1*
X2406676Y3675633D1*
X2413805D1*
X2418614Y3673257D1*
X2420990Y3666072D1*
Y3642140D1*
X2465115Y3692380D2*
Y3642140D1*
Y3668448D2*
X2460361Y3673257D1*
X2455553Y3675633D1*
X2448368D1*
X2443615Y3673257D1*
X2438806Y3668448D1*
X2436430Y3661263D1*
Y3656510D1*
X2438806Y3649325D1*
X2443615Y3644572D1*
X2448368Y3642140D1*
X2455553D1*
X2460361Y3644572D1*
X2465115Y3649325D1*
X2615807Y3688760D2*
Y3645705D1*
X2594307Y3667205D2*
X2637362D1*
X2800558Y3667232D2*
X2828193D1*
X2988058Y3682763D2*
X2992866Y3685195D1*
X3000051Y3692325D1*
Y3642140D1*
X3196740Y3680386D2*
Y3682763D1*
X3199117Y3687571D1*
X3201494Y3689948D1*
X3206302Y3692325D1*
X3215864D1*
X3220617Y3689948D1*
X3222994Y3687571D1*
X3225425Y3682763D1*
Y3678010D1*
X3222994Y3673201D1*
X3218240Y3666072D1*
X3194309Y3642140D1*
X3227802D1*
X3392866Y3692325D2*
X3419119D1*
X3404805Y3673201D1*
X3411990D1*
X3416743Y3670825D1*
X3419119Y3668448D1*
X3421551Y3661263D1*
Y3656510D1*
X3419119Y3649325D1*
X3414366Y3644516D1*
X3407181Y3642140D1*
X3399996D1*
X3392866Y3644516D1*
X3390490Y3646948D1*
X3388058Y3651702D1*
X3618240Y3642140D2*
Y3692325D1*
X3594309Y3658887D1*
X3630179D1*
X4161055Y3692380D2*
Y3642140D1*
X4144309Y3692380D2*
X4177802D1*
X4193241D2*
X4226735Y3642140D1*
Y3692380D2*
X4193241Y3642140D1*
X4244606Y3680386D2*
Y3682763D1*
X4246982Y3687571D1*
X4249359Y3689948D1*
X4254167Y3692325D1*
X4263729D1*
X4268482Y3689948D1*
X4270859Y3687571D1*
X4273291Y3682763D1*
Y3678010D1*
X4270859Y3673201D1*
X4266106Y3666072D1*
X4242174Y3642140D1*
X4275667D1*
X4331807Y3668448D2*
X4353307D1*
X4360492Y3670880D1*
X4362924Y3673257D1*
X4365301Y3678010D1*
Y3682818D1*
X4362924Y3687571D1*
X4360492Y3690003D1*
X4353307Y3692380D1*
X4331807D1*
Y3642140D1*
X4348554Y3668448D2*
X4365301Y3642140D1*
X4380740Y3692380D2*
X4414233Y3642140D1*
Y3692380D2*
X4380740Y3642140D1*
X4432104Y3680386D2*
Y3682763D1*
X4434481Y3687571D1*
X4436858Y3689948D1*
X4441666Y3692325D1*
X4451228D1*
X4455981Y3689948D1*
X4458357Y3687571D1*
X4460789Y3682763D1*
Y3678010D1*
X4458357Y3673201D1*
X4453604Y3666072D1*
X4429672Y3642140D1*
X4463166D1*
X3761055Y3692380D2*
Y3642140D1*
X3744309Y3692380D2*
X3777802D1*
X3793241D2*
X3826735Y3642140D1*
Y3692380D2*
X3793241Y3642140D1*
X3846982Y3692325D2*
X3873235D1*
X3858920Y3673201D1*
X3866106D1*
X3870859Y3670825D1*
X3873235Y3668448D1*
X3875667Y3661263D1*
Y3656510D1*
X3873235Y3649325D1*
X3868482Y3644516D1*
X3861297Y3642140D1*
X3854112D1*
X3846982Y3644516D1*
X3844606Y3646948D1*
X3842174Y3651702D1*
X3931807Y3668448D2*
X3953307D1*
X3960492Y3670880D1*
X3962924Y3673257D1*
X3965301Y3678010D1*
Y3682818D1*
X3962924Y3687571D1*
X3960492Y3690003D1*
X3953307Y3692380D1*
X3931807D1*
Y3642140D1*
X3948554Y3668448D2*
X3965301Y3642140D1*
X3980740Y3692380D2*
X4014233Y3642140D1*
Y3692380D2*
X3980740Y3642140D1*
X4034481Y3692325D2*
X4060734D1*
X4046419Y3673201D1*
X4053604D1*
X4058357Y3670825D1*
X4060734Y3668448D1*
X4063166Y3661263D1*
Y3656510D1*
X4060734Y3649325D1*
X4055981Y3644516D1*
X4048796Y3642140D1*
X4041611D1*
X4034481Y3644516D1*
X4032104Y3646948D1*
X4029672Y3651702D1*
X4550558Y3682763D2*
X4555366Y3685195D1*
X4562551Y3692325D1*
Y3642140D1*
X4580423Y3680386D2*
Y3682763D1*
X4582799Y3687571D1*
X4585176Y3689948D1*
X4589984Y3692325D1*
X4599546D1*
X4604299Y3689948D1*
X4606676Y3687571D1*
X4609107Y3682763D1*
Y3678010D1*
X4606676Y3673201D1*
X4601922Y3666072D1*
X4577991Y3642140D1*
X4611484D1*
X4626923Y3692380D2*
X4646047Y3642140D1*
X4665170Y3692380D1*
X4702109Y3688760D2*
Y3645705D1*
X4680609Y3667205D2*
X4723664D1*
X4738057Y3682763D2*
X4742865Y3685195D1*
X4750050Y3692325D1*
Y3642140D1*
X4767921Y3680386D2*
Y3682763D1*
X4770298Y3687571D1*
X4772674Y3689948D1*
X4777483Y3692325D1*
X4787045D1*
X4791798Y3689948D1*
X4794174Y3687571D1*
X4796606Y3682763D1*
Y3678010D1*
X4794174Y3673201D1*
X4789421Y3666072D1*
X4765489Y3642140D1*
X4798983D1*
X4814422Y3692380D2*
X4833545Y3642140D1*
X4852668Y3692380D1*
X4868108Y3667232D2*
X4895743D1*
X5415807Y3688760D2*
Y3645705D1*
X5394307Y3667205D2*
X5437362D1*
X5600558Y3667232D2*
X5628193D1*
X5015807Y3688760D2*
Y3645705D1*
X4994307Y3667205D2*
X5037362D1*
X5200558Y3667232D2*
X5228193D1*
X5815807Y3688760D2*
Y3645705D1*
X5794307Y3667205D2*
X5837362D1*
X6000558Y3667232D2*
X6028193D1*
X6215807Y3688760D2*
Y3645705D1*
X6194307Y3667205D2*
X6237362D1*
X6400558Y3667232D2*
X6428193D1*
X6615807Y3688760D2*
Y3645705D1*
X6594307Y3667205D2*
X6637362D1*
X6800558Y3667232D2*
X6828193D1*
X5991799Y2824699D2*
X5986991Y2829507D1*
X5982183Y2831884D1*
X5975053D1*
X5970244Y2829507D1*
X5965491Y2824699D1*
X5963059Y2817514D1*
Y2812761D1*
X5965491Y2805576D1*
X5970244Y2800822D1*
X5975053Y2798391D1*
X5982183D1*
X5986991Y2800822D1*
X5991799Y2805576D1*
X5494309Y2817514D2*
X5522994D1*
Y2822322D1*
X5520617Y2827131D1*
X5518240Y2829507D1*
X5513432Y2831884D1*
X5506247D1*
X5501494Y2829507D1*
X5496685Y2824699D1*
X5494309Y2817514D1*
Y2812761D1*
X5496685Y2805576D1*
X5501494Y2800822D1*
X5506247Y2798391D1*
X5513432D1*
X5518240Y2800822D1*
X5522994Y2805576D1*
X5738058Y2617379D2*
Y2567139D1*
Y2593447D2*
X5742866Y2598255D1*
X5747620Y2600632D1*
X5754805D1*
X5759558Y2598255D1*
X5764366Y2593447D1*
X5766743Y2586262D1*
Y2581509D1*
X5764366Y2574324D1*
X5759558Y2569570D1*
X5754805Y2567139D1*
X5747620D1*
X5742866Y2569570D1*
X5738058Y2574324D1*
X6779298Y2843448D2*
X6774490Y2848257D1*
X6769681Y2850633D1*
X6762551D1*
X6757743Y2848257D1*
X6752990Y2843448D1*
X6750558Y2836263D1*
Y2831510D1*
X6752990Y2824325D1*
X6757743Y2819572D1*
X6762551Y2817140D1*
X6769681D1*
X6774490Y2819572D1*
X6779298Y2824325D1*
X6306809Y2830014D2*
X6335494D1*
Y2834822D1*
X6333117Y2839631D1*
X6330740Y2842007D1*
X6325932Y2844384D1*
X6318747D1*
X6313994Y2842007D1*
X6309185Y2837199D1*
X6306809Y2830014D1*
Y2825261D1*
X6309185Y2818076D1*
X6313994Y2813322D1*
X6318747Y2810891D1*
X6325932D1*
X6330740Y2813322D1*
X6335494Y2818076D1*
X6525558Y2611129D2*
Y2560889D1*
Y2587198D2*
X6530366Y2592006D1*
X6535120Y2594383D1*
X6542305D1*
X6547058Y2592006D1*
X6551866Y2587198D1*
X6554243Y2580012D1*
Y2575259D1*
X6551866Y2568074D1*
X6547058Y2563321D1*
X6542305Y2560889D1*
X6535120D1*
X6530366Y2563321D1*
X6525558Y2568074D1*
X2593390Y3791527D2*
D67*
X2597237Y3793472D1*
X2602985Y3799176D1*
Y3759028D1*
X2993390Y3791527D2*
X2997237Y3793472D1*
X3002985Y3799176D1*
Y3759028D1*
X3393390Y3791527D2*
X3397237Y3793472D1*
X3402985Y3799176D1*
Y3759028D1*
X6193390Y3791527D2*
X6197237Y3793472D1*
X6202985Y3799176D1*
Y3759028D1*
X593390Y591527D2*
X597237Y593472D1*
X602985Y599176D1*
Y559028D1*
X6593390Y3791527D2*
X6597237Y3793472D1*
X6602985Y3799176D1*
Y3759028D1*
X4593390Y3791527D2*
X4597237Y3793472D1*
X4602985Y3799176D1*
Y3759028D1*
X1992540Y1290959D2*
D66*
X2018406D1*
X2026961Y1293811D1*
X2029880Y1296729D1*
X2032732Y1302433D1*
Y1311055D1*
X2029880Y1316758D1*
X2026961Y1319677D1*
X2018406Y1322529D1*
X1992540D1*
Y1262241D1*
X2068503Y1322529D2*
X2062733Y1319677D1*
X2057029Y1313907D1*
X2054111Y1308203D1*
X2051259Y1299581D1*
Y1285188D1*
X2054111Y1276633D1*
X2057029Y1270863D1*
X2062733Y1265159D1*
X2068503Y1262241D1*
X2079977D1*
X2085680Y1265159D1*
X2091451Y1270863D1*
X2094303Y1276633D1*
X2097154Y1285188D1*
Y1299581D1*
X2094303Y1308203D1*
X2091451Y1313907D1*
X2085680Y1319677D1*
X2079977Y1322529D1*
X2068503D1*
X2115682D2*
X2130074Y1262241D1*
X2144400Y1322529D1*
X2158725Y1262241D1*
X2173118Y1322529D1*
X2228919D2*
X2191645D1*
Y1262241D1*
X2228919D1*
X2191645Y1293811D2*
X2214593D1*
X2247446D2*
X2273245D1*
X2281867Y1296729D1*
X2284786Y1299581D1*
X2287638Y1305284D1*
Y1311055D1*
X2284786Y1316758D1*
X2281867Y1319677D1*
X2273245Y1322529D1*
X2247446D1*
Y1262241D1*
X2267542Y1293811D2*
X2287638Y1262241D1*
X3488602D2*
X3465587Y1322529D1*
X3442640Y1262241D1*
X3451262Y1282337D2*
X3479980D1*
X3547321Y1322529D2*
Y1262241D1*
X3507129Y1322529D1*
Y1262241D1*
X3611810D2*
X3588796Y1322529D1*
X3565848Y1262241D1*
X3574470Y1282337D2*
X3603188D1*
X3630337Y1322529D2*
Y1262241D1*
X3664759D1*
X3700530Y1322529D2*
X3694760Y1319677D1*
X3689056Y1313907D1*
X3686138Y1308203D1*
X3683286Y1299581D1*
Y1285188D1*
X3686138Y1276633D1*
X3689056Y1270863D1*
X3694760Y1265159D1*
X3700530Y1262241D1*
X3712004D1*
X3717708Y1265159D1*
X3723478Y1270863D1*
X3726330Y1276633D1*
X3729182Y1285188D1*
Y1299581D1*
X3726330Y1308203D1*
X3723478Y1313907D1*
X3717708Y1319677D1*
X3712004Y1322529D1*
X3700530D1*
X3790753Y1308203D2*
X3787901Y1313907D1*
X3782131Y1319677D1*
X3776427Y1322529D1*
X3764953D1*
X3759183Y1319677D1*
X3753479Y1313907D1*
X3750561Y1308203D1*
X3747709Y1299581D1*
Y1285188D1*
X3750561Y1276633D1*
X3753479Y1270863D1*
X3759183Y1265159D1*
X3764953Y1262241D1*
X3776427D1*
X3782131Y1265159D1*
X3787901Y1270863D1*
X3790753Y1276633D1*
Y1285188D1*
X3776427D1*
X3867601Y1322529D2*
Y1262241D1*
X3926320Y1322529D2*
Y1262241D1*
X3886128Y1322529D1*
Y1262241D1*
X4158333Y1681411D2*
X4218621D1*
Y1701507D1*
X4215703Y1710129D1*
X4209999Y1715899D1*
X4204229Y1718751D1*
X4195673Y1721603D1*
X4181281D1*
X4172659Y1718751D1*
X4166955Y1715899D1*
X4161185Y1710129D1*
X4158333Y1701507D1*
Y1681411D1*
Y1740130D2*
X4218621D1*
X4172659Y1801701D2*
X4166955Y1798849D1*
X4161185Y1793079D1*
X4158333Y1787375D1*
Y1775901D1*
X4161185Y1770131D1*
X4166955Y1764427D1*
X4172659Y1761509D1*
X4181281Y1758657D1*
X4195673D1*
X4204229Y1761509D1*
X4209999Y1764427D1*
X4215703Y1770131D1*
X4218621Y1775901D1*
Y1787375D1*
X4215703Y1793079D1*
X4209999Y1798849D1*
X4204229Y1801701D1*
X4195673D1*
Y1787375D1*
X4158333Y1820228D2*
X4218621D1*
X4158333Y1858851D2*
X4218621D1*
X4158333Y1838755D2*
Y1878947D1*
X4218621Y1943436D2*
X4158333Y1920422D1*
X4218621Y1897474D1*
X4198525Y1906096D2*
Y1934814D1*
X4158333Y1961963D2*
X4218621D1*
Y1996385D1*
X1942815Y2991119D2*
X1968681D1*
X1977236Y2993971D1*
X1980155Y2996889D1*
X1983007Y3002593D1*
Y3011215D1*
X1980155Y3016918D1*
X1977236Y3019837D1*
X1968681Y3022689D1*
X1942815D1*
Y2962401D1*
X2001534Y3022689D2*
X2015926Y2962401D1*
X2030252Y3022689D1*
X2044578Y2962401D1*
X2058970Y3022689D1*
X2123393Y2962401D2*
Y3022689D1*
X2100445Y2962401D1*
X2077497Y3022689D1*
Y2962401D1*
X3185633Y3008363D2*
X3182782Y3014067D1*
X3177011Y3019837D1*
X3171308Y3022689D1*
X3159834D1*
X3154063Y3019837D1*
X3148360Y3014067D1*
X3145441Y3008363D1*
X3142590Y2999741D1*
Y2985348D1*
X3145441Y2976793D1*
X3148360Y2971023D1*
X3154063Y2965319D1*
X3159834Y2962401D1*
X3171308D1*
X3177011Y2965319D1*
X3182782Y2971023D1*
X3185633Y2976793D1*
X3221405Y3022689D2*
X3215634Y3019837D1*
X3209931Y3014067D1*
X3207012Y3008363D1*
X3204161Y2999741D1*
Y2985348D1*
X3207012Y2976793D1*
X3209931Y2971023D1*
X3215634Y2965319D1*
X3221405Y2962401D1*
X3232879D1*
X3238582Y2965319D1*
X3244353Y2971023D1*
X3247204Y2976793D1*
X3250056Y2985348D1*
Y2999741D1*
X3247204Y3008363D1*
X3244353Y3014067D1*
X3238582Y3019837D1*
X3232879Y3022689D1*
X3221405D1*
X3314479Y2962401D2*
Y3022689D1*
X3291531Y2962401D1*
X3268583Y3022689D1*
Y2962401D1*
X3378902D2*
Y3022689D1*
X3355954Y2962401D1*
X3333006Y3022689D1*
Y2962401D1*
X3397429Y3022689D2*
Y2979645D1*
X3400281Y2971023D1*
X3406051Y2965319D1*
X3414673Y2962401D1*
X3420377D1*
X3428999Y2965319D1*
X3434769Y2971023D1*
X3437621Y2979645D1*
Y3022689D1*
X3496340D2*
Y2962401D1*
X3456148Y3022689D1*
Y2962401D1*
X3514867Y3022689D2*
Y2962401D1*
X3576438Y3008363D2*
X3573587Y3014067D1*
X3567816Y3019837D1*
X3562113Y3022689D1*
X3550639D1*
X3544869Y3019837D1*
X3539165Y3014067D1*
X3536246Y3008363D1*
X3533395Y2999741D1*
Y2985348D1*
X3536246Y2976793D1*
X3539165Y2971023D1*
X3544869Y2965319D1*
X3550639Y2962401D1*
X3562113D1*
X3567816Y2965319D1*
X3573587Y2971023D1*
X3576438Y2976793D1*
X3640928Y2962401D2*
X3617913Y3022689D1*
X3594966Y2962401D1*
X3603588Y2982497D2*
X3632306D1*
X3679551Y3022689D2*
Y2962401D1*
X3659455Y3022689D2*
X3699647D1*
X3718174D2*
Y2962401D1*
X3753945Y3022689D2*
X3748175Y3019837D1*
X3742471Y3014067D1*
X3739553Y3008363D1*
X3736701Y2999741D1*
Y2985348D1*
X3739553Y2976793D1*
X3742471Y2971023D1*
X3748175Y2965319D1*
X3753945Y2962401D1*
X3765419D1*
X3771123Y2965319D1*
X3776893Y2971023D1*
X3779745Y2976793D1*
X3782597Y2985348D1*
Y2999741D1*
X3779745Y3008363D1*
X3776893Y3014067D1*
X3771123Y3019837D1*
X3765419Y3022689D1*
X3753945D1*
X3841316D2*
Y2962401D1*
X3801124Y3022689D1*
Y2962401D1*
X993390Y3791527D2*
D67*
X997237Y3793472D1*
X1002985Y3799176D1*
Y3759028D1*
X9093365Y758860D2*
X9097212Y760805D1*
X9102960Y766509D1*
Y726361D1*
X4993390Y3791527D2*
X4997237Y3793472D1*
X5002985Y3799176D1*
Y3759028D1*
X5393390Y3791527D2*
X5397237Y3793472D1*
X5402985Y3799176D1*
Y3759028D1*
X5793390Y3791527D2*
X5797237Y3793472D1*
X5802985Y3799176D1*
Y3759028D1*
X993390Y591527D2*
X997237Y593472D1*
X1002985Y599176D1*
Y559028D1*
X1393390Y591527D2*
X1397237Y593472D1*
X1402985Y599176D1*
Y559028D1*
X1793365Y758860D2*
X1797212Y760805D1*
X1802960Y766509D1*
Y726361D1*
X1393390Y3791527D2*
X1397237Y3793472D1*
X1402985Y3799176D1*
Y3759028D1*
X6793390Y591527D2*
X6797237Y593472D1*
X6802985Y599176D1*
Y559028D1*
X5593365Y758860D2*
X5597212Y760805D1*
X5602960Y766509D1*
Y726361D1*
X6193365Y758860D2*
X6197212Y760805D1*
X6202960Y766509D1*
Y726361D1*
X7193390Y591527D2*
X7197237Y593472D1*
X7202985Y599176D1*
Y559028D1*
X7593390Y591527D2*
X7597237Y593472D1*
X7602985Y599176D1*
Y559028D1*
X7993390Y591527D2*
X7997237Y593472D1*
X8002985Y599176D1*
Y559028D1*
X2393365Y758860D2*
X2397212Y760805D1*
X2402960Y766509D1*
Y726361D1*
X593390Y3791527D2*
X597237Y3793472D1*
X602985Y3799176D1*
Y3759028D1*
X1793390Y3791527D2*
X1797237Y3793472D1*
X1802985Y3799176D1*
Y3759028D1*
X2193390Y3791527D2*
X2197237Y3793472D1*
X2202985Y3799176D1*
Y3759028D1*
X3793390Y3791527D2*
X3797237Y3793472D1*
X3802985Y3799176D1*
Y3759028D1*
X4193390Y3791527D2*
X4197237Y3793472D1*
X4202985Y3799176D1*
Y3759028D1*
X9693390Y591527D2*
X9697237Y593472D1*
X9702985Y599176D1*
Y559028D1*
X10093390Y591527D2*
X10097237Y593472D1*
X10102985Y599176D1*
Y559028D1*
X2993365Y758860D2*
X2997212Y760805D1*
X3002960Y766509D1*
Y726361D1*
X3593365Y758860D2*
X3597212Y760805D1*
X3602960Y766509D1*
Y726361D1*
X4193365Y758860D2*
X4197212Y760805D1*
X4202960Y766509D1*
Y726361D1*
X4793390Y591527D2*
X4797237Y593472D1*
X4802985Y599176D1*
Y559028D1*
X5193390Y591527D2*
X5197237Y593472D1*
X5202985Y599176D1*
Y559028D1*
M02*
