G04 DipTrace 3.3.1.3*
G04 TopDimension.gbr*
%MOIN*%
G04 #@! TF.FileFunction,Drawing,Top*
G04 #@! TF.Part,Single*
%ADD13C,0.001378*%
%ADD63C,0.006176*%
%FSLAX26Y26*%
G04*
G70*
G90*
G75*
G01*
G04 TopDimension*
%LPD*%
X1413058Y2667979D2*
D13*
X1093373D1*
X1413058Y1667979D2*
X1093373D1*
X1113058Y2167979D2*
Y2628609D1*
G36*
Y2667979D2*
X1120932Y2628609D1*
X1105184D1*
X1113058Y2667979D1*
G37*
Y2167979D2*
D13*
Y1707349D1*
G36*
Y1667979D2*
X1105184Y1707349D1*
X1120932D1*
X1113058Y1667979D1*
G37*
X8413058Y2667979D2*
D13*
X8155873D1*
X8413058Y1667979D2*
X8155873D1*
X8175558Y2167979D2*
Y2628609D1*
G36*
Y2667979D2*
X8183432Y2628609D1*
X8167684D1*
X8175558Y2667979D1*
G37*
Y2167979D2*
D13*
Y1707349D1*
G36*
Y1667979D2*
X8167684Y1707349D1*
X8183432D1*
X8175558Y1667979D1*
G37*
X3125558Y2492979D2*
D13*
Y2348294D1*
X3250558Y2492979D2*
Y2348294D1*
X3125558Y2367979D2*
X3250558D1*
X3066503D2*
X3086188D1*
G36*
X3125558D2*
X3086188Y2360105D1*
Y2375853D1*
X3125558Y2367979D1*
G37*
X3309613D2*
D13*
X3289928D1*
G36*
X3250558D2*
X3289928Y2375853D1*
Y2360105D1*
X3250558Y2367979D1*
G37*
X393701Y393701D2*
D13*
Y-651706D1*
X11683399Y393701D2*
Y-651706D1*
X6038550Y-632021D2*
X433071D1*
G36*
X393701D2*
X433071Y-624147D1*
Y-639895D1*
X393701Y-632021D1*
G37*
X6038550D2*
D13*
X11644029D1*
G36*
X11683399D2*
X11644029Y-639895D1*
Y-624147D1*
X11683399Y-632021D1*
G37*
Y4177690D2*
D13*
X12432743D1*
X11683399Y393701D2*
X12432743D1*
X12413058Y2285696D2*
Y4138320D1*
G36*
Y4177690D2*
X12420932Y4138320D1*
X12405184D1*
X12413058Y4177690D1*
G37*
Y2285696D2*
D13*
Y433071D1*
G36*
Y393701D2*
X12405184Y433071D1*
X12420932D1*
X12413058Y393701D1*
G37*
X1070250Y2111419D2*
D63*
X1068348D1*
X1064502Y2113320D1*
X1062600Y2115222D1*
X1060699Y2119069D1*
Y2126718D1*
X1062600Y2130520D1*
X1064502Y2132422D1*
X1068348Y2134367D1*
X1072151D1*
X1075998Y2132422D1*
X1081702Y2128619D1*
X1100847Y2109474D1*
Y2136268D1*
X1060699Y2171568D2*
Y2152467D1*
X1077899Y2150565D1*
X1075998Y2152467D1*
X1074052Y2158215D1*
Y2163918D1*
X1075998Y2169666D1*
X1079800Y2173513D1*
X1085548Y2175414D1*
X1089351D1*
X1095099Y2173513D1*
X1098946Y2169666D1*
X1100847Y2163918D1*
Y2158215D1*
X1098946Y2152467D1*
X1097000Y2150565D1*
X1093198Y2148620D1*
X1097000Y2189667D2*
X1098946Y2187766D1*
X1100847Y2189667D1*
X1098946Y2191613D1*
X1097000Y2189667D1*
X1100847Y2223109D2*
X1060699D1*
X1087450Y2203964D1*
Y2232660D1*
X8132750Y2111419D2*
X8130848D1*
X8127002Y2113320D1*
X8125100Y2115222D1*
X8123199Y2119069D1*
Y2126718D1*
X8125100Y2130520D1*
X8127002Y2132422D1*
X8130848Y2134367D1*
X8134651D1*
X8138498Y2132422D1*
X8144202Y2128619D1*
X8163347Y2109474D1*
Y2136268D1*
X8123199Y2171568D2*
Y2152467D1*
X8140399Y2150565D1*
X8138498Y2152467D1*
X8136552Y2158215D1*
Y2163918D1*
X8138498Y2169666D1*
X8142300Y2173513D1*
X8148048Y2175414D1*
X8151851D1*
X8157599Y2173513D1*
X8161446Y2169666D1*
X8163347Y2163918D1*
Y2158215D1*
X8161446Y2152467D1*
X8159500Y2150565D1*
X8155698Y2148620D1*
X8159500Y2189667D2*
X8161446Y2187766D1*
X8163347Y2189667D1*
X8161446Y2191613D1*
X8159500Y2189667D1*
X8163347Y2223109D2*
X8123199D1*
X8149950Y2203964D1*
Y2232660D1*
X3142950Y2420338D2*
X3163952D1*
X3152500Y2405039D1*
X3158248D1*
X3162051Y2403138D1*
X3163952Y2401236D1*
X3165898Y2395488D1*
Y2391686D1*
X3163952Y2385938D1*
X3160150Y2382091D1*
X3154402Y2380190D1*
X3148654D1*
X3142950Y2382091D1*
X3141049Y2384037D1*
X3139103Y2387839D1*
X3180150Y2384037D2*
X3178249Y2382091D1*
X3180150Y2380190D1*
X3182096Y2382091D1*
X3180150Y2384037D1*
X3194447Y2412688D2*
X3198294Y2414634D1*
X3204042Y2420338D1*
Y2380190D1*
X3224043D2*
X3243188Y2420338D1*
X3216393D1*
X5945762Y-589213D2*
Y-587312D1*
X5947664Y-583465D1*
X5949565Y-581564D1*
X5953412Y-579662D1*
X5961061D1*
X5964863Y-581564D1*
X5966765Y-583465D1*
X5968710Y-587312D1*
Y-591114D1*
X5966765Y-594961D1*
X5962962Y-600665D1*
X5943817Y-619810D1*
X5970611D1*
X5992513Y-579662D2*
X5986810Y-581564D1*
X5984864Y-585366D1*
Y-589213D1*
X5986810Y-593016D1*
X5990612Y-594961D1*
X5998261Y-596862D1*
X6004009Y-598764D1*
X6007812Y-602610D1*
X6009713Y-606413D1*
Y-612161D1*
X6007812Y-615963D1*
X6005911Y-617909D1*
X6000163Y-619810D1*
X5992513D1*
X5986810Y-617909D1*
X5984864Y-615963D1*
X5982963Y-612161D1*
Y-606413D1*
X5984864Y-602610D1*
X5988711Y-598764D1*
X5994415Y-596862D1*
X6002064Y-594961D1*
X6005911Y-593016D1*
X6007812Y-589213D1*
Y-585366D1*
X6005911Y-581564D1*
X6000163Y-579662D1*
X5992513D1*
X6045013Y-585366D2*
X6043111Y-581564D1*
X6037363Y-579662D1*
X6033561D1*
X6027813Y-581564D1*
X6023966Y-587312D1*
X6022065Y-596862D1*
Y-606413D1*
X6023966Y-614062D1*
X6027813Y-617909D1*
X6033561Y-619810D1*
X6035462D1*
X6041166Y-617909D1*
X6045013Y-614062D1*
X6046914Y-608314D1*
Y-606413D1*
X6045013Y-600665D1*
X6041166Y-596862D1*
X6035462Y-594961D1*
X6033561D1*
X6027813Y-596862D1*
X6023966Y-600665D1*
X6022065Y-606413D1*
X6061167Y-615963D2*
X6059265Y-617909D1*
X6061167Y-619810D1*
X6063112Y-617909D1*
X6061167Y-615963D1*
X6083113Y-619810D2*
X6102258Y-579662D1*
X6075463D1*
X6137557Y-585366D2*
X6135656Y-581564D1*
X6129908Y-579662D1*
X6126106D1*
X6120358Y-581564D1*
X6116511Y-587312D1*
X6114609Y-596862D1*
Y-606413D1*
X6116511Y-614062D1*
X6120358Y-617909D1*
X6126106Y-619810D1*
X6128007D1*
X6133711Y-617909D1*
X6137557Y-614062D1*
X6139459Y-608314D1*
Y-606413D1*
X6137557Y-600665D1*
X6133711Y-596862D1*
X6128007Y-594961D1*
X6126106D1*
X6120358Y-596862D1*
X6116511Y-600665D1*
X6114609Y-606413D1*
X12452063Y2318807D2*
X12446315Y2320752D1*
X12442468Y2324555D1*
X12440567Y2330303D1*
Y2332204D1*
X12442468Y2337952D1*
X12446315Y2341754D1*
X12452063Y2343700D1*
X12453964D1*
X12459712Y2341754D1*
X12463515Y2337952D1*
X12465416Y2332204D1*
Y2330303D1*
X12463515Y2324555D1*
X12459712Y2320752D1*
X12452063Y2318807D1*
X12442468D1*
X12432918Y2320752D1*
X12427170Y2324555D1*
X12425269Y2330303D1*
Y2334105D1*
X12427170Y2339853D1*
X12431017Y2341754D1*
X12459712Y2283507D2*
X12463515Y2285409D1*
X12465416Y2291157D1*
Y2294959D1*
X12463515Y2300707D1*
X12457767Y2304554D1*
X12448216Y2306455D1*
X12438666D1*
X12431017Y2304554D1*
X12427170Y2300707D1*
X12425269Y2294959D1*
Y2293058D1*
X12427170Y2287354D1*
X12431017Y2283507D1*
X12436765Y2281606D1*
X12438666D1*
X12444414Y2283507D1*
X12448216Y2287354D1*
X12450118Y2293058D1*
Y2294959D1*
X12448216Y2300707D1*
X12444414Y2304554D1*
X12438666Y2306455D1*
X12429115Y2267353D2*
X12427170Y2269255D1*
X12425269Y2267353D1*
X12427170Y2265408D1*
X12429115Y2267353D1*
X12457767Y2253056D2*
X12459712Y2249210D1*
X12465416Y2243462D1*
X12425269D1*
X12457767Y2231110D2*
X12459712Y2227263D1*
X12465416Y2221515D1*
X12425269D1*
M02*
