G04 DipTrace 3.3.1.3*
G04 TopSilk.gbr*
%MOIN*%
G04 #@! TF.FileFunction,Legend,Top*
G04 #@! TF.Part,Single*
%ADD10C,0.009843*%
%ADD20C,0.005*%
%ADD60C,0.00772*%
%FSLAX26Y26*%
G04*
G70*
G90*
G75*
G01*
G04 TopSilk*
%LPD*%
X2494948Y3738058D2*
D20*
Y4033333D1*
X2514625D1*
X2908333D1*
Y3738058D1*
X2514625D1*
X2494948D1*
X2514625Y4033333D2*
Y3738058D1*
X2894948D2*
Y4033333D1*
X2914625D1*
X3308333D1*
Y3738058D1*
X2914625D1*
X2894948D1*
X2914625Y4033333D2*
Y3738058D1*
X3294948D2*
Y4033333D1*
X3314625D1*
X3708333D1*
Y3738058D1*
X3314625D1*
X3294948D1*
X3314625Y4033333D2*
Y3738058D1*
X6094948D2*
Y4033333D1*
X6114625D1*
X6508333D1*
Y3738058D1*
X6114625D1*
X6094948D1*
X6114625Y4033333D2*
Y3738058D1*
X494948Y538058D2*
Y833333D1*
X514625D1*
X908333D1*
Y538058D1*
X514625D1*
X494948D1*
X514625Y833333D2*
Y538058D1*
X6494948Y3738058D2*
Y4033333D1*
X6514625D1*
X6908333D1*
Y3738058D1*
X6514625D1*
X6494948D1*
X6514625Y4033333D2*
Y3738058D1*
X4494948D2*
Y4033333D1*
X4514625D1*
X4908333D1*
Y3738058D1*
X4514625D1*
X4494948D1*
X4514625Y4033333D2*
Y3738058D1*
X587958Y3192979D2*
D10*
Y1092979D1*
Y3192979D2*
X4387883D1*
X4588058Y2593009D2*
Y1242919D1*
X4488183Y1092979D2*
X587958D1*
X4588058Y1242919D2*
X4488183Y1142959D1*
Y1092979D2*
Y1142959D1*
X4588058Y2593009D2*
X4488183Y2692969D1*
Y3093019D1*
X4387883Y3192979D1*
X894948Y3738058D2*
D20*
Y4033333D1*
X914625D1*
X1308333D1*
Y3738058D1*
X914625D1*
X894948D1*
X914625Y4033333D2*
Y3738058D1*
X5538058Y3282979D2*
D10*
X5388058D1*
Y3202979D1*
X5538058D2*
X5388058D1*
X5414308Y3282979D2*
Y3202979D1*
X5538058D2*
Y3282979D1*
X8994948Y538058D2*
D20*
Y833333D1*
X9014658D1*
X9605184D1*
Y538058D1*
X9014658D1*
X8994948D1*
X9014658Y833333D2*
Y538058D1*
X4894948Y3738058D2*
Y4033333D1*
X4914625D1*
X5308333D1*
Y3738058D1*
X4914625D1*
X4894948D1*
X4914625Y4033333D2*
Y3738058D1*
X5294948D2*
Y4033333D1*
X5314625D1*
X5708333D1*
Y3738058D1*
X5314625D1*
X5294948D1*
X5314625Y4033333D2*
Y3738058D1*
X5694948D2*
Y4033333D1*
X5714625D1*
X6108333D1*
Y3738058D1*
X5714625D1*
X5694948D1*
X5714625Y4033333D2*
Y3738058D1*
X894948Y538058D2*
Y833333D1*
X914625D1*
X1308333D1*
Y538058D1*
X914625D1*
X894948D1*
X914625Y833333D2*
Y538058D1*
X1294948D2*
Y833333D1*
X1314625D1*
X1708333D1*
Y538058D1*
X1314625D1*
X1294948D1*
X1314625Y833333D2*
Y538058D1*
X1694948D2*
Y833333D1*
X1714658D1*
X2305184D1*
Y538058D1*
X1714658D1*
X1694948D1*
X1714658Y833333D2*
Y538058D1*
X1294948Y3738058D2*
Y4033333D1*
X1314625D1*
X1708333D1*
Y3738058D1*
X1314625D1*
X1294948D1*
X1314625Y4033333D2*
Y3738058D1*
X4788238Y3092979D2*
D10*
X4987878D1*
Y2992979D2*
Y3092979D1*
X4788238Y2992979D2*
X4987878D1*
X4788238D2*
Y3092979D1*
X5538058Y2957979D2*
X5388058D1*
Y2877979D1*
X5538058D2*
X5388058D1*
X5414308Y2957979D2*
Y2877979D1*
X5538058D2*
Y2957979D1*
X6694948Y538058D2*
D20*
Y833333D1*
X6714625D1*
X7108333D1*
Y538058D1*
X6714625D1*
X6694948D1*
X6714625Y833333D2*
Y538058D1*
X5494948D2*
Y833333D1*
X5514658D1*
X6105184D1*
Y538058D1*
X5514658D1*
X5494948D1*
X5514658Y833333D2*
Y538058D1*
X6094948D2*
Y833333D1*
X6114658D1*
X6705184D1*
Y538058D1*
X6114658D1*
X6094948D1*
X6114658Y833333D2*
Y538058D1*
X7094948D2*
Y833333D1*
X7114625D1*
X7508333D1*
Y538058D1*
X7114625D1*
X7094948D1*
X7114625Y833333D2*
Y538058D1*
X7494948D2*
Y833333D1*
X7514625D1*
X7908333D1*
Y538058D1*
X7514625D1*
X7494948D1*
X7514625Y833333D2*
Y538058D1*
X7894948D2*
Y833333D1*
X7914625D1*
X8308333D1*
Y538058D1*
X7914625D1*
X7894948D1*
X7914625Y833333D2*
Y538058D1*
X2294948D2*
Y833333D1*
X2314658D1*
X2905184D1*
Y538058D1*
X2314658D1*
X2294948D1*
X2314658Y833333D2*
Y538058D1*
X6960691Y1316404D2*
D10*
Y2119554D1*
X7165424D2*
X6960691D1*
X7165424Y1316404D2*
Y2119554D1*
Y1316404D2*
X7086684D1*
X6960691D2*
X7039432D1*
X7086684D2*
G03X7039432Y1316404I-23626J-13D01*
G01*
X9513058Y1467799D2*
Y1268159D1*
X9413058D2*
X9513058D1*
X9413058Y1467799D2*
Y1268159D1*
Y1467799D2*
X9513058D1*
X9388058D2*
Y1268159D1*
X9288058D2*
X9388058D1*
X9288058Y1467799D2*
Y1268159D1*
Y1467799D2*
X9388058D1*
X9638058D2*
Y1268159D1*
X9538058D2*
X9638058D1*
X9538058Y1467799D2*
Y1268159D1*
Y1467799D2*
X9638058D1*
X9763058D2*
Y1268159D1*
X9663058D2*
X9763058D1*
X9663058Y1467799D2*
Y1268159D1*
Y1467799D2*
X9763058D1*
X9888058D2*
Y1268159D1*
X9788058D2*
X9888058D1*
X9788058Y1467799D2*
Y1268159D1*
Y1467799D2*
X9888058D1*
X10013058D2*
Y1268159D1*
X9913058D2*
X10013058D1*
X9913058Y1467799D2*
Y1268159D1*
Y1467799D2*
X10013058D1*
X4987878Y2842979D2*
X4788238D1*
Y2942979D2*
Y2842979D1*
X4987878Y2942979D2*
X4788238D1*
X4987878D2*
Y2842979D1*
X5018521Y1761399D2*
X4818881D1*
Y1861399D2*
Y1761399D1*
X5018521Y1861399D2*
X4818881D1*
X5018521D2*
Y1761399D1*
Y1636399D2*
X4818881D1*
Y1736399D2*
Y1636399D1*
X5018521Y1736399D2*
X4818881D1*
X5018521D2*
Y1636399D1*
Y1511399D2*
X4818881D1*
Y1611399D2*
Y1511399D1*
X5018521Y1611399D2*
X4818881D1*
X5018521D2*
Y1511399D1*
X5878281Y3444881D2*
X5858591Y3464570D1*
X5897971D2*
X5878281Y3484259D1*
X5858591Y3464570D1*
X5849156Y3367935D2*
G02X5849156Y3367935I113949J0D01*
G01*
X4678281Y3494881D2*
X4658591Y3514570D1*
X4697971D2*
X4678281Y3534259D1*
X4658591Y3514570D1*
X4649156Y3417935D2*
G02X4649156Y3417935I113949J0D01*
G01*
X5963058Y1367799D2*
Y1168159D1*
X5863058D2*
X5963058D1*
X5863058Y1367799D2*
Y1168159D1*
Y1367799D2*
X5963058D1*
X6063058D2*
Y1168159D1*
X5963058D2*
X6063058D1*
X5963058Y1367799D2*
Y1168159D1*
Y1367799D2*
X6063058D1*
X494948Y3738058D2*
D20*
Y4033333D1*
X514625D1*
X908333D1*
Y3738058D1*
X514625D1*
X494948D1*
X514625Y4033333D2*
Y3738058D1*
X1694948D2*
Y4033333D1*
X1714625D1*
X2108333D1*
Y3738058D1*
X1714625D1*
X1694948D1*
X1714625Y4033333D2*
Y3738058D1*
X2094948D2*
Y4033333D1*
X2114625D1*
X2508333D1*
Y3738058D1*
X2114625D1*
X2094948D1*
X2114625Y4033333D2*
Y3738058D1*
X3694948D2*
Y4033333D1*
X3714625D1*
X4108333D1*
Y3738058D1*
X3714625D1*
X3694948D1*
X3714625Y4033333D2*
Y3738058D1*
X4094948D2*
Y4033333D1*
X4114625D1*
X4508333D1*
Y3738058D1*
X4114625D1*
X4094948D1*
X4114625Y4033333D2*
Y3738058D1*
X9594948Y538058D2*
Y833333D1*
X9614625D1*
X10008333D1*
Y538058D1*
X9614625D1*
X9594948D1*
X9614625Y833333D2*
Y538058D1*
X9994948D2*
Y833333D1*
X10014625D1*
X10408333D1*
Y538058D1*
X10014625D1*
X9994948D1*
X10014625Y833333D2*
Y538058D1*
X2894948D2*
Y833333D1*
X2914658D1*
X3505184D1*
Y538058D1*
X2914658D1*
X2894948D1*
X2914658Y833333D2*
Y538058D1*
X3494948D2*
Y833333D1*
X3514658D1*
X4105184D1*
Y538058D1*
X3514658D1*
X3494948D1*
X3514658Y833333D2*
Y538058D1*
X4094948D2*
Y833333D1*
X4114658D1*
X4705184D1*
Y538058D1*
X4114658D1*
X4094948D1*
X4114658Y833333D2*
Y538058D1*
X4694948D2*
Y833333D1*
X4714625D1*
X5108333D1*
Y538058D1*
X4714625D1*
X4694948D1*
X4714625Y833333D2*
Y538058D1*
X5094948D2*
Y833333D1*
X5114625D1*
X5508333D1*
Y538058D1*
X5114625D1*
X5094948D1*
X5114625Y833333D2*
Y538058D1*
X2597779Y4089810D2*
D60*
Y4039570D1*
Y4082625D2*
X2602587Y4087378D1*
X2607340Y4089810D1*
X2614525D1*
X2619334Y4087378D1*
X2624087Y4082625D1*
X2626519Y4075440D1*
Y4070631D1*
X2624087Y4063501D1*
X2619334Y4058693D1*
X2614525Y4056316D1*
X2607340D1*
X2602587Y4058693D1*
X2597779Y4063501D1*
X2653896Y4089810D2*
X2649143Y4087433D1*
X2644335Y4082625D1*
X2641958Y4075440D1*
Y4070686D1*
X2644335Y4063501D1*
X2649143Y4058748D1*
X2653896Y4056316D1*
X2661081D1*
X2665890Y4058748D1*
X2670643Y4063501D1*
X2673075Y4070686D1*
Y4075440D1*
X2670643Y4082625D1*
X2665890Y4087433D1*
X2661081Y4089810D1*
X2653896D1*
X2688514D2*
X2698076Y4056316D1*
X2707637Y4089810D1*
X2717199Y4056316D1*
X2726760Y4089810D1*
X2742200Y4075440D2*
X2770885D1*
Y4080248D1*
X2768508Y4085057D1*
X2766131Y4087433D1*
X2761323Y4089810D1*
X2754138D1*
X2749385Y4087433D1*
X2744576Y4082625D1*
X2742200Y4075440D1*
Y4070686D1*
X2744576Y4063501D1*
X2749385Y4058748D1*
X2754138Y4056316D1*
X2761323D1*
X2766131Y4058748D1*
X2770885Y4063501D1*
X2786324Y4089810D2*
Y4056316D1*
Y4075440D2*
X2788756Y4082625D1*
X2793509Y4087433D1*
X2798317Y4089810D1*
X2805502D1*
X3041930Y4096940D2*
X3046739Y4099371D1*
X3053924Y4106501D1*
Y4056316D1*
X3090863Y4102936D2*
Y4059881D1*
X3069363Y4081381D2*
X3112418D1*
X3130289Y4094563D2*
Y4096940D1*
X3132666Y4101748D1*
X3135042Y4104125D1*
X3139851Y4106501D1*
X3149412D1*
X3154166Y4104125D1*
X3156542Y4101748D1*
X3158974Y4096940D1*
Y4092186D1*
X3156542Y4087378D1*
X3151789Y4080248D1*
X3127857Y4056316D1*
X3161351D1*
X3434801Y4106501D2*
X3461054D1*
X3446739Y4087378D1*
X3453924D1*
X3458677Y4085001D1*
X3461054Y4082625D1*
X3463485Y4075440D1*
Y4070686D1*
X3461054Y4063501D1*
X3456300Y4058693D1*
X3449115Y4056316D1*
X3441930D1*
X3434801Y4058693D1*
X3432424Y4061125D1*
X3429992Y4065878D1*
X3500424Y4102936D2*
Y4059881D1*
X3478925Y4081381D2*
X3521980D1*
X3561351Y4056316D2*
Y4106501D1*
X3537419Y4073063D1*
X3573289D1*
X6189986Y4106556D2*
Y4056316D1*
X6218670D1*
X6255609Y4102936D2*
Y4059881D1*
X6234110Y4081381D2*
X6277165D1*
X6292604Y4056316D2*
X6326097Y4106501D1*
X6341536Y4106556D2*
Y4056316D1*
X6370221D1*
X6385661Y4081409D2*
X6413295D1*
X611485Y906501D2*
X587609D1*
X585232Y885001D1*
X587609Y887378D1*
X594794Y889810D1*
X601924D1*
X609109Y887378D1*
X613917Y882625D1*
X616294Y875440D1*
Y870686D1*
X613917Y863501D1*
X609109Y858693D1*
X601924Y856316D1*
X594794D1*
X587609Y858693D1*
X585232Y861125D1*
X582800Y865878D1*
X631733Y906556D2*
X650856Y856316D1*
X669980Y906556D1*
X706919Y902936D2*
Y859881D1*
X685419Y881381D2*
X728474D1*
X743913Y856316D2*
X777406Y906501D1*
X792846Y881409D2*
X820480D1*
X6585177Y4082625D2*
X6606677D1*
X6613862Y4085057D1*
X6616294Y4087433D1*
X6618670Y4092186D1*
Y4096995D1*
X6616294Y4101748D1*
X6613862Y4104180D1*
X6606677Y4106556D1*
X6585177D1*
Y4056316D1*
X6601924Y4082625D2*
X6618670Y4056316D1*
X6655609Y4102936D2*
Y4059881D1*
X6634110Y4081381D2*
X6677165D1*
X6692604Y4056316D2*
X6726097Y4106501D1*
X6741536Y4082625D2*
X6763036D1*
X6770221Y4085057D1*
X6772653Y4087433D1*
X6775030Y4092186D1*
Y4096995D1*
X6772653Y4101748D1*
X6770221Y4104180D1*
X6763036Y4106556D1*
X6741536D1*
Y4056316D1*
X6758283Y4082625D2*
X6775030Y4056316D1*
X6790469Y4081409D2*
X6818104D1*
X4618118Y4106556D2*
X4620494Y4104180D1*
X4622926Y4106556D1*
X4620494Y4108988D1*
X4618118Y4106556D1*
X4620494Y4089810D2*
Y4056316D1*
X4638365Y4089810D2*
Y4056316D1*
Y4080248D2*
X4645550Y4087433D1*
X4650359Y4089810D1*
X4657489D1*
X4662297Y4087433D1*
X4664674Y4080248D1*
Y4056316D1*
X4680113Y4089810D2*
Y4039570D1*
Y4082625D2*
X4684921Y4087378D1*
X4689675Y4089810D1*
X4696860D1*
X4701668Y4087378D1*
X4706421Y4082625D1*
X4708853Y4075440D1*
Y4070631D1*
X4706421Y4063501D1*
X4701668Y4058693D1*
X4696860Y4056316D1*
X4689675D1*
X4684921Y4058693D1*
X4680113Y4063501D1*
X4724292Y4089810D2*
Y4065878D1*
X4726669Y4058748D1*
X4731477Y4056316D1*
X4738662D1*
X4743416Y4058748D1*
X4750601Y4065878D1*
Y4089810D2*
Y4056316D1*
X4773225Y4106556D2*
Y4065878D1*
X4775602Y4058748D1*
X4780410Y4056316D1*
X4785163D1*
X4766040Y4089810D2*
X4782787D1*
X864844Y4106556D2*
X867220Y4104180D1*
X869652Y4106556D1*
X867220Y4108988D1*
X864844Y4106556D1*
X867220Y4089810D2*
Y4056316D1*
X885092Y4089810D2*
Y4056316D1*
Y4080248D2*
X892277Y4087433D1*
X897085Y4089810D1*
X904215D1*
X909023Y4087433D1*
X911400Y4080248D1*
Y4056316D1*
X953147Y4082625D2*
X950771Y4087433D1*
X943586Y4089810D1*
X936401D1*
X929216Y4087433D1*
X926839Y4082625D1*
X929216Y4077872D1*
X934024Y4075440D1*
X945962Y4073063D1*
X950771Y4070686D1*
X953147Y4065878D1*
Y4063501D1*
X950771Y4058748D1*
X943586Y4056316D1*
X936401D1*
X929216Y4058748D1*
X926839Y4063501D1*
X968587Y4106556D2*
X970963Y4104180D1*
X973395Y4106556D1*
X970963Y4108988D1*
X968587Y4106556D1*
X970963Y4089810D2*
Y4056316D1*
X1017519Y4106556D2*
Y4056316D1*
Y4082625D2*
X1012766Y4087433D1*
X1007958Y4089810D1*
X1000773D1*
X996019Y4087433D1*
X991211Y4082625D1*
X988834Y4075440D1*
Y4070686D1*
X991211Y4063501D1*
X996019Y4058748D1*
X1000773Y4056316D1*
X1007958D1*
X1012766Y4058748D1*
X1017519Y4063501D1*
X1032959Y4075440D2*
X1061643D1*
Y4080248D1*
X1059267Y4085057D1*
X1056890Y4087433D1*
X1052082Y4089810D1*
X1044897D1*
X1040144Y4087433D1*
X1035335Y4082625D1*
X1032959Y4075440D1*
Y4070686D1*
X1035335Y4063501D1*
X1040144Y4058748D1*
X1044897Y4056316D1*
X1052082D1*
X1056890Y4058748D1*
X1061643Y4063501D1*
X1077083Y4048026D2*
X1122514D1*
X1164262Y4082625D2*
X1161885Y4087433D1*
X1154700Y4089810D1*
X1147515D1*
X1140330Y4087433D1*
X1137953Y4082625D1*
X1140330Y4077872D1*
X1145138Y4075440D1*
X1157077Y4073063D1*
X1161885Y4070686D1*
X1164262Y4065878D1*
Y4063501D1*
X1161885Y4058748D1*
X1154700Y4056316D1*
X1147515D1*
X1140330Y4058748D1*
X1137953Y4063501D1*
X1191639Y4089810D2*
X1186886Y4087433D1*
X1182078Y4082625D1*
X1179701Y4075440D1*
Y4070686D1*
X1182078Y4063501D1*
X1186886Y4058748D1*
X1191639Y4056316D1*
X1198824D1*
X1203633Y4058748D1*
X1208386Y4063501D1*
X1210818Y4070686D1*
Y4075440D1*
X1208386Y4082625D1*
X1203633Y4087433D1*
X1198824Y4089810D1*
X1191639D1*
X1226257D2*
Y4065878D1*
X1228634Y4058748D1*
X1233442Y4056316D1*
X1240627D1*
X1245380Y4058748D1*
X1252565Y4065878D1*
Y4089810D2*
Y4056316D1*
X1268005Y4089810D2*
Y4056316D1*
Y4080248D2*
X1275190Y4087433D1*
X1279998Y4089810D1*
X1287128D1*
X1291936Y4087433D1*
X1294313Y4080248D1*
Y4056316D1*
X1338437Y4106556D2*
Y4056316D1*
Y4082625D2*
X1333684Y4087433D1*
X1328875Y4089810D1*
X1321690D1*
X1316937Y4087433D1*
X1312129Y4082625D1*
X1309752Y4075440D1*
Y4070686D1*
X1312129Y4063501D1*
X1316937Y4058748D1*
X1321690Y4056316D1*
X1328875D1*
X1333684Y4058748D1*
X1338437Y4063501D1*
X9248066Y896940D2*
X9252874Y899371D1*
X9260059Y906501D1*
Y856316D1*
X9275498Y881409D2*
X9303133D1*
X9323381Y906501D2*
X9349634D1*
X9335319Y887378D1*
X9342504D1*
X9347257Y885001D1*
X9349634Y882625D1*
X9352066Y875440D1*
Y870686D1*
X9349634Y863501D1*
X9344881Y858693D1*
X9337696Y856316D1*
X9330511D1*
X9323381Y858693D1*
X9321004Y861125D1*
X9318572Y865878D1*
X4969084Y4096940D2*
X4973893Y4099371D1*
X4981078Y4106501D1*
Y4056316D1*
X4998949Y4094563D2*
Y4096940D1*
X5001325Y4101748D1*
X5003702Y4104125D1*
X5008510Y4106501D1*
X5018072D1*
X5022825Y4104125D1*
X5025202Y4101748D1*
X5027634Y4096940D1*
Y4092186D1*
X5025202Y4087378D1*
X5020449Y4080248D1*
X4996517Y4056316D1*
X5030010D1*
X5045449Y4106556D2*
X5064573Y4056316D1*
X5083696Y4106556D1*
X5120635Y4102936D2*
Y4059881D1*
X5099135Y4081381D2*
X5142190D1*
X5157629Y4056316D2*
X5191123Y4106501D1*
X5206562Y4081409D2*
X5234197D1*
X5323182Y4096940D2*
X5327990Y4099371D1*
X5335175Y4106501D1*
Y4056316D1*
X5353046Y4094563D2*
Y4096940D1*
X5355423Y4101748D1*
X5357800Y4104125D1*
X5362608Y4106501D1*
X5372170D1*
X5376923Y4104125D1*
X5379299Y4101748D1*
X5381731Y4096940D1*
Y4092186D1*
X5379299Y4087378D1*
X5374546Y4080248D1*
X5350615Y4056316D1*
X5384108D1*
X5399547Y4106556D2*
X5418670Y4056316D1*
X5437794Y4106556D1*
X5474733Y4102936D2*
Y4059881D1*
X5453233Y4081381D2*
X5496288D1*
X5511727Y4056316D2*
X5545220Y4106501D1*
X5560660Y4081409D2*
X5588294D1*
X5620480Y4119655D2*
X5615672Y4114902D1*
X5610919Y4107717D1*
X5606110Y4098155D1*
X5603734Y4086162D1*
Y4076600D1*
X5606110Y4064662D1*
X5610919Y4055100D1*
X5615672Y4047915D1*
X5620480Y4043162D1*
X5635920Y4096940D2*
X5640728Y4099371D1*
X5647913Y4106501D1*
Y4056316D1*
X5663352Y4119655D2*
X5668161Y4114902D1*
X5672914Y4107717D1*
X5677722Y4098155D1*
X5680099Y4086162D1*
Y4076600D1*
X5677722Y4064662D1*
X5672914Y4055100D1*
X5668161Y4047915D1*
X5663352Y4043162D1*
X5712432Y4096940D2*
X5717240Y4099371D1*
X5724425Y4106501D1*
Y4056316D1*
X5742296Y4094563D2*
Y4096940D1*
X5744673Y4101748D1*
X5747050Y4104125D1*
X5751858Y4106501D1*
X5761420D1*
X5766173Y4104125D1*
X5768550Y4101748D1*
X5770981Y4096940D1*
Y4092186D1*
X5768550Y4087378D1*
X5763796Y4080248D1*
X5739865Y4056316D1*
X5773358D1*
X5788797Y4106556D2*
X5807920Y4056316D1*
X5827044Y4106556D1*
X5863983Y4102936D2*
Y4059881D1*
X5842483Y4081381D2*
X5885538D1*
X5900977Y4056316D2*
X5934471Y4106501D1*
X5949910Y4081409D2*
X5977545D1*
X6009730Y4119655D2*
X6004922Y4114902D1*
X6000169Y4107717D1*
X5995360Y4098155D1*
X5992984Y4086162D1*
Y4076600D1*
X5995360Y4064662D1*
X6000169Y4055100D1*
X6004922Y4047915D1*
X6009730Y4043162D1*
X6027602Y4094563D2*
Y4096940D1*
X6029978Y4101748D1*
X6032355Y4104125D1*
X6037163Y4106501D1*
X6046725D1*
X6051478Y4104125D1*
X6053855Y4101748D1*
X6056286Y4096940D1*
Y4092186D1*
X6053855Y4087378D1*
X6049101Y4080248D1*
X6025170Y4056316D1*
X6058663D1*
X6074102Y4119655D2*
X6078911Y4114902D1*
X6083664Y4107717D1*
X6088472Y4098155D1*
X6090849Y4086162D1*
Y4076600D1*
X6088472Y4064662D1*
X6083664Y4055100D1*
X6078911Y4047915D1*
X6074102Y4043162D1*
X965583Y906501D2*
X941707D1*
X939330Y885001D1*
X941707Y887378D1*
X948892Y889810D1*
X956021D1*
X963206Y887378D1*
X968015Y882625D1*
X970392Y875440D1*
Y870686D1*
X968015Y863501D1*
X963206Y858693D1*
X956021Y856316D1*
X948892D1*
X941707Y858693D1*
X939330Y861125D1*
X936898Y865878D1*
X985831Y906556D2*
X1004954Y856316D1*
X1024077Y906556D1*
X1061016Y902936D2*
Y859881D1*
X1039517Y881381D2*
X1082571D1*
X1098011Y856316D2*
X1131504Y906501D1*
X1146943Y881409D2*
X1174578D1*
X1206764Y919655D2*
X1201956Y914902D1*
X1197202Y907717D1*
X1192394Y898155D1*
X1190017Y886162D1*
Y876600D1*
X1192394Y864662D1*
X1197202Y855100D1*
X1201956Y847915D1*
X1206764Y843162D1*
X1222203Y896940D2*
X1227012Y899371D1*
X1234197Y906501D1*
Y856316D1*
X1249636Y919655D2*
X1254444Y914902D1*
X1259198Y907717D1*
X1264006Y898155D1*
X1266383Y886162D1*
Y876600D1*
X1264006Y864662D1*
X1259198Y855100D1*
X1254444Y847915D1*
X1249636Y843162D1*
X1354833Y906501D2*
X1330957D1*
X1328580Y885001D1*
X1330957Y887378D1*
X1338142Y889810D1*
X1345272D1*
X1352457Y887378D1*
X1357265Y882625D1*
X1359642Y875440D1*
Y870686D1*
X1357265Y863501D1*
X1352457Y858693D1*
X1345272Y856316D1*
X1338142D1*
X1330957Y858693D1*
X1328580Y861125D1*
X1326148Y865878D1*
X1375081Y906556D2*
X1394204Y856316D1*
X1413327Y906556D1*
X1450266Y902936D2*
Y859881D1*
X1428767Y881381D2*
X1471822D1*
X1487261Y856316D2*
X1520754Y906501D1*
X1536193Y881409D2*
X1563828D1*
X1596014Y919655D2*
X1591206Y914902D1*
X1586452Y907717D1*
X1581644Y898155D1*
X1579267Y886162D1*
Y876600D1*
X1581644Y864662D1*
X1586452Y855100D1*
X1591206Y847915D1*
X1596014Y843162D1*
X1613885Y894563D2*
Y896940D1*
X1616262Y901748D1*
X1618638Y904125D1*
X1623447Y906501D1*
X1633008D1*
X1637762Y904125D1*
X1640138Y901748D1*
X1642570Y896940D1*
Y892186D1*
X1640138Y887378D1*
X1635385Y880248D1*
X1611453Y856316D1*
X1644947D1*
X1660386Y919655D2*
X1665194Y914902D1*
X1669948Y907717D1*
X1674756Y898155D1*
X1677133Y886162D1*
Y876600D1*
X1674756Y864662D1*
X1669948Y855100D1*
X1665194Y847915D1*
X1660386Y843162D1*
X1735708Y889810D2*
X1745269Y856316D1*
X1754831Y889810D1*
X1764393Y856316D1*
X1773954Y889810D1*
X1818078D2*
Y856316D1*
Y882625D2*
X1813325Y887433D1*
X1808517Y889810D1*
X1801387D1*
X1796578Y887433D1*
X1791825Y882625D1*
X1789393Y875440D1*
Y870686D1*
X1791825Y863501D1*
X1796578Y858748D1*
X1801387Y856316D1*
X1808517D1*
X1813325Y858748D1*
X1818078Y863501D1*
X1833518Y889810D2*
Y856316D1*
Y875440D2*
X1835949Y882625D1*
X1840703Y887433D1*
X1845511Y889810D1*
X1852696D1*
X1868135D2*
Y856316D1*
Y880248D2*
X1875320Y887433D1*
X1880129Y889810D1*
X1887259D1*
X1892067Y887433D1*
X1894444Y880248D1*
Y856316D1*
X1926630Y919655D2*
X1921821Y914902D1*
X1917068Y907717D1*
X1912260Y898155D1*
X1909883Y886162D1*
Y876600D1*
X1912260Y864662D1*
X1917068Y855100D1*
X1921821Y847915D1*
X1926630Y843162D1*
X1963569Y902936D2*
Y859881D1*
X1942069Y881381D2*
X1985124D1*
X2000563Y856316D2*
X2034056Y906501D1*
X2049496Y881409D2*
X2077130D1*
X2092570Y856316D2*
X2126063Y906501D1*
X2141502Y889810D2*
Y839570D1*
Y882625D2*
X2146311Y887378D1*
X2151064Y889810D1*
X2158249D1*
X2163057Y887378D1*
X2167811Y882625D1*
X2170242Y875440D1*
Y870631D1*
X2167811Y863501D1*
X2163057Y858693D1*
X2158249Y856316D1*
X2151064D1*
X2146311Y858693D1*
X2141502Y863501D1*
X2185682Y906556D2*
X2188058Y904180D1*
X2190490Y906556D1*
X2188058Y908988D1*
X2185682Y906556D1*
X2188058Y889810D2*
Y856316D1*
X2205929Y889810D2*
Y856316D1*
Y880248D2*
X2213114Y887433D1*
X2217923Y889810D1*
X2225053D1*
X2229861Y887433D1*
X2232238Y880248D1*
Y856316D1*
X2247677Y919655D2*
X2252485Y914902D1*
X2257238Y907717D1*
X2262047Y898155D1*
X2264424Y886162D1*
Y876600D1*
X2262047Y864662D1*
X2257238Y855100D1*
X2252485Y847915D1*
X2247677Y843162D1*
X1439019Y4075440D2*
X1467704D1*
Y4080248D1*
X1465327Y4085057D1*
X1462951Y4087433D1*
X1458142Y4089810D1*
X1450957D1*
X1446204Y4087433D1*
X1441396Y4082625D1*
X1439019Y4075440D1*
Y4070686D1*
X1441396Y4063501D1*
X1446204Y4058748D1*
X1450957Y4056316D1*
X1458142D1*
X1462951Y4058748D1*
X1467704Y4063501D1*
X1483143Y4089810D2*
X1509452Y4056316D1*
Y4089810D2*
X1483143Y4056316D1*
X1524891Y4106556D2*
X1527267Y4104180D1*
X1529699Y4106556D1*
X1527267Y4108988D1*
X1524891Y4106556D1*
X1527267Y4089810D2*
Y4056316D1*
X1552324Y4106556D2*
Y4065878D1*
X1554700Y4058748D1*
X1559509Y4056316D1*
X1564262D1*
X1545138Y4089810D2*
X1561885D1*
X6716715Y906556D2*
Y856316D1*
Y882625D2*
X6721524Y887433D1*
X6726277Y889810D1*
X6733462D1*
X6738215Y887433D1*
X6743024Y882625D1*
X6745400Y875440D1*
Y870686D1*
X6743024Y863501D1*
X6738215Y858748D1*
X6733462Y856316D1*
X6726277D1*
X6721524Y858748D1*
X6716715Y863501D1*
X6760839Y889810D2*
Y865878D1*
X6763216Y858748D1*
X6768024Y856316D1*
X6775209D1*
X6779963Y858748D1*
X6787148Y865878D1*
Y889810D2*
Y856316D1*
X6809772Y906556D2*
Y865878D1*
X6812149Y858748D1*
X6816957Y856316D1*
X6821710D1*
X6802587Y889810D2*
X6819334D1*
X6837149Y856316D2*
X6870643Y906501D1*
X6912390Y882625D2*
X6910014Y887433D1*
X6902829Y889810D1*
X6895644D1*
X6888459Y887433D1*
X6886082Y882625D1*
X6888459Y877872D1*
X6893267Y875440D1*
X6905205Y873063D1*
X6910014Y870686D1*
X6912390Y865878D1*
Y863501D1*
X6910014Y858748D1*
X6902829Y856316D1*
X6895644D1*
X6888459Y858748D1*
X6886082Y863501D1*
X6939768Y889810D2*
X6935015Y887433D1*
X6930206Y882625D1*
X6927830Y875440D1*
Y870686D1*
X6930206Y863501D1*
X6935015Y858748D1*
X6939768Y856316D1*
X6946953D1*
X6951761Y858748D1*
X6956514Y863501D1*
X6958946Y870686D1*
Y875440D1*
X6956514Y882625D1*
X6951761Y887433D1*
X6946953Y889810D1*
X6939768D1*
X6974386D2*
Y865878D1*
X6976762Y858748D1*
X6981571Y856316D1*
X6988756D1*
X6993509Y858748D1*
X7000694Y865878D1*
Y889810D2*
Y856316D1*
X7016133Y889810D2*
Y856316D1*
Y880248D2*
X7023318Y887433D1*
X7028127Y889810D1*
X7035256D1*
X7040065Y887433D1*
X7042441Y880248D1*
Y856316D1*
X7086566Y906556D2*
Y856316D1*
Y882625D2*
X7081812Y887433D1*
X7077004Y889810D1*
X7069819D1*
X7065066Y887433D1*
X7060257Y882625D1*
X7057881Y875440D1*
Y870686D1*
X7060257Y863501D1*
X7065066Y858748D1*
X7069819Y856316D1*
X7077004D1*
X7081812Y858748D1*
X7086566Y863501D1*
X5663907Y906501D2*
X5640031D1*
X5637654Y885001D1*
X5640031Y887378D1*
X5647216Y889810D1*
X5654346D1*
X5661531Y887378D1*
X5666339Y882625D1*
X5668716Y875440D1*
Y870686D1*
X5666339Y863501D1*
X5661531Y858693D1*
X5654346Y856316D1*
X5647216D1*
X5640031Y858693D1*
X5637654Y861125D1*
X5635222Y865878D1*
X5684155Y906556D2*
X5703278Y856316D1*
X5722401Y906556D1*
X5759341Y902936D2*
Y859881D1*
X5737841Y881381D2*
X5780896D1*
X5796335Y856316D2*
X5829828Y906501D1*
X5845268Y881409D2*
X5872902D1*
X5888342Y856316D2*
X5921835Y906501D1*
X5937274Y881409D2*
X5964909D1*
X6284265Y882625D2*
X6305765D1*
X6312950Y885057D1*
X6315382Y887433D1*
X6317759Y892186D1*
Y896995D1*
X6315382Y901748D1*
X6312950Y904180D1*
X6305765Y906556D1*
X6284265D1*
Y856316D1*
X6301012Y882625D2*
X6317759Y856316D1*
X6333198D2*
X6366691Y906501D1*
X6418001Y894618D2*
X6415624Y899371D1*
X6410816Y904180D1*
X6406062Y906556D1*
X6396501D1*
X6391692Y904180D1*
X6386939Y899371D1*
X6384507Y894618D1*
X6382131Y887433D1*
Y875440D1*
X6384507Y868310D1*
X6386939Y863501D1*
X6391692Y858748D1*
X6396501Y856316D1*
X6406062D1*
X6410816Y858748D1*
X6415624Y863501D1*
X6418001Y868310D1*
Y875440D1*
X6406062D1*
X6433440Y856316D2*
X6466933Y906501D1*
X6482372Y906556D2*
Y856316D1*
X6503928D1*
X6511113Y858748D1*
X6513489Y861125D1*
X6515866Y865878D1*
Y873063D1*
X6513489Y877872D1*
X6511113Y880248D1*
X6503928Y882625D1*
X6511113Y885057D1*
X6513489Y887433D1*
X6515866Y892186D1*
Y896995D1*
X6513489Y901748D1*
X6511113Y904180D1*
X6503928Y906556D1*
X6482372D1*
Y882625D2*
X6503928D1*
X7222272Y889810D2*
Y856316D1*
Y880248D2*
X7229457Y887433D1*
X7234266Y889810D1*
X7241396D1*
X7246204Y887433D1*
X7248581Y880248D1*
Y856316D1*
X7275958Y889810D2*
X7271205Y887433D1*
X7266397Y882625D1*
X7264020Y875440D1*
Y870686D1*
X7266397Y863501D1*
X7271205Y858748D1*
X7275958Y856316D1*
X7283143D1*
X7287952Y858748D1*
X7292705Y863501D1*
X7295137Y870686D1*
Y875440D1*
X7292705Y882625D1*
X7287952Y887433D1*
X7283143Y889810D1*
X7275958D1*
X7310576D2*
Y856316D1*
Y880248D2*
X7317761Y887433D1*
X7322569Y889810D1*
X7329699D1*
X7334508Y887433D1*
X7336884Y880248D1*
Y856316D1*
X7352324Y875440D2*
X7381008D1*
Y880248D1*
X7378632Y885057D1*
X7376255Y887433D1*
X7371447Y889810D1*
X7364262D1*
X7359509Y887433D1*
X7354700Y882625D1*
X7352324Y875440D1*
Y870686D1*
X7354700Y863501D1*
X7359509Y858748D1*
X7364262Y856316D1*
X7371447D1*
X7376255Y858748D1*
X7381008Y863501D1*
X7519690Y906556D2*
Y856316D1*
X7502944Y906556D2*
X7536437D1*
X7551876D2*
X7585370Y856316D1*
Y906556D2*
X7551876Y856316D1*
X7600809Y896940D2*
X7605617Y899371D1*
X7612802Y906501D1*
Y856316D1*
X7628242D2*
X7661735Y906501D1*
X7677174Y882625D2*
X7698674D1*
X7705859Y885057D1*
X7708291Y887433D1*
X7710667Y892186D1*
Y896995D1*
X7708291Y901748D1*
X7705859Y904180D1*
X7698674Y906556D1*
X7677174D1*
Y856316D1*
X7693921Y882625D2*
X7710667Y856316D1*
X7726107Y906556D2*
X7759600Y856316D1*
Y906556D2*
X7726107Y856316D1*
X7775039Y896940D2*
X7779848Y899371D1*
X7787033Y906501D1*
Y856316D1*
X7819219Y919655D2*
X7814410Y914902D1*
X7809657Y907717D1*
X7804849Y898155D1*
X7802472Y886162D1*
Y876600D1*
X7804849Y864662D1*
X7809657Y855100D1*
X7814410Y847915D1*
X7819219Y843162D1*
X7868151Y899371D2*
X7863398Y904180D1*
X7856213Y906556D1*
X7846651D1*
X7839466Y904180D1*
X7834658Y899371D1*
Y894618D1*
X7837090Y889810D1*
X7839466Y887433D1*
X7844220Y885057D1*
X7858590Y880248D1*
X7863398Y877872D1*
X7865775Y875440D1*
X7868151Y870686D1*
Y863501D1*
X7863398Y858748D1*
X7856213Y856316D1*
X7846651D1*
X7839466Y858748D1*
X7834658Y863501D1*
X7883591Y919655D2*
X7888399Y914902D1*
X7893152Y907717D1*
X7897961Y898155D1*
X7900337Y886162D1*
Y876600D1*
X7897961Y864662D1*
X7893152Y855100D1*
X7888399Y847915D1*
X7883591Y843162D1*
X7898190Y906556D2*
Y856316D1*
X7881444Y906556D2*
X7914937D1*
X7930376D2*
X7963870Y856316D1*
Y906556D2*
X7930376Y856316D1*
X7981741Y894563D2*
Y896940D1*
X7984117Y901748D1*
X7986494Y904125D1*
X7991302Y906501D1*
X8000864D1*
X8005617Y904125D1*
X8007994Y901748D1*
X8010426Y896940D1*
Y892186D1*
X8007994Y887378D1*
X8003241Y880248D1*
X7979309Y856316D1*
X8012802D1*
X8028242D2*
X8061735Y906501D1*
X8077174Y882625D2*
X8098674D1*
X8105859Y885057D1*
X8108291Y887433D1*
X8110667Y892186D1*
Y896995D1*
X8108291Y901748D1*
X8105859Y904180D1*
X8098674Y906556D1*
X8077174D1*
Y856316D1*
X8093921Y882625D2*
X8110667Y856316D1*
X8126107Y906556D2*
X8159600Y856316D1*
Y906556D2*
X8126107Y856316D1*
X8177471Y894563D2*
Y896940D1*
X8179848Y901748D1*
X8182224Y904125D1*
X8187033Y906501D1*
X8196594D1*
X8201348Y904125D1*
X8203724Y901748D1*
X8206156Y896940D1*
Y892186D1*
X8203724Y887378D1*
X8198971Y880248D1*
X8175039Y856316D1*
X8208533D1*
X8240719Y919655D2*
X8235910Y914902D1*
X8231157Y907717D1*
X8226348Y898155D1*
X8223972Y886162D1*
Y876600D1*
X8226348Y864662D1*
X8231157Y855100D1*
X8235910Y847915D1*
X8240719Y843162D1*
X8289651Y899371D2*
X8284898Y904180D1*
X8277713Y906556D1*
X8268151D1*
X8260966Y904180D1*
X8256158Y899371D1*
Y894618D1*
X8258590Y889810D1*
X8260966Y887433D1*
X8265719Y885057D1*
X8280090Y880248D1*
X8284898Y877872D1*
X8287275Y875440D1*
X8289651Y870686D1*
Y863501D1*
X8284898Y858748D1*
X8277713Y856316D1*
X8268151D1*
X8260966Y858748D1*
X8256158Y863501D1*
X8305090Y919655D2*
X8309899Y914902D1*
X8314652Y907717D1*
X8319460Y898155D1*
X8321837Y886162D1*
Y876600D1*
X8319460Y864662D1*
X8314652Y855100D1*
X8309899Y847915D1*
X8305090Y843162D1*
X2551686Y906501D2*
X2544501Y904125D1*
X2539692Y896940D1*
X2537316Y885001D1*
Y877816D1*
X2539692Y865878D1*
X2544501Y858693D1*
X2551686Y856316D1*
X2556439D1*
X2563624Y858693D1*
X2568377Y865878D1*
X2570809Y877816D1*
Y885001D1*
X2568377Y896940D1*
X2563624Y904125D1*
X2556439Y906501D1*
X2551686D1*
X2568377Y896940D2*
X2539692Y865878D1*
X2586248Y881409D2*
X2613883D1*
X2631754Y894563D2*
Y896940D1*
X2634131Y901748D1*
X2636507Y904125D1*
X2641316Y906501D1*
X2650877D1*
X2655631Y904125D1*
X2658007Y901748D1*
X2660439Y896940D1*
Y892186D1*
X2658007Y887378D1*
X2653254Y880248D1*
X2629322Y856316D1*
X2662816D1*
X7032595Y2192777D2*
Y2156907D1*
X7034971Y2149722D1*
X7039780Y2144969D1*
X7046965Y2142537D1*
X7051718D1*
X7058903Y2144969D1*
X7063711Y2149722D1*
X7066088Y2156907D1*
Y2192777D1*
X7081527Y2183160D2*
X7086336Y2185592D1*
X7093521Y2192722D1*
Y2142537D1*
X5775932Y3338685D2*
X5778254Y3333932D1*
X5783062Y3329124D1*
X5787871Y3326747D1*
X5795056Y3324315D1*
X5806994D1*
X5814179Y3326747D1*
X5818932Y3329124D1*
X5823741Y3333932D1*
X5826117Y3338685D1*
Y3348247D1*
X5823741Y3353055D1*
X5818932Y3357809D1*
X5814179Y3360185D1*
X5806994Y3362617D1*
X5795056D1*
X5787871Y3360185D1*
X5783062Y3357809D1*
X5778254Y3353056D1*
X5775932Y3348247D1*
Y3338685D1*
X5816556Y3345870D2*
X5830926Y3360185D1*
X5826172Y3401988D2*
X5775988D1*
X5809426Y3378056D1*
Y3413926D1*
X4575932Y3389874D2*
X4578254Y3385121D1*
X4583062Y3380312D1*
X4587871Y3377936D1*
X4595056Y3375504D1*
X4606994D1*
X4614179Y3377936D1*
X4618932Y3380312D1*
X4623741Y3385121D1*
X4626117Y3389874D1*
Y3399435D1*
X4623741Y3404244D1*
X4618932Y3408997D1*
X4614179Y3411374D1*
X4606994Y3413805D1*
X4595056D1*
X4587871Y3411374D1*
X4583062Y3408997D1*
X4578254Y3404244D1*
X4575932Y3399435D1*
Y3389874D1*
X4616556Y3397059D2*
X4630926Y3411373D1*
X4587926Y3431677D2*
X4585549D1*
X4580741Y3434053D1*
X4578364Y3436430D1*
X4575988Y3441238D1*
Y3450800D1*
X4578364Y3455553D1*
X4580741Y3457930D1*
X4585549Y3460361D1*
X4590303D1*
X4595111Y3457930D1*
X4602241Y3453176D1*
X4626172Y3429245D1*
Y3462738D1*
X540647Y4106556D2*
Y4056316D1*
X556086Y4106556D2*
X558463Y4104180D1*
X560895Y4106556D1*
X558463Y4108988D1*
X556086Y4106556D1*
X558463Y4089810D2*
Y4056316D1*
X605019Y4087433D2*
Y4049131D1*
X602642Y4042002D1*
X600266Y4039570D1*
X595457Y4037193D1*
X588272D1*
X583519Y4039570D1*
X605019Y4080248D2*
X600266Y4085001D1*
X595457Y4087433D1*
X588272D1*
X583519Y4085001D1*
X578711Y4080248D1*
X576334Y4073063D1*
Y4068255D1*
X578711Y4061125D1*
X583519Y4056316D1*
X588272Y4053940D1*
X595457D1*
X600266Y4056316D1*
X605019Y4061125D1*
X620458Y4106556D2*
Y4056316D1*
Y4080248D2*
X627643Y4087433D1*
X632452Y4089810D1*
X639637D1*
X644390Y4087433D1*
X646766Y4080248D1*
Y4056316D1*
X669391Y4106556D2*
Y4065878D1*
X671767Y4058748D1*
X676576Y4056316D1*
X681329D1*
X662206Y4089810D2*
X678952D1*
X696768Y4048026D2*
X742200D1*
X757639Y4106556D2*
Y4056316D1*
Y4082625D2*
X762447Y4087433D1*
X767201Y4089810D1*
X774386D1*
X779139Y4087433D1*
X783947Y4082625D1*
X786324Y4075440D1*
Y4070686D1*
X783947Y4063501D1*
X779139Y4058748D1*
X774386Y4056316D1*
X767201D1*
X762447Y4058748D1*
X757639Y4063501D1*
X801763Y4089810D2*
Y4065878D1*
X804140Y4058748D1*
X808948Y4056316D1*
X816133D1*
X820886Y4058748D1*
X828071Y4065878D1*
Y4089810D2*
Y4056316D1*
X850696Y4106556D2*
Y4065878D1*
X853072Y4058748D1*
X857881Y4056316D1*
X862634D1*
X843511Y4089810D2*
X860257D1*
X1802025Y4087433D2*
Y4049131D1*
X1799648Y4042002D1*
X1797272Y4039570D1*
X1792463Y4037193D1*
X1785278D1*
X1780525Y4039570D1*
X1802025Y4080248D2*
X1797272Y4085001D1*
X1792463Y4087433D1*
X1785278D1*
X1780525Y4085001D1*
X1775716Y4080248D1*
X1773340Y4073063D1*
Y4068255D1*
X1775716Y4061125D1*
X1780525Y4056316D1*
X1785278Y4053940D1*
X1792463D1*
X1797272Y4056316D1*
X1802025Y4061125D1*
X1817464Y4075440D2*
X1846149D1*
Y4080248D1*
X1843772Y4085057D1*
X1841396Y4087433D1*
X1836587Y4089810D1*
X1829402D1*
X1824649Y4087433D1*
X1819841Y4082625D1*
X1817464Y4075440D1*
Y4070686D1*
X1819841Y4063501D1*
X1824649Y4058748D1*
X1829402Y4056316D1*
X1836587D1*
X1841396Y4058748D1*
X1846149Y4063501D1*
X1861588Y4089810D2*
Y4056316D1*
Y4075440D2*
X1864020Y4082625D1*
X1868773Y4087433D1*
X1873582Y4089810D1*
X1880767D1*
X1896206Y4048026D2*
X1941637D1*
X1969015Y4089810D2*
X1964262Y4087433D1*
X1959453Y4082625D1*
X1957077Y4075440D1*
Y4070686D1*
X1959453Y4063501D1*
X1964262Y4058748D1*
X1969015Y4056316D1*
X1976200D1*
X1981008Y4058748D1*
X1985762Y4063501D1*
X1988193Y4070686D1*
Y4075440D1*
X1985762Y4082625D1*
X1981008Y4087433D1*
X1976200Y4089810D1*
X1969015D1*
X2003633D2*
Y4056316D1*
Y4080248D2*
X2010818Y4087433D1*
X2015626Y4089810D1*
X2022756D1*
X2027564Y4087433D1*
X2029941Y4080248D1*
Y4056316D1*
X2157873Y4087433D2*
Y4049131D1*
X2155496Y4042002D1*
X2153120Y4039570D1*
X2148311Y4037193D1*
X2141126D1*
X2136373Y4039570D1*
X2157873Y4080248D2*
X2153120Y4085001D1*
X2148311Y4087433D1*
X2141126D1*
X2136373Y4085001D1*
X2131565Y4080248D1*
X2129188Y4073063D1*
Y4068255D1*
X2131565Y4061125D1*
X2136373Y4056316D1*
X2141126Y4053940D1*
X2148311D1*
X2153120Y4056316D1*
X2157873Y4061125D1*
X2173312Y4075440D2*
X2201997D1*
Y4080248D1*
X2199621Y4085057D1*
X2197244Y4087433D1*
X2192435Y4089810D1*
X2185250D1*
X2180497Y4087433D1*
X2175689Y4082625D1*
X2173312Y4075440D1*
Y4070686D1*
X2175689Y4063501D1*
X2180497Y4058748D1*
X2185250Y4056316D1*
X2192435D1*
X2197244Y4058748D1*
X2201997Y4063501D1*
X2217436Y4089810D2*
Y4056316D1*
Y4075440D2*
X2219868Y4082625D1*
X2224621Y4087433D1*
X2229430Y4089810D1*
X2236615D1*
X2252054Y4048026D2*
X2297486D1*
X2324863Y4089810D2*
X2320110Y4087433D1*
X2315302Y4082625D1*
X2312925Y4075440D1*
Y4070686D1*
X2315302Y4063501D1*
X2320110Y4058748D1*
X2324863Y4056316D1*
X2332048D1*
X2336857Y4058748D1*
X2341610Y4063501D1*
X2344042Y4070686D1*
Y4075440D1*
X2341610Y4082625D1*
X2336857Y4087433D1*
X2332048Y4089810D1*
X2324863D1*
X2359481D2*
Y4039570D1*
Y4082625D2*
X2364289Y4087378D1*
X2369043Y4089810D1*
X2376228D1*
X2381036Y4087378D1*
X2385789Y4082625D1*
X2388221Y4075440D1*
Y4070631D1*
X2385789Y4063501D1*
X2381036Y4058693D1*
X2376228Y4056316D1*
X2369043D1*
X2364289Y4058693D1*
X2359481Y4063501D1*
X2403660Y4075440D2*
X2432345D1*
Y4080248D1*
X2429969Y4085057D1*
X2427592Y4087433D1*
X2422784Y4089810D1*
X2415599D1*
X2410845Y4087433D1*
X2406037Y4082625D1*
X2403660Y4075440D1*
Y4070686D1*
X2406037Y4063501D1*
X2410845Y4058748D1*
X2415599Y4056316D1*
X2422784D1*
X2427592Y4058748D1*
X2432345Y4063501D1*
X2447784Y4089810D2*
Y4056316D1*
Y4080248D2*
X2454970Y4087433D1*
X2459778Y4089810D1*
X2466908D1*
X2471716Y4087433D1*
X2474093Y4080248D1*
Y4056316D1*
X3754843Y4106556D2*
Y4056316D1*
X3738096Y4106556D2*
X3771589D1*
X3787029D2*
X3820522Y4056316D1*
Y4106556D2*
X3787029Y4056316D1*
X3840770Y4106501D2*
X3867023D1*
X3852708Y4087378D1*
X3859893D1*
X3864646Y4085001D1*
X3867023Y4082625D1*
X3869455Y4075440D1*
Y4070686D1*
X3867023Y4063501D1*
X3862269Y4058693D1*
X3855084Y4056316D1*
X3847899D1*
X3840770Y4058693D1*
X3838393Y4061125D1*
X3835961Y4065878D1*
X3884894Y4056316D2*
X3918387Y4106501D1*
X3933826Y4082625D2*
X3955326D1*
X3962511Y4085057D1*
X3964943Y4087433D1*
X3967320Y4092186D1*
Y4096995D1*
X3964943Y4101748D1*
X3962511Y4104180D1*
X3955326Y4106556D1*
X3933826D1*
Y4056316D1*
X3950573Y4082625D2*
X3967320Y4056316D1*
X3982759Y4106556D2*
X4016252Y4056316D1*
Y4106556D2*
X3982759Y4056316D1*
X4036500Y4106501D2*
X4062753D1*
X4048438Y4087378D1*
X4055623D1*
X4060376Y4085001D1*
X4062753Y4082625D1*
X4065185Y4075440D1*
Y4070686D1*
X4062753Y4063501D1*
X4058000Y4058693D1*
X4050815Y4056316D1*
X4043630D1*
X4036500Y4058693D1*
X4034123Y4061125D1*
X4031692Y4065878D1*
X4154843Y4106556D2*
Y4056316D1*
X4138096Y4106556D2*
X4171589D1*
X4187029D2*
X4220522Y4056316D1*
Y4106556D2*
X4187029Y4056316D1*
X4238393Y4094563D2*
Y4096940D1*
X4240770Y4101748D1*
X4243146Y4104125D1*
X4247955Y4106501D1*
X4257516D1*
X4262269Y4104125D1*
X4264646Y4101748D1*
X4267078Y4096940D1*
Y4092186D1*
X4264646Y4087378D1*
X4259893Y4080248D1*
X4235961Y4056316D1*
X4269455D1*
X4284894D2*
X4318387Y4106501D1*
X4333826Y4082625D2*
X4355326D1*
X4362511Y4085057D1*
X4364943Y4087433D1*
X4367320Y4092186D1*
Y4096995D1*
X4364943Y4101748D1*
X4362511Y4104180D1*
X4355326Y4106556D1*
X4333826D1*
Y4056316D1*
X4350573Y4082625D2*
X4367320Y4056316D1*
X4382759Y4106556D2*
X4416252Y4056316D1*
Y4106556D2*
X4382759Y4056316D1*
X4434123Y4094563D2*
Y4096940D1*
X4436500Y4101748D1*
X4438877Y4104125D1*
X4443685Y4106501D1*
X4453247D1*
X4458000Y4104125D1*
X4460376Y4101748D1*
X4462808Y4096940D1*
Y4092186D1*
X4460376Y4087378D1*
X4455623Y4080248D1*
X4431692Y4056316D1*
X4465185D1*
X9753924Y856316D2*
Y906501D1*
X9729992Y873063D1*
X9765862D1*
X9802801Y902936D2*
Y859881D1*
X9781301Y881381D2*
X9824356D1*
X9868480Y906501D2*
X9844604D1*
X9842227Y885001D1*
X9844604Y887378D1*
X9851789Y889810D1*
X9858919D1*
X9866104Y887378D1*
X9870912Y882625D1*
X9873289Y875440D1*
Y870686D1*
X9870912Y863501D1*
X9866104Y858693D1*
X9858919Y856316D1*
X9851789D1*
X9844604Y858693D1*
X9842227Y861125D1*
X9839795Y865878D1*
X10110960Y899371D2*
X10108584Y904125D1*
X10101399Y906501D1*
X10096645D1*
X10089460Y904125D1*
X10084652Y896940D1*
X10082275Y885001D1*
Y873063D1*
X10084652Y863501D1*
X10089460Y858693D1*
X10096645Y856316D1*
X10099022D1*
X10106152Y858693D1*
X10110960Y863501D1*
X10113337Y870686D1*
Y873063D1*
X10110960Y880248D1*
X10106152Y885001D1*
X10099022Y887378D1*
X10096645D1*
X10089460Y885001D1*
X10084652Y880248D1*
X10082275Y873063D1*
X10150276Y902936D2*
Y859881D1*
X10128776Y881381D2*
X10171831D1*
X10223140Y894618D2*
X10220764Y899371D1*
X10215955Y904180D1*
X10211202Y906556D1*
X10201640D1*
X10196832Y904180D1*
X10192079Y899371D1*
X10189647Y894618D1*
X10187270Y887433D1*
Y875440D1*
X10189647Y868310D1*
X10192079Y863501D1*
X10196832Y858748D1*
X10201640Y856316D1*
X10211202D1*
X10215955Y858748D1*
X10220764Y863501D1*
X10223140Y868310D1*
Y875440D1*
X10211202D1*
X10272073Y906556D2*
Y856316D1*
X10238580Y906556D1*
Y856316D1*
X10287512Y906556D2*
Y856316D1*
X10304259D1*
X10311444Y858748D1*
X10316252Y863501D1*
X10318629Y868310D1*
X10321005Y875440D1*
Y887433D1*
X10318629Y894618D1*
X10316252Y899371D1*
X10311444Y904180D1*
X10304259Y906556D1*
X10287512D1*
X3142124Y906501D2*
X3168377D1*
X3154062Y887378D1*
X3161247D1*
X3166001Y885001D1*
X3168377Y882625D1*
X3170809Y875440D1*
Y870686D1*
X3168377Y863501D1*
X3163624Y858693D1*
X3156439Y856316D1*
X3149254D1*
X3142124Y858693D1*
X3139748Y861125D1*
X3137316Y865878D1*
X3186248Y881409D2*
X3213883D1*
X3258007Y906501D2*
X3234131D1*
X3231754Y885001D1*
X3234131Y887378D1*
X3241316Y889810D1*
X3248446D1*
X3255631Y887378D1*
X3260439Y882625D1*
X3262816Y875440D1*
Y870686D1*
X3260439Y863501D1*
X3255631Y858693D1*
X3248446Y856316D1*
X3241316D1*
X3234131Y858693D1*
X3231754Y861125D1*
X3229322Y865878D1*
X3767244Y899371D2*
X3764868Y904125D1*
X3757682Y906501D1*
X3752929D1*
X3745744Y904125D1*
X3740936Y896940D1*
X3738559Y885001D1*
Y873063D1*
X3740936Y863501D1*
X3745744Y858693D1*
X3752929Y856316D1*
X3755306D1*
X3762436Y858693D1*
X3767244Y863501D1*
X3769621Y870686D1*
Y873063D1*
X3767244Y880248D1*
X3762436Y885001D1*
X3755306Y887378D1*
X3752929D1*
X3745744Y885001D1*
X3740936Y880248D1*
X3738559Y873063D1*
X3785060Y881409D2*
X3812695D1*
X3840072Y906501D2*
X3832942Y904125D1*
X3830511Y899371D1*
Y894563D1*
X3832942Y889810D1*
X3837696Y887378D1*
X3847257Y885001D1*
X3854442Y882625D1*
X3859195Y877816D1*
X3861572Y873063D1*
Y865878D1*
X3859195Y861125D1*
X3856819Y858693D1*
X3849634Y856316D1*
X3840072D1*
X3832942Y858693D1*
X3830511Y861125D1*
X3828134Y865878D1*
Y873063D1*
X3830511Y877816D1*
X3835319Y882625D1*
X3842449Y885001D1*
X3852010Y887378D1*
X3856819Y889810D1*
X3859195Y894563D1*
Y899371D1*
X3856819Y904125D1*
X3849634Y906501D1*
X3840072D1*
X4366654Y889810D2*
X4364222Y882625D1*
X4359469Y877816D1*
X4352284Y875440D1*
X4349908D1*
X4342723Y877816D1*
X4337969Y882625D1*
X4335538Y889810D1*
Y892186D1*
X4337969Y899371D1*
X4342723Y904125D1*
X4349908Y906501D1*
X4352284D1*
X4359469Y904125D1*
X4364222Y899371D1*
X4366654Y889810D1*
Y877816D1*
X4364222Y865878D1*
X4359469Y858693D1*
X4352284Y856316D1*
X4347531D1*
X4340346Y858693D1*
X4337969Y863501D1*
X4382093Y881409D2*
X4409728D1*
X4425168Y896940D2*
X4429976Y899371D1*
X4437161Y906501D1*
Y856316D1*
X4452600Y896940D2*
X4457409Y899371D1*
X4464594Y906501D1*
Y856316D1*
X4811458Y896940D2*
X4816266Y899371D1*
X4823451Y906501D1*
Y856316D1*
X4841322Y894563D2*
Y896940D1*
X4843699Y901748D1*
X4846075Y904125D1*
X4850884Y906501D1*
X4860446D1*
X4865199Y904125D1*
X4867575Y901748D1*
X4870007Y896940D1*
Y892186D1*
X4867575Y887378D1*
X4862822Y880248D1*
X4838890Y856316D1*
X4872384D1*
X4887823Y881409D2*
X4915458D1*
X4930897Y896940D2*
X4935705Y899371D1*
X4942891Y906501D1*
Y856316D1*
X4963138Y906501D2*
X4989391D1*
X4975076Y887378D1*
X4982261D1*
X4987015Y885001D1*
X4989391Y882625D1*
X4991823Y875440D1*
Y870686D1*
X4989391Y863501D1*
X4984638Y858693D1*
X4977453Y856316D1*
X4970268D1*
X4963138Y858693D1*
X4960762Y861125D1*
X4958330Y865878D1*
X5210269Y896940D2*
X5215078Y899371D1*
X5222263Y906501D1*
Y856316D1*
X5261634D2*
Y906501D1*
X5237702Y873063D1*
X5273572D1*
X5289011Y881409D2*
X5316646D1*
X5332085Y896940D2*
X5336894Y899371D1*
X5344079Y906501D1*
Y856316D1*
X5388203Y906501D2*
X5364327D1*
X5361950Y885001D1*
X5364327Y887378D1*
X5371512Y889810D1*
X5378641D1*
X5385826Y887378D1*
X5390635Y882625D1*
X5393011Y875440D1*
Y870686D1*
X5390635Y863501D1*
X5385826Y858693D1*
X5378641Y856316D1*
X5371512D1*
X5364327Y858693D1*
X5361950Y861125D1*
X5359518Y865878D1*
M02*
