G04 DipTrace 3.3.1.3*
G04 TopSilk.gbr*
%MOIN*%
G04 #@! TF.FileFunction,Legend,Top*
G04 #@! TF.Part,Single*
%ADD10C,0.009843*%
%ADD20C,0.005*%
%ADD31C,0.005906*%
%FSLAX26Y26*%
G04*
G70*
G90*
G75*
G01*
G04 TopSilk*
%LPD*%
X2494948Y3738058D2*
D20*
Y4033333D1*
X2514625D1*
X2908333D1*
Y3738058D1*
X2514625D1*
X2494948D1*
X2514625Y4033333D2*
Y3738058D1*
X2894948D2*
Y4033333D1*
X2914625D1*
X3308333D1*
Y3738058D1*
X2914625D1*
X2894948D1*
X2914625Y4033333D2*
Y3738058D1*
X3294948D2*
Y4033333D1*
X3314625D1*
X3708333D1*
Y3738058D1*
X3314625D1*
X3294948D1*
X3314625Y4033333D2*
Y3738058D1*
X6094948D2*
Y4033333D1*
X6114625D1*
X6508333D1*
Y3738058D1*
X6114625D1*
X6094948D1*
X6114625Y4033333D2*
Y3738058D1*
X494948Y538058D2*
Y833333D1*
X514625D1*
X908333D1*
Y538058D1*
X514625D1*
X494948D1*
X514625Y833333D2*
Y538058D1*
X6494948Y3738058D2*
Y4033333D1*
X6514625D1*
X6908333D1*
Y3738058D1*
X6514625D1*
X6494948D1*
X6514625Y4033333D2*
Y3738058D1*
X4494948D2*
Y4033333D1*
X4514625D1*
X4908333D1*
Y3738058D1*
X4514625D1*
X4494948D1*
X4514625Y4033333D2*
Y3738058D1*
X587958Y3192979D2*
D10*
Y1092979D1*
Y3192979D2*
X4387883D1*
X4588058Y2593009D2*
Y1242919D1*
X4488183Y1092979D2*
X587958D1*
X4588058Y1242919D2*
X4488183Y1142959D1*
Y1092979D2*
Y1142959D1*
X4588058Y2593009D2*
X4488183Y2692969D1*
Y3093019D1*
X4387883Y3192979D1*
X894948Y3738058D2*
D20*
Y4033333D1*
X914625D1*
X1308333D1*
Y3738058D1*
X914625D1*
X894948D1*
X914625Y4033333D2*
Y3738058D1*
X6038058Y3182979D2*
D10*
X5888058D1*
Y3102979D1*
X6038058D2*
X5888058D1*
X5914308Y3182979D2*
Y3102979D1*
X6038058D2*
Y3182979D1*
X8994948Y538058D2*
D20*
Y833333D1*
X9014658D1*
X9605184D1*
Y538058D1*
X9014658D1*
X8994948D1*
X9014658Y833333D2*
Y538058D1*
X4894948Y3738058D2*
Y4033333D1*
X4914625D1*
X5308333D1*
Y3738058D1*
X4914625D1*
X4894948D1*
X4914625Y4033333D2*
Y3738058D1*
X5294948D2*
Y4033333D1*
X5314625D1*
X5708333D1*
Y3738058D1*
X5314625D1*
X5294948D1*
X5314625Y4033333D2*
Y3738058D1*
X5694948D2*
Y4033333D1*
X5714625D1*
X6108333D1*
Y3738058D1*
X5714625D1*
X5694948D1*
X5714625Y4033333D2*
Y3738058D1*
X894948Y538058D2*
Y833333D1*
X914625D1*
X1308333D1*
Y538058D1*
X914625D1*
X894948D1*
X914625Y833333D2*
Y538058D1*
X1294948D2*
Y833333D1*
X1314625D1*
X1708333D1*
Y538058D1*
X1314625D1*
X1294948D1*
X1314625Y833333D2*
Y538058D1*
X1694948D2*
Y833333D1*
X1714658D1*
X2305184D1*
Y538058D1*
X1714658D1*
X1694948D1*
X1714658Y833333D2*
Y538058D1*
X1294948Y3738058D2*
Y4033333D1*
X1314625D1*
X1708333D1*
Y3738058D1*
X1314625D1*
X1294948D1*
X1314625Y4033333D2*
Y3738058D1*
X5063238Y2892979D2*
D10*
X5262878D1*
Y2792979D2*
Y2892979D1*
X5063238Y2792979D2*
X5262878D1*
X5063238D2*
Y2892979D1*
X6538058Y3182979D2*
X6388058D1*
Y3102979D1*
X6538058D2*
X6388058D1*
X6414308Y3182979D2*
Y3102979D1*
X6538058D2*
Y3182979D1*
X6694948Y538058D2*
D20*
Y833333D1*
X6714625D1*
X7108333D1*
Y538058D1*
X6714625D1*
X6694948D1*
X6714625Y833333D2*
Y538058D1*
X5494948D2*
Y833333D1*
X5514658D1*
X6105184D1*
Y538058D1*
X5514658D1*
X5494948D1*
X5514658Y833333D2*
Y538058D1*
X6094948D2*
Y833333D1*
X6114658D1*
X6705184D1*
Y538058D1*
X6114658D1*
X6094948D1*
X6114658Y833333D2*
Y538058D1*
X7094948D2*
Y833333D1*
X7114625D1*
X7508333D1*
Y538058D1*
X7114625D1*
X7094948D1*
X7114625Y833333D2*
Y538058D1*
X7494948D2*
Y833333D1*
X7514625D1*
X7908333D1*
Y538058D1*
X7514625D1*
X7494948D1*
X7514625Y833333D2*
Y538058D1*
X7894948D2*
Y833333D1*
X7914625D1*
X8308333D1*
Y538058D1*
X7914625D1*
X7894948D1*
X7914625Y833333D2*
Y538058D1*
X2294948D2*
Y833333D1*
X2314658D1*
X2905184D1*
Y538058D1*
X2314658D1*
X2294948D1*
X2314658Y833333D2*
Y538058D1*
X6960691Y1516404D2*
D10*
Y2319554D1*
X7165424D2*
X6960691D1*
X7165424Y1516404D2*
Y2319554D1*
Y1516404D2*
X7086684D1*
X6960691D2*
X7039432D1*
X7086684D2*
G03X7039432Y1516404I-23626J-13D01*
G01*
X9513058Y1467799D2*
Y1268159D1*
X9413058D2*
X9513058D1*
X9413058Y1467799D2*
Y1268159D1*
Y1467799D2*
X9513058D1*
X9388058D2*
Y1268159D1*
X9288058D2*
X9388058D1*
X9288058Y1467799D2*
Y1268159D1*
Y1467799D2*
X9388058D1*
X9638058D2*
Y1268159D1*
X9538058D2*
X9638058D1*
X9538058Y1467799D2*
Y1268159D1*
Y1467799D2*
X9638058D1*
X9763058D2*
Y1268159D1*
X9663058D2*
X9763058D1*
X9663058Y1467799D2*
Y1268159D1*
Y1467799D2*
X9763058D1*
X9888058D2*
Y1268159D1*
X9788058D2*
X9888058D1*
X9788058Y1467799D2*
Y1268159D1*
Y1467799D2*
X9888058D1*
X10013058D2*
Y1268159D1*
X9913058D2*
X10013058D1*
X9913058Y1467799D2*
Y1268159D1*
Y1467799D2*
X10013058D1*
X5262878Y2642979D2*
X5063238D1*
Y2742979D2*
Y2642979D1*
X5262878Y2742979D2*
X5063238D1*
X5262878D2*
Y2642979D1*
X5018521Y1761399D2*
X4818881D1*
Y1861399D2*
Y1761399D1*
X5018521Y1861399D2*
X4818881D1*
X5018521D2*
Y1761399D1*
Y1636399D2*
X4818881D1*
Y1736399D2*
Y1636399D1*
X5018521Y1736399D2*
X4818881D1*
X5018521D2*
Y1636399D1*
Y1511399D2*
X4818881D1*
Y1611399D2*
Y1511399D1*
X5018521Y1611399D2*
X4818881D1*
X5018521D2*
Y1511399D1*
X6416807Y3000579D2*
X6386707Y2970479D1*
X6416807Y3000579D2*
X6446907Y2970479D1*
X6386707D2*
X6416807Y2940379D1*
X6381807Y2830479D2*
G02X6381807Y2830479I175000J0D01*
G01*
X5963058Y1567799D2*
Y1368159D1*
X5863058D2*
X5963058D1*
X5863058Y1567799D2*
Y1368159D1*
Y1567799D2*
X5963058D1*
X6163058D2*
Y1368159D1*
X6063058D2*
X6163058D1*
X6063058Y1567799D2*
Y1368159D1*
Y1567799D2*
X6163058D1*
X494948Y3738058D2*
D20*
Y4033333D1*
X514625D1*
X908333D1*
Y3738058D1*
X514625D1*
X494948D1*
X514625Y4033333D2*
Y3738058D1*
X1694948D2*
Y4033333D1*
X1714625D1*
X2108333D1*
Y3738058D1*
X1714625D1*
X1694948D1*
X1714625Y4033333D2*
Y3738058D1*
X2094948D2*
Y4033333D1*
X2114625D1*
X2508333D1*
Y3738058D1*
X2114625D1*
X2094948D1*
X2114625Y4033333D2*
Y3738058D1*
X3694948D2*
Y4033333D1*
X3714625D1*
X4108333D1*
Y3738058D1*
X3714625D1*
X3694948D1*
X3714625Y4033333D2*
Y3738058D1*
X4094948D2*
Y4033333D1*
X4114625D1*
X4508333D1*
Y3738058D1*
X4114625D1*
X4094948D1*
X4114625Y4033333D2*
Y3738058D1*
X9594948Y538058D2*
Y833333D1*
X9614625D1*
X10008333D1*
Y538058D1*
X9614625D1*
X9594948D1*
X9614625Y833333D2*
Y538058D1*
X9994948D2*
Y833333D1*
X10014625D1*
X10408333D1*
Y538058D1*
X10014625D1*
X9994948D1*
X10014625Y833333D2*
Y538058D1*
X2894948D2*
Y833333D1*
X2914658D1*
X3505184D1*
Y538058D1*
X2914658D1*
X2894948D1*
X2914658Y833333D2*
Y538058D1*
X3494948D2*
Y833333D1*
X3514658D1*
X4105184D1*
Y538058D1*
X3514658D1*
X3494948D1*
X3514658Y833333D2*
Y538058D1*
X4094948D2*
Y833333D1*
X4114658D1*
X4705184D1*
Y538058D1*
X4114658D1*
X4094948D1*
X4114658Y833333D2*
Y538058D1*
X4694948D2*
Y833333D1*
X4714625D1*
X5108333D1*
Y538058D1*
X4714625D1*
X4694948D1*
X4714625Y833333D2*
Y538058D1*
X5094948D2*
Y833333D1*
X5114625D1*
X5508333D1*
Y538058D1*
X5114625D1*
X5094948D1*
X5114625Y833333D2*
Y538058D1*
X5594161Y3010434D2*
D10*
X5564353Y2980625D1*
X5594161Y3010434D2*
X5629489Y2975473D1*
X5564353Y2980625D2*
X5599313Y2945297D1*
X5560304Y2830479D2*
G02X5560304Y2830479I184003J0D01*
G01*
X1088867Y3142985D2*
D31*
X688828D1*
X1088867Y3042973D2*
X688828D1*
Y3142985D2*
Y3042973D1*
X1088867D2*
Y3142985D1*
M02*
