G04 DipTrace 3.0.0.1*
G04 Through.gbr*
%MOMM*%
G04 #@! TF.FileFunction,Plated,1,2,PTH,Drill*
G04 #@! TF.Part,Single*
G04 Drill Symbols*
G04 D=0.711 - Cross*
G04 D=0.8 - X*
G04 D=0.9 - Y*
G04 D=0.96533 - T*
G04 D=1 - V*
G04 D=3.175 - Clock*
G04 D=3.2 - Box_Cross*
G04 D=5.5 - Box_X*
%ADD10C,0.2*%
%FSLAX35Y35*%
G04*
G71*
G90*
G75*
G01*
X2480000Y8950000D2*
D10*
X2540000Y8890000D1*
X2600000Y8950000D1*
X2734000D2*
X2794000Y8890000D1*
X2854000Y8950000D1*
X2988000D2*
X3048000Y8890000D1*
X3108000Y8950000D1*
X3242000D2*
X3302000Y8890000D1*
X3362000Y8950000D1*
X1972000D2*
X2032000Y8890000D1*
X2092000Y8950000D1*
X2226000D2*
X2286000Y8890000D1*
X2346000Y8950000D1*
X8036250Y8886500D2*
X8096250Y8826500D1*
X8156250Y8886500D1*
X8290250D2*
X8350250Y8826500D1*
X8410250Y8886500D1*
X11100123Y837873D2*
X11160123Y777873D1*
X11220123Y837873D1*
X11354123D2*
X11414123Y777873D1*
X11474123Y837873D1*
X11624000Y822000D2*
X11684000Y762000D1*
X11744000Y822000D1*
X11878000D2*
X11938000Y762000D1*
X11998000Y822000D1*
X12132000D2*
X12192000Y762000D1*
X12252000Y822000D1*
X8925250Y8886500D2*
X8985250Y8826500D1*
X9045250Y8886500D1*
X9179250D2*
X9239250Y8826500D1*
X9299250Y8886500D1*
X7496500D2*
X7556500Y8826500D1*
X7616500Y8886500D1*
X7750500D2*
X7810500Y8826500D1*
X7870500Y8886500D1*
X6607500D2*
X6667500Y8826500D1*
X6727500Y8886500D1*
X6861500D2*
X6921500Y8826500D1*
X6981500Y8886500D1*
X5623250D2*
X5683250Y8826500D1*
X5743250Y8886500D1*
X5877250D2*
X5937250Y8826500D1*
X5997250Y8886500D1*
X5083500D2*
X5143500Y8826500D1*
X5203500Y8886500D1*
X5337500D2*
X5397500Y8826500D1*
X5457500Y8886500D1*
X12417750Y822000D2*
X12477750Y762000D1*
X12537750Y822000D1*
X12671750D2*
X12731750Y762000D1*
X12791750Y822000D1*
X12925750D2*
X12985750Y762000D1*
X13045750Y822000D1*
X10036500Y2663500D2*
X10096500Y2603500D1*
X10156500Y2663500D1*
X10096500Y2603500D2*
Y2543500D1*
X10036500Y2917500D2*
X10096500Y2857500D1*
X10156500Y2917500D1*
X10096500Y2857500D2*
Y2797500D1*
X10036500Y3171500D2*
X10096500Y3111500D1*
X10156500Y3171500D1*
X10096500Y3111500D2*
Y3051500D1*
X10036500Y3425500D2*
X10096500Y3365500D1*
X10156500Y3425500D1*
X10096500Y3365500D2*
Y3305500D1*
X10036500Y3679500D2*
X10096500Y3619500D1*
X10156500Y3679500D1*
X10096500Y3619500D2*
Y3559500D1*
X10036500Y3933500D2*
X10096500Y3873500D1*
X10156500Y3933500D1*
X10096500Y3873500D2*
Y3813500D1*
X10036500Y4187500D2*
X10096500Y4127500D1*
X10156500Y4187500D1*
X10096500Y4127500D2*
Y4067500D1*
X10036500Y4441500D2*
X10096500Y4381500D1*
X10156500Y4441500D1*
X10096500Y4381500D2*
Y4321500D1*
X10036500Y4695500D2*
X10096500Y4635500D1*
X10156500Y4695500D1*
X10096500Y4635500D2*
Y4575500D1*
X10036500Y4949500D2*
X10096500Y4889500D1*
X10156500Y4949500D1*
X10096500Y4889500D2*
Y4829500D1*
X10036500Y5203500D2*
X10096500Y5143500D1*
X10156500Y5203500D1*
X10096500Y5143500D2*
Y5083500D1*
X10036500Y5457500D2*
X10096500Y5397500D1*
X10156500Y5457500D1*
X10096500Y5397500D2*
Y5337500D1*
X10036500Y5711500D2*
X10096500Y5651500D1*
X10156500Y5711500D1*
X10096500Y5651500D2*
Y5591500D1*
X10036500Y5965500D2*
X10096500Y5905500D1*
X10156500Y5965500D1*
X10096500Y5905500D2*
Y5845500D1*
X10036500Y6219500D2*
X10096500Y6159500D1*
X10156500Y6219500D1*
X10096500Y6159500D2*
Y6099500D1*
X10036500Y6473500D2*
X10096500Y6413500D1*
X10156500Y6473500D1*
X10096500Y6413500D2*
Y6353500D1*
X10036500Y6727500D2*
X10096500Y6667500D1*
X10156500Y6727500D1*
X10096500Y6667500D2*
Y6607500D1*
X9782500Y6981500D2*
X9842500Y6921500D1*
X9902500Y6981500D1*
X9842500Y6921500D2*
Y6861500D1*
X9782500Y2663500D2*
X9842500Y2603500D1*
X9902500Y2663500D1*
X9842500Y2603500D2*
Y2543500D1*
X9782500Y2917500D2*
X9842500Y2857500D1*
X9902500Y2917500D1*
X9842500Y2857500D2*
Y2797500D1*
X9782500Y3171500D2*
X9842500Y3111500D1*
X9902500Y3171500D1*
X9842500Y3111500D2*
Y3051500D1*
X9782500Y3425500D2*
X9842500Y3365500D1*
X9902500Y3425500D1*
X9842500Y3365500D2*
Y3305500D1*
X9782500Y3679500D2*
X9842500Y3619500D1*
X9902500Y3679500D1*
X9842500Y3619500D2*
Y3559500D1*
X9782500Y3933500D2*
X9842500Y3873500D1*
X9902500Y3933500D1*
X9842500Y3873500D2*
Y3813500D1*
X9782500Y4187500D2*
X9842500Y4127500D1*
X9902500Y4187500D1*
X9842500Y4127500D2*
Y4067500D1*
X9782500Y4441500D2*
X9842500Y4381500D1*
X9902500Y4441500D1*
X9842500Y4381500D2*
Y4321500D1*
X9782500Y4695500D2*
X9842500Y4635500D1*
X9902500Y4695500D1*
X9842500Y4635500D2*
Y4575500D1*
X9782500Y4949500D2*
X9842500Y4889500D1*
X9902500Y4949500D1*
X9842500Y4889500D2*
Y4829500D1*
X9782500Y5203500D2*
X9842500Y5143500D1*
X9902500Y5203500D1*
X9842500Y5143500D2*
Y5083500D1*
X9782500Y5457500D2*
X9842500Y5397500D1*
X9902500Y5457500D1*
X9842500Y5397500D2*
Y5337500D1*
X9782500Y5711500D2*
X9842500Y5651500D1*
X9902500Y5711500D1*
X9842500Y5651500D2*
Y5591500D1*
X9782500Y5965500D2*
X9842500Y5905500D1*
X9902500Y5965500D1*
X9842500Y5905500D2*
Y5845500D1*
X9782500Y6219500D2*
X9842500Y6159500D1*
X9902500Y6219500D1*
X9842500Y6159500D2*
Y6099500D1*
X9782500Y6473500D2*
X9842500Y6413500D1*
X9902500Y6473500D1*
X9842500Y6413500D2*
Y6353500D1*
X9782500Y6727500D2*
X9842500Y6667500D1*
X9902500Y6727500D1*
X9842500Y6667500D2*
Y6607500D1*
X10036500Y6981500D2*
X10096500Y6921500D1*
X10156500Y6981500D1*
X10096500Y6921500D2*
Y6861500D1*
X4448500Y2155500D2*
X4508500Y2095500D1*
X4568500Y2155500D1*
X4508500Y2095500D2*
Y2035500D1*
X3940500Y2155500D2*
X4000500Y2095500D1*
X4060500Y2155500D1*
X4000500Y2095500D2*
Y2035500D1*
X3686500Y2155500D2*
X3746500Y2095500D1*
X3806500Y2155500D1*
X3746500Y2095500D2*
Y2035500D1*
X3432500Y2155500D2*
X3492500Y2095500D1*
X3552500Y2155500D1*
X3492500Y2095500D2*
Y2035500D1*
X3178500Y2155500D2*
X3238500Y2095500D1*
X3298500Y2155500D1*
X3238500Y2095500D2*
Y2035500D1*
X6734500Y2155500D2*
X6794500Y2095500D1*
X6854500Y2155500D1*
X6794500Y2095500D2*
Y2035500D1*
X6480500Y2155500D2*
X6540500Y2095500D1*
X6600500Y2155500D1*
X6540500Y2095500D2*
Y2035500D1*
X6226500Y2155500D2*
X6286500Y2095500D1*
X6346500Y2155500D1*
X6286500Y2095500D2*
Y2035500D1*
X5972500Y2155500D2*
X6032500Y2095500D1*
X6092500Y2155500D1*
X6032500Y2095500D2*
Y2035500D1*
X5718500Y2155500D2*
X5778500Y2095500D1*
X5838500Y2155500D1*
X5778500Y2095500D2*
Y2035500D1*
X5464500Y2155500D2*
X5524500Y2095500D1*
X5584500Y2155500D1*
X5524500Y2095500D2*
Y2035500D1*
X4545020Y6981500D2*
X4605020Y6921500D1*
X4665020Y6981500D1*
X4605020Y6921500D2*
Y6861500D1*
X4291020Y6981500D2*
X4351020Y6921500D1*
X4411020Y6981500D1*
X4351020Y6921500D2*
Y6861500D1*
X4037020Y6981500D2*
X4097020Y6921500D1*
X4157020Y6981500D1*
X4097020Y6921500D2*
Y6861500D1*
X3783020Y6981500D2*
X3843020Y6921500D1*
X3903020Y6981500D1*
X3843020Y6921500D2*
Y6861500D1*
X3529020Y6981500D2*
X3589020Y6921500D1*
X3649020Y6981500D1*
X3589020Y6921500D2*
Y6861500D1*
X3275020Y6981500D2*
X3335020Y6921500D1*
X3395020Y6981500D1*
X3335020Y6921500D2*
Y6861500D1*
X3021020Y6981500D2*
X3081020Y6921500D1*
X3141020Y6981500D1*
X3081020Y6921500D2*
Y6861500D1*
X2764480Y6981500D2*
X2824480Y6921500D1*
X2884480Y6981500D1*
X2824480Y6921500D2*
Y6861500D1*
X2513020Y6981500D2*
X2573020Y6921500D1*
X2633020Y6981500D1*
X2573020Y6921500D2*
Y6861500D1*
X2259020Y6981500D2*
X2319020Y6921500D1*
X2379020Y6981500D1*
X2319020Y6921500D2*
Y6861500D1*
X6734500Y6981500D2*
X6794500Y6921500D1*
X6854500Y6981500D1*
X6794500Y6921500D2*
Y6861500D1*
X6480500Y6981500D2*
X6540500Y6921500D1*
X6600500Y6981500D1*
X6540500Y6921500D2*
Y6861500D1*
X6226500Y6981500D2*
X6286500Y6921500D1*
X6346500Y6981500D1*
X6286500Y6921500D2*
Y6861500D1*
X5972500Y6981500D2*
X6032500Y6921500D1*
X6092500Y6981500D1*
X6032500Y6921500D2*
Y6861500D1*
X5718500Y6981500D2*
X5778500Y6921500D1*
X5838500Y6981500D1*
X5778500Y6921500D2*
Y6861500D1*
X5464500Y6981500D2*
X5524500Y6921500D1*
X5584500Y6981500D1*
X5524500Y6921500D2*
Y6861500D1*
X5210500Y6981500D2*
X5270500Y6921500D1*
X5330500Y6981500D1*
X5270500Y6921500D2*
Y6861500D1*
X4956500Y6981500D2*
X5016500Y6921500D1*
X5076500Y6981500D1*
X5016500Y6921500D2*
Y6861500D1*
X7242500Y6981500D2*
X7302500Y6921500D1*
X7362500Y6981500D1*
X7302500Y6921500D2*
Y6861500D1*
X7496500Y6981500D2*
X7556500Y6921500D1*
X7616500Y6981500D1*
X7556500Y6921500D2*
Y6861500D1*
X7750500Y6981500D2*
X7810500Y6921500D1*
X7870500Y6981500D1*
X7810500Y6921500D2*
Y6861500D1*
X8004500Y6981500D2*
X8064500Y6921500D1*
X8124500Y6981500D1*
X8064500Y6921500D2*
Y6861500D1*
X8258500Y6981500D2*
X8318500Y6921500D1*
X8378500Y6981500D1*
X8318500Y6921500D2*
Y6861500D1*
X8512500Y6981500D2*
X8572500Y6921500D1*
X8632500Y6981500D1*
X8572500Y6921500D2*
Y6861500D1*
X8766500Y6981500D2*
X8826500Y6921500D1*
X8886500Y6981500D1*
X8826500Y6921500D2*
Y6861500D1*
X9020500Y6981500D2*
X9080500Y6921500D1*
X9140500Y6981500D1*
X9080500Y6921500D2*
Y6861500D1*
X6988500Y2155500D2*
X7048500Y2095500D1*
X7108500Y2155500D1*
X7048500Y2095500D2*
Y2035500D1*
X7242500Y2155500D2*
X7302500Y2095500D1*
X7362500Y2155500D1*
X7302500Y2095500D2*
Y2035500D1*
X7750500Y2155500D2*
X7810500Y2095500D1*
X7870500Y2155500D1*
X7810500Y2095500D2*
Y2035500D1*
X8004500Y2155500D2*
X8064500Y2095500D1*
X8124500Y2155500D1*
X8064500Y2095500D2*
Y2035500D1*
X8258500Y2155500D2*
X8318500Y2095500D1*
X8378500Y2155500D1*
X8318500Y2095500D2*
Y2035500D1*
X8512500Y2155500D2*
X8572500Y2095500D1*
X8632500Y2155500D1*
X8572500Y2095500D2*
Y2035500D1*
X8766500Y2155500D2*
X8826500Y2095500D1*
X8886500Y2155500D1*
X8826500Y2095500D2*
Y2035500D1*
X9020500Y2155500D2*
X9080500Y2095500D1*
X9140500Y2155500D1*
X9080500Y2095500D2*
Y2035500D1*
X9274500Y2155500D2*
X9334500Y2095500D1*
X9394500Y2155500D1*
X9334500Y2095500D2*
Y2035500D1*
X9528500Y2155500D2*
X9588500Y2095500D1*
X9648500Y2155500D1*
X9588500Y2095500D2*
Y2035500D1*
X4194500Y2155500D2*
X4254500Y2095500D1*
X4314500Y2155500D1*
X4254500Y2095500D2*
Y2035500D1*
X4956500Y2155500D2*
X5016500Y2095500D1*
X5076500Y2155500D1*
X5016500Y2095500D2*
Y2035500D1*
X4702500Y2155500D2*
X4762500Y2095500D1*
X4822500Y2155500D1*
X4762500Y2095500D2*
Y2035500D1*
X956000Y8950000D2*
X1016000Y8890000D1*
X1076000Y8950000D1*
X1210000D2*
X1270000Y8890000D1*
X1330000Y8950000D1*
X11239500Y8124500D2*
Y8004500D1*
X11179500Y8064500D2*
X11299500D1*
X11874500Y8124500D2*
Y8004500D1*
X11814500Y8064500D2*
X11934500D1*
X4543750Y8886500D2*
X4603750Y8826500D1*
X4663750Y8886500D1*
X4797750D2*
X4857750Y8826500D1*
X4917750Y8886500D1*
X11560500D2*
X11620500Y8826500D1*
X11680500Y8886500D1*
X11814500D2*
X11874500Y8826500D1*
X11934500Y8886500D1*
X12068500D2*
X12128500Y8826500D1*
X12188500Y8886500D1*
X12321220Y8885657D2*
X12381220Y8825657D1*
X12441220Y8885657D1*
X12575220D2*
X12635220Y8825657D1*
X12695220Y8885657D1*
X12829220D2*
X12889220Y8825657D1*
X12949220Y8885657D1*
X13084500Y8886500D2*
X13144500Y8826500D1*
X13204500Y8886500D1*
X13338500D2*
X13398500Y8826500D1*
X13458500Y8886500D1*
X13592500D2*
X13652500Y8826500D1*
X13712500Y8886500D1*
X13846500D2*
X13906500Y8826500D1*
X13966500Y8886500D1*
X14100500D2*
X14160500Y8826500D1*
X14220500Y8886500D1*
X9465000D2*
X9525000Y8826500D1*
X9585000Y8886500D1*
X9719000D2*
X9779000Y8826500D1*
X9839000Y8886500D1*
X10004750D2*
X10064750Y8826500D1*
X10124750Y8886500D1*
X10258750D2*
X10318750Y8826500D1*
X10378750Y8886500D1*
X1210000Y822000D2*
X1270000Y762000D1*
X1330000Y822000D1*
X1464000D2*
X1524000Y762000D1*
X1584000Y822000D1*
X1749753D2*
X1809753Y762000D1*
X1869753Y822000D1*
X2003753D2*
X2063753Y762000D1*
X2123753Y822000D1*
X2289503D2*
X2349503Y762000D1*
X2409503Y822000D1*
X2543503D2*
X2603503Y762000D1*
X2663503Y822000D1*
X1464000Y8950000D2*
X1524000Y8890000D1*
X1584000Y8950000D1*
X1718000D2*
X1778000Y8890000D1*
X1838000Y8950000D1*
X11814500Y6794500D2*
X11934500D1*
X11874500D2*
Y6734500D1*
X10798500Y6794500D2*
X10918500D1*
X10858500D2*
Y6734500D1*
X11239500Y7807000D2*
Y7687000D1*
X11179500Y7747000D2*
X11299500D1*
X11874500Y7807000D2*
Y7687000D1*
X11814500Y7747000D2*
X11934500D1*
X5463703Y822557D2*
X5523703Y762557D1*
X5583703Y822557D1*
X5717703D2*
X5777703Y762557D1*
X5837703Y822557D1*
X6002983Y821567D2*
X6062983Y761567D1*
X6122983Y821567D1*
X6256983D2*
X6316983Y761567D1*
X6376983Y821567D1*
X6544000Y822000D2*
X6604000Y762000D1*
X6664000Y822000D1*
X6798000D2*
X6858000Y762000D1*
X6918000Y822000D1*
X7084333Y823443D2*
X7144333Y763443D1*
X7204333Y823443D1*
X7338333D2*
X7398333Y763443D1*
X7458333Y823443D1*
X7841193Y831533D2*
X7901193Y771533D1*
X7961193Y831533D1*
X8095193D2*
X8155193Y771533D1*
X8215193Y831533D1*
X8381527Y833223D2*
X8441527Y773223D1*
X8501527Y833223D1*
X8635527D2*
X8695527Y773223D1*
X8755527Y833223D1*
X8921263Y833350D2*
X8981263Y773350D1*
X9041263Y833350D1*
X9175263D2*
X9235263Y773350D1*
X9295263Y833350D1*
X9461140Y833347D2*
X9521140Y773347D1*
X9581140Y833347D1*
X9715140D2*
X9775140Y773347D1*
X9835140Y833347D1*
X4304227Y805450D2*
X4364227Y745450D1*
X4424227Y805450D1*
X4558227D2*
X4618227Y745450D1*
X4678227Y805450D1*
X4812227D2*
X4872227Y745450D1*
X4932227Y805450D1*
X17212000Y2600000D2*
X17272000Y2540000D1*
X17332000Y2600000D1*
X17272000Y2540000D2*
Y2480000D1*
X17212000Y2854000D2*
X17272000Y2794000D1*
X17332000Y2854000D1*
X17272000Y2794000D2*
Y2734000D1*
X17212000Y3108000D2*
X17272000Y3048000D1*
X17332000Y3108000D1*
X17272000Y3048000D2*
Y2988000D1*
X17212000Y3362000D2*
X17272000Y3302000D1*
X17332000Y3362000D1*
X17272000Y3302000D2*
Y3242000D1*
X17212000Y3616000D2*
X17272000Y3556000D1*
X17332000Y3616000D1*
X17272000Y3556000D2*
Y3496000D1*
X17212000Y3870000D2*
X17272000Y3810000D1*
X17332000Y3870000D1*
X17272000Y3810000D2*
Y3750000D1*
X17212000Y4124000D2*
X17272000Y4064000D1*
X17332000Y4124000D1*
X17272000Y4064000D2*
Y4004000D1*
X17212000Y4378000D2*
X17272000Y4318000D1*
X17332000Y4378000D1*
X17272000Y4318000D2*
Y4258000D1*
X16450000Y4378000D2*
X16510000Y4318000D1*
X16570000Y4378000D1*
X16510000Y4318000D2*
Y4258000D1*
X16450000Y4124000D2*
X16510000Y4064000D1*
X16570000Y4124000D1*
X16510000Y4064000D2*
Y4004000D1*
X16450000Y3870000D2*
X16510000Y3810000D1*
X16570000Y3870000D1*
X16510000Y3810000D2*
Y3750000D1*
X16450000Y3616000D2*
X16510000Y3556000D1*
X16570000Y3616000D1*
X16510000Y3556000D2*
Y3496000D1*
X16450000Y3362000D2*
X16510000Y3302000D1*
X16570000Y3362000D1*
X16510000Y3302000D2*
Y3242000D1*
X16450000Y3108000D2*
X16510000Y3048000D1*
X16570000Y3108000D1*
X16510000Y3048000D2*
Y2988000D1*
X16450000Y2854000D2*
X16510000Y2794000D1*
X16570000Y2854000D1*
X16510000Y2794000D2*
Y2734000D1*
X16450000Y2600000D2*
X16510000Y2540000D1*
X16570000Y2600000D1*
X16510000Y2540000D2*
Y2480000D1*
X13529000Y7112000D2*
X13649000D1*
X13589000D2*
Y7052000D1*
X13529000Y6096000D2*
X13649000D1*
X13589000D2*
Y6036000D1*
X13211500Y7112000D2*
X13331500D1*
X13271500D2*
Y7052000D1*
X13211500Y6096000D2*
X13331500D1*
X13271500D2*
Y6036000D1*
X13846500Y7112000D2*
X13966500D1*
X13906500D2*
Y7052000D1*
X13846500Y6096000D2*
X13966500D1*
X13906500D2*
Y6036000D1*
X14164000Y7112000D2*
X14284000D1*
X14224000D2*
Y7052000D1*
X14164000Y6096000D2*
X14284000D1*
X14224000D2*
Y6036000D1*
X14481500Y7112000D2*
X14601500D1*
X14541500D2*
Y7052000D1*
X14481500Y6096000D2*
X14601500D1*
X14541500D2*
Y6036000D1*
X14799000Y7112000D2*
X14919000D1*
X14859000D2*
Y7052000D1*
X14799000Y6096000D2*
X14919000D1*
X14859000D2*
Y6036000D1*
X10798500Y6413500D2*
X10918500D1*
X10858500D2*
Y6353500D1*
X11814500Y6413500D2*
X11934500D1*
X11874500D2*
Y6353500D1*
X10876333Y3666287D2*
X10996333D1*
X10936333D2*
Y3606287D1*
X11892333Y3666287D2*
X12012333D1*
X11952333D2*
Y3606287D1*
X10876333Y3348787D2*
X10996333D1*
X10936333D2*
Y3288787D1*
X11892333Y3348787D2*
X12012333D1*
X11952333D2*
Y3288787D1*
X10876333Y3031287D2*
X10996333D1*
X10936333D2*
Y2971287D1*
X11892333Y3031287D2*
X12012333D1*
X11952333D2*
Y2971287D1*
X12322500Y7553000D2*
X12442500Y7433000D1*
Y7553000D2*
X12322500Y7433000D1*
X12195500Y7426000D2*
X12315500Y7306000D1*
Y7426000D2*
X12195500Y7306000D1*
X12068500Y7553000D2*
X12188500Y7433000D1*
Y7553000D2*
X12068500Y7433000D1*
X10862000Y7553000D2*
X10982000Y7433000D1*
Y7553000D2*
X10862000Y7433000D1*
X10735000Y7426000D2*
X10855000Y7306000D1*
Y7426000D2*
X10735000Y7306000D1*
X10608000Y7553000D2*
X10728000Y7433000D1*
Y7553000D2*
X10608000Y7433000D1*
X18228000Y2346000D2*
X18288000Y2286000D1*
X18348000Y2346000D1*
X18288000Y2286000D2*
Y2226000D1*
X18228000Y2854000D2*
X18288000Y2794000D1*
X18348000Y2854000D1*
X18288000Y2794000D2*
Y2734000D1*
X17974000Y3616000D2*
X18034000Y3556000D1*
X18094000Y3616000D1*
X18034000Y3556000D2*
Y3496000D1*
X17974000Y3108000D2*
X18034000Y3048000D1*
X18094000Y3108000D1*
X18034000Y3048000D2*
Y2988000D1*
X18228000Y3870000D2*
X18288000Y3810000D1*
X18348000Y3870000D1*
X18288000Y3810000D2*
Y3750000D1*
X18228000Y4378000D2*
X18288000Y4318000D1*
X18348000Y4378000D1*
X18288000Y4318000D2*
Y4258000D1*
X15942000Y2346000D2*
X16002000Y2286000D1*
X16062000Y2346000D1*
X16002000Y2286000D2*
Y2226000D1*
X15942000Y2854000D2*
X16002000Y2794000D1*
X16062000Y2854000D1*
X16002000Y2794000D2*
Y2734000D1*
X16450000Y1838000D2*
X16510000Y1778000D1*
X16570000Y1838000D1*
X16510000Y1778000D2*
Y1718000D1*
X16958000Y1838000D2*
X17018000Y1778000D1*
X17078000Y1838000D1*
X17018000Y1778000D2*
Y1718000D1*
X16704000Y822000D2*
X16764000Y762000D1*
X16824000Y822000D1*
X16958000D2*
X17018000Y762000D1*
X17078000Y822000D1*
X17212000D2*
X17272000Y762000D1*
X17332000Y822000D1*
X17466000D2*
X17526000Y762000D1*
X17586000Y822000D1*
X7814000Y6664000D2*
X7874000Y6604000D1*
X7934000Y6664000D1*
X7874000Y6604000D2*
Y6544000D1*
X8068000Y6664000D2*
X8128000Y6604000D1*
X8188000Y6664000D1*
X8128000Y6604000D2*
Y6544000D1*
X15942000Y4251000D2*
X16002000Y4191000D1*
X16062000Y4251000D1*
X16002000Y4191000D2*
Y4131000D1*
X13910000Y822000D2*
X13970000Y762000D1*
X14030000Y822000D1*
X14164000D2*
X14224000Y762000D1*
X14284000Y822000D1*
X13910000Y1778000D2*
X14030000D1*
X13970000D2*
Y1718000D1*
X13910000Y2794000D2*
X14030000D1*
X13970000D2*
Y2734000D1*
X14164000Y1778000D2*
X14284000D1*
X14224000D2*
Y1718000D1*
X14164000Y2794000D2*
X14284000D1*
X14224000D2*
Y2734000D1*
X22419000Y6854500D2*
X22479000Y6794500D1*
X22539000Y6854500D1*
X22479000Y6794500D2*
Y6734500D1*
X21149000Y6854500D2*
X21209000Y6794500D1*
X21269000Y6854500D1*
X21209000Y6794500D2*
Y6734500D1*
X22165000Y6854500D2*
X22225000Y6794500D1*
X22285000Y6854500D1*
X22225000Y6794500D2*
Y6734500D1*
X21911000Y6854500D2*
X21971000Y6794500D1*
X22031000Y6854500D1*
X21971000Y6794500D2*
Y6734500D1*
X21657000Y6854500D2*
X21717000Y6794500D1*
X21777000Y6854500D1*
X21717000Y6794500D2*
Y6734500D1*
X21403000Y6854500D2*
X21463000Y6794500D1*
X21523000Y6854500D1*
X21463000Y6794500D2*
Y6734500D1*
X1841500Y2155500D2*
Y2095500D1*
X1901500D1*
X1968500Y6981500D2*
Y6921500D1*
X2028500D1*
X7048500Y2663500D2*
Y2603500D1*
X7108500D1*
X7048500Y5457500D2*
Y5397500D1*
X7108500D1*
X10096500Y2155500D2*
Y2095500D1*
X10156500D1*
X9461500Y6981500D2*
Y6921500D1*
X9521500D1*
X2480000Y5902000D2*
X2600000Y5782000D1*
Y5902000D2*
X2480000Y5782000D1*
Y5902000D2*
X2600000D1*
Y5782000D1*
X2480000D1*
Y5902000D1*
Y3362000D2*
X2600000Y3242000D1*
Y3362000D2*
X2480000Y3242000D1*
Y3362000D2*
X2600000D1*
Y3242000D1*
X2480000D1*
Y3362000D1*
X26924000Y6473500D2*
Y6353500D1*
X26864000Y6413500D2*
X26984000D1*
X26864000Y6473500D2*
X26984000D1*
Y6353500D1*
X26864000D1*
Y6473500D1*
X26924000Y9013500D2*
Y8893500D1*
X26864000Y8953500D2*
X26984000D1*
X26864000Y9013500D2*
X26984000D1*
Y8893500D1*
X26864000D1*
Y9013500D1*
X16764000D2*
Y8893500D1*
X16704000Y8953500D2*
X16824000D1*
X16704000Y9013500D2*
X16824000D1*
Y8893500D1*
X16704000D1*
Y9013500D1*
X16764000Y6473500D2*
Y6353500D1*
X16704000Y6413500D2*
X16824000D1*
X16704000Y6473500D2*
X16824000D1*
Y6353500D1*
X16704000D1*
Y6473500D1*
X20260000Y5902000D2*
X20380000Y5782000D1*
Y5902000D2*
X20260000Y5782000D1*
Y5902000D2*
X20380000D1*
Y5782000D1*
X20260000D1*
Y5902000D1*
Y3362000D2*
X20380000Y3242000D1*
Y3362000D2*
X20260000Y3242000D1*
Y3362000D2*
X20380000D1*
Y3242000D1*
X20260000D1*
Y3362000D1*
M02*
