G04 DipTrace 3.0.0.1*
G04 TopAssy.gbr*
%MOMM*%
G04 #@! TF.FileFunction,Drawing,Top*
G04 #@! TF.Part,Single*
%AMOUTLINE0*5,1,4,0,0,1.8,-90.0*%
%ADD10C,0.25*%
%ADD17C,0.03333*%
G04 #@! TA.AperFunction,ComponentPad*
%ADD19C,1.5*%
%ADD21C,2.0*%
%ADD22R,1.5X1.5*%
%ADD23R,1.27X1.27*%
%ADD24C,1.27*%
%ADD25C,1.524*%
%ADD26C,1.524*%
%ADD27C,1.5*%
%ADD28C,1.4*%
%ADD60C,0.23529*%
G04 #@! TA.AperFunction,ComponentPad*
%ADD61OUTLINE0*%
%FSLAX35Y35*%
G04*
G71*
G90*
G75*
G01*
G04 TopAssy*
%LPD*%
D21*
X2540000Y8890000D3*
X2794000D3*
X3048000D3*
X3302000D3*
X2032000D3*
X2286000D3*
X8096250Y8826500D3*
X8350250D3*
X11160123Y777873D3*
X11414123D3*
X11684000Y762000D3*
X11938000D3*
X12192000D3*
X8985250Y8826500D3*
X9239250D3*
X7556500D3*
X7810500D3*
X6667500D3*
X6921500D3*
X5683250D3*
X5937250D3*
X5143500D3*
X5397500D3*
X12477750Y762000D3*
X12731750D3*
X12985750D3*
X5143310Y2222348D2*
D10*
X3873818D1*
X5396992D2*
X9714992D1*
X1397445Y6286322D2*
X-190500D1*
Y5143246D1*
X1397445D1*
X9714992Y7048551D2*
Y2476246D1*
X6413881Y7048551D2*
Y6540754D1*
Y6794652D2*
X3237992D1*
X9207627D2*
X6413881D1*
X1397445Y5143246D2*
Y6286322D1*
X254254Y2158873D2*
Y3048051D1*
Y2158873D2*
X1587437D1*
X254254Y3048051D2*
X1587437D1*
Y2158873D1*
D22*
X10096500Y2603500D3*
Y2857500D3*
Y3111500D3*
Y3365500D3*
Y3619500D3*
Y3873500D3*
Y4127500D3*
Y4381500D3*
Y4635500D3*
Y4889500D3*
Y5143500D3*
Y5397500D3*
Y5651500D3*
Y5905500D3*
Y6159500D3*
Y6413500D3*
Y6667500D3*
X9842500Y6921500D3*
Y2603500D3*
Y2857500D3*
Y3111500D3*
Y3365500D3*
Y3619500D3*
Y3873500D3*
Y4127500D3*
Y4381500D3*
Y4635500D3*
Y4889500D3*
Y5143500D3*
Y5397500D3*
Y5651500D3*
Y5905500D3*
Y6159500D3*
Y6413500D3*
Y6667500D3*
X10096500Y6921500D3*
X4508500Y2095500D3*
X4000500D3*
X3746500D3*
X3492500D3*
X3238500D3*
X6794500D3*
X6540500D3*
X6286500D3*
X6032500D3*
X5778500D3*
X5524500D3*
X4605020Y6921500D3*
X4351020D3*
X4097020D3*
X3843020D3*
X3589020D3*
X3335020D3*
X3081020D3*
X2824480D3*
X2573020D3*
X2319020D3*
X6794500D3*
X6540500D3*
X6286500D3*
X6032500D3*
X5778500D3*
X5524500D3*
X5270500D3*
X5016500D3*
X7302500D3*
X7556500D3*
X7810500D3*
X8064500D3*
X8318500D3*
X8572500D3*
X8826500D3*
X9080500D3*
X7048500Y2095500D3*
X7302500D3*
X7810500D3*
X8064500D3*
X8318500D3*
X8572500D3*
X8826500D3*
X9080500D3*
X9334500D3*
X9588500D3*
X4254500D3*
X5016500D3*
X4762500D3*
D21*
X1016000Y8890000D3*
X1270000D3*
D23*
X11239500Y8064500D3*
D24*
X11874500D3*
D21*
X4603750Y8826500D3*
X4857750D3*
X11620500D3*
X11874500D3*
X12128500D3*
X12381220Y8825657D3*
X12635220D3*
X12889220D3*
X13144500Y8826500D3*
X13398500D3*
X13652500D3*
X13906500D3*
X14160500D3*
X9525000D3*
X9779000D3*
X10064750D3*
X10318750D3*
X1270000Y762000D3*
X1524000D3*
X1809753D3*
X2063753D3*
X2349503D3*
X2603503D3*
X1524000Y8890000D3*
X1778000D3*
D25*
X11874500Y6794500D3*
D26*
X10858500D3*
D23*
X11239500Y7747000D3*
D24*
X11874500D3*
D21*
X5523703Y762557D3*
X5777703D3*
X6062983Y761567D3*
X6316983D3*
X6604000Y762000D3*
X6858000D3*
X7144333Y763443D3*
X7398333D3*
X7901193Y771533D3*
X8155193D3*
X8441527Y773223D3*
X8695527D3*
X8981263Y773350D3*
X9235263D3*
X9521140Y773347D3*
X9775140D3*
X4364227Y745450D3*
X4618227D3*
X4872227D3*
D22*
X17272000Y2540000D3*
D27*
Y2794000D3*
Y3048000D3*
Y3302000D3*
Y3556000D3*
Y3810000D3*
Y4064000D3*
Y4318000D3*
X16510000D3*
Y4064000D3*
Y3810000D3*
Y3556000D3*
Y3302000D3*
Y3048000D3*
Y2794000D3*
Y2540000D3*
D25*
X13589000Y7112000D3*
D26*
Y6096000D3*
D25*
X13271500Y7112000D3*
D26*
Y6096000D3*
D25*
X13906500Y7112000D3*
D26*
Y6096000D3*
D25*
X14224000Y7112000D3*
D26*
Y6096000D3*
D25*
X14541500Y7112000D3*
D26*
Y6096000D3*
D25*
X14859000Y7112000D3*
D26*
Y6096000D3*
D25*
X10858500Y6413500D3*
D26*
X11874500D3*
D25*
X10936333Y3666287D3*
D26*
X11952333D3*
D25*
X10936333Y3348787D3*
D26*
X11952333D3*
D25*
X10936333Y3031287D3*
D26*
X11952333D3*
D28*
X12382500Y7493000D3*
X12255500Y7366000D3*
D61*
X12128500Y7493000D3*
D28*
X10922000D3*
X10795000Y7366000D3*
D61*
X10668000Y7493000D3*
D19*
X18288000Y2286000D3*
Y2794000D3*
X18034000Y3556000D3*
Y3048000D3*
X18288000Y3810000D3*
Y4318000D3*
X16002000Y2286000D3*
Y2794000D3*
X16510000Y1778000D3*
X17018000D3*
D21*
X16764000Y762000D3*
X17018000D3*
X17272000D3*
X17526000D3*
D19*
X7874000Y6604000D3*
X8128000D3*
X16002000Y4191000D3*
D21*
X13970000Y762000D3*
X14224000D3*
D25*
X13970000Y1778000D3*
D26*
Y2794000D3*
D25*
X14224000Y1778000D3*
D26*
Y2794000D3*
D19*
X22479000Y6794500D3*
X21209000D3*
X22225000D3*
X21971000D3*
X21717000D3*
X21463000D3*
X63500Y9525000D2*
D17*
X27686000D1*
Y-762000D1*
X63500D1*
Y9525000D1*
X4011884Y2344368D2*
D60*
X4077584D1*
X4099315Y2351612D1*
X4106728Y2359024D1*
X4113971Y2373512D1*
Y2395412D1*
X4106728Y2409900D1*
X4099315Y2417312D1*
X4077584Y2424556D1*
X4011884D1*
Y2271424D1*
X4204830Y2424556D2*
X4190174Y2417312D1*
X4175686Y2402656D1*
X4168274Y2388168D1*
X4161030Y2366268D1*
Y2329712D1*
X4168274Y2307981D1*
X4175686Y2293324D1*
X4190174Y2278837D1*
X4204830Y2271424D1*
X4233974D1*
X4248462Y2278837D1*
X4263118Y2293324D1*
X4270362Y2307981D1*
X4277606Y2329712D1*
Y2366268D1*
X4270362Y2388168D1*
X4263118Y2402656D1*
X4248462Y2417312D1*
X4233974Y2424556D1*
X4204830D1*
X4324664D2*
X4361221Y2271424D1*
X4397608Y2424556D1*
X4433996Y2271424D1*
X4470552Y2424556D1*
X4612286D2*
X4517611D1*
Y2271424D1*
X4612286D1*
X4517611Y2351612D2*
X4575899D1*
X4659345D2*
X4724877D1*
X4746777Y2359024D1*
X4754189Y2366268D1*
X4761433Y2380756D1*
Y2395412D1*
X4754189Y2409900D1*
X4746777Y2417312D1*
X4724877Y2424556D1*
X4659345D1*
Y2271424D1*
X4710389Y2351612D2*
X4761433Y2271424D1*
X7811882D2*
X7753425Y2424556D1*
X7695138Y2271424D1*
X7717038Y2322468D2*
X7789982D1*
X7961028Y2424556D2*
Y2271424D1*
X7858940Y2424556D1*
Y2271424D1*
X8124831D2*
X8066375Y2424556D1*
X8008087Y2271424D1*
X8029987Y2322468D2*
X8102931D1*
X8171890Y2424556D2*
Y2271424D1*
X8259321D1*
X8350180Y2424556D2*
X8335524Y2417312D1*
X8321036Y2402656D1*
X8313624Y2388168D1*
X8306380Y2366268D1*
Y2329712D1*
X8313624Y2307981D1*
X8321036Y2293324D1*
X8335524Y2278837D1*
X8350180Y2271424D1*
X8379324D1*
X8393811Y2278837D1*
X8408468Y2293324D1*
X8415711Y2307981D1*
X8422955Y2329712D1*
Y2366268D1*
X8415711Y2388168D1*
X8408468Y2402656D1*
X8393811Y2417312D1*
X8379324Y2424556D1*
X8350180D1*
X8579346Y2388168D2*
X8572102Y2402656D1*
X8557446Y2417312D1*
X8542958Y2424556D1*
X8513814D1*
X8499158Y2417312D1*
X8484670Y2402656D1*
X8477258Y2388168D1*
X8470014Y2366268D1*
Y2329712D1*
X8477258Y2307981D1*
X8484670Y2293324D1*
X8499158Y2278837D1*
X8513814Y2271424D1*
X8542958D1*
X8557446Y2278837D1*
X8572102Y2293324D1*
X8579346Y2307981D1*
Y2329712D1*
X8542958D1*
X8774540Y2424556D2*
Y2271424D1*
X8923687Y2424556D2*
Y2271424D1*
X8821599Y2424556D1*
Y2271424D1*
X9513000Y3336117D2*
X9666131D1*
Y3387161D1*
X9658719Y3409061D1*
X9644231Y3423717D1*
X9629575Y3430961D1*
X9607844Y3438205D1*
X9571287D1*
X9549387Y3430961D1*
X9534900Y3423717D1*
X9520244Y3409061D1*
X9513000Y3387161D1*
Y3336117D1*
Y3485263D2*
X9666131D1*
X9549387Y3641654D2*
X9534900Y3634410D1*
X9520244Y3619754D1*
X9513000Y3605266D1*
Y3576122D1*
X9520244Y3561466D1*
X9534900Y3546978D1*
X9549387Y3539566D1*
X9571287Y3532322D1*
X9607844D1*
X9629575Y3539566D1*
X9644231Y3546978D1*
X9658719Y3561466D1*
X9666131Y3576122D1*
Y3605266D1*
X9658719Y3619754D1*
X9644231Y3634410D1*
X9629575Y3641654D1*
X9607844D1*
Y3605266D1*
X9513000Y3688712D2*
X9666131D1*
X9513000Y3786815D2*
X9666131D1*
X9513000Y3735771D2*
Y3837859D1*
X9666131Y4001662D2*
X9513000Y3943205D1*
X9666131Y3884918D1*
X9615087Y3906818D2*
Y3979762D1*
X9513000Y4048720D2*
X9666131D1*
Y4136152D1*
X3885582Y6662775D2*
X3951282D1*
X3973014Y6670018D1*
X3980426Y6677431D1*
X3987670Y6691918D1*
Y6713818D1*
X3980426Y6728306D1*
X3973014Y6735718D1*
X3951282Y6742962D1*
X3885582D1*
Y6589831D1*
X4034729Y6742962D2*
X4071285Y6589831D1*
X4107673Y6742962D1*
X4144060Y6589831D1*
X4180616Y6742962D1*
X4344251Y6589831D2*
Y6742962D1*
X4285963Y6589831D1*
X4227675Y6742962D1*
Y6589831D1*
X7042342Y6706575D2*
X7035098Y6721062D1*
X7020442Y6735718D1*
X7005955Y6742962D1*
X6976811D1*
X6962155Y6735718D1*
X6947667Y6721062D1*
X6940255Y6706575D1*
X6933011Y6684675D1*
Y6648118D1*
X6940255Y6626387D1*
X6947667Y6611731D1*
X6962155Y6597243D1*
X6976811Y6589831D1*
X7005955D1*
X7020442Y6597243D1*
X7035098Y6611731D1*
X7042342Y6626387D1*
X7133201Y6742962D2*
X7118545Y6735718D1*
X7104057Y6721062D1*
X7096645Y6706575D1*
X7089401Y6684675D1*
Y6648118D1*
X7096645Y6626387D1*
X7104057Y6611731D1*
X7118545Y6597243D1*
X7133201Y6589831D1*
X7162345D1*
X7176833Y6597243D1*
X7191489Y6611731D1*
X7198733Y6626387D1*
X7205976Y6648118D1*
Y6684675D1*
X7198733Y6706575D1*
X7191489Y6721062D1*
X7176833Y6735718D1*
X7162345Y6742962D1*
X7133201D1*
X7369611Y6589831D2*
Y6742962D1*
X7311323Y6589831D1*
X7253035Y6742962D1*
Y6589831D1*
X7533245D2*
Y6742962D1*
X7474957Y6589831D1*
X7416669Y6742962D1*
Y6589831D1*
X7580304Y6742962D2*
Y6633631D1*
X7587548Y6611731D1*
X7602204Y6597243D1*
X7624104Y6589831D1*
X7638591D1*
X7660491Y6597243D1*
X7675148Y6611731D1*
X7682391Y6633631D1*
Y6742962D1*
X7831538D2*
Y6589831D1*
X7729450Y6742962D1*
Y6589831D1*
X7878597Y6742962D2*
Y6589831D1*
X8034987Y6706575D2*
X8027743Y6721062D1*
X8013087Y6735718D1*
X7998599Y6742962D1*
X7969456D1*
X7954799Y6735718D1*
X7940312Y6721062D1*
X7932899Y6706575D1*
X7925656Y6684675D1*
Y6648118D1*
X7932899Y6626387D1*
X7940312Y6611731D1*
X7954799Y6597243D1*
X7969456Y6589831D1*
X7998599D1*
X8013087Y6597243D1*
X8027743Y6611731D1*
X8034987Y6626387D1*
X8198790Y6589831D2*
X8140334Y6742962D1*
X8082046Y6589831D1*
X8103946Y6640875D2*
X8176890D1*
X8296892Y6742962D2*
Y6589831D1*
X8245849Y6742962D2*
X8347936D1*
X8394995D2*
Y6589831D1*
X8485854Y6742962D2*
X8471198Y6735718D1*
X8456710Y6721062D1*
X8449298Y6706575D1*
X8442054Y6684675D1*
Y6648118D1*
X8449298Y6626387D1*
X8456710Y6611731D1*
X8471198Y6597243D1*
X8485854Y6589831D1*
X8514998D1*
X8529485Y6597243D1*
X8544142Y6611731D1*
X8551385Y6626387D1*
X8558629Y6648118D1*
Y6684675D1*
X8551385Y6706575D1*
X8544142Y6721062D1*
X8529485Y6735718D1*
X8514998Y6742962D1*
X8485854D1*
X8707776D2*
Y6589831D1*
X8605688Y6742962D1*
Y6589831D1*
M02*
