G04 DipTrace 3.0.0.1*
G04 TopDimension.gbr*
%MOMM*%
G04 #@! TF.FileFunction,Drawing,Top*
G04 #@! TF.Part,Single*
%ADD13C,0.035*%
%ADD58C,0.15686*%
%FSLAX35Y35*%
G04*
G71*
G90*
G75*
G01*
G04 TopDimension*
%LPD*%
X2540000Y5842000D2*
D13*
X1728000D1*
X2540000Y3302000D2*
X1728000D1*
X1778000Y4572000D2*
Y5742000D1*
G36*
Y5842000D2*
X1798000Y5742000D1*
X1758000D1*
X1778000Y5842000D1*
G37*
Y4572000D2*
D13*
Y3402000D1*
G36*
Y3302000D2*
X1758000Y3402000D1*
X1798000D1*
X1778000Y3302000D1*
G37*
X15557500Y9525000D2*
D13*
X28656750D1*
X27686000Y-762000D2*
X28656750D1*
X28606750Y4381500D2*
Y9425000D1*
G36*
Y9525000D2*
X28626750Y9425000D1*
X28586750D1*
X28606750Y9525000D1*
G37*
Y4381500D2*
D13*
Y-662000D1*
G36*
Y-762000D2*
X28586750Y-662000D1*
X28626750D1*
X28606750Y-762000D1*
G37*
X27686000D2*
D13*
Y-1066000D1*
X63500Y444500D2*
Y-1066000D1*
X13874750Y-1016000D2*
X27586000D1*
G36*
X27686000D2*
X27586000Y-1036000D1*
Y-996000D1*
X27686000Y-1016000D1*
G37*
X13874750D2*
D13*
X163500D1*
G36*
X63500D2*
X163500Y-996000D1*
Y-1036000D1*
X63500Y-1016000D1*
G37*
X1669268Y4428338D2*
D58*
X1664439D1*
X1654668Y4433167D1*
X1649839Y4437997D1*
X1645009Y4447767D1*
Y4467197D1*
X1649839Y4476855D1*
X1654668Y4481684D1*
X1664439Y4486626D1*
X1674097D1*
X1683868Y4481684D1*
X1698355Y4472026D1*
X1746985Y4423397D1*
Y4491455D1*
X1645009Y4581115D2*
Y4532598D1*
X1688697Y4527769D1*
X1683868Y4532598D1*
X1678926Y4547198D1*
Y4561686D1*
X1683868Y4576286D1*
X1693526Y4586057D1*
X1708126Y4590886D1*
X1717785D1*
X1732385Y4586057D1*
X1742155Y4576286D1*
X1746985Y4561686D1*
Y4547198D1*
X1742155Y4532598D1*
X1737214Y4527769D1*
X1727555Y4522828D1*
X1737214Y4627088D2*
X1742155Y4622259D1*
X1746985Y4627088D1*
X1742155Y4632029D1*
X1737214Y4627088D1*
X1746985Y4712031D2*
X1645009D1*
X1712955Y4663402D1*
Y4736290D1*
X28720311Y4605220D2*
X28725253Y4595449D1*
X28739741Y4580849D1*
X28637765D1*
X28739741Y4520276D2*
X28734911Y4534876D1*
X28720311Y4544647D1*
X28696053Y4549476D1*
X28681453D1*
X28657195Y4544647D1*
X28642595Y4534876D1*
X28637765Y4520276D1*
Y4510618D1*
X28642595Y4496018D1*
X28657195Y4486360D1*
X28681453Y4481418D1*
X28696053D1*
X28720311Y4486360D1*
X28734911Y4496018D1*
X28739741Y4510618D1*
Y4520276D1*
X28720311Y4486360D2*
X28657195Y4544647D1*
X28715482Y4445104D2*
X28720311D1*
X28730082Y4440275D1*
X28734911Y4435445D1*
X28739741Y4425675D1*
Y4406245D1*
X28734911Y4396587D1*
X28730082Y4391758D1*
X28720311Y4386816D1*
X28710653D1*
X28700882Y4391758D1*
X28686395Y4401416D1*
X28637765Y4450045D1*
Y4381987D1*
X28647536Y4345785D2*
X28642595Y4350614D1*
X28637765Y4345785D1*
X28642595Y4340844D1*
X28647536Y4345785D1*
X28739741Y4285213D2*
X28734911Y4299700D1*
X28725253Y4304642D1*
X28715482D1*
X28705824Y4299700D1*
X28700882Y4290042D1*
X28696053Y4270613D1*
X28691224Y4256013D1*
X28681453Y4246354D1*
X28671795Y4241525D1*
X28657195D1*
X28647536Y4246354D1*
X28642595Y4251183D1*
X28637765Y4265783D1*
Y4285213D1*
X28642595Y4299700D1*
X28647536Y4304642D1*
X28657195Y4309471D1*
X28671795D1*
X28681453Y4304642D1*
X28691224Y4294871D1*
X28696053Y4280383D1*
X28700882Y4260954D1*
X28705824Y4251183D1*
X28715482Y4246354D1*
X28725253D1*
X28734911Y4251183D1*
X28739741Y4265783D1*
Y4285213D1*
X28637765Y4190723D2*
X28739741Y4142094D1*
Y4210152D1*
X13636543Y-907268D2*
Y-902439D1*
X13641372Y-892668D1*
X13646201Y-887839D1*
X13655972Y-883009D1*
X13675401D1*
X13685059Y-887839D1*
X13689889Y-892668D1*
X13694830Y-902439D1*
Y-912097D1*
X13689889Y-921868D1*
X13680230Y-936355D1*
X13631601Y-984985D1*
X13699659D1*
X13750461D2*
X13799090Y-883009D1*
X13731032D1*
X13888751Y-897497D2*
X13883921Y-887839D1*
X13869321Y-883009D1*
X13859663D1*
X13845063Y-887839D1*
X13835292Y-902439D1*
X13830463Y-926697D1*
Y-950955D1*
X13835292Y-970385D1*
X13845063Y-980155D1*
X13859663Y-984985D1*
X13864492D1*
X13878980Y-980155D1*
X13888751Y-970385D1*
X13893580Y-955785D1*
Y-950955D1*
X13888751Y-936355D1*
X13878980Y-926697D1*
X13864492Y-921868D1*
X13859663D1*
X13845063Y-926697D1*
X13835292Y-936355D1*
X13830463Y-950955D1*
X13929782Y-975214D2*
X13924952Y-980155D1*
X13929782Y-984985D1*
X13934723Y-980155D1*
X13929782Y-975214D1*
X13971037Y-907268D2*
Y-902439D1*
X13975867Y-892668D1*
X13980696Y-887839D1*
X13990467Y-883009D1*
X14009896D1*
X14019554Y-887839D1*
X14024383Y-892668D1*
X14029325Y-902439D1*
Y-912097D1*
X14024383Y-921868D1*
X14014725Y-936355D1*
X13966096Y-984985D1*
X14034154D1*
X14070468Y-907268D2*
Y-902439D1*
X14075298Y-892668D1*
X14080127Y-887839D1*
X14089898Y-883009D1*
X14109327D1*
X14118985Y-887839D1*
X14123815Y-892668D1*
X14128756Y-902439D1*
Y-912097D1*
X14123815Y-921868D1*
X14114156Y-936355D1*
X14065527Y-984985D1*
X14133585D1*
M02*
