G04 DipTrace 3.0.0.1*
G04 TopPaste.gbr*
%MOMM*%
G04 #@! TF.FileFunction,Paste,Top*
G04 #@! TF.Part,Single*
%ADD18C,0.6*%
%ADD19C,1.5*%
%ADD20C,2.0*%
%ADD57C,0.19608*%
%ADD58C,0.15686*%
%ADD59C,0.11765*%
%ADD60C,0.23529*%
%FSLAX35Y35*%
G04*
G71*
G90*
G75*
G01*
G04 TopPaste*
%LPD*%
X22002680Y984033D2*
D18*
X22007630Y1037188D1*
X22022455Y1090083D1*
X22047084Y1142462D1*
X22081396Y1194069D1*
X22125225Y1244653D1*
X22178356Y1293967D1*
X22240530Y1341771D1*
X22311446Y1387832D1*
X22390757Y1431926D1*
X22478078Y1473837D1*
X22572982Y1513363D1*
X22675007Y1550310D1*
X22783656Y1584498D1*
X22898400Y1615760D1*
X23018680Y1643945D1*
X23143910Y1668914D1*
X23273479Y1690547D1*
X23406757Y1708738D1*
X23543095Y1723399D1*
X23681827Y1734457D1*
X23822278Y1741859D1*
X23963764Y1745569D1*
X24105596D1*
X24247082Y1741859D1*
X24387533Y1734457D1*
X24526265Y1723399D1*
X24662603Y1708738D1*
X24795881Y1690547D1*
X24925450Y1668914D1*
X25050680Y1643945D1*
X25170960Y1615760D1*
X25285704Y1584498D1*
X25394353Y1550310D1*
X25496378Y1513363D1*
X25591282Y1473837D1*
X25678603Y1431926D1*
X25757914Y1387832D1*
X25828830Y1341771D1*
X25891004Y1293967D1*
X25944135Y1244653D1*
X25987964Y1194069D1*
X26022276Y1142462D1*
X26046905Y1090083D1*
X26061730Y1037188D1*
X26066680Y984033D1*
X26061730Y930879D1*
X26046905Y877983D1*
X26022276Y825605D1*
X25987964Y773998D1*
X25944135Y723414D1*
X25891004Y674100D1*
X25828830Y626296D1*
X25757914Y580235D1*
X25678603Y536141D1*
X25591282Y494229D1*
X25496378Y454704D1*
X25394353Y417757D1*
X25285704Y383569D1*
X25170960Y352307D1*
X25050680Y324122D1*
X24925450Y299152D1*
X24795881Y277519D1*
X24662603Y259328D1*
X24526265Y244668D1*
X24387533Y233610D1*
X24247082Y226208D1*
X24105596Y222498D1*
X23963764D1*
X23822278Y226208D1*
X23681827Y233610D1*
X23543095Y244668D1*
X23406757Y259328D1*
X23273479Y277519D1*
X23143910Y299152D1*
X23018680Y324122D1*
X22898400Y352307D1*
X22783656Y383569D1*
X22675007Y417757D1*
X22572982Y454704D1*
X22478078Y494229D1*
X22390757Y536141D1*
X22311446Y580235D1*
X22240530Y626296D1*
X22178356Y674100D1*
X22125225Y723414D1*
X22081396Y773998D1*
X22047084Y825605D1*
X22022455Y877983D1*
X22007630Y930879D1*
X22002680Y984033D1*
X23082180Y1619033D2*
G03X23145680Y349033I0J-636588D01*
G01*
X24034680Y1746033D2*
G03X24034680Y222033I755650J-762000D01*
G01*
X23717180Y1682533D2*
G03X23463180Y1174533I476250J-555625D01*
G01*
Y666533D2*
G03X23844180Y222033I1301750J730250D01*
G01*
X24034680Y1746033D2*
Y1555533D1*
Y1301533D1*
Y603033D2*
Y412533D1*
Y349033D1*
X24161680D2*
G03X24352180Y603033I-285750J412750D01*
G01*
X24669680Y1238033D2*
G02X24415680Y349033I-629987J-300789D01*
G01*
X24923680Y603033D2*
G02X24542680Y285533I-1301750J1174750D01*
G01*
X25241180Y603033D2*
G02X24733180Y285533I-1127125J1238250D01*
G01*
X25177680Y1555533D2*
G02X25495180Y1301533I-476250J-920750D01*
G01*
X25685680Y1174533D2*
G02X25558680Y603033I-349250J-222250D01*
G01*
G02X25050680Y349033I-857250J1079500D01*
G01*
X22955180Y539533D2*
G03X23590180Y285533I1206500J2095500D01*
G01*
X23145680Y1619033D2*
G03X22891680Y1238033I254000J-444500D01*
G01*
X24098180Y1492033D2*
X24225180Y1555533D1*
X24161680Y1619033D1*
X24415680Y1682533D2*
X24225180Y1619033D1*
X24415680Y1682533D2*
X24479180Y1619033D1*
Y1555533D2*
X24606180Y1682533D1*
X25685680Y920533D2*
X25622180D1*
X25495180Y857033D2*
X25622180D1*
X23336180Y1301533D2*
X23463180Y1365033D1*
Y1492033D2*
X23399680D1*
X23272680Y1555533D2*
Y1619033D1*
X23145680Y1555533D2*
X23399680D1*
X23209180Y603033D2*
X23399680Y412533D1*
X23526680D2*
X23463180D1*
X23336180Y666533D2*
X23399680Y476033D1*
X23590180Y666533D2*
X23653680Y857033D1*
Y920533D2*
X23590180D1*
X24098180Y1428533D2*
X24161680D1*
X24288680Y1365033D2*
X24415680D1*
X22687757Y984207D2*
D19*
X22688549Y1000829D1*
X22690924Y1017371D1*
X22694869Y1033751D1*
X22700365Y1049890D1*
X22707385Y1065709D1*
X22715895Y1081131D1*
X22725854Y1096080D1*
X22737213Y1110485D1*
X22749916Y1124274D1*
X22763903Y1137381D1*
X22779104Y1149741D1*
X22795445Y1161296D1*
X22812848Y1171987D1*
X22831227Y1181764D1*
X22850493Y1190578D1*
X22870551Y1198386D1*
X22891305Y1205151D1*
X22912652Y1210840D1*
X22934490Y1215425D1*
X22956711Y1218883D1*
X22979207Y1221198D1*
X23001870Y1222358D1*
X23024587D1*
X23047249Y1221198D1*
X23069746Y1218883D1*
X23091967Y1215425D1*
X23113805Y1210840D1*
X23135152Y1205151D1*
X23155906Y1198386D1*
X23175964Y1190578D1*
X23195230Y1181764D1*
X23213609Y1171987D1*
X23231011Y1161296D1*
X23247353Y1149741D1*
X23262554Y1137381D1*
X23276540Y1124274D1*
X23289244Y1110485D1*
X23300603Y1096080D1*
X23310561Y1081131D1*
X23319072Y1065709D1*
X23326092Y1049890D1*
X23331588Y1033751D1*
X23335533Y1017371D1*
X23337907Y1000829D1*
X23338700Y984207D1*
X23337907Y967584D1*
X23335533Y951042D1*
X23331588Y934662D1*
X23326092Y918523D1*
X23319072Y902704D1*
X23310561Y887283D1*
X23300603Y872333D1*
X23289244Y857929D1*
X23276540Y844139D1*
X23262554Y831033D1*
X23247353Y818672D1*
X23231011Y807118D1*
X23213609Y796426D1*
X23195230Y786650D1*
X23175964Y777836D1*
X23155906Y770027D1*
X23135152Y763262D1*
X23113805Y757573D1*
X23091967Y752988D1*
X23069746Y749530D1*
X23047249Y747215D1*
X23024587Y746055D1*
X23001870D1*
X22979207Y747215D1*
X22956711Y749530D1*
X22934490Y752988D1*
X22912652Y757573D1*
X22891305Y763262D1*
X22870551Y770027D1*
X22850493Y777836D1*
X22831227Y786650D1*
X22812848Y796426D1*
X22795445Y807118D1*
X22779104Y818672D1*
X22763903Y831033D1*
X22749916Y844139D1*
X22737213Y857929D1*
X22725854Y872333D1*
X22715895Y887283D1*
X22707385Y902704D1*
X22700365Y918523D1*
X22694869Y934662D1*
X22690924Y951042D1*
X22688549Y967584D1*
X22687757Y984207D1*
G36*
X23875927Y1285657D2*
X24116657D1*
Y714157D1*
X23875927D1*
Y1285657D1*
G37*
G36*
X25050680Y1301533D2*
X25368180D1*
Y730033D1*
X25050680D1*
Y1301533D1*
G37*
G36*
X24860180Y1238033D2*
X25495180D1*
Y1111033D1*
X24860180D1*
Y1238033D1*
G37*
G36*
Y1301533D2*
X25558680D1*
Y1111033D1*
X24860180D1*
Y1301533D1*
G37*
G36*
X25050680Y730033D2*
X25368180D1*
Y666533D1*
X25050680D1*
Y730033D1*
G37*
X24701430Y1333283D2*
D18*
X24733180D1*
X24764930Y1317407D2*
X24796680Y1301533D1*
X24812557D2*
X24891930Y1349157D1*
X25336430Y1412657D2*
X25161803Y1317407D1*
X24005520Y1158997D2*
D20*
X24021397Y1190750D1*
X24243670D1*
X24370683Y1127243D1*
X24418313Y1047860D1*
X24354807Y984353D1*
X24227793Y952600D1*
X24116657D1*
X24069027D1*
Y920847D1*
G36*
X24196040Y857340D2*
X24291300Y714450D1*
X24561203D1*
X24386560Y936723D1*
Y920847D1*
X24196040Y857340D1*
G37*
X10986954Y7481891D2*
D58*
X10982125Y7491550D1*
X10972354Y7501321D1*
X10962696Y7506150D1*
X10943266D1*
X10933496Y7501321D1*
X10923837Y7491550D1*
X10918896Y7481891D1*
X10914066Y7467291D1*
Y7442921D1*
X10918896Y7428433D1*
X10923837Y7418662D1*
X10933496Y7409004D1*
X10943266Y7404062D1*
X10962696D1*
X10972354Y7409004D1*
X10982125Y7418662D1*
X10986954Y7428433D1*
X10691433Y7506150D2*
X10628316D1*
Y7404062D1*
X10691433D1*
X10628316Y7457521D2*
X10667175D1*
X2234972Y8483367D2*
D59*
X2158406D1*
X2198500D2*
X2205828Y8476039D1*
X2209450Y8468795D1*
Y8457845D1*
X2205828Y8450602D1*
X2198500Y8443274D1*
X2187550Y8439652D1*
X2180306D1*
X2169356Y8443274D1*
X2162112Y8450602D1*
X2158406Y8457846D1*
Y8468795D1*
X2162112Y8476039D1*
X2169356Y8483367D1*
X2209450Y8416122D2*
X2172978D1*
X2162112Y8412500D1*
X2158406Y8405172D1*
Y8394222D1*
X2162112Y8386979D1*
X2172978Y8376029D1*
X2209450D2*
X2158406D1*
X2234971Y8341549D2*
X2172978D1*
X2162112Y8337927D1*
X2158406Y8330599D1*
Y8323355D1*
X2209450Y8352499D2*
Y8326977D1*
X2145771Y8299826D2*
Y8230588D1*
X2187550Y8207059D2*
Y8163343D1*
X2194878D1*
X2202206Y8166965D1*
X2205828Y8170587D1*
X2209450Y8177915D1*
Y8188865D1*
X2205828Y8196109D1*
X2198500Y8203437D1*
X2187550Y8207059D1*
X2180306D1*
X2169356Y8203437D1*
X2162112Y8196109D1*
X2158406Y8188865D1*
Y8177915D1*
X2162112Y8170587D1*
X2169356Y8163343D1*
X2209450Y8139814D2*
X2158406Y8099720D1*
X2209450D2*
X2158406Y8139814D1*
X2234972Y8076190D2*
X2231350Y8072568D1*
X2234972Y8068862D1*
X2238678Y8072568D1*
X2234972Y8076190D1*
X2209450Y8072568D2*
X2158406D1*
X2234972Y8034383D2*
X2172978D1*
X2162112Y8030761D1*
X2158406Y8023433D1*
Y8016189D1*
X2209450Y8045333D2*
Y8019811D1*
X4819931Y8417923D2*
D57*
X4890123D1*
X4604664Y8472606D2*
Y8363247D1*
X4550054Y8417856D2*
X4659414D1*
X5365861Y8451335D2*
Y8457371D1*
X5371897Y8469585D1*
X5377934Y8475621D1*
X5390147Y8481658D1*
X5414434D1*
X5426507Y8475621D1*
X5432544Y8469585D1*
X5438720Y8457371D1*
Y8445298D1*
X5432544Y8433085D1*
X5420470Y8414975D1*
X5359684Y8354189D1*
X5444757D1*
X5089804Y8457378D2*
X5102017Y8463555D1*
X5120267Y8481665D1*
Y8354195D1*
X5960217Y8338312D2*
Y8465781D1*
X5899431Y8380849D1*
X5990540D1*
X5641767Y8465788D2*
X5708450D1*
X5672090Y8417215D1*
X5690340D1*
X5702414Y8411178D1*
X5708450Y8405142D1*
X5714627Y8386892D1*
Y8374819D1*
X5708450Y8356569D1*
X5696377Y8344355D1*
X5678127Y8338319D1*
X5659877D1*
X5641767Y8344355D1*
X5635731Y8350532D1*
X5629554Y8362605D1*
X4958697Y8203478D2*
X4946624Y8215692D1*
X4928374Y8221728D1*
X4904087D1*
X4885837Y8215692D1*
X4873624Y8203478D1*
Y8191405D1*
X4879801Y8179192D1*
X4885837Y8173155D1*
X4897910Y8167119D1*
X4934410Y8154905D1*
X4946624Y8148869D1*
X4952660Y8142692D1*
X4958697Y8130619D1*
Y8112369D1*
X4946624Y8100296D1*
X4928374Y8094119D1*
X4904087D1*
X4885837Y8100296D1*
X4873624Y8112369D1*
X4997913Y8142692D2*
X5070772D1*
Y8154905D1*
X5064736Y8167119D1*
X5058699Y8173155D1*
X5046486Y8179192D1*
X5028236D1*
X5016163Y8173155D1*
X5003949Y8160942D1*
X4997913Y8142692D1*
Y8130619D1*
X5003949Y8112369D1*
X5016163Y8100296D1*
X5028236Y8094119D1*
X5046486D1*
X5058699Y8100296D1*
X5070772Y8112369D1*
X5109988Y8179192D2*
Y8094119D1*
Y8154905D2*
X5128238Y8173155D1*
X5140451Y8179192D1*
X5158561D1*
X5170775Y8173155D1*
X5176811Y8154905D1*
Y8094119D1*
X5282850Y8160942D2*
X5276813Y8173155D1*
X5258563Y8179192D1*
X5240313D1*
X5222063Y8173155D1*
X5216027Y8160942D1*
X5222063Y8148869D1*
X5234277Y8142692D1*
X5264600Y8136655D1*
X5276813Y8130619D1*
X5282850Y8118405D1*
Y8112369D1*
X5276813Y8100296D1*
X5258563Y8094119D1*
X5240313D1*
X5222063Y8100296D1*
X5216027Y8112369D1*
X5352389Y8179192D2*
X5340316Y8173155D1*
X5328102Y8160942D1*
X5322066Y8142692D1*
Y8130619D1*
X5328102Y8112369D1*
X5340316Y8100296D1*
X5352389Y8094119D1*
X5370639D1*
X5382852Y8100296D1*
X5394925Y8112369D1*
X5401102Y8130619D1*
Y8142692D1*
X5394925Y8160942D1*
X5382852Y8173155D1*
X5370639Y8179192D1*
X5352389D1*
X5440318D2*
Y8094119D1*
Y8142692D2*
X5446495Y8160942D1*
X5458568Y8173155D1*
X5470781Y8179192D1*
X5489031D1*
X5595070Y8160942D2*
X5589033Y8173155D1*
X5570783Y8179192D1*
X5552533D1*
X5534283Y8173155D1*
X5528247Y8160942D1*
X5534283Y8148869D1*
X5546497Y8142692D1*
X5576820Y8136655D1*
X5589033Y8130619D1*
X5595070Y8118405D1*
Y8112369D1*
X5589033Y8100296D1*
X5570783Y8094119D1*
X5552533D1*
X5534283Y8100296D1*
X5528247Y8112369D1*
X1183112Y8495131D2*
D59*
X1106546D1*
X1146640D2*
X1153968Y8487803D1*
X1157590Y8480559D1*
Y8469609D1*
X1153968Y8462365D1*
X1146640Y8455037D1*
X1135690Y8451415D1*
X1128446D1*
X1117496Y8455037D1*
X1110252Y8462365D1*
X1106546Y8469609D1*
Y8480559D1*
X1110252Y8487803D1*
X1117496Y8495131D1*
X1157590Y8427886D2*
X1121118D1*
X1110252Y8424264D1*
X1106546Y8416936D1*
Y8405986D1*
X1110252Y8398742D1*
X1121118Y8387792D1*
X1157590D2*
X1106546D1*
X1183111Y8353312D2*
X1121118Y8353313D1*
X1110252Y8349691D1*
X1106546Y8342363D1*
Y8335119D1*
X1157590Y8364262D2*
Y8338741D1*
X1093911Y8311589D2*
Y8242352D1*
X1183112Y8218822D2*
X1106546D1*
X1183112Y8195293D2*
X1179490Y8191671D1*
X1183112Y8187965D1*
X1186818Y8191671D1*
X1183112Y8195293D1*
X1157590Y8191671D2*
X1106546D1*
X1153968Y8120719D2*
X1095596Y8120720D1*
X1084730Y8124341D1*
X1081024Y8127963D1*
X1077402Y8135291D1*
Y8146241D1*
X1081024Y8153485D1*
X1143018Y8120719D2*
X1150262Y8127963D1*
X1153968Y8135291D1*
Y8146241D1*
X1150262Y8153485D1*
X1143018Y8160813D1*
X1132068Y8164435D1*
X1124740D1*
X1113874Y8160813D1*
X1106546Y8153485D1*
X1102924Y8146241D1*
Y8135291D1*
X1106546Y8127963D1*
X1113874Y8120720D1*
X1183112Y8097190D2*
X1106546D1*
X1143018D2*
X1153968Y8086240D1*
X1157590Y8078912D1*
Y8067962D1*
X1153968Y8060718D1*
X1143018Y8057096D1*
X1106546D1*
X1183112Y8022617D2*
X1121118D1*
X1110252Y8018995D1*
X1106546Y8011667D1*
Y8004423D1*
X1157590Y8033567D2*
Y8008045D1*
X6595110Y8418906D2*
D57*
Y8309547D1*
X6540501Y8364156D2*
X6649860D1*
X6689076Y8403675D2*
X6701289Y8409852D1*
X6719539Y8427961D1*
Y8300492D1*
X6764932Y8397638D2*
Y8403675D1*
X6770968Y8415888D1*
X6777005Y8421925D1*
X6789218Y8427961D1*
X6813505D1*
X6825578Y8421925D1*
X6831615Y8415888D1*
X6837792Y8403675D1*
Y8391602D1*
X6831615Y8379388D1*
X6819542Y8361279D1*
X6758755Y8300492D1*
X6843828D1*
X6883044Y8428102D2*
X6931617Y8300492D1*
X6980190Y8428102D1*
X3282804Y8468878D2*
D59*
X3224432D1*
X3213567Y8472500D1*
X3209861Y8476122D1*
X3206239Y8483450D1*
Y8494400D1*
X3209860Y8501644D1*
X3271854Y8468878D2*
X3279098Y8476122D1*
X3282804Y8483450D1*
Y8494400D1*
X3279098Y8501644D1*
X3271854Y8508972D1*
X3260904Y8512594D1*
X3253576D1*
X3242711Y8508972D1*
X3235382Y8501644D1*
X3231760Y8494400D1*
Y8483450D1*
X3235382Y8476122D1*
X3242710Y8468878D1*
X3264526Y8445349D2*
Y8401633D1*
X3271854D1*
X3279182Y8405255D1*
X3282804Y8408877D1*
X3286426Y8416205D1*
Y8427155D1*
X3282804Y8434399D1*
X3275476Y8441727D1*
X3264526Y8445349D1*
X3257282D1*
X3246332Y8441727D1*
X3239089Y8434399D1*
X3235382Y8427155D1*
Y8416205D1*
X3239089Y8408877D1*
X3246332Y8401633D1*
X3286426Y8378104D2*
X3235382D1*
X3264526D2*
X3275476Y8374398D1*
X3282804Y8367154D1*
X3286426Y8359826D1*
Y8348876D1*
X3222748Y8325346D2*
Y8256109D1*
X3286426Y8214385D2*
X3282804Y8221629D1*
X3275476Y8228957D1*
X3264526Y8232579D1*
X3257282D1*
X3246332Y8228957D1*
X3239089Y8221629D1*
X3235382Y8214386D1*
Y8203436D1*
X3239089Y8196107D1*
X3246332Y8188864D1*
X3257282Y8185157D1*
X3264526D1*
X3275476Y8188864D1*
X3282804Y8196107D1*
X3286426Y8203435D1*
Y8214385D1*
Y8161628D2*
X3209861D1*
X3275476D2*
X3282720Y8154300D1*
X3286426Y8147056D1*
Y8136106D1*
X3282720Y8128778D1*
X3275476Y8121534D1*
X3264526Y8117828D1*
X3257198D1*
X3246332Y8121534D1*
X3239004Y8128778D1*
X3235382Y8136106D1*
Y8147056D1*
X3239004Y8154300D1*
X3246332Y8161628D1*
X3264526Y8094299D2*
Y8050583D1*
X3271854D1*
X3279182Y8054205D1*
X3282804Y8057827D1*
X3286426Y8065155D1*
Y8076105D1*
X3282804Y8083349D1*
X3275476Y8090677D1*
X3264526Y8094299D1*
X3257282D1*
X3246332Y8090677D1*
X3239089Y8083349D1*
X3235382Y8076105D1*
Y8065155D1*
X3239089Y8057827D1*
X3246332Y8050583D1*
X3286426Y8027053D2*
X3235382D1*
X3271854D2*
X3282804Y8016103D1*
X3286426Y8008775D1*
Y7997910D1*
X3282804Y7990582D1*
X3271854Y7986960D1*
X3235383D1*
X2691641Y8465092D2*
X2633269D1*
X2622403Y8468714D1*
X2618697Y8472336D1*
X2615075Y8479664D1*
Y8490614D1*
X2618697Y8497858D1*
X2680691Y8465092D2*
X2687935Y8472335D1*
X2691641Y8479664D1*
Y8490613D1*
X2687935Y8497857D1*
X2680691Y8505185D1*
X2669741Y8508807D1*
X2662413D1*
X2651547Y8505185D1*
X2644219Y8497857D1*
X2640597Y8490614D1*
Y8479664D1*
X2644219Y8472336D1*
X2651547Y8465092D1*
X2673363Y8441562D2*
Y8397847D1*
X2680691D1*
X2688019Y8401469D1*
X2691641Y8405090D1*
X2695263Y8412418D1*
Y8423368D1*
X2691641Y8430612D1*
X2684313Y8437940D1*
X2673363Y8441562D1*
X2666119D1*
X2655169Y8437940D1*
X2647925Y8430612D1*
X2644219Y8423369D1*
Y8412419D1*
X2647925Y8405091D1*
X2655169Y8397847D1*
X2695263Y8374317D2*
X2644219D1*
X2673363D2*
X2684313Y8370611D1*
X2691641Y8363367D1*
X2695263Y8356039D1*
Y8345089D1*
X2631585Y8321560D2*
Y8252322D1*
X2695263Y8210599D2*
X2691641Y8217843D1*
X2684313Y8225171D1*
X2673363Y8228793D1*
X2666119D1*
X2655169Y8225171D1*
X2647925Y8217843D1*
X2644219Y8210599D1*
Y8199649D1*
X2647925Y8192321D1*
X2655169Y8185077D1*
X2666119Y8181371D1*
X2673363D1*
X2684313Y8185077D1*
X2691641Y8192321D1*
X2695263Y8199649D1*
Y8210599D1*
Y8157841D2*
X2644219D1*
X2680691D2*
X2691641Y8146891D1*
X2695263Y8139563D1*
Y8128697D1*
X2691641Y8121369D1*
X2680691Y8117748D1*
X2644219D1*
X1428747Y7634352D2*
D57*
Y7506742D1*
X1467963Y7591815D2*
Y7506742D1*
Y7567529D2*
X1486213Y7585779D1*
X1498426Y7591815D1*
X1516536D1*
X1528749Y7585779D1*
X1534786Y7567529D1*
Y7506742D1*
X1640825Y7573565D2*
X1634788Y7585779D1*
X1616538Y7591815D1*
X1598288D1*
X1580038Y7585779D1*
X1574002Y7573565D1*
X1580038Y7561492D1*
X1592252Y7555315D1*
X1622575Y7549279D1*
X1634788Y7543242D1*
X1640825Y7531029D1*
Y7524992D1*
X1634788Y7512919D1*
X1616538Y7506742D1*
X1598288D1*
X1580038Y7512919D1*
X1574002Y7524992D1*
X1680040Y7634352D2*
X1686077Y7628315D1*
X1692254Y7634352D1*
X1686077Y7640529D1*
X1680040Y7634352D1*
X1686077Y7591815D2*
Y7506742D1*
X1804329Y7634352D2*
Y7506742D1*
Y7573565D2*
X1792256Y7585779D1*
X1780043Y7591815D1*
X1761793D1*
X1749720Y7585779D1*
X1737506Y7573565D1*
X1731470Y7555315D1*
Y7543242D1*
X1737506Y7524992D1*
X1749720Y7512919D1*
X1761793Y7506742D1*
X1780043D1*
X1792256Y7512919D1*
X1804329Y7524992D1*
X1843545Y7555315D2*
X1916405D1*
Y7567529D1*
X1910368Y7579742D1*
X1904331Y7585779D1*
X1892118Y7591815D1*
X1873868D1*
X1861795Y7585779D1*
X1849581Y7573565D1*
X1843545Y7555315D1*
Y7543242D1*
X1849581Y7524992D1*
X1861795Y7512919D1*
X1873868Y7506742D1*
X1892118D1*
X1904331Y7512919D1*
X1916405Y7524992D1*
X2151926Y7585779D2*
Y7488492D1*
X2145890Y7470382D1*
X2139853Y7464205D1*
X2127640Y7458169D1*
X2109390D1*
X2097317Y7464205D1*
X2151926Y7567529D2*
X2139853Y7579602D1*
X2127640Y7585779D1*
X2109390D1*
X2097317Y7579602D1*
X2085103Y7567529D1*
X2079067Y7549279D1*
Y7537065D1*
X2085103Y7518955D1*
X2097317Y7506742D1*
X2109390Y7500705D1*
X2127640D1*
X2139853Y7506742D1*
X2151926Y7518955D1*
X2191142Y7591815D2*
Y7506742D1*
Y7555315D2*
X2197319Y7573565D1*
X2209392Y7585779D1*
X2221605Y7591815D1*
X2239855D1*
X2309394D2*
X2297321Y7585779D1*
X2285108Y7573565D1*
X2279071Y7555315D1*
Y7543242D1*
X2285108Y7524992D1*
X2297321Y7512919D1*
X2309394Y7506742D1*
X2327644D1*
X2339858Y7512919D1*
X2351931Y7524992D1*
X2358108Y7543242D1*
Y7555315D1*
X2351931Y7573565D1*
X2339858Y7585779D1*
X2327644Y7591815D1*
X2309394D1*
X2397323D2*
Y7531029D1*
X2403360Y7512919D1*
X2415573Y7506742D1*
X2433823D1*
X2445896Y7512919D1*
X2464146Y7531029D1*
Y7591815D2*
Y7506742D1*
X2503362Y7591815D2*
Y7464205D1*
Y7573565D2*
X2515576Y7585638D1*
X2527649Y7591815D1*
X2545899D1*
X2558112Y7585638D1*
X2570185Y7573565D1*
X2576362Y7555315D1*
Y7543102D1*
X2570185Y7524992D1*
X2558112Y7512779D1*
X2545899Y7506742D1*
X2527649D1*
X2515576Y7512779D1*
X2503362Y7524992D1*
X9572624Y8165551D2*
X9584837Y8171728D1*
X9603087Y8189838D1*
Y8062369D1*
X9648480Y8159515D2*
Y8165551D1*
X9654517Y8177765D1*
X9660553Y8183801D1*
X9672767Y8189838D1*
X9697053D1*
X9709126Y8183801D1*
X9715163Y8177765D1*
X9721340Y8165551D1*
Y8153478D1*
X9715163Y8141265D1*
X9703090Y8123155D1*
X9642303Y8062369D1*
X9727376D1*
X9766592Y8189978D2*
X9815165Y8062369D1*
X9863738Y8189978D1*
X9211094Y8422827D2*
X9281286D1*
X8981537Y8472606D2*
Y8363247D1*
X8926927Y8417856D2*
X9036287D1*
X9750054Y8422827D2*
X9820246D1*
X9520504Y8472606D2*
Y8363247D1*
X9465894Y8417856D2*
X9575254D1*
X10289017Y8422827D2*
X10359210D1*
X10059460Y8472606D2*
Y8363247D1*
X10004851Y8417856D2*
X10114210D1*
X1803737Y1563168D2*
X1743091D1*
X1737054Y1508558D1*
X1743091Y1514595D1*
X1761341Y1520772D1*
X1779450D1*
X1797700Y1514595D1*
X1809914Y1502522D1*
X1815950Y1484272D1*
Y1472199D1*
X1809914Y1453949D1*
X1797700Y1441735D1*
X1779450Y1435699D1*
X1761341D1*
X1743091Y1441735D1*
X1737054Y1447912D1*
X1730877Y1459985D1*
X1855166Y1563308D2*
X1903739Y1435699D1*
X1952312Y1563308D1*
X1369347Y1256407D2*
X1439540D1*
X1139787Y1306190D2*
Y1196830D1*
X1085177Y1251440D2*
X1194537D1*
X1908307Y1256407D2*
X1978500D1*
X1678757Y1306190D2*
Y1196830D1*
X1624147Y1251440D2*
X1733507D1*
X2447271Y1256407D2*
X2517463D1*
X2217710Y1306190D2*
Y1196830D1*
X2163101Y1251440D2*
X2272460D1*
X7714922Y8446683D2*
D59*
X7747688D1*
X7758638Y8450389D1*
X7762344Y8454011D1*
X7765966Y8461255D1*
Y8468583D1*
X7762344Y8475827D1*
X7758638Y8479533D1*
X7747688Y8483155D1*
X7714922D1*
Y8406589D1*
X7740444Y8446683D2*
X7765966Y8406589D1*
X7789496Y8483155D2*
X7840539Y8406589D1*
Y8483155D2*
X7789496Y8406589D1*
X7871397Y8483071D2*
X7911407D1*
X7889591Y8453927D1*
X7900541D1*
X7907785Y8450305D1*
X7911407Y8446683D1*
X7915113Y8435733D1*
Y8428489D1*
X7911407Y8417539D1*
X7904163Y8410211D1*
X7893213Y8406589D1*
X7882263D1*
X7871397Y8410211D1*
X7867775Y8413917D1*
X7864069Y8421161D1*
X7472151Y8483158D2*
Y8406593D1*
X7446629Y8483158D2*
X7497673D1*
X7521202D2*
X7572246Y8406593D1*
Y8483158D2*
X7521202Y8406593D1*
X7603104Y8483074D2*
X7643113D1*
X7621297Y8453930D1*
X7632247D1*
X7639491Y8450308D1*
X7643113Y8446686D1*
X7646819Y8435736D1*
Y8428493D1*
X7643113Y8417543D1*
X7635869Y8410214D1*
X7624919Y8406593D1*
X7613969D1*
X7603104Y8410214D1*
X7599482Y8413921D1*
X7595776Y8421164D1*
X8253882Y8446683D2*
X8286648D1*
X8297598Y8450389D1*
X8301304Y8454011D1*
X8304926Y8461255D1*
Y8468583D1*
X8301304Y8475827D1*
X8297598Y8479533D1*
X8286648Y8483155D1*
X8253882D1*
Y8406589D1*
X8279404Y8446683D2*
X8304926Y8406589D1*
X8328456Y8483155D2*
X8379499Y8406589D1*
Y8483155D2*
X8328456Y8406589D1*
X8406735Y8464877D2*
Y8468499D1*
X8410357Y8475827D1*
X8413979Y8479449D1*
X8421307Y8483071D1*
X8435879D1*
X8443123Y8479449D1*
X8446745Y8475827D1*
X8450451Y8468499D1*
Y8461255D1*
X8446745Y8453927D1*
X8439501Y8443061D1*
X8403029Y8406589D1*
X8454073D1*
X8011118Y8483155D2*
Y8406589D1*
X7985596Y8483155D2*
X8036640D1*
X8060169D2*
X8111213Y8406589D1*
Y8483155D2*
X8060169Y8406589D1*
X8138448Y8464877D2*
Y8468499D1*
X8142070Y8475827D1*
X8145692Y8479449D1*
X8153020Y8483071D1*
X8167592D1*
X8174836Y8479449D1*
X8178458Y8475827D1*
X8182164Y8468499D1*
Y8461255D1*
X8178458Y8453927D1*
X8171214Y8443061D1*
X8134742Y8406589D1*
X8185786D1*
X11477624Y8443978D2*
D57*
Y8316369D1*
X11550484D1*
X11644309Y8434783D2*
Y8325423D1*
X11589699Y8380033D2*
X11699059D1*
X11779251Y8443978D2*
Y8316369D1*
X11852110D1*
X11891326Y8380103D2*
X11961518D1*
X11349197Y1956192D2*
X11337124Y1950155D1*
X11324910Y1937942D1*
X11318874Y1919692D1*
Y1907619D1*
X11324910Y1889369D1*
X11337124Y1877296D1*
X11349197Y1871119D1*
X11367447D1*
X11379660Y1877296D1*
X11391734Y1889369D1*
X11397910Y1907619D1*
Y1919692D1*
X11391734Y1937942D1*
X11379660Y1950155D1*
X11367447Y1956192D1*
X11349197D1*
X11437126D2*
Y1895405D1*
X11443163Y1877296D1*
X11455376Y1871119D1*
X11473626D1*
X11485699Y1877296D1*
X11503949Y1895405D1*
Y1956192D2*
Y1871119D1*
X11561415Y1998728D2*
Y1895405D1*
X11567451Y1877296D1*
X11579665Y1871119D1*
X11591738D1*
X11543165Y1956192D2*
X11585701D1*
X11697777Y1937942D2*
X11691740Y1950155D1*
X11673490Y1956192D1*
X11655240D1*
X11636990Y1950155D1*
X11630954Y1937942D1*
X11636990Y1925869D1*
X11649204Y1919692D1*
X11679527Y1913655D1*
X11691740Y1907619D1*
X11697777Y1895405D1*
Y1889369D1*
X11691740Y1877296D1*
X11673490Y1871119D1*
X11655240D1*
X11636990Y1877296D1*
X11630954Y1889369D1*
X11736992Y1998728D2*
X11743029Y1992692D1*
X11749206Y1998728D1*
X11743029Y2004905D1*
X11736992Y1998728D1*
X11743029Y1956192D2*
Y1871119D1*
X11861281Y1998728D2*
Y1871119D1*
Y1937942D2*
X11849208Y1950155D1*
X11836995Y1956192D1*
X11818745D1*
X11806672Y1950155D1*
X11794458Y1937942D1*
X11788422Y1919692D1*
Y1907619D1*
X11794458Y1889369D1*
X11806672Y1877296D1*
X11818745Y1871119D1*
X11836995D1*
X11849208Y1877296D1*
X11861281Y1889369D1*
X11900497Y1919692D2*
X11973357D1*
Y1931905D1*
X11967320Y1944119D1*
X11961283Y1950155D1*
X11949070Y1956192D1*
X11930820D1*
X11918747Y1950155D1*
X11906533Y1937942D1*
X11900497Y1919692D1*
Y1907619D1*
X11906533Y1889369D1*
X11918747Y1877296D1*
X11930820Y1871119D1*
X11949070D1*
X11961283Y1877296D1*
X11973357Y1889369D1*
X12012572Y1850061D2*
X12127968D1*
X12167184Y1998728D2*
Y1871119D1*
Y1937942D2*
X12179397Y1950155D1*
X12191471Y1956192D1*
X12209721D1*
X12221794Y1950155D1*
X12234007Y1937942D1*
X12240044Y1919692D1*
Y1907619D1*
X12234007Y1889369D1*
X12221794Y1877296D1*
X12209721Y1871119D1*
X12191471D1*
X12179397Y1877296D1*
X12167184Y1889369D1*
X12309582Y1956192D2*
X12297509Y1950155D1*
X12285296Y1937942D1*
X12279259Y1919692D1*
Y1907619D1*
X12285296Y1889369D1*
X12297509Y1877296D1*
X12309582Y1871119D1*
X12327832D1*
X12340046Y1877296D1*
X12352119Y1889369D1*
X12358296Y1907619D1*
Y1919692D1*
X12352119Y1937942D1*
X12340046Y1950155D1*
X12327832Y1956192D1*
X12309582D1*
X12397512D2*
X12464335Y1871119D1*
Y1956192D2*
X12397512Y1871119D1*
X11370094Y1290057D2*
X11440286D1*
X11140534Y1344736D2*
Y1235377D1*
X11085924Y1289986D2*
X11195284D1*
X11639177Y1290057D2*
X11709370D1*
X12269254Y1323609D2*
X12263217Y1335682D1*
X12251004Y1347895D1*
X12238930Y1353932D1*
X12214644D1*
X12202430Y1347895D1*
X12190357Y1335682D1*
X12184180Y1323609D1*
X12178144Y1305359D1*
Y1274895D1*
X12184180Y1256785D1*
X12190357Y1244572D1*
X12202430Y1232499D1*
X12214644Y1226322D1*
X12238930D1*
X12251004Y1232499D1*
X12263217Y1244572D1*
X12269254Y1256785D1*
Y1274895D1*
X12238930D1*
X11893974Y1293145D2*
X11948584D1*
X11966834Y1299322D1*
X11973010Y1305359D1*
X11979047Y1317432D1*
Y1329645D1*
X11973010Y1341718D1*
X11966834Y1347895D1*
X11948584Y1353932D1*
X11893974D1*
Y1226322D1*
X11936510Y1293145D2*
X11979047Y1226322D1*
X12448804Y1353932D2*
Y1226322D1*
X12503554D1*
X12521804Y1232499D1*
X12527840Y1238535D1*
X12533877Y1250609D1*
Y1268859D1*
X12527840Y1281072D1*
X12521804Y1287109D1*
X12503554Y1293145D1*
X12521804Y1299322D1*
X12527840Y1305359D1*
X12533877Y1317432D1*
Y1329645D1*
X12527840Y1341718D1*
X12521804Y1347895D1*
X12503554Y1353932D1*
X12448804D1*
Y1293145D2*
X12503554D1*
X12928690Y1288876D2*
D59*
X12925068Y1296204D1*
X12914118Y1299826D1*
X12903168D1*
X12892218Y1296204D1*
X12888596Y1288876D1*
X12892218Y1281633D1*
X12899546Y1277926D1*
X12917740Y1274304D1*
X12925068Y1270683D1*
X12928690Y1263354D1*
Y1259733D1*
X12925068Y1252489D1*
X12914118Y1248783D1*
X12903168D1*
X12892218Y1252489D1*
X12888596Y1259733D1*
X12970413Y1299826D2*
X12963169Y1296204D1*
X12955841Y1288876D1*
X12952219Y1277926D1*
Y1270683D1*
X12955841Y1259733D1*
X12963169Y1252489D1*
X12970413Y1248783D1*
X12981363D1*
X12988691Y1252489D1*
X12995935Y1259733D1*
X12999641Y1270683D1*
Y1277926D1*
X12995935Y1288876D1*
X12988691Y1296204D1*
X12981363Y1299826D1*
X12970413D1*
X13023170D2*
Y1263354D1*
X13026792Y1252489D1*
X13034120Y1248783D1*
X13045070D1*
X13052314Y1252489D1*
X13063264Y1263354D1*
Y1299826D2*
Y1248783D1*
X13086794Y1299826D2*
Y1248783D1*
Y1285254D2*
X13097744Y1296204D1*
X13105072Y1299826D1*
X13115937D1*
X13123265Y1296204D1*
X13126887Y1285254D1*
Y1248783D1*
X13194133Y1325348D2*
Y1248783D1*
Y1288876D2*
X13186889Y1296204D1*
X13179561Y1299826D1*
X13168611D1*
X13161367Y1296204D1*
X13154039Y1288876D1*
X13150417Y1277926D1*
Y1270683D1*
X13154039Y1259733D1*
X13161367Y1252489D1*
X13168611Y1248783D1*
X13179561D1*
X13186889Y1252489D1*
X13194133Y1259733D1*
X12652052Y1325348D2*
Y1248783D1*
Y1288876D2*
X12659380Y1296204D1*
X12666624Y1299826D1*
X12677574D1*
X12684818Y1296204D1*
X12692146Y1288876D1*
X12695768Y1277926D1*
Y1270683D1*
X12692146Y1259733D1*
X12684818Y1252489D1*
X12677574Y1248783D1*
X12666624D1*
X12659380Y1252489D1*
X12652052Y1259733D1*
X12719298Y1299826D2*
Y1263354D1*
X12722919Y1252489D1*
X12730248Y1248783D1*
X12741198D1*
X12748441Y1252489D1*
X12759391Y1263354D1*
Y1299826D2*
Y1248783D1*
X12793871Y1325348D2*
Y1263354D1*
X12797493Y1252489D1*
X12804821Y1248783D1*
X12812065D1*
X12782921Y1299826D2*
X12808443D1*
X1695512Y8547154D2*
X1691890Y8543532D1*
X1695512Y8539826D1*
X1699218Y8543532D1*
X1695512Y8547154D1*
X1669990Y8543532D2*
X1618946D1*
X1669990Y8516297D2*
X1618946D1*
X1655418D2*
X1666368Y8505347D1*
X1669990Y8498019D1*
Y8487153D1*
X1666368Y8479825D1*
X1655418Y8476203D1*
X1618946D1*
X1659040Y8412580D2*
X1666368Y8416202D1*
X1669990Y8427152D1*
Y8438102D1*
X1666368Y8449052D1*
X1659040Y8452673D1*
X1651796Y8449052D1*
X1648090Y8441723D1*
X1644468Y8423530D1*
X1640846Y8416202D1*
X1633518Y8412580D1*
X1629896D1*
X1622652Y8416202D1*
X1618946Y8427152D1*
Y8438102D1*
X1622652Y8449052D1*
X1629896Y8452674D1*
X1695511Y8389050D2*
X1691890Y8385428D1*
X1695511Y8381722D1*
X1699218Y8385428D1*
X1695511Y8389050D1*
X1669990Y8385428D2*
X1618946D1*
X1695511Y8314477D2*
X1618946D1*
X1659040D2*
X1666368Y8321721D1*
X1669990Y8329049D1*
Y8339999D1*
X1666368Y8347243D1*
X1659040Y8354571D1*
X1648090Y8358193D1*
X1640846D1*
X1629896Y8354571D1*
X1622652Y8347243D1*
X1618946Y8339999D1*
Y8329049D1*
X1622652Y8321721D1*
X1629896Y8314477D1*
X1648090Y8290948D2*
Y8247232D1*
X1655418D1*
X1662746Y8250854D1*
X1666368Y8254476D1*
X1669990Y8261804D1*
Y8272754D1*
X1666368Y8279998D1*
X1659040Y8287326D1*
X1648090Y8290948D1*
X1640846D1*
X1629896Y8287326D1*
X1622652Y8279998D1*
X1618946Y8272754D1*
Y8261804D1*
X1622652Y8254476D1*
X1629896Y8247232D1*
X1606311Y8223702D2*
Y8154465D1*
X1659040Y8090842D2*
X1666368Y8094463D1*
X1669990Y8105413D1*
Y8116363D1*
X1666368Y8127313D1*
X1659040Y8130935D1*
X1651796Y8127313D1*
X1648090Y8119985D1*
X1644468Y8101792D1*
X1640846Y8094463D1*
X1633518Y8090842D1*
X1629896D1*
X1622652Y8094463D1*
X1618946Y8105413D1*
Y8116363D1*
X1622652Y8127313D1*
X1629896Y8130935D1*
X1669990Y8049118D2*
X1666368Y8056362D1*
X1659040Y8063690D1*
X1648090Y8067312D1*
X1640846D1*
X1629896Y8063690D1*
X1622652Y8056362D1*
X1618946Y8049118D1*
Y8038168D1*
X1622652Y8030840D1*
X1629896Y8023596D1*
X1640846Y8019890D1*
X1648090D1*
X1659040Y8023596D1*
X1666368Y8030840D1*
X1669990Y8038168D1*
Y8049118D1*
Y7996361D2*
X1633518D1*
X1622652Y7992739D1*
X1618946Y7985411D1*
Y7974461D1*
X1622652Y7967217D1*
X1633518Y7956267D1*
X1669990D2*
X1618946D1*
X1669990Y7932737D2*
X1618946Y7932738D1*
X1655418D2*
X1666368Y7921787D1*
X1669990Y7914459D1*
Y7903594D1*
X1666368Y7896266D1*
X1655418Y7892644D1*
X1618946D1*
X1695512Y7825398D2*
X1618946D1*
X1659040D2*
X1666368Y7832642D1*
X1669990Y7839970D1*
Y7850920D1*
X1666368Y7858164D1*
X1659040Y7865492D1*
X1648090Y7869114D1*
X1640846D1*
X1629896Y7865492D1*
X1622652Y7858164D1*
X1618946Y7850920D1*
Y7839970D1*
X1622652Y7832642D1*
X1629896Y7825398D1*
X12017317Y8383192D2*
D57*
X12071927D1*
X12090177Y8389369D1*
X12096354Y8395405D1*
X12102390Y8407478D1*
Y8419692D1*
X12096354Y8431765D1*
X12090177Y8437942D1*
X12071927Y8443978D1*
X12017317D1*
Y8316369D1*
X12059854Y8383192D2*
X12102390Y8316369D1*
X12196216Y8434783D2*
Y8325423D1*
X12141606Y8380033D2*
X12250966D1*
X12318944Y8383192D2*
X12373554D1*
X12391804Y8389369D1*
X12397980Y8395405D1*
X12404017Y8407478D1*
Y8419692D1*
X12397980Y8431765D1*
X12391804Y8437942D1*
X12373554Y8443978D1*
X12318944D1*
Y8316369D1*
X12361480Y8383192D2*
X12404017Y8316369D1*
X12443233Y8380103D2*
X12513425D1*
X12288567Y7386678D2*
D58*
X12283738Y7396337D1*
X12273967Y7406107D1*
X12264309Y7410937D1*
X12244880D1*
X12235109Y7406107D1*
X12225451Y7396337D1*
X12220509Y7386678D1*
X12215680Y7372078D1*
Y7347707D1*
X12220509Y7333220D1*
X12225451Y7323449D1*
X12235109Y7313790D1*
X12244880Y7308849D1*
X12264309D1*
X12273967Y7313790D1*
X12283738Y7323449D1*
X12288567Y7333220D1*
X11993047Y7410937D2*
X11929930D1*
Y7308849D1*
X11993047D1*
X11929930Y7362307D2*
X11968788D1*
X13117100Y8091582D2*
D57*
X13105027Y8103795D1*
X13086777Y8109832D1*
X13062491D1*
X13044241Y8103795D1*
X13032027Y8091582D1*
Y8079509D1*
X13038204Y8067295D1*
X13044241Y8061259D1*
X13056314Y8055222D1*
X13092814Y8043009D1*
X13105027Y8036972D1*
X13111064Y8030795D1*
X13117100Y8018722D1*
Y8000472D1*
X13105027Y7988399D1*
X13086777Y7982222D1*
X13062491D1*
X13044241Y7988399D1*
X13032027Y8000472D1*
X13156316Y8030795D2*
X13229176D1*
Y8043009D1*
X13223139Y8055222D1*
X13217103Y8061259D1*
X13204889Y8067295D1*
X13186639D1*
X13174566Y8061259D1*
X13162353Y8049045D1*
X13156316Y8030795D1*
Y8018722D1*
X13162353Y8000472D1*
X13174566Y7988399D1*
X13186639Y7982222D1*
X13204889D1*
X13217103Y7988399D1*
X13229176Y8000472D1*
X13341391Y8049045D2*
X13329178Y8061259D1*
X13316964Y8067295D1*
X13298855D1*
X13286641Y8061259D1*
X13274568Y8049045D1*
X13268391Y8030795D1*
Y8018722D1*
X13274568Y8000472D1*
X13286641Y7988399D1*
X13298855Y7982222D1*
X13316964D1*
X13329178Y7988399D1*
X13341391Y8000472D1*
X13380607Y8067295D2*
Y8006509D1*
X13386644Y7988399D1*
X13398857Y7982222D1*
X13417107D1*
X13429180Y7988399D1*
X13447430Y8006509D1*
Y8067295D2*
Y7982222D1*
X13486646Y8067295D2*
Y7982222D1*
Y8030795D2*
X13492823Y8049045D1*
X13504896Y8061259D1*
X13517109Y8067295D1*
X13535359D1*
X13574575Y8109832D2*
X13580611Y8103795D1*
X13586788Y8109832D1*
X13580611Y8116009D1*
X13574575Y8109832D1*
X13580611Y8067295D2*
Y7982222D1*
X13644254Y8109832D2*
Y8006509D1*
X13650291Y7988399D1*
X13662504Y7982222D1*
X13674577D1*
X13626004Y8067295D2*
X13668541D1*
X13719970D2*
X13756329Y7982222D1*
X13744256Y7957935D1*
X13732043Y7945722D1*
X13719970Y7939685D1*
X13713793D1*
X13792829Y8067295D2*
X13756329Y7982222D1*
X14118458Y8397201D2*
D59*
X14114836Y8404445D1*
X14107508Y8411773D1*
X14100264Y8415395D1*
X14085692D1*
X14078364Y8411773D1*
X14071120Y8404445D1*
X14067414Y8397201D1*
X14063792Y8386251D1*
Y8367973D1*
X14067414Y8357107D1*
X14071120Y8349779D1*
X14078364Y8342535D1*
X14085692Y8338829D1*
X14100264D1*
X14107508Y8342535D1*
X14114836Y8349779D1*
X14118458Y8357107D1*
Y8367973D1*
X14100264D1*
X14193031Y8415395D2*
Y8338829D1*
X14141988Y8415395D1*
Y8338829D1*
X14216561Y8415395D2*
Y8338829D1*
X14242083D1*
X14253033Y8342535D1*
X14260361Y8349779D1*
X14263983Y8357107D1*
X14267605Y8367973D1*
Y8386251D1*
X14263983Y8397201D1*
X14260361Y8404445D1*
X14253033Y8411773D1*
X14242083Y8415395D1*
X14216561D1*
X12621280Y8410145D2*
D58*
X12631051Y8415087D1*
X12645651Y8429574D1*
Y8327599D1*
X13138997Y8429574D2*
X13192343D1*
X13163256Y8390716D1*
X13177856D1*
X13187514Y8385887D1*
X13192343Y8381057D1*
X13197285Y8366457D1*
Y8356799D1*
X13192343Y8342199D1*
X13182685Y8332428D1*
X13168085Y8327599D1*
X13153485D1*
X13138997Y8332428D1*
X13134168Y8337370D1*
X13129226Y8347028D1*
X12864321Y8405316D2*
Y8410145D1*
X12869151Y8419916D1*
X12873980Y8424745D1*
X12883751Y8429574D1*
X12903180D1*
X12912838Y8424745D1*
X12917667Y8419916D1*
X12922609Y8410145D1*
Y8400487D1*
X12917667Y8390716D1*
X12908009Y8376228D1*
X12859380Y8327599D1*
X12927438D1*
X13415956D2*
Y8429574D1*
X13367326Y8361628D1*
X13440214D1*
X13679587Y8429574D2*
X13631071D1*
X13626241Y8385887D1*
X13631071Y8390716D1*
X13645671Y8395657D1*
X13660158D1*
X13674758Y8390716D1*
X13684529Y8381057D1*
X13689358Y8366457D1*
Y8356799D1*
X13684529Y8342199D1*
X13674758Y8332428D1*
X13660158Y8327599D1*
X13645671D1*
X13631071Y8332428D1*
X13626241Y8337370D1*
X13621300Y8347028D1*
X13933561Y8415087D2*
X13928732Y8424745D1*
X13914132Y8429574D1*
X13904473D1*
X13889873Y8424745D1*
X13880102Y8410145D1*
X13875273Y8385887D1*
Y8361628D1*
X13880102Y8342199D1*
X13889873Y8332428D1*
X13904473Y8327599D1*
X13909302D1*
X13923790Y8332428D1*
X13933561Y8342199D1*
X13938390Y8356799D1*
Y8361628D1*
X13933561Y8376228D1*
X13923790Y8385887D1*
X13909302Y8390716D1*
X13904473D1*
X13889873Y8385887D1*
X13880102Y8376228D1*
X13875273Y8361628D1*
X7613972Y1720208D2*
D60*
X7555516Y1873340D1*
X7497228Y1720208D1*
X7519128Y1771252D2*
X7592072D1*
X5507417Y1427788D2*
D57*
X5489167Y1421751D1*
X5476954Y1403501D1*
X5470917Y1373178D1*
Y1354928D1*
X5476954Y1324605D1*
X5489167Y1306355D1*
X5507417Y1300319D1*
X5519490D1*
X5537740Y1306355D1*
X5549813Y1324605D1*
X5555990Y1354928D1*
Y1373178D1*
X5549813Y1403501D1*
X5537740Y1421751D1*
X5519490Y1427788D1*
X5507417D1*
X5549813Y1403501D2*
X5476954Y1324605D1*
X5740601Y1403501D2*
X5752814Y1409678D1*
X5771064Y1427788D1*
Y1300319D1*
X6016461Y1397465D2*
Y1403501D1*
X6022497Y1415715D1*
X6028534Y1421751D1*
X6040747Y1427788D1*
X6065034D1*
X6077107Y1421751D1*
X6083144Y1415715D1*
X6089320Y1403501D1*
Y1391428D1*
X6083144Y1379215D1*
X6071070Y1361105D1*
X6010284Y1300319D1*
X6095357D1*
X6292181Y1427788D2*
X6358863D1*
X6322504Y1379215D1*
X6340754D1*
X6352827Y1373178D1*
X6358863Y1367142D1*
X6365040Y1348892D1*
Y1336819D1*
X6358863Y1318569D1*
X6346790Y1306355D1*
X6328540Y1300319D1*
X6310290D1*
X6292181Y1306355D1*
X6286144Y1312532D1*
X6279967Y1324605D1*
X6610437Y1300319D2*
Y1427788D1*
X6549651Y1342855D1*
X6640760D1*
X6892194Y1427788D2*
X6831547D1*
X6825511Y1373178D1*
X6831547Y1379215D1*
X6849797Y1385392D1*
X6867907D1*
X6886157Y1379215D1*
X6898370Y1367142D1*
X6904407Y1348892D1*
Y1336819D1*
X6898370Y1318569D1*
X6886157Y1306355D1*
X6867907Y1300319D1*
X6849797D1*
X6831547Y1306355D1*
X6825511Y1312532D1*
X6819334Y1324605D1*
X7161877Y1409678D2*
X7155840Y1421751D1*
X7137590Y1427788D1*
X7125517D1*
X7107267Y1421751D1*
X7095054Y1403501D1*
X7089017Y1373178D1*
Y1342855D1*
X7095054Y1318569D1*
X7107267Y1306355D1*
X7125517Y1300319D1*
X7131554D1*
X7149663Y1306355D1*
X7161877Y1318569D1*
X7167913Y1336819D1*
Y1342855D1*
X7161877Y1361105D1*
X7149663Y1373178D1*
X7131554Y1379215D1*
X7125517D1*
X7107267Y1373178D1*
X7095054Y1361105D1*
X7089017Y1342855D1*
X7382987Y1300319D2*
X7443774Y1427788D1*
X7358701D1*
X7888664D2*
X7870554Y1421751D1*
X7864377Y1409678D1*
Y1397465D1*
X7870554Y1385392D1*
X7882627Y1379215D1*
X7906914Y1373178D1*
X7925164Y1367142D1*
X7937237Y1354928D1*
X7943273Y1342855D1*
Y1324605D1*
X7937237Y1312532D1*
X7931200Y1306355D1*
X7912950Y1300319D1*
X7888664D1*
X7870554Y1306355D1*
X7864377Y1312532D1*
X7858341Y1324605D1*
Y1342855D1*
X7864377Y1354928D1*
X7876591Y1367142D1*
X7894700Y1373178D1*
X7918987Y1379215D1*
X7931200Y1385392D1*
X7937237Y1397465D1*
Y1409678D1*
X7931200Y1421751D1*
X7912950Y1427788D1*
X7888664D1*
X8207060Y1385392D2*
X8200884Y1367142D1*
X8188810Y1354928D1*
X8170560Y1348892D1*
X8164524D1*
X8146274Y1354928D1*
X8134201Y1367142D1*
X8128024Y1385392D1*
Y1391428D1*
X8134201Y1409678D1*
X8146274Y1421751D1*
X8164524Y1427788D1*
X8170560D1*
X8188810Y1421751D1*
X8200884Y1409678D1*
X8207060Y1385392D1*
Y1354928D1*
X8200884Y1324605D1*
X8188810Y1306355D1*
X8170560Y1300319D1*
X8158487D1*
X8140237Y1306355D1*
X8134201Y1318569D1*
X8364261Y1403501D2*
X8376474Y1409678D1*
X8394724Y1427788D1*
Y1300319D1*
X8470440Y1427788D2*
X8452190Y1421751D1*
X8439976Y1403501D1*
X8433940Y1373178D1*
Y1354928D1*
X8439976Y1324605D1*
X8452190Y1306355D1*
X8470440Y1300319D1*
X8482513D1*
X8500763Y1306355D1*
X8512836Y1324605D1*
X8519013Y1354928D1*
Y1373178D1*
X8512836Y1403501D1*
X8500763Y1421751D1*
X8482513Y1427788D1*
X8470440D1*
X8512836Y1403501D2*
X8439976Y1324605D1*
X8642614Y1403501D2*
X8654827Y1409678D1*
X8673077Y1427788D1*
Y1300319D1*
X8712293Y1403501D2*
X8724507Y1409678D1*
X8742757Y1427788D1*
Y1300319D1*
X8893717Y1403501D2*
X8905931Y1409678D1*
X8924181Y1427788D1*
Y1300319D1*
X8969573Y1397465D2*
Y1403501D1*
X8975610Y1415715D1*
X8981646Y1421751D1*
X8993860Y1427788D1*
X9018146D1*
X9030219Y1421751D1*
X9036256Y1415715D1*
X9042433Y1403501D1*
Y1391428D1*
X9036256Y1379215D1*
X9024183Y1361105D1*
X8963396Y1300319D1*
X9048469D1*
X9163401Y1403501D2*
X9175614Y1409678D1*
X9193864Y1427788D1*
Y1300319D1*
X9245293Y1427788D2*
X9311976D1*
X9275616Y1379215D1*
X9293866D1*
X9305939Y1373178D1*
X9311976Y1367142D1*
X9318153Y1348892D1*
Y1336819D1*
X9311976Y1318569D1*
X9299903Y1306355D1*
X9281653Y1300319D1*
X9263403D1*
X9245293Y1306355D1*
X9239257Y1312532D1*
X9233080Y1324605D1*
X9440517Y1403501D2*
X9452731Y1409678D1*
X9470981Y1427788D1*
Y1300319D1*
X9570983D2*
Y1427788D1*
X9510196Y1342855D1*
X9601306D1*
X9704007Y1403501D2*
X9716221Y1409678D1*
X9734471Y1427788D1*
Y1300319D1*
X9846546Y1427788D2*
X9785900D1*
X9779863Y1373178D1*
X9785900Y1379215D1*
X9804150Y1385392D1*
X9822259D1*
X9840509Y1379215D1*
X9852723Y1367142D1*
X9858759Y1348892D1*
Y1336819D1*
X9852723Y1318569D1*
X9840509Y1306355D1*
X9822259Y1300319D1*
X9804150D1*
X9785900Y1306355D1*
X9779863Y1312532D1*
X9773686Y1324605D1*
X4459334Y1574355D2*
X4483620Y1489282D1*
X4507907Y1574355D1*
X4532194Y1489282D1*
X4556480Y1574355D1*
X4668555D2*
Y1489282D1*
Y1556105D2*
X4656482Y1568319D1*
X4644269Y1574355D1*
X4626159D1*
X4613946Y1568319D1*
X4601873Y1556105D1*
X4595696Y1537855D1*
Y1525782D1*
X4601873Y1507532D1*
X4613946Y1495459D1*
X4626159Y1489282D1*
X4644269D1*
X4656482Y1495459D1*
X4668555Y1507532D1*
X4707771Y1574355D2*
Y1489282D1*
Y1537855D2*
X4713948Y1556105D1*
X4726021Y1568319D1*
X4738235Y1574355D1*
X4756485D1*
X4795700D2*
Y1489282D1*
Y1550069D2*
X4813950Y1568319D1*
X4826164Y1574355D1*
X4844273D1*
X4856487Y1568319D1*
X4862523Y1550069D1*
Y1489282D1*
X4607847Y1335783D2*
X4678040D1*
X4378287Y1385566D2*
Y1276207D1*
X4323677Y1330816D2*
X4433037D1*
X4798347Y1357125D2*
Y1229515D1*
Y1338875D2*
X4810561Y1350948D1*
X4822634Y1357125D1*
X4840884D1*
X4853097Y1350948D1*
X4865170Y1338875D1*
X4871347Y1320625D1*
Y1308412D1*
X4865170Y1290302D1*
X4853097Y1278089D1*
X4840884Y1272052D1*
X4822634D1*
X4810561Y1278089D1*
X4798347Y1290302D1*
X4910563Y1399662D2*
X4916599Y1393625D1*
X4922776Y1399662D1*
X4916599Y1405839D1*
X4910563Y1399662D1*
X4916599Y1357125D2*
Y1272052D1*
X4961992Y1357125D2*
Y1272052D1*
Y1332839D2*
X4980242Y1351089D1*
X4992456Y1357125D1*
X5010565D1*
X5022779Y1351089D1*
X5028815Y1332839D1*
Y1272052D1*
X18507795Y2634899D2*
X18520008Y2647113D1*
X18526045Y2659326D1*
Y2677436D1*
X18520008Y2689649D1*
X18507795Y2701722D1*
X18489545Y2707899D1*
X18477472D1*
X18459222Y2701722D1*
X18447149Y2689649D1*
X18440972Y2677436D1*
Y2659326D1*
X18447149Y2647113D1*
X18459222Y2634899D1*
X18544155Y2595684D2*
X18550331Y2583470D1*
X18568441Y2565220D1*
X18440972D1*
X18559386Y2471395D2*
X18450027D1*
X18504636Y2526004D2*
Y2416645D1*
X18265228Y3408329D2*
X18277442Y3420543D1*
X18283478Y3432756D1*
Y3450866D1*
X18277442Y3463079D1*
X18265228Y3475152D1*
X18246978Y3481329D1*
X18234905D1*
X18216655Y3475152D1*
X18204582Y3463079D1*
X18198405Y3450866D1*
Y3432756D1*
X18204582Y3420543D1*
X18216655Y3408329D1*
X18295551Y3362937D2*
X18301588D1*
X18313801Y3356900D1*
X18319838Y3350864D1*
X18325874Y3338650D1*
Y3314364D1*
X18319838Y3302290D1*
X18313801Y3296254D1*
X18301588Y3290077D1*
X18289515D1*
X18277301Y3296254D1*
X18259192Y3308327D1*
X18198405Y3369114D1*
Y3284041D1*
X18316820Y3190215D2*
X18207460D1*
X18262070Y3244825D2*
Y3135465D1*
X18506368Y4205096D2*
X18518582Y4217309D1*
X18524618Y4229523D1*
Y4247632D1*
X18518582Y4259846D1*
X18506368Y4271919D1*
X18488118Y4278096D1*
X18476045D1*
X18457795Y4271919D1*
X18445722Y4259846D1*
X18439545Y4247632D1*
Y4229523D1*
X18445722Y4217309D1*
X18457795Y4205096D1*
X18439545Y4105094D2*
X18567014D1*
X18482082Y4165880D1*
Y4074771D1*
X18557960Y3980945D2*
X18448600D1*
X18503210Y4035555D2*
Y3926195D1*
X16789374Y1683942D2*
X16777160Y1696155D1*
X16764947Y1702192D1*
X16746837D1*
X16734624Y1696155D1*
X16722551Y1683942D1*
X16716374Y1665692D1*
Y1653619D1*
X16722551Y1635369D1*
X16734624Y1623296D1*
X16746837Y1617119D1*
X16764947D1*
X16777160Y1623296D1*
X16789374Y1635369D1*
X16840803Y1744588D2*
X16907486D1*
X16871126Y1696015D1*
X16889376D1*
X16901449Y1689978D1*
X16907486Y1683942D1*
X16913663Y1665692D1*
Y1653619D1*
X16907486Y1635369D1*
X16895413Y1623155D1*
X16877163Y1617119D1*
X16858913D1*
X16840803Y1623155D1*
X16834767Y1629332D1*
X16828590Y1641405D1*
X17007488Y1735533D2*
Y1626173D1*
X16952878Y1680783D2*
X17062238D1*
X16264975Y2725706D2*
X16277188Y2737919D1*
X16283225Y2750133D1*
Y2768242D1*
X16277188Y2780456D1*
X16264975Y2792529D1*
X16246725Y2798706D1*
X16234652D1*
X16216402Y2792529D1*
X16204329Y2780456D1*
X16198152Y2768242D1*
Y2750133D1*
X16204329Y2737919D1*
X16216402Y2725706D1*
X16325621Y2613631D2*
Y2674277D1*
X16271011Y2680313D1*
X16277048Y2674277D1*
X16283225Y2656027D1*
Y2637917D1*
X16277048Y2619667D1*
X16264975Y2607454D1*
X16246725Y2601417D1*
X16234652D1*
X16216402Y2607454D1*
X16204188Y2619667D1*
X16198152Y2637917D1*
Y2656027D1*
X16204188Y2674277D1*
X16210365Y2680313D1*
X16222438Y2686490D1*
X16316566Y2507592D2*
X16207207D1*
X16261816Y2562202D2*
Y2452842D1*
X16284807Y274428D2*
Y146819D1*
X16242271Y274428D2*
X16327344D1*
X16366559Y231892D2*
X16433382Y146819D1*
Y231892D2*
X16366559Y146819D1*
X16596045Y213642D2*
X16650654D1*
X16668904Y219819D1*
X16675081Y225855D1*
X16681118Y237928D1*
Y250142D1*
X16675081Y262215D1*
X16668904Y268392D1*
X16650654Y274428D1*
X16596045D1*
Y146819D1*
X16638581Y213642D2*
X16681118Y146819D1*
X16720333Y231892D2*
X16787156Y146819D1*
Y231892D2*
X16720333Y146819D1*
X16992355Y274428D2*
Y146819D1*
X16949819Y274428D2*
X17034892D1*
X17074107Y231892D2*
X17140930Y146819D1*
Y231892D2*
X17074107Y146819D1*
X17303593Y213642D2*
X17358202D1*
X17376452Y219819D1*
X17382629Y225855D1*
X17388666Y237928D1*
Y250142D1*
X17382629Y262215D1*
X17376452Y268392D1*
X17358202Y274428D1*
X17303593D1*
Y146819D1*
X17346129Y213642D2*
X17388666Y146819D1*
X17427881Y231892D2*
X17494704Y146819D1*
Y231892D2*
X17427881Y146819D1*
X6540501Y8174102D2*
Y8046492D1*
X6664789Y8174102D2*
Y8046492D1*
X6579716Y8174102D1*
Y8046492D1*
X6704005Y8107279D2*
X6758755D1*
X6776865Y8113315D1*
X6783042Y8119492D1*
X6789078Y8131565D1*
Y8149815D1*
X6783042Y8161888D1*
X6776865Y8168065D1*
X6758755Y8174102D1*
X6704005D1*
Y8046492D1*
X6828294Y8174102D2*
Y8082992D1*
X6834330Y8064742D1*
X6846544Y8052669D1*
X6864794Y8046492D1*
X6876867D1*
X6895117Y8052669D1*
X6907330Y8064742D1*
X6913367Y8082992D1*
Y8174102D1*
X6995119D2*
Y8046492D1*
X6952583Y8174102D2*
X7037656D1*
M02*
