G04 DipTrace 3.2.0.1*
G04 mainboard.gbr*
%MOMM*%
G04 #@! TF.FileFunction,Drawing,Top*
G04 #@! TF.Part,Single*
%AMOUTLINE0*
4,1,8,
-0.5,-0.75,
-0.25,-1.0,
0.25,-1.0,
0.5,-0.75,
0.5,0.75,
0.25,1.0,
-0.25,1.0,
-0.5,0.75,
-0.5,-0.75,
0*%
%ADD10C,0.25*%
%ADD15C,0.03333*%
G04 #@! TA.AperFunction,ComponentPad*
%ADD16C,2.0*%
%ADD17R,1.5X1.5*%
%ADD18R,1.27X1.27*%
%ADD19C,1.27*%
%ADD20C,1.5*%
%ADD21O,1.0X2.0*%
%ADD22C,1.524*%
%ADD23C,1.524*%
%ADD57C,0.23529*%
G04 #@! TA.AperFunction,ComponentPad*
%ADD58OUTLINE0*%
%FSLAX35Y35*%
G04*
G71*
G90*
G75*
G01*
G04 TopAssy*
%LPD*%
D16*
X2462167Y8716213D3*
X2716167D3*
X3001917D3*
X3255917D3*
X1922417D3*
X2176417D3*
X8653417D3*
X8907417D3*
X11685540Y858087D3*
X11939540D3*
X12209417Y842213D3*
X12463417D3*
X12717417D3*
X9542417Y8716213D3*
X9796417D3*
X8113667D3*
X8367667D3*
X7224667D3*
X7478667D3*
X6240417D3*
X6494417D3*
X5700667D3*
X5954667D3*
X13003167Y842213D3*
X13257167D3*
X13511167D3*
X5700476Y2112061D2*
D10*
X4430984D1*
X5954159D2*
X10272159D1*
X1954611Y6176036D2*
X366667D1*
Y5032959D1*
X1954611D1*
X10272159Y6938264D2*
Y2365959D1*
X6971048Y6938264D2*
Y6430467D1*
Y6684366D2*
X3795159D1*
X9764794D2*
X6971048D1*
X1954611Y5032959D2*
Y6176036D1*
X811421Y2048586D2*
Y2937764D1*
Y2048586D2*
X2144603D1*
X811421Y2937764D2*
X2144603D1*
Y2048586D1*
D17*
X10653667Y2493213D3*
Y2747213D3*
Y3001213D3*
Y3255213D3*
Y3509213D3*
Y3763213D3*
Y4017213D3*
Y4271213D3*
Y4525213D3*
Y4779213D3*
Y5033213D3*
Y5287213D3*
Y5541213D3*
Y5795213D3*
Y6049213D3*
Y6303213D3*
Y6557213D3*
X10399667Y6811213D3*
Y2493213D3*
Y2747213D3*
Y3001213D3*
Y3255213D3*
Y3509213D3*
Y3763213D3*
Y4017213D3*
Y4271213D3*
Y4525213D3*
Y4779213D3*
Y5033213D3*
Y5287213D3*
Y5541213D3*
Y5795213D3*
Y6049213D3*
Y6303213D3*
Y6557213D3*
X10653667Y6811213D3*
X5065667Y1985213D3*
X4557667D3*
X4303667D3*
X4049667D3*
X3795667D3*
X7351667D3*
X7097667D3*
X6843667D3*
X6589667D3*
X6335667D3*
X6081667D3*
X5162187Y6811213D3*
X4908187D3*
X4654187D3*
X4400187D3*
X4146187D3*
X3892187D3*
X3638187D3*
X3381647D3*
X3130187D3*
X2876187D3*
X7351667D3*
X7097667D3*
X6843667D3*
X6589667D3*
X6335667D3*
X6081667D3*
X5827667D3*
X5573667D3*
X7859667D3*
X8113667D3*
X8367667D3*
X8621667D3*
X8875667D3*
X9129667D3*
X9383667D3*
X9637667D3*
X7605667Y1985213D3*
X7859667D3*
X8367667D3*
X8621667D3*
X8875667D3*
X9129667D3*
X9383667D3*
X9637667D3*
X9891667D3*
X10145667D3*
X4811667D3*
X5573667D3*
X5319667D3*
D16*
X1382667Y8716213D3*
X1636667D3*
D18*
X11271687Y8159803D3*
D19*
X11906687D3*
D16*
X5160917Y8716213D3*
X5414917D3*
D20*
X14336667Y2493213D3*
Y2747213D3*
Y2239213D3*
Y1985213D3*
X20073007Y8140633D3*
X14336667Y3001213D3*
Y3239340D3*
X15628007Y393633D3*
X15374007D3*
X21343007Y8140633D3*
D58*
X11224067Y7604237D3*
D21*
X11351067D3*
X11478067D3*
D16*
X12177667Y8716213D3*
X12431667D3*
X12685667D3*
X12938387Y8715370D3*
X13192387D3*
X13446387D3*
X13701667Y8716213D3*
X13955667D3*
X14209667D3*
X14463667D3*
X14717667D3*
X10082167D3*
X10336167D3*
X10621917D3*
X10875917D3*
X1700667Y676667D3*
X1954667D3*
X2240420D3*
X2494420D3*
X2780170D3*
X3034170D3*
X3541667Y8716213D3*
X3795667D3*
D22*
X12065000Y7429500D3*
D23*
Y6413500D3*
D18*
X12303453Y7794717D3*
D19*
X12938453D3*
D58*
X12541553Y7239150D3*
D21*
X12668553D3*
X12795553D3*
D16*
X5985477Y779107D3*
X6239477D3*
X6524757Y778117D3*
X6778757D3*
X7065773Y778550D3*
X7319773D3*
X7606107Y779993D3*
X7860107D3*
X8362967Y788083D3*
X8616967D3*
X8903300Y789773D3*
X9157300D3*
X9443037Y789900D3*
X9697037D3*
X9982913Y789897D3*
X10236913D3*
D20*
X20327007Y8140633D3*
X20581007D3*
X20835007D3*
X21089007D3*
D16*
X4826000Y762000D3*
X5080000D3*
X5334000D3*
D22*
X13525500Y7366000D3*
D23*
Y6350000D3*
D22*
X13208000Y7366000D3*
D23*
Y6350000D3*
D22*
X13843000Y7366000D3*
D23*
Y6350000D3*
D22*
X14160500Y7366000D3*
D23*
Y6350000D3*
D22*
X14478000Y7366000D3*
D23*
Y6350000D3*
D22*
X14795500Y7366000D3*
D23*
Y6350000D3*
D22*
X11366500Y6096000D3*
D23*
X12382500D3*
D22*
X11493500Y3556000D3*
D23*
X12509500D3*
D22*
X11493500Y3238500D3*
D23*
X12509500D3*
D22*
X11493500Y2921000D3*
D23*
X12509500D3*
X13955667Y4169213D2*
D15*
X18355667D1*
Y969213D1*
X13955667D1*
Y4169213D1*
X4569050Y2234082D2*
D57*
X4634750D1*
X4656482Y2241325D1*
X4663894Y2248738D1*
X4671138Y2263225D1*
Y2285125D1*
X4663894Y2299613D1*
X4656482Y2307025D1*
X4634750Y2314269D1*
X4569050D1*
Y2161138D1*
X4761997Y2314269D2*
X4747341Y2307025D1*
X4732853Y2292369D1*
X4725441Y2277882D1*
X4718197Y2255982D1*
Y2219425D1*
X4725441Y2197694D1*
X4732853Y2183038D1*
X4747341Y2168550D1*
X4761997Y2161138D1*
X4791141D1*
X4805628Y2168550D1*
X4820285Y2183038D1*
X4827528Y2197694D1*
X4834772Y2219425D1*
Y2255982D1*
X4827528Y2277882D1*
X4820285Y2292369D1*
X4805628Y2307025D1*
X4791141Y2314269D1*
X4761997D1*
X4881831D2*
X4918387Y2161138D1*
X4954775Y2314269D1*
X4991163Y2161138D1*
X5027719Y2314269D1*
X5169453D2*
X5074778D1*
Y2161138D1*
X5169453D1*
X5074778Y2241325D2*
X5133065D1*
X5216512D2*
X5282043D1*
X5303943Y2248738D1*
X5311356Y2255982D1*
X5318600Y2270469D1*
Y2285125D1*
X5311356Y2299613D1*
X5303943Y2307025D1*
X5282043Y2314269D1*
X5216512D1*
Y2161138D1*
X5267556Y2241325D2*
X5318600Y2161138D1*
X8369048D2*
X8310592Y2314269D1*
X8252304Y2161138D1*
X8274204Y2212182D2*
X8347148D1*
X8518195Y2314269D2*
Y2161138D1*
X8416107Y2314269D1*
Y2161138D1*
X8681997D2*
X8623541Y2314269D1*
X8565254Y2161138D1*
X8587154Y2212182D2*
X8660097D1*
X8729056Y2314269D2*
Y2161138D1*
X8816488D1*
X8907347Y2314269D2*
X8892690Y2307025D1*
X8878203Y2292369D1*
X8870790Y2277882D1*
X8863547Y2255982D1*
Y2219425D1*
X8870790Y2197694D1*
X8878203Y2183038D1*
X8892690Y2168550D1*
X8907347Y2161138D1*
X8936490D1*
X8950978Y2168550D1*
X8965634Y2183038D1*
X8972878Y2197694D1*
X8980122Y2219425D1*
Y2255982D1*
X8972878Y2277882D1*
X8965634Y2292369D1*
X8950978Y2307025D1*
X8936490Y2314269D1*
X8907347D1*
X9136512Y2277882D2*
X9129268Y2292369D1*
X9114612Y2307025D1*
X9100125Y2314269D1*
X9070981D1*
X9056325Y2307025D1*
X9041837Y2292369D1*
X9034425Y2277882D1*
X9027181Y2255982D1*
Y2219425D1*
X9034425Y2197694D1*
X9041837Y2183038D1*
X9056325Y2168550D1*
X9070981Y2161138D1*
X9100125D1*
X9114612Y2168550D1*
X9129268Y2183038D1*
X9136512Y2197694D1*
Y2219425D1*
X9100125D1*
X9331707Y2314269D2*
Y2161138D1*
X9480853Y2314269D2*
Y2161138D1*
X9378766Y2314269D1*
Y2161138D1*
X10070166Y3225830D2*
X10223298D1*
Y3276874D1*
X10215886Y3298774D1*
X10201398Y3313430D1*
X10186742Y3320674D1*
X10165010Y3327918D1*
X10128454D1*
X10106554Y3320674D1*
X10092066Y3313430D1*
X10077410Y3298774D1*
X10070166Y3276874D1*
Y3225830D1*
Y3374977D2*
X10223298D1*
X10106554Y3531367D2*
X10092066Y3524123D1*
X10077410Y3509467D1*
X10070166Y3494979D1*
Y3465836D1*
X10077410Y3451179D1*
X10092066Y3436692D1*
X10106554Y3429279D1*
X10128454Y3422036D1*
X10165010Y3422035D1*
X10186742Y3429279D1*
X10201398Y3436692D1*
X10215886Y3451179D1*
X10223298Y3465835D1*
Y3494979D1*
X10215886Y3509467D1*
X10201398Y3524123D1*
X10186742Y3531367D1*
X10165010D1*
Y3494979D1*
X10070166Y3578426D2*
X10223298D1*
X10070166Y3676528D2*
X10223298D1*
X10070166Y3625485D2*
Y3727572D1*
X10223298Y3891375D2*
X10070166Y3832919D1*
X10223298Y3774631D1*
X10172254Y3796531D2*
Y3869475D1*
X10070166Y3938434D2*
X10223298D1*
Y4025865D1*
X4442749Y6552488D2*
X4508449D1*
X4530180Y6559732D1*
X4537593Y6567144D1*
X4544837Y6581632D1*
Y6603532D1*
X4537593Y6618019D1*
X4530180Y6625432D1*
X4508449Y6632676D1*
X4442749D1*
Y6479544D1*
X4591895Y6632676D2*
X4628452Y6479544D1*
X4664839Y6632676D1*
X4701227Y6479544D1*
X4737783Y6632676D1*
X4901417Y6479544D2*
Y6632676D1*
X4843130Y6479544D1*
X4784842Y6632676D1*
Y6479544D1*
X7599509Y6596288D2*
X7592265Y6610776D1*
X7577609Y6625432D1*
X7563121Y6632676D1*
X7533977D1*
X7519321Y6625432D1*
X7504834Y6610776D1*
X7497421Y6596288D1*
X7490177Y6574388D1*
Y6537832D1*
X7497421Y6516100D1*
X7504834Y6501444D1*
X7519321Y6486956D1*
X7533977Y6479544D1*
X7563121D1*
X7577609Y6486956D1*
X7592265Y6501444D1*
X7599509Y6516100D1*
X7690368Y6632676D2*
X7675712Y6625432D1*
X7661224Y6610776D1*
X7653812Y6596288D1*
X7646568Y6574388D1*
Y6537832D1*
X7653812Y6516100D1*
X7661224Y6501444D1*
X7675712Y6486956D1*
X7690368Y6479544D1*
X7719512D1*
X7733999Y6486956D1*
X7748655Y6501444D1*
X7755899Y6516100D1*
X7763143Y6537832D1*
Y6574388D1*
X7755899Y6596288D1*
X7748655Y6610776D1*
X7733999Y6625432D1*
X7719512Y6632676D1*
X7690368D1*
X7926777Y6479544D2*
Y6632676D1*
X7868490Y6479544D1*
X7810202Y6632676D1*
Y6479544D1*
X8090412D2*
Y6632676D1*
X8032124Y6479544D1*
X7973836Y6632676D1*
Y6479544D1*
X8137470Y6632676D2*
Y6523344D1*
X8144714Y6501444D1*
X8159370Y6486956D1*
X8181270Y6479544D1*
X8195758D1*
X8217658Y6486956D1*
X8232314Y6501444D1*
X8239558Y6523344D1*
Y6632676D1*
X8388705D2*
Y6479544D1*
X8286617Y6632676D1*
Y6479544D1*
X8435763Y6632676D2*
Y6479544D1*
X8592154Y6596288D2*
X8584910Y6610776D1*
X8570254Y6625432D1*
X8555766Y6632676D1*
X8526622D1*
X8511966Y6625432D1*
X8497478Y6610776D1*
X8490066Y6596288D1*
X8482822Y6574388D1*
Y6537832D1*
X8490066Y6516100D1*
X8497478Y6501444D1*
X8511966Y6486956D1*
X8526622Y6479544D1*
X8555766D1*
X8570254Y6486956D1*
X8584910Y6501444D1*
X8592154Y6516100D1*
X8755956Y6479544D2*
X8697500Y6632676D1*
X8639213Y6479544D1*
X8661113Y6530588D2*
X8734056D1*
X8854059Y6632676D2*
Y6479544D1*
X8803015Y6632676D2*
X8905103D1*
X8952162D2*
Y6479544D1*
X9043021Y6632676D2*
X9028364Y6625432D1*
X9013877Y6610776D1*
X9006464Y6596288D1*
X8999221Y6574388D1*
Y6537832D1*
X9006464Y6516100D1*
X9013877Y6501444D1*
X9028364Y6486956D1*
X9043021Y6479544D1*
X9072164D1*
X9086652Y6486956D1*
X9101308Y6501444D1*
X9108552Y6516100D1*
X9115796Y6537832D1*
Y6574388D1*
X9108552Y6596288D1*
X9101308Y6610776D1*
X9086652Y6625432D1*
X9072164Y6632676D1*
X9043021D1*
X9264942D2*
Y6479544D1*
X9162855Y6632676D1*
Y6479544D1*
M02*
